G04 DipTrace 3.0.0.1*
G04 keyboard.Bottom.gbr*
%MOMM*%
G04 #@! TF.FileFunction,Copper,L2,Bot*
G04 #@! TF.Part,Single*
G04 #@! TA.AperFunction,Conductor*
%ADD14C,0.5*%
%ADD15C,0.2*%
%ADD16C,1.0*%
G04 #@! TA.AperFunction,CopperBalancing*
%ADD17C,0.635*%
%ADD18C,0.33*%
G04 #@! TA.AperFunction,ComponentPad*
%ADD30C,1.5*%
%ADD31R,1.5X1.5*%
%ADD32C,3.0*%
%ADD33C,1.778*%
%ADD34R,1.778X1.778*%
%ADD44R,1.6X1.6*%
%ADD45C,1.6*%
%ADD46C,3.3*%
%ADD47C,1.2192*%
G04 #@! TA.AperFunction,ViaPad*
%ADD48C,1.016*%
%FSLAX35Y35*%
G04*
G71*
G90*
G75*
G01*
G04 Bottom*
%LPD*%
X4539250Y12104500D2*
D14*
X1657250D1*
X1466750Y12295000D1*
X1396000D1*
X6842000Y12491873D2*
Y11382250D1*
X6746750Y11287000D1*
X2031000Y8215190D2*
D15*
X2149810Y8334000D1*
X2368000D1*
X2475500Y8441500D1*
Y8993000D1*
X3047000Y9564500D1*
X3110500D1*
X4190000Y4246373D2*
X4213627D1*
X4240000Y4220000D1*
Y2421983D1*
X3623423Y1805407D1*
X4444000Y4246373D2*
Y4236000D1*
X4492867Y4187133D1*
Y2397983D1*
X3900290Y1805407D1*
X5048000Y4254000D2*
X5083500D1*
Y4116500D1*
X5127933Y4072067D1*
Y1925617D1*
X5007723Y1805407D1*
X5288000Y4254000D2*
X5306000D1*
X5350207Y4209793D1*
Y1871023D1*
X5284590Y1805407D1*
X5635987Y4095950D2*
Y4032443D1*
X5651863Y4016567D1*
Y1991833D1*
X5838290Y1805407D1*
X5683500Y5156500D2*
X5670927D1*
X5890013Y4937413D1*
Y2307417D1*
X6392023Y1805407D1*
X5448000Y5154000D2*
X5466000D1*
X5731247Y4888753D1*
Y2189317D1*
X6115157Y1805407D1*
X5088000Y5154000D2*
X5048550D1*
Y4635450D1*
X5413713Y4270287D1*
Y4064197D1*
X5508973Y3968937D1*
Y1805407D1*
X5561423D1*
X3936000Y5135373D2*
X3964627D1*
X4572250Y4527750D1*
Y2200533D1*
X4177123Y1805407D1*
X3803500Y3820500D2*
Y3848593D1*
X3667280Y3984813D1*
Y4634450D1*
X3551750Y4749980D1*
X4317000Y5135373D2*
X4364627D1*
X4651633Y4848367D1*
Y2003050D1*
X4453990Y1805407D1*
X4571000Y5135373D2*
X4584627D1*
X4746893Y4973107D1*
Y1789370D1*
X4730857Y1805407D1*
X3459750Y9378750D2*
Y9437507D1*
X4745623Y10723380D1*
X2904987Y5333873D2*
X2873447D1*
Y6271053D1*
X2778187Y6366313D1*
Y7771750D1*
X3761907Y8755470D1*
Y9461630D1*
X4746893Y10446617D1*
X2904987Y5333873D2*
Y4540910D1*
X2727510Y4363433D1*
X2224923D1*
X1838510Y4749847D1*
Y5379433D1*
X1584510Y5633433D1*
X1579980D1*
X1269270Y5944143D1*
X5096180Y9890933D2*
X5016373D1*
Y8667627D1*
X5318000Y8366000D1*
X5429130D1*
X4142373Y8929567D2*
Y9000633D1*
X4159457Y9017717D1*
X4699263D1*
X4762770Y9081223D1*
Y9271270D1*
X4937413Y9445913D1*
Y9938563D1*
X5032673Y10033823D1*
X5269427D1*
X5318000Y9985250D1*
Y9731250D1*
X3069690Y1805407D2*
D14*
Y2620310D1*
X2348500Y3341500D1*
X3069690Y1805407D2*
Y1766690D1*
X2903500Y1600500D1*
Y1460500D1*
X3103500Y1260500D1*
X6263500D1*
X6623500Y1620500D1*
Y3352750D1*
X6320883Y3655367D1*
X6257000D1*
X6320883D2*
Y9718130D1*
X7556377Y10953623D1*
X4555740Y9357653D2*
D15*
Y9858547D1*
X5032673Y10335480D1*
Y10827657D1*
X4937413Y10922917D1*
X3088560D1*
X2364760Y10199117D1*
X3491500Y9097190D2*
Y9032457D1*
X2619420Y8160377D1*
Y7366543D1*
X2449377Y7196500D1*
X2028310D1*
X1777000Y6945190D1*
X6959750Y9299373D2*
D14*
X7082640Y9176483D1*
X8063500D1*
Y9437500D1*
Y9945500D2*
Y9437500D1*
Y8929500D1*
X4158823Y8452683D2*
D15*
Y8451823D1*
X3420973Y7713973D1*
X2963500Y7256500D1*
Y6736500D1*
X2998253Y6701747D1*
Y6562500D1*
X4191210Y6493327D2*
X3841290Y6843247D1*
Y7293657D1*
X3420973Y7713973D1*
X1777000Y7707190D2*
Y7723000D1*
X1904000Y7850000D1*
Y8548500D1*
X3459750Y10104250D1*
Y10437690D1*
X3936000Y4246373D2*
Y4176517D1*
X4020000Y4092517D1*
Y2478850D1*
X3346557Y1805407D1*
X3301000Y6199000D2*
X3303500D1*
Y5221810D1*
X3843500Y4681810D1*
Y4156500D1*
X3888920Y4111080D1*
Y4070723D1*
X3428000Y6199000D2*
Y5240200D1*
X4078877Y4589323D1*
Y4208283D1*
X4143580Y4143580D1*
Y4064197D1*
X3555000Y6199000D2*
Y5271967D1*
X4317000Y4509967D1*
Y4144803D1*
X4397607Y4064197D1*
X3555000Y7151500D2*
Y6812003D1*
X3999500Y6367503D1*
Y6008500D1*
X4826277Y5181723D1*
Y4212980D1*
X4984410Y4054847D1*
X3682000Y7151500D2*
Y6843770D1*
X4080073Y6445697D1*
Y6078427D1*
X4889783Y5268717D1*
Y4633717D1*
X5166000Y4357500D1*
Y4169020D1*
X5254947Y4080073D1*
X4698000Y6199000D2*
Y5748387D1*
X5175123Y5271263D1*
Y4729377D1*
X5477220Y4427280D1*
Y4226780D1*
X5503500Y4200500D1*
X3682000Y6199000D2*
Y5320000D1*
X3788000Y5214000D1*
X3301000Y7151500D2*
Y6748470D1*
X3841923Y6207547D1*
Y5480077D1*
X4108000Y5214000D1*
X3428000Y7151500D2*
Y6780237D1*
X3921307Y6286930D1*
Y5740693D1*
X4428000Y5234000D1*
X4571000Y6199000D2*
Y5754500D1*
X4952000Y5373500D1*
Y5319743D1*
X4985043Y5286700D1*
X4825000Y6199000D2*
Y5754500D1*
X5269500Y5310000D1*
Y5307760D1*
X5288000Y5289260D1*
X4952000Y6199000D2*
Y5843673D1*
X5486413Y5309260D1*
X5568000D1*
X1396000Y11787000D2*
D16*
Y11841000D1*
X1523873D1*
X1650873Y11714000D1*
X4649627D1*
X5349750Y12414123D1*
Y12460123D1*
X5318000Y12491873D1*
X6794377Y3651123D2*
D14*
Y5810123D1*
X6572710Y6031790D1*
Y8200710D1*
X7301500Y8929500D1*
X7032500Y3413000D2*
Y6033537D1*
X6858490Y6207547D1*
Y8232490D1*
X7555500Y8929500D1*
X2031000Y6945190D2*
D15*
X2036810D1*
X2148000Y6834000D1*
Y6434000D1*
X2268000Y6314000D1*
Y6276750D1*
X3174000Y5191440D2*
Y6018130D1*
X3095720Y6096410D1*
Y6064657D1*
X2475500Y5183000D2*
Y5212000D1*
X2496060Y5191440D1*
X2508283D1*
X2349517Y5032673D1*
Y4635757D1*
X2475500Y5212000D2*
Y6500690D1*
X2285000Y6691190D1*
X6017027Y5239070D2*
Y5714350D1*
X5825123Y5906253D1*
Y8103627D1*
X5142097Y8786653D1*
X3555000Y10707567D2*
Y10739317D1*
X3650250Y10834567D1*
X4380500D1*
X4475750Y10739317D1*
X2285000Y8215190D2*
X2413047D1*
X2539000Y8341143D1*
Y8834313D1*
X3683157Y9978470D1*
Y10494247D1*
Y10579410D1*
X3555000Y10707567D1*
X3683157Y10494247D2*
Y10573630D1*
X3540267Y10716520D1*
X3302117D1*
X2587667Y10002070D1*
X2206627D1*
X2096457Y10112240D1*
X2127127D1*
D48*
X3174000Y5191440D3*
X3095720Y6064657D3*
X2349517Y4635757D3*
X6017027Y5239070D3*
X4444000Y4246373D3*
X4190000D3*
X3936000D3*
X4571000Y5135373D3*
X4317000D3*
X3936000D3*
X5683500Y5156500D3*
X5448000Y5154000D3*
X5088000D3*
X5048000Y4254000D3*
X5288000D3*
X5635987Y4095950D3*
X3459750Y9378750D3*
X4745623Y10723380D3*
X3822880Y3386627D3*
X4122880D3*
X7556377Y10953623D3*
X6257000Y3655367D3*
X2348500Y3341500D3*
X3803500Y3820500D3*
X3551750Y4749980D3*
X4343497Y3386627D3*
X4142373Y8929567D3*
X5002880Y3386627D3*
X6001150Y3175103D3*
X5600000Y5520000D3*
X5905890Y5366083D3*
X6103500Y6182263D3*
X3110500Y9564500D3*
X5429130Y8366000D3*
X2998253Y6562500D3*
X6440000Y5951137D3*
X4191210Y6493327D3*
X4555740Y9357653D3*
X4158823Y8452683D3*
X2268000Y6276750D3*
X2904987Y5333873D3*
X3459750Y10437690D3*
X2475500Y5183000D3*
X4746893Y10446617D3*
X3788000Y5214000D3*
X4108000D3*
X4428000Y5234000D3*
X4985043Y5286700D3*
X5288000Y5289260D3*
X5568000Y5309260D3*
X3888920Y4070723D3*
X4143580Y4064197D3*
X4397607D3*
X4984410Y4054847D3*
X5254947Y4080073D3*
X5503500Y4200500D3*
X3301000Y6199000D3*
X3428000D3*
X3555000D3*
X3682000D3*
X4571000D3*
X4698000D3*
X4825000D3*
X4952000D3*
X3301000Y7151500D3*
X3428000D3*
X3555000D3*
X3682000D3*
X5411753Y8960000D3*
X4889783Y9128853D3*
X5548000Y7934000D3*
X4828000Y8114000D3*
X3928000Y7594000D3*
X3388000Y7874000D3*
X5206000Y6103750D3*
X4348000Y6114000D3*
X4444000Y7151500D3*
X4000000Y7260000D3*
X6959750Y9299373D3*
X3491500Y9097190D3*
X3809877Y3143123D3*
X2127127Y10112240D3*
X4127377Y3143123D3*
X4349617D3*
X6794377Y3651123D3*
X8248000Y12934000D3*
X7365877Y12412500D3*
X4948000Y12426000D3*
X3745500Y12422000D3*
X3364500Y12215623D3*
X2508000Y12260000D3*
X3268000Y11320000D3*
X3810170Y11335710D3*
X2648000Y10934000D3*
X1840500Y11025000D3*
X1468000Y12774000D3*
X1396000Y5056000D3*
Y10009000D3*
X7032500Y3413000D3*
X7191900Y4699263D3*
X2619420Y6382190D3*
X2748617Y5854000D3*
X1408000Y7914000D3*
Y7154000D3*
X1388000Y6321000D3*
X6032377Y11255250D3*
X1399750Y3974000D3*
Y3294000D3*
X7858000Y10540873D3*
X6778500Y10747250D3*
X5270377Y10398000D3*
X6699127Y11477500D3*
X6683250Y11874373D3*
X1904000Y3976500D3*
X5302127Y11842623D3*
X6460130Y4770250D3*
X3206623Y9175623D3*
X6746750Y11287000D3*
X3729627Y10707567D3*
X3555000D3*
X4475750Y10739317D3*
X5096180Y9890933D3*
X1317533Y2060747D3*
X2364760Y10199117D3*
X4539250Y12104500D3*
X5318000Y9731250D3*
X1104163Y13839083D2*
D17*
X1317557D1*
X1682483D2*
X7817500D1*
X8182427D2*
X8395947D1*
X1104163Y13775917D2*
X1229377D1*
X1770663D2*
X5421120D1*
X5694890D2*
X6461057D1*
X6734950D2*
X7729320D1*
X8270607D2*
X8395947D1*
X1104163Y13712750D2*
X1176293D1*
X1823747D2*
X5340380D1*
X5775630D2*
X6380317D1*
X6815690D2*
X7676240D1*
X8323690D2*
X8395947D1*
X1104163Y13649583D2*
X1142137D1*
X1857977D2*
X5298090D1*
X5817920D2*
X6338150D1*
X6857857D2*
X7642007D1*
X8357920D2*
X8395947D1*
X1878563Y13586417D2*
X5276137D1*
X5839873D2*
X6316197D1*
X6879810D2*
X7621420D1*
X1887743Y13523250D2*
X5269563D1*
X5846447D2*
X6309623D1*
X6886383D2*
X7612243D1*
X1886377Y13460083D2*
X5277377D1*
X5838633D2*
X6317313D1*
X6878693D2*
X7613607D1*
X1104163Y13396917D2*
X1125783D1*
X1874223D2*
X5300817D1*
X5815193D2*
X6340753D1*
X6855253D2*
X7625760D1*
X8374293D2*
X8395947D1*
X1104163Y13333750D2*
X1149573D1*
X1850410D2*
X5345093D1*
X5770917D2*
X6385153D1*
X6810853D2*
X7649573D1*
X8350357D2*
X8395947D1*
X1104163Y13270583D2*
X1188077D1*
X1811840D2*
X5431663D1*
X5684347D2*
X6471600D1*
X6724283D2*
X7688143D1*
X8311907D2*
X8395947D1*
X1104163Y13207417D2*
X1247980D1*
X1752060D2*
X2220943D1*
X2284120D2*
X3424963D1*
X3488017D2*
X7747923D1*
X8252130D2*
X8395947D1*
X1104163Y13144250D2*
X1354267D1*
X1645773D2*
X2085510D1*
X2419553D2*
X3289530D1*
X3623573D2*
X7854213D1*
X8145717D2*
X8395947D1*
X1104163Y13081083D2*
X2038753D1*
X2466310D2*
X3242773D1*
X3670207D2*
X8395947D1*
X1104163Y13017917D2*
X2017547D1*
X2487397D2*
X3221563D1*
X3691413D2*
X8395947D1*
X1104163Y12954750D2*
X2014940D1*
X2490123D2*
X3218837D1*
X3694143D2*
X8395947D1*
X1104163Y12891583D2*
X2029947D1*
X2475117D2*
X3233967D1*
X3679013D2*
X4910143D1*
X5179820D2*
X6980093D1*
X7249897D2*
X8395947D1*
X1104163Y12828417D2*
X2067153D1*
X2437787D2*
X2642003D1*
X2817050D2*
X2892033D1*
X3066957D2*
X3271173D1*
X3641807D2*
X4862767D1*
X5227197D2*
X6932717D1*
X7297273D2*
X8395947D1*
X1104163Y12765250D2*
X2149507D1*
X2355433D2*
X2588550D1*
X3120537D2*
X3353527D1*
X3559453D2*
X4845280D1*
X5244683D2*
X6915353D1*
X7314637D2*
X8395947D1*
X1104163Y12702083D2*
X2575900D1*
X3133060D2*
X4849373D1*
X5379373D2*
X5764667D1*
X5887373D2*
X6272667D1*
X6395373D2*
X6780667D1*
X7310667D2*
X8395947D1*
X1104163Y12638917D2*
X2575900D1*
X3117187D2*
X4876410D1*
X5484297D2*
X5659617D1*
X5992297D2*
X6167617D1*
X6500297D2*
X6675617D1*
X7283507D2*
X8395947D1*
X1104163Y12575750D2*
X2575900D1*
X3115327D2*
X4944747D1*
X5524853D2*
X5619187D1*
X6032853D2*
X6127187D1*
X6540853D2*
X6635187D1*
X7215170D2*
X8395947D1*
X1104163Y12512583D2*
X2575900D1*
X3132937D2*
X5095310D1*
X5540603D2*
X5603310D1*
X6048603D2*
X6111310D1*
X6556603D2*
X6619310D1*
X7064603D2*
X8395947D1*
X1104163Y12449417D2*
X1236817D1*
X1555237D2*
X2575900D1*
X3122023D2*
X5098537D1*
X5537503D2*
X5606537D1*
X6045503D2*
X6114537D1*
X6553503D2*
X6622537D1*
X7061503D2*
X8395947D1*
X1104163Y12386250D2*
X1192417D1*
X1599510D2*
X2575900D1*
X3072290D2*
X5121727D1*
X5514187D2*
X5629727D1*
X6022187D2*
X6137727D1*
X6530187D2*
X6645727D1*
X7038187D2*
X8395947D1*
X1104163Y12323083D2*
X1174187D1*
X1617867D2*
X5086503D1*
X5461230D2*
X5682810D1*
X5969230D2*
X6190810D1*
X6477230D2*
X6698810D1*
X6985230D2*
X8395947D1*
X1104163Y12259917D2*
X1175177D1*
X1638703D2*
X5023377D1*
X5367717D2*
X6743333D1*
X6940580D2*
X8395947D1*
X1104163Y12196750D2*
X1195890D1*
X4619357D2*
X4960127D1*
X5304587D2*
X6743333D1*
X6940580D2*
X8395947D1*
X1104163Y12133583D2*
X1244133D1*
X4660037D2*
X4896997D1*
X5241460D2*
X6743333D1*
X6940580D2*
X8395947D1*
X1104163Y12070417D2*
X1554440D1*
X4658673D2*
X4833870D1*
X5178207D2*
X6743333D1*
X6940580D2*
X8395947D1*
X1104163Y12007250D2*
X4465893D1*
X4612537D2*
X4770617D1*
X5115080D2*
X6743333D1*
X6940580D2*
X8395947D1*
X1104163Y11944083D2*
X1239547D1*
X1586117D2*
X4707490D1*
X5051953D2*
X6743333D1*
X6940580D2*
X8395947D1*
X1104163Y11880917D2*
X1193657D1*
X1656190D2*
X4644360D1*
X4988823D2*
X6743333D1*
X6940580D2*
X8395947D1*
X1104163Y11817750D2*
X1174557D1*
X4925573D2*
X6743333D1*
X6940580D2*
X8395947D1*
X1104163Y11754583D2*
X1174807D1*
X4862443D2*
X6743333D1*
X6940580D2*
X8395947D1*
X1104163Y11691417D2*
X1194527D1*
X4799317D2*
X6743333D1*
X6940580D2*
X8395947D1*
X1104163Y11628250D2*
X1241283D1*
X4735940D2*
X6743333D1*
X6940580D2*
X8395947D1*
X1104163Y11565083D2*
X6743333D1*
X6940580D2*
X8395947D1*
X1104163Y11501917D2*
X2151740D1*
X2388177D2*
X2659740D1*
X2896177D2*
X6743333D1*
X6940580D2*
X8395947D1*
X1104163Y11438750D2*
X1242400D1*
X1549653D2*
X2123587D1*
X2416453D2*
X2631587D1*
X2924453D2*
X6743333D1*
X6940580D2*
X8395947D1*
X1104163Y11375583D2*
X1195020D1*
X1597030D2*
X2126687D1*
X2413353D2*
X2634687D1*
X2921353D2*
X6662347D1*
X6940457D2*
X8395947D1*
X1104163Y11312417D2*
X1174930D1*
X1617000D2*
X2164017D1*
X2376023D2*
X2672017D1*
X2884023D2*
X6625017D1*
X6909080D2*
X8395947D1*
X1104163Y11249250D2*
X1174433D1*
X1617620D2*
X3295853D1*
X3530183D2*
X3549880D1*
X3784183D2*
X3803880D1*
X4038183D2*
X4057880D1*
X4292183D2*
X4311880D1*
X4546183D2*
X4565880D1*
X4800183D2*
X6628490D1*
X6865050D2*
X8395947D1*
X1104163Y11186083D2*
X1193287D1*
X1598767D2*
X3266833D1*
X4829207D2*
X6679090D1*
X6814450D2*
X8395947D1*
X1104163Y11122917D2*
X1238430D1*
X1553500D2*
X3269313D1*
X4826727D2*
X8395947D1*
X1104163Y11059750D2*
X3305653D1*
X3520387D2*
X3559787D1*
X3774387D2*
X3813787D1*
X4028387D2*
X4067787D1*
X4282387D2*
X4321787D1*
X4536387D2*
X4575787D1*
X4790387D2*
X7498263D1*
X7614523D2*
X8395947D1*
X1104163Y10996583D2*
X3058847D1*
X4967120D2*
X7439973D1*
X7672690D2*
X8395947D1*
X1104163Y10933417D2*
X2983440D1*
X5042527D2*
X7399293D1*
X7679017D2*
X8395947D1*
X1104163Y10870250D2*
X2920187D1*
X5103547D2*
X7336167D1*
X7646400D2*
X8395947D1*
X1104163Y10807083D2*
X2857060D1*
X3088413D2*
X3485113D1*
X4578803D2*
X4656020D1*
X4835283D2*
X4937553D1*
X5116320D2*
X7272913D1*
X7546683D2*
X8395947D1*
X1104163Y10743917D2*
X2793933D1*
X3025160D2*
X3213877D1*
X3675293D2*
X4351417D1*
X4600133D2*
X4622923D1*
X4868273D2*
X4949087D1*
X5116320D2*
X7209787D1*
X7483557D2*
X8395947D1*
X1104163Y10680750D2*
X2730680D1*
X2962033D2*
X3150747D1*
X3697493D2*
X4366797D1*
X4862073D2*
X4949087D1*
X5116320D2*
X7146657D1*
X7420427D2*
X8395947D1*
X1104163Y10617583D2*
X2667553D1*
X2898907D2*
X3087497D1*
X3318850D2*
X3472217D1*
X3756650D2*
X4524183D1*
X4804400D2*
X4949087D1*
X5116320D2*
X7083530D1*
X7357177D2*
X8395947D1*
X1104163Y10554417D2*
X2604423D1*
X2835653D2*
X3024367D1*
X3255720D2*
X3435503D1*
X3483970D2*
X3586690D1*
X3766820D2*
X4461053D1*
X4801423D2*
X4949087D1*
X5116320D2*
X7020280D1*
X7294047D2*
X8395947D1*
X1104163Y10491250D2*
X2541297D1*
X2772527D2*
X2961240D1*
X3192470D2*
X3348193D1*
X3571360D2*
X3599570D1*
X3766820D2*
X4397803D1*
X4862567D2*
X4949087D1*
X5116320D2*
X6957150D1*
X7230920D2*
X8395947D1*
X1104163Y10428083D2*
X2478043D1*
X2709397D2*
X2897987D1*
X3129340D2*
X3335667D1*
X3766820D2*
X4334673D1*
X4566027D2*
X4612607D1*
X4869887D2*
X4949087D1*
X5116320D2*
X6894023D1*
X7167667D2*
X8395947D1*
X1104163Y10364917D2*
X2414917D1*
X2646270D2*
X2834860D1*
X3066213D2*
X3360347D1*
X3559083D2*
X3599547D1*
X3766820D2*
X4271547D1*
X4502777D2*
X4549603D1*
X4838507D2*
X4946483D1*
X5116320D2*
X6830770D1*
X7104540D2*
X8395947D1*
X1104163Y10301750D2*
X2299947D1*
X2583017D2*
X2771730D1*
X3002960D2*
X3376097D1*
X3543330D2*
X3599463D1*
X3766820D2*
X4208297D1*
X4439650D2*
X4486360D1*
X4717710D2*
X4883230D1*
X5108507D2*
X6767643D1*
X7041413D2*
X8395947D1*
X1104163Y10238583D2*
X2247113D1*
X2519890D2*
X2708480D1*
X2939833D2*
X3376097D1*
X3543330D2*
X3599463D1*
X3766820D2*
X4145167D1*
X4376520D2*
X4423113D1*
X4654457D2*
X4820103D1*
X5051457D2*
X6704513D1*
X6978160D2*
X8395947D1*
X1104163Y10175417D2*
X2021017D1*
X2486777D2*
X2645350D1*
X2876703D2*
X3376097D1*
X3543330D2*
X3599463D1*
X3766820D2*
X4082040D1*
X4313270D2*
X4360100D1*
X4591330D2*
X4756973D1*
X4988203D2*
X6641263D1*
X6915033D2*
X8395947D1*
X1104163Y10112250D2*
X2002663D1*
X2251627D2*
X2278433D1*
X2451057D2*
X2582223D1*
X2813453D2*
X3352037D1*
X3543330D2*
X3599463D1*
X3766820D2*
X4018787D1*
X4250140D2*
X4296847D1*
X4528200D2*
X4693847D1*
X4925077D2*
X6578133D1*
X6851903D2*
X8395947D1*
X1104163Y10049083D2*
X2021017D1*
X2750327D2*
X3288910D1*
X3520263D2*
X3599463D1*
X3766820D2*
X3955660D1*
X4187013D2*
X4233590D1*
X4465073D2*
X4630593D1*
X4861947D2*
X4932220D1*
X5369823D2*
X6515007D1*
X6788653D2*
X7197633D1*
X7405420D2*
X7451633D1*
X7659420D2*
X7705633D1*
X7913420D2*
X7959633D1*
X8167420D2*
X8395947D1*
X1104163Y9985917D2*
X2107090D1*
X2687197D2*
X3225780D1*
X3457010D2*
X3574907D1*
X3766820D2*
X3892530D1*
X4123760D2*
X4170563D1*
X4401820D2*
X4567467D1*
X4798820D2*
X4869960D1*
X5401697D2*
X6451753D1*
X6725523D2*
X7158690D1*
X8206240D2*
X8395947D1*
X1104163Y9922750D2*
X3162653D1*
X3393883D2*
X3511780D1*
X3743133D2*
X3829280D1*
X4060633D2*
X4107300D1*
X4338693D2*
X4504340D1*
X4735567D2*
X4853713D1*
X5401697D2*
X6388627D1*
X6662397D2*
X7154720D1*
X8210333D2*
X8395947D1*
X1104163Y9859583D2*
X3099400D1*
X3330753D2*
X3448650D1*
X3679880D2*
X3766150D1*
X3997503D2*
X4044213D1*
X4275567D2*
X4472093D1*
X4672440D2*
X4853713D1*
X5401697D2*
X6325500D1*
X6599143D2*
X7181757D1*
X8183297D2*
X8395947D1*
X1104163Y9796417D2*
X3036273D1*
X3267627D2*
X3385400D1*
X3616753D2*
X3703023D1*
X3934253D2*
X3981083D1*
X4212313D2*
X4472093D1*
X4639327D2*
X4853713D1*
X5173370D2*
X5213100D1*
X5422783D2*
X6262247D1*
X6536017D2*
X7964840D1*
X8162087D2*
X8395947D1*
X1104163Y9733250D2*
X2973147D1*
X3204373D2*
X3322270D1*
X3553623D2*
X3639897D1*
X3871123D2*
X3917833D1*
X4149187D2*
X4472093D1*
X4639327D2*
X4853713D1*
X5100073D2*
X5193537D1*
X5442377D2*
X6223553D1*
X6472890D2*
X7964840D1*
X8162087D2*
X8395947D1*
X1104163Y9670083D2*
X2909893D1*
X3169773D2*
X3259143D1*
X3490373D2*
X3576643D1*
X3807997D2*
X3854703D1*
X4086057D2*
X4472093D1*
X4639327D2*
X4853713D1*
X5100073D2*
X5210653D1*
X5425387D2*
X6222187D1*
X6419560D2*
X7964840D1*
X8162087D2*
X8395947D1*
X1104163Y9606917D2*
X2846767D1*
X3427247D2*
X3513517D1*
X3744870D2*
X3791577D1*
X4022807D2*
X4472093D1*
X4639327D2*
X4853713D1*
X5100073D2*
X6222187D1*
X6419560D2*
X7964840D1*
X8162087D2*
X8395947D1*
X1104163Y9543750D2*
X2783637D1*
X3364117D2*
X3450387D1*
X3681617D2*
X3728323D1*
X3959677D2*
X4472093D1*
X4639327D2*
X4853713D1*
X5100073D2*
X6222187D1*
X6419560D2*
X7200483D1*
X7402443D2*
X7454483D1*
X7656443D2*
X7708483D1*
X7910443D2*
X7962483D1*
X8164443D2*
X8395947D1*
X1104163Y9480583D2*
X2720387D1*
X3300867D2*
X3389243D1*
X3618490D2*
X3680577D1*
X3896550D2*
X4472093D1*
X4639327D2*
X4853713D1*
X5100073D2*
X6222187D1*
X6419560D2*
X7159557D1*
X8205497D2*
X8395947D1*
X1104163Y9417417D2*
X2657257D1*
X3237737D2*
X3341867D1*
X3577687D2*
X3678220D1*
X3845577D2*
X4447537D1*
X4663883D2*
X4793313D1*
X5100073D2*
X6222187D1*
X6419560D2*
X7154223D1*
X8210703D2*
X8395947D1*
X1104163Y9354250D2*
X2594130D1*
X3174610D2*
X3337900D1*
X3581653D2*
X3678220D1*
X3845577D2*
X4431290D1*
X4680130D2*
X4730060D1*
X5100073D2*
X6222187D1*
X6419560D2*
X6848877D1*
X7070680D2*
X7179773D1*
X8185280D2*
X8395947D1*
X1104163Y9291083D2*
X2530877D1*
X3111480D2*
X3374237D1*
X3545190D2*
X3678220D1*
X3845577D2*
X4451877D1*
X4659667D2*
X4681693D1*
X4898287D2*
X4932687D1*
X5100073D2*
X6222187D1*
X6419560D2*
X6835607D1*
X7104913D2*
X7964840D1*
X8162087D2*
X8395947D1*
X1104163Y9227917D2*
X2467750D1*
X3048230D2*
X3678220D1*
X3845577D2*
X4679087D1*
X4846447D2*
X4932717D1*
X5100073D2*
X6222187D1*
X6419560D2*
X6859420D1*
X8162087D2*
X8395947D1*
X1104163Y9164750D2*
X2404623D1*
X2985100D2*
X3388253D1*
X3594677D2*
X3678220D1*
X3845577D2*
X4679087D1*
X4846447D2*
X4932717D1*
X5100073D2*
X6222187D1*
X6419560D2*
X6957523D1*
X8162087D2*
X8395947D1*
X1104163Y9101583D2*
X2341370D1*
X2921973D2*
X3367167D1*
X3615883D2*
X3678220D1*
X3845577D2*
X4667430D1*
X4846447D2*
X4932717D1*
X5100073D2*
X6222187D1*
X6419560D2*
X7022387D1*
X8162087D2*
X8395947D1*
X1104163Y9038417D2*
X2278243D1*
X2858720D2*
X3381803D1*
X3600257D2*
X3678220D1*
X3845577D2*
X4068643D1*
X4833423D2*
X4932717D1*
X5100073D2*
X6222187D1*
X6419560D2*
X7203587D1*
X7399467D2*
X7457587D1*
X7653467D2*
X7711587D1*
X7907467D2*
X7964840D1*
X8162087D2*
X8395947D1*
X1104163Y8975250D2*
X2215113D1*
X2795593D2*
X3318673D1*
X3549903D2*
X3678220D1*
X3845577D2*
X4027097D1*
X4772403D2*
X4932717D1*
X5100073D2*
X6222187D1*
X6419560D2*
X7160423D1*
X8204627D2*
X8395947D1*
X1104163Y8912083D2*
X2151987D1*
X2732467D2*
X3255423D1*
X3486777D2*
X3678220D1*
X3845577D2*
X4019283D1*
X4265520D2*
X4306520D1*
X4453663D2*
X4560520D1*
X4707663D2*
X4814520D1*
X5215663D2*
X6222187D1*
X6419560D2*
X7147153D1*
X8211077D2*
X8395947D1*
X1104163Y8848917D2*
X2088733D1*
X2320087D2*
X2391847D1*
X2669213D2*
X3192297D1*
X3423650D2*
X3678220D1*
X3845577D2*
X4049793D1*
X5276433D2*
X6222187D1*
X6419560D2*
X7084027D1*
X8187140D2*
X8395947D1*
X1104163Y8785750D2*
X2025607D1*
X2256960D2*
X2391847D1*
X2622580D2*
X3129167D1*
X3360397D2*
X3676483D1*
X3845577D2*
X4231487D1*
X5290697D2*
X6222187D1*
X6419560D2*
X7020900D1*
X7548667D2*
X8395947D1*
X1104163Y8722583D2*
X1962480D1*
X2193707D2*
X2391847D1*
X2622580D2*
X3065917D1*
X3297270D2*
X3613353D1*
X3838260D2*
X4246743D1*
X5321827D2*
X6222187D1*
X6419560D2*
X6957770D1*
X7485417D2*
X8395947D1*
X1104163Y8659417D2*
X1899227D1*
X2130580D2*
X2391847D1*
X2622580D2*
X3002787D1*
X3407400D2*
X3550227D1*
X3889977D2*
X4309993D1*
X4450190D2*
X4563993D1*
X4704190D2*
X4817993D1*
X5384953D2*
X6222187D1*
X6419560D2*
X6894520D1*
X7422287D2*
X8395947D1*
X1104163Y8596250D2*
X1706617D1*
X2101433D2*
X2136293D1*
X2622580D2*
X2939660D1*
X3170890D2*
X3200583D1*
X3455400D2*
X3486927D1*
X3938097D2*
X4972157D1*
X5448207D2*
X6222187D1*
X6419560D2*
X6831390D1*
X7359160D2*
X8395947D1*
X1104163Y8533083D2*
X1643490D1*
X2622580D2*
X2876530D1*
X3107760D2*
X3195147D1*
X3655200D2*
X3677810D1*
X3943430D2*
X4066040D1*
X4251630D2*
X5035283D1*
X5511333D2*
X6222187D1*
X6419560D2*
X6768263D1*
X7295907D2*
X8395947D1*
X1104163Y8469917D2*
X1628360D1*
X2622580D2*
X2813280D1*
X3044633D2*
X3224790D1*
X3591947D2*
X3707363D1*
X3913790D2*
X4035653D1*
X4282013D2*
X5098410D1*
X5574463D2*
X6222187D1*
X6419560D2*
X6705010D1*
X7232780D2*
X8395947D1*
X1104163Y8406750D2*
X1642747D1*
X2622580D2*
X2750150D1*
X2981503D2*
X3297590D1*
X3528820D2*
X3998077D1*
X4273953D2*
X5161540D1*
X5637713D2*
X6222187D1*
X6419560D2*
X6641883D1*
X7169653D2*
X8395947D1*
X1104163Y8343583D2*
X1703767D1*
X2622580D2*
X2687023D1*
X2918253D2*
X3234340D1*
X3465693D2*
X3934947D1*
X4210330D2*
X5224790D1*
X5700843D2*
X6222187D1*
X6419560D2*
X6578753D1*
X7106400D2*
X8395947D1*
X1104163Y8280417D2*
X1644233D1*
X2593930D2*
X2623770D1*
X2855123D2*
X3171210D1*
X3402563D2*
X3871820D1*
X4103050D2*
X5341373D1*
X5763970D2*
X6222187D1*
X6419560D2*
X6515503D1*
X7043273D2*
X8395947D1*
X1104163Y8217250D2*
X1628360D1*
X2530803D2*
X2560643D1*
X2791997D2*
X3108083D1*
X3339313D2*
X3808567D1*
X4039920D2*
X5595870D1*
X5827100D2*
X6222187D1*
X6419560D2*
X6475567D1*
X6726143D2*
X6759947D1*
X6980143D2*
X8395947D1*
X1104163Y8154083D2*
X1642127D1*
X2466683D2*
X2535840D1*
X2728747D2*
X3044830D1*
X3276183D2*
X3745440D1*
X3976793D2*
X5658997D1*
X5889980D2*
X6222187D1*
X6419560D2*
X6474080D1*
X6671327D2*
X6759830D1*
X6957077D2*
X8395947D1*
X1104163Y8090917D2*
X1701410D1*
X2106643D2*
X2209410D1*
X2360643D2*
X2535840D1*
X2703073D2*
X2981703D1*
X3213057D2*
X3682310D1*
X3913540D2*
X5722127D1*
X5908707D2*
X6222187D1*
X6419560D2*
X6474080D1*
X6671327D2*
X6759830D1*
X6957077D2*
X8395947D1*
X1104163Y8027750D2*
X1820347D1*
X1987580D2*
X2535840D1*
X2703073D2*
X2918577D1*
X3149803D2*
X3619060D1*
X3850413D2*
X5741473D1*
X5908707D2*
X6222187D1*
X6419560D2*
X6474080D1*
X6671327D2*
X6759830D1*
X6957077D2*
X8395947D1*
X1104163Y7964583D2*
X1820347D1*
X1987580D2*
X2535840D1*
X2703073D2*
X2855323D1*
X3086677D2*
X3555933D1*
X3787287D2*
X5741473D1*
X5908707D2*
X6222187D1*
X6419560D2*
X6474080D1*
X6671327D2*
X6759830D1*
X6957077D2*
X8395947D1*
X1104163Y7901417D2*
X1820347D1*
X1987580D2*
X2535840D1*
X2703073D2*
X2792197D1*
X3023550D2*
X3492803D1*
X3724033D2*
X5741473D1*
X5908707D2*
X6222187D1*
X6419560D2*
X6474080D1*
X6671327D2*
X6759830D1*
X6957077D2*
X8395947D1*
X1104163Y7838250D2*
X1715300D1*
X2092753D2*
X2136263D1*
X2433693D2*
X2535840D1*
X2703073D2*
X2729087D1*
X2960297D2*
X3429553D1*
X3660907D2*
X5741473D1*
X5908707D2*
X6222187D1*
X6419560D2*
X6474080D1*
X6671327D2*
X6759830D1*
X6957077D2*
X8395947D1*
X1104163Y7775083D2*
X1645600D1*
X2433693D2*
X2535840D1*
X2897170D2*
X3366423D1*
X3597777D2*
X5741473D1*
X5908707D2*
X6222187D1*
X6419560D2*
X6474080D1*
X6671327D2*
X6759830D1*
X6957077D2*
X8395947D1*
X1104163Y7711917D2*
X1628483D1*
X2433693D2*
X2535840D1*
X2861823D2*
X3303297D1*
X3538743D2*
X5741473D1*
X5908707D2*
X6222187D1*
X6419560D2*
X6474080D1*
X6671327D2*
X6759830D1*
X6957077D2*
X8395947D1*
X1104163Y7648750D2*
X1640887D1*
X2433693D2*
X2535840D1*
X2861823D2*
X3240043D1*
X3601870D2*
X5741473D1*
X5908707D2*
X6222187D1*
X6419560D2*
X6474080D1*
X6671327D2*
X6759830D1*
X6957077D2*
X8395947D1*
X1104163Y7585583D2*
X1696820D1*
X1857233D2*
X1950820D1*
X2433693D2*
X2535840D1*
X2861823D2*
X3176917D1*
X3408270D2*
X3433730D1*
X3664997D2*
X5741473D1*
X5908707D2*
X6222187D1*
X6419560D2*
X6474080D1*
X6671327D2*
X6759830D1*
X6957077D2*
X8395947D1*
X1104163Y7522417D2*
X1646343D1*
X2415710D2*
X2535840D1*
X2861823D2*
X3113787D1*
X3345017D2*
X3496897D1*
X3728127D2*
X4610503D1*
X4785427D2*
X4864503D1*
X5039427D2*
X5741473D1*
X5908707D2*
X6222187D1*
X6419560D2*
X6474080D1*
X6671327D2*
X6759830D1*
X6957077D2*
X8395947D1*
X1104163Y7459250D2*
X1628483D1*
X2433570D2*
X2535840D1*
X2861823D2*
X3050537D1*
X3281890D2*
X3560023D1*
X3791377D2*
X4559900D1*
X5090150D2*
X5741473D1*
X5908707D2*
X6222187D1*
X6419560D2*
X6474080D1*
X6671327D2*
X6759830D1*
X6957077D2*
X8395947D1*
X1104163Y7396083D2*
X1640267D1*
X2421663D2*
X2533360D1*
X2861823D2*
X2987407D1*
X3218760D2*
X3623153D1*
X3854507D2*
X4549730D1*
X5100320D2*
X5741473D1*
X5908707D2*
X6222187D1*
X6419560D2*
X6474080D1*
X6671327D2*
X6759830D1*
X6957077D2*
X8395947D1*
X1104163Y7332917D2*
X1694587D1*
X1859340D2*
X1948587D1*
X2113340D2*
X2202587D1*
X2367340D2*
X2470107D1*
X2861823D2*
X2924280D1*
X3155510D2*
X3686403D1*
X3914160D2*
X4569203D1*
X5080727D2*
X5741473D1*
X5908707D2*
X6222187D1*
X6419560D2*
X6474080D1*
X6671327D2*
X6759830D1*
X6957077D2*
X8395947D1*
X1104163Y7269750D2*
X1997330D1*
X2638333D2*
X2694590D1*
X2861823D2*
X2880927D1*
X3092383D2*
X3749533D1*
X3924950D2*
X4612487D1*
X4783440D2*
X4866487D1*
X5037440D2*
X5741473D1*
X5908707D2*
X6222187D1*
X6419560D2*
X6474080D1*
X6671327D2*
X6759830D1*
X6957077D2*
X8395947D1*
X1104163Y7206583D2*
X1922790D1*
X2575080D2*
X2694590D1*
X3047113D2*
X3190187D1*
X3924950D2*
X4560397D1*
X5089530D2*
X5741473D1*
X5908707D2*
X6222187D1*
X6419560D2*
X6474080D1*
X6671327D2*
X6759830D1*
X6957077D2*
X8395947D1*
X1104163Y7143417D2*
X1859540D1*
X2511953D2*
X2694590D1*
X3047113D2*
X3176793D1*
X3924950D2*
X4549607D1*
X5100447D2*
X5741473D1*
X5908707D2*
X6222187D1*
X6419560D2*
X6474080D1*
X6671327D2*
X6759830D1*
X6957077D2*
X8395947D1*
X1104163Y7080250D2*
X1725843D1*
X2082087D2*
X2136360D1*
X2433693D2*
X2694590D1*
X3047113D2*
X3200480D1*
X3924950D2*
X4568460D1*
X5081470D2*
X5741473D1*
X5908707D2*
X6222187D1*
X6419560D2*
X6474080D1*
X6671327D2*
X6759830D1*
X6957077D2*
X8395947D1*
X1104163Y7017083D2*
X1647830D1*
X2433693D2*
X2694590D1*
X3047113D2*
X3217347D1*
X3924950D2*
X4644980D1*
X4751070D2*
X4898980D1*
X5005070D2*
X5741473D1*
X5908707D2*
X6222187D1*
X6419560D2*
X6474080D1*
X6671327D2*
X6759830D1*
X6957077D2*
X8395947D1*
X1104163Y6953917D2*
X1628607D1*
X2433693D2*
X2694590D1*
X3047113D2*
X3217347D1*
X3924950D2*
X5741473D1*
X5908707D2*
X6222187D1*
X6419560D2*
X6474080D1*
X6671327D2*
X6759830D1*
X6957077D2*
X8395947D1*
X1104163Y6890750D2*
X1639150D1*
X2433693D2*
X2694590D1*
X3047113D2*
X3217347D1*
X3924950D2*
X5741473D1*
X5908707D2*
X6222187D1*
X6419560D2*
X6474080D1*
X6671327D2*
X6759830D1*
X6957077D2*
X8395947D1*
X1104163Y6827583D2*
X1690497D1*
X1863433D2*
X1944497D1*
X2433693D2*
X2694590D1*
X3047113D2*
X3217347D1*
X3972577D2*
X5741473D1*
X5908707D2*
X6222187D1*
X6419560D2*
X6474080D1*
X6671327D2*
X6759830D1*
X6957077D2*
X8395947D1*
X1104163Y6764417D2*
X1648700D1*
X2413353D2*
X2694590D1*
X3051207D2*
X3217347D1*
X4035827D2*
X5741473D1*
X5908707D2*
X6222187D1*
X6419560D2*
X6474080D1*
X6671327D2*
X6759830D1*
X6957077D2*
X8395947D1*
X1104163Y6701250D2*
X1628730D1*
X2433320D2*
X2694590D1*
X2861823D2*
X2888447D1*
X3081840D2*
X3233470D1*
X4098957D2*
X5741473D1*
X5908707D2*
X6222187D1*
X6419560D2*
X6474080D1*
X6671327D2*
X6759830D1*
X6957077D2*
X8395947D1*
X1104163Y6638083D2*
X1638653D1*
X2453787D2*
X2694590D1*
X2861823D2*
X2901213D1*
X3095357D2*
X3295730D1*
X4162083D2*
X5741473D1*
X5908707D2*
X6222187D1*
X6419560D2*
X6474080D1*
X6671327D2*
X6759830D1*
X6957077D2*
X8395947D1*
X1104163Y6574917D2*
X1688633D1*
X1865417D2*
X1942633D1*
X2516913D2*
X2694590D1*
X3122023D2*
X3358860D1*
X4282883D2*
X5741473D1*
X5908707D2*
X6222187D1*
X6419560D2*
X6474080D1*
X6671327D2*
X6759830D1*
X6957077D2*
X8395947D1*
X1104163Y6511750D2*
X2064303D1*
X2231660D2*
X2348810D1*
X2558337D2*
X2694590D1*
X2861823D2*
X2885197D1*
X3111233D2*
X3422110D1*
X4314260D2*
X5741473D1*
X5908707D2*
X6222187D1*
X6419560D2*
X6474080D1*
X6671327D2*
X6759830D1*
X6957077D2*
X8395947D1*
X1104163Y6448583D2*
X2064303D1*
X2249023D2*
X2391847D1*
X2559080D2*
X2694590D1*
X2861823D2*
X2960743D1*
X3035703D2*
X3485240D1*
X4306820D2*
X5741473D1*
X5908707D2*
X6222187D1*
X6419560D2*
X6474080D1*
X6671327D2*
X6759830D1*
X6957077D2*
X8395947D1*
X1104163Y6385417D2*
X2081540D1*
X2320583D2*
X2391847D1*
X2559080D2*
X2694590D1*
X2874720D2*
X3548367D1*
X4245550D2*
X5741473D1*
X5908707D2*
X6222187D1*
X6419560D2*
X6474080D1*
X6671327D2*
X6759830D1*
X6957077D2*
X8395947D1*
X1104163Y6322250D2*
X2144050D1*
X2559080D2*
X2708357D1*
X2937723D2*
X3611617D1*
X4163697D2*
X5741473D1*
X5908707D2*
X6222187D1*
X6419560D2*
X6474080D1*
X6671327D2*
X6759830D1*
X6957077D2*
X8395947D1*
X1104163Y6259083D2*
X2144917D1*
X2559080D2*
X2769747D1*
X2957073D2*
X3193040D1*
X4163697D2*
X4463040D1*
X5060013D2*
X5741473D1*
X5908707D2*
X6222187D1*
X6419560D2*
X6474080D1*
X6671327D2*
X6759830D1*
X6957077D2*
X8395947D1*
X1104163Y6195917D2*
X2175550D1*
X2360397D2*
X2391817D1*
X2559080D2*
X2789840D1*
X2957073D2*
X3176543D1*
X4163697D2*
X4446543D1*
X5076383D2*
X5741473D1*
X5908707D2*
X6222187D1*
X6419560D2*
X6474080D1*
X6671327D2*
X6760573D1*
X7006933D2*
X8395947D1*
X1104163Y6132750D2*
X2391847D1*
X2559080D2*
X2789840D1*
X2957073D2*
X2992843D1*
X4163697D2*
X4466883D1*
X5056043D2*
X5741473D1*
X5908707D2*
X6222187D1*
X6419560D2*
X6474080D1*
X6671327D2*
X6796417D1*
X7070187D2*
X8395947D1*
X1104163Y6069583D2*
X1195767D1*
X1342783D2*
X2391847D1*
X2559080D2*
X2789840D1*
X4204623D2*
X4487347D1*
X5035580D2*
X5741473D1*
X5908707D2*
X6222187D1*
X6419560D2*
X6474080D1*
X6671823D2*
X6859543D1*
X7123763D2*
X8395947D1*
X1104163Y6006417D2*
X1134953D1*
X1403553D2*
X2391847D1*
X2559080D2*
X2789840D1*
X2957073D2*
X2986543D1*
X4267753D2*
X4487347D1*
X5035580D2*
X5741473D1*
X5908707D2*
X6222187D1*
X6419560D2*
X6477677D1*
X6734950D2*
X6922797D1*
X7131080D2*
X8395947D1*
X1417940Y5943250D2*
X2391847D1*
X2559080D2*
X2789840D1*
X2957073D2*
X3090347D1*
X4330880D2*
X4487347D1*
X5035580D2*
X5741473D1*
X5908707D2*
X6222187D1*
X6419560D2*
X6524433D1*
X6798077D2*
X6933833D1*
X7131080D2*
X8395947D1*
X1104163Y5880083D2*
X1135943D1*
X1448947D2*
X2391847D1*
X2559080D2*
X2789840D1*
X2957073D2*
X3090347D1*
X4394133D2*
X4487347D1*
X5035580D2*
X5746060D1*
X5966997D2*
X6222187D1*
X6419560D2*
X6587560D1*
X6861330D2*
X6933833D1*
X7131080D2*
X8395947D1*
X1104163Y5816917D2*
X1198247D1*
X1512200D2*
X2391847D1*
X2559080D2*
X2789840D1*
X2957073D2*
X3090347D1*
X4004947D2*
X4075467D1*
X4457260D2*
X4487357D1*
X5094367D2*
X5798770D1*
X6030123D2*
X6222187D1*
X6419560D2*
X6650690D1*
X6892707D2*
X6933833D1*
X7131080D2*
X8395947D1*
X1104163Y5753750D2*
X1135697D1*
X1575327D2*
X2391847D1*
X2559080D2*
X2789840D1*
X2957073D2*
X3090347D1*
X4023923D2*
X4138593D1*
X5157620D2*
X5862023D1*
X6089903D2*
X6222187D1*
X6419560D2*
X6695710D1*
X6892957D2*
X6933833D1*
X7131080D2*
X8395947D1*
X1642920Y5690583D2*
X2391847D1*
X2559080D2*
X2789840D1*
X2957073D2*
X3090347D1*
X4087050D2*
X4201723D1*
X5220747D2*
X5925150D1*
X6100693D2*
X6222187D1*
X6419560D2*
X6695710D1*
X6892957D2*
X6933833D1*
X7131080D2*
X8395947D1*
X1104163Y5627417D2*
X1135200D1*
X1403307D2*
X1470353D1*
X1706173D2*
X2391847D1*
X2559080D2*
X2789840D1*
X2957073D2*
X3090347D1*
X4150177D2*
X4264973D1*
X5283877D2*
X5933337D1*
X6100693D2*
X6222187D1*
X6419560D2*
X6695710D1*
X6892957D2*
X6933833D1*
X7131080D2*
X8395947D1*
X1104163Y5564250D2*
X1196633D1*
X1341913D2*
X1538070D1*
X1769300D2*
X2391847D1*
X2559080D2*
X2789840D1*
X2957073D2*
X3090347D1*
X3925570D2*
X3982077D1*
X4213430D2*
X4328100D1*
X5347127D2*
X5933337D1*
X6100693D2*
X6222187D1*
X6419560D2*
X6695710D1*
X6892957D2*
X6933833D1*
X7131080D2*
X8395947D1*
X1104163Y5501083D2*
X1136190D1*
X1402190D2*
X1601200D1*
X1832550D2*
X2391847D1*
X2559080D2*
X2789840D1*
X2957073D2*
X3090347D1*
X3936610D2*
X4045203D1*
X4276557D2*
X4391230D1*
X5410257D2*
X5933337D1*
X6100693D2*
X6222187D1*
X6419560D2*
X6695710D1*
X6892957D2*
X6933833D1*
X7131080D2*
X8395947D1*
X1417940Y5437917D2*
X1664327D1*
X1895680D2*
X2391847D1*
X2559080D2*
X2789840D1*
X2967243D2*
X3090347D1*
X3999737D2*
X4108457D1*
X4339687D2*
X4454480D1*
X5473383D2*
X5933337D1*
X6100693D2*
X6222187D1*
X6419560D2*
X6695710D1*
X6892957D2*
X6933833D1*
X7131080D2*
X8395947D1*
X1104163Y5374750D2*
X1134457D1*
X1403927D2*
X1727577D1*
X1922097D2*
X2391847D1*
X2559080D2*
X2787853D1*
X3022183D2*
X3090347D1*
X3765580D2*
X3831637D1*
X4062867D2*
X4171583D1*
X4402937D2*
X4517610D1*
X5672567D2*
X5933337D1*
X6100693D2*
X6222187D1*
X6419560D2*
X6695710D1*
X6892957D2*
X6933833D1*
X7131080D2*
X8395947D1*
X1104163Y5311583D2*
X1194153D1*
X1344397D2*
X1754863D1*
X1922097D2*
X2391847D1*
X2559080D2*
X2782647D1*
X3027270D2*
X3090347D1*
X3860830D2*
X3894763D1*
X4180810D2*
X4234713D1*
X4523363D2*
X4580737D1*
X5692410D2*
X5917463D1*
X6116570D2*
X6222187D1*
X6419560D2*
X6695710D1*
X6892957D2*
X6933833D1*
X7131080D2*
X8395947D1*
X1104163Y5248417D2*
X1754863D1*
X1922097D2*
X2370887D1*
X2580163D2*
X2817123D1*
X2992790D2*
X3064180D1*
X4227320D2*
X4276507D1*
X4611543D2*
X4643890D1*
X5763970D2*
X5892907D1*
X6141127D2*
X6222187D1*
X6419560D2*
X6695710D1*
X6892957D2*
X6933833D1*
X7131080D2*
X8395947D1*
X1104163Y5185250D2*
X1754863D1*
X1922097D2*
X2351043D1*
X2599883D2*
X2821340D1*
X2988573D2*
X3049667D1*
X4684347D2*
X4707143D1*
X5804403D2*
X5905557D1*
X6128477D2*
X6222187D1*
X6419560D2*
X6695710D1*
X6892957D2*
X6933833D1*
X7131080D2*
X8395947D1*
X1104163Y5122083D2*
X1754863D1*
X1922097D2*
X2323263D1*
X2583017D2*
X2821340D1*
X2988573D2*
X3072117D1*
X4713617D2*
X4742570D1*
X5258823D2*
X5327980D1*
X5821020D2*
X5994603D1*
X6039497D2*
X6222187D1*
X6419560D2*
X6695710D1*
X6892957D2*
X6933833D1*
X7131080D2*
X8395947D1*
X1104163Y5058917D2*
X1754863D1*
X1922097D2*
X2270430D1*
X2491363D2*
X2821340D1*
X2988573D2*
X3350797D1*
X4156750D2*
X4220697D1*
X5258823D2*
X5371633D1*
X5884150D2*
X6222187D1*
X6419560D2*
X6695710D1*
X6892957D2*
X6933833D1*
X7131080D2*
X8395947D1*
X1104163Y4995750D2*
X1754863D1*
X1922097D2*
X2265840D1*
X2433197D2*
X2821340D1*
X2988573D2*
X3413923D1*
X3946903D2*
X3988650D1*
X4219880D2*
X4388627D1*
X5258823D2*
X5508557D1*
X5947277D2*
X6222187D1*
X6419560D2*
X6695710D1*
X6892957D2*
X6933833D1*
X7131080D2*
X8395947D1*
X1104163Y4932583D2*
X1754863D1*
X1922097D2*
X2265840D1*
X2433197D2*
X2821340D1*
X2988573D2*
X3477053D1*
X4010030D2*
X4051777D1*
X4283130D2*
X4451753D1*
X5258823D2*
X5571810D1*
X5973693D2*
X6222187D1*
X6419560D2*
X6695710D1*
X6892957D2*
X6933833D1*
X7131080D2*
X8395947D1*
X1104163Y4869417D2*
X1754863D1*
X1922097D2*
X2265840D1*
X2433197D2*
X2821340D1*
X2988573D2*
X3540180D1*
X4073160D2*
X4114907D1*
X4346260D2*
X4514880D1*
X5258823D2*
X5634937D1*
X5973693D2*
X6222187D1*
X6419560D2*
X6695710D1*
X6892957D2*
X6933833D1*
X7131080D2*
X8395947D1*
X1104163Y4806250D2*
X1754863D1*
X1922097D2*
X2265840D1*
X2433197D2*
X2821340D1*
X2988573D2*
X3441583D1*
X4136410D2*
X4178033D1*
X4409387D2*
X4567963D1*
X5258823D2*
X5647587D1*
X5973693D2*
X6222187D1*
X6419560D2*
X6695710D1*
X6892957D2*
X6933833D1*
X7131080D2*
X8395947D1*
X1104163Y4743083D2*
X1755110D1*
X1960917D2*
X2265840D1*
X2433197D2*
X2821340D1*
X2988573D2*
X3427567D1*
X4199540D2*
X4241287D1*
X4472513D2*
X4567963D1*
X5277053D2*
X5647587D1*
X5973693D2*
X6222187D1*
X6419560D2*
X6695710D1*
X6892957D2*
X6933833D1*
X7131080D2*
X8395947D1*
X1104163Y4679917D2*
X1792813D1*
X2024043D2*
X2233593D1*
X2465443D2*
X2821340D1*
X2988573D2*
X3450387D1*
X4262667D2*
X4304413D1*
X4535767D2*
X4568097D1*
X5340183D2*
X5647587D1*
X5973693D2*
X6222187D1*
X6419560D2*
X6695710D1*
X6892957D2*
X6933833D1*
X7131080D2*
X8395947D1*
X1104163Y4616750D2*
X1855943D1*
X2087297D2*
X2226650D1*
X2472390D2*
X2821340D1*
X2988573D2*
X3569327D1*
X4325920D2*
X4367540D1*
X5403433D2*
X5647587D1*
X5973693D2*
X6222187D1*
X6419560D2*
X6695710D1*
X6892957D2*
X6933833D1*
X7131080D2*
X8395947D1*
X1104163Y4553583D2*
X1919070D1*
X2150423D2*
X2258400D1*
X2440640D2*
X2801993D1*
X2988573D2*
X3583590D1*
X3927183D2*
X3995223D1*
X4387187D2*
X4430793D1*
X5466563D2*
X5647587D1*
X5973693D2*
X6222187D1*
X6419560D2*
X6695710D1*
X6892957D2*
X6933833D1*
X7131080D2*
X8395947D1*
X1104163Y4490417D2*
X1982323D1*
X2213550D2*
X2738867D1*
X2969847D2*
X3583590D1*
X3927183D2*
X3995223D1*
X4162457D2*
X4220947D1*
X4400580D2*
X4488587D1*
X5529690D2*
X5647587D1*
X5973693D2*
X6222187D1*
X6419560D2*
X6695710D1*
X6892957D2*
X6933833D1*
X7131080D2*
X8395947D1*
X1104163Y4427250D2*
X2045450D1*
X2906967D2*
X3583590D1*
X3927183D2*
X3995223D1*
X4162457D2*
X4233347D1*
X4400580D2*
X4488587D1*
X4909947D2*
X4980590D1*
X5560820D2*
X5647587D1*
X5973693D2*
X6222187D1*
X6419560D2*
X6695710D1*
X6892957D2*
X6933833D1*
X7131080D2*
X8395947D1*
X1104163Y4364083D2*
X2108577D1*
X2843840D2*
X3583590D1*
X3927183D2*
X3995223D1*
X4162457D2*
X4233347D1*
X4400580D2*
X4488587D1*
X4909947D2*
X4998943D1*
X5560820D2*
X5647587D1*
X5973693D2*
X6222187D1*
X6419560D2*
X6695710D1*
X6892957D2*
X6933833D1*
X7131080D2*
X8395947D1*
X1104163Y4300917D2*
X2173070D1*
X2779347D2*
X3583590D1*
X4909947D2*
X4933337D1*
X5571983D2*
X5647587D1*
X5973693D2*
X6222187D1*
X6419560D2*
X6695710D1*
X6892957D2*
X6933833D1*
X7131080D2*
X8395947D1*
X1104163Y4237750D2*
X3583590D1*
X5621963D2*
X5647647D1*
X5973693D2*
X6222187D1*
X6419560D2*
X6695710D1*
X6892957D2*
X6933833D1*
X7131080D2*
X8395947D1*
X1104163Y4174583D2*
X3583590D1*
X5973693D2*
X6222187D1*
X6419560D2*
X6695710D1*
X6892957D2*
X6933833D1*
X7131080D2*
X8395947D1*
X1104163Y4111417D2*
X3583590D1*
X3750947D2*
X3771800D1*
X5973693D2*
X6222187D1*
X6419560D2*
X6695710D1*
X6892957D2*
X6933833D1*
X7131080D2*
X8395947D1*
X1104163Y4048250D2*
X3583590D1*
X4830570D2*
X4860243D1*
X5973693D2*
X6222187D1*
X6419560D2*
X6695710D1*
X6892957D2*
X6933833D1*
X7131080D2*
X8395947D1*
X1104163Y3985083D2*
X3583590D1*
X4830570D2*
X4882733D1*
X5973693D2*
X6222187D1*
X6419560D2*
X6695710D1*
X6892957D2*
X6933833D1*
X7131080D2*
X8395947D1*
X1104163Y3921917D2*
X3614470D1*
X3870380D2*
X3936310D1*
X4103670D2*
X4156330D1*
X4323687D2*
X4409213D1*
X4830570D2*
X5044337D1*
X5211570D2*
X5266587D1*
X5973693D2*
X6222187D1*
X6419560D2*
X6695710D1*
X6892957D2*
X6933833D1*
X7131080D2*
X8395947D1*
X1104163Y3858750D2*
X3677723D1*
X4103670D2*
X4156330D1*
X4323687D2*
X4409213D1*
X4830570D2*
X5044337D1*
X5211570D2*
X5266587D1*
X5973693D2*
X6222187D1*
X6419560D2*
X6695710D1*
X6892957D2*
X6933833D1*
X7131080D2*
X8395947D1*
X1104163Y3795583D2*
X3681690D1*
X4103670D2*
X4156330D1*
X4323687D2*
X4409213D1*
X4830570D2*
X5044337D1*
X5211570D2*
X5266587D1*
X5973693D2*
X6222187D1*
X6419560D2*
X6695710D1*
X6892957D2*
X6933833D1*
X7131080D2*
X8395947D1*
X1104163Y3732417D2*
X3718527D1*
X3888487D2*
X3936310D1*
X4103670D2*
X4156330D1*
X4323687D2*
X4409213D1*
X4830570D2*
X5044337D1*
X5211570D2*
X5266587D1*
X5973693D2*
X6161167D1*
X6419560D2*
X6695710D1*
X6892957D2*
X6933833D1*
X7131080D2*
X8395947D1*
X1104163Y3669250D2*
X3936310D1*
X4103670D2*
X4156330D1*
X4323687D2*
X4409213D1*
X4830570D2*
X5044337D1*
X5211570D2*
X5266587D1*
X5973693D2*
X6133387D1*
X6443867D2*
X6671277D1*
X7131080D2*
X8395947D1*
X1104163Y3606083D2*
X3936310D1*
X4103670D2*
X4156330D1*
X4323687D2*
X4409213D1*
X4830570D2*
X5044337D1*
X5211570D2*
X5266587D1*
X5973693D2*
X6143310D1*
X6506997D2*
X6678843D1*
X6909947D2*
X6933833D1*
X7131080D2*
X8395947D1*
X1104163Y3542917D2*
X3936310D1*
X4103670D2*
X4156330D1*
X4323687D2*
X4409213D1*
X4830570D2*
X5044337D1*
X5211570D2*
X5266587D1*
X5973693D2*
X6214623D1*
X6570247D2*
X6740730D1*
X6848060D2*
X6933833D1*
X7131080D2*
X8395947D1*
X1104163Y3479750D2*
X3936310D1*
X4103670D2*
X4156330D1*
X4323687D2*
X4409213D1*
X4830570D2*
X5044337D1*
X5211570D2*
X5266587D1*
X5973693D2*
X6359607D1*
X6633373D2*
X6928750D1*
X7136290D2*
X8395947D1*
X1104163Y3416583D2*
X2250957D1*
X2445970D2*
X3936310D1*
X4103670D2*
X4156330D1*
X4323687D2*
X4409213D1*
X4830570D2*
X5044337D1*
X5211570D2*
X5266587D1*
X5973693D2*
X6422857D1*
X6696503D2*
X6908160D1*
X7156877D2*
X8395947D1*
X1104163Y3353417D2*
X2224663D1*
X2473503D2*
X3936310D1*
X4103670D2*
X4156330D1*
X4323687D2*
X4409213D1*
X4830570D2*
X5044337D1*
X5211570D2*
X5266587D1*
X5973693D2*
X6485987D1*
X6722177D2*
X6924160D1*
X7140753D2*
X8395947D1*
X1104163Y3290250D2*
X2235703D1*
X2536633D2*
X3936310D1*
X4103670D2*
X4156330D1*
X4323687D2*
X4409213D1*
X4830570D2*
X5044337D1*
X5211570D2*
X5266587D1*
X5973693D2*
X6524803D1*
X6722177D2*
X8395947D1*
X1104163Y3227083D2*
X2312970D1*
X2599760D2*
X3936310D1*
X4103670D2*
X4156330D1*
X4323687D2*
X4409213D1*
X4830570D2*
X5044337D1*
X5211570D2*
X5266587D1*
X5973693D2*
X6524803D1*
X6722177D2*
X8395947D1*
X1104163Y3163917D2*
X2389243D1*
X2663013D2*
X3936310D1*
X4103670D2*
X4156330D1*
X4323687D2*
X4409213D1*
X4830570D2*
X5044337D1*
X5211570D2*
X5266587D1*
X5973693D2*
X6524803D1*
X6722177D2*
X8395947D1*
X1104163Y3100750D2*
X2452370D1*
X2726140D2*
X3936310D1*
X4103670D2*
X4156330D1*
X4323687D2*
X4409213D1*
X4830570D2*
X5044337D1*
X5211570D2*
X5266587D1*
X5973693D2*
X6524803D1*
X6722177D2*
X8395947D1*
X1104163Y3037583D2*
X2515500D1*
X2789270D2*
X3936310D1*
X4103670D2*
X4156330D1*
X4323687D2*
X4409213D1*
X4830570D2*
X5044337D1*
X5211570D2*
X5266587D1*
X5973693D2*
X6524803D1*
X6722177D2*
X8395947D1*
X1104163Y2974417D2*
X2578750D1*
X2852397D2*
X3936310D1*
X4103670D2*
X4156330D1*
X4323687D2*
X4409213D1*
X4830570D2*
X5044337D1*
X5211570D2*
X5266587D1*
X5973693D2*
X6524803D1*
X6722177D2*
X8395947D1*
X1104163Y2911250D2*
X2641880D1*
X2915650D2*
X3936310D1*
X4103670D2*
X4156330D1*
X4323687D2*
X4409213D1*
X4830570D2*
X5044337D1*
X5211570D2*
X5266587D1*
X5973693D2*
X6524803D1*
X6722177D2*
X8395947D1*
X1104163Y2848083D2*
X2705007D1*
X2978777D2*
X3936310D1*
X4103670D2*
X4156330D1*
X4323687D2*
X4409213D1*
X4830570D2*
X5044337D1*
X5211570D2*
X5266587D1*
X5973693D2*
X6524803D1*
X6722177D2*
X8395947D1*
X1104163Y2784917D2*
X2768260D1*
X3041903D2*
X3936310D1*
X4103670D2*
X4156330D1*
X4323687D2*
X4409213D1*
X4830570D2*
X5044337D1*
X5211570D2*
X5266587D1*
X5973693D2*
X6524803D1*
X6722177D2*
X8395947D1*
X1104163Y2721750D2*
X2831387D1*
X3105157D2*
X3936310D1*
X4103670D2*
X4156330D1*
X4323687D2*
X4409213D1*
X4830570D2*
X5044337D1*
X5211570D2*
X5266587D1*
X5973693D2*
X6524803D1*
X6722177D2*
X8395947D1*
X1104163Y2658583D2*
X2894513D1*
X3159973D2*
X3936310D1*
X4103670D2*
X4156330D1*
X4323687D2*
X4409213D1*
X4830570D2*
X5044337D1*
X5211570D2*
X5266587D1*
X5973693D2*
X6524803D1*
X6722177D2*
X8395947D1*
X1104163Y2595417D2*
X2957767D1*
X3168283D2*
X3936310D1*
X4103670D2*
X4156330D1*
X4323687D2*
X4409213D1*
X4830570D2*
X5044337D1*
X5211570D2*
X5266587D1*
X5973693D2*
X6524803D1*
X6722177D2*
X8395947D1*
X1104163Y2532250D2*
X2971037D1*
X3168283D2*
X3936310D1*
X4103670D2*
X4156330D1*
X4323687D2*
X4409213D1*
X4830570D2*
X5044337D1*
X5211570D2*
X5266587D1*
X5973693D2*
X6524803D1*
X6722177D2*
X8395947D1*
X1104163Y2469083D2*
X2971037D1*
X3168283D2*
X3894640D1*
X4103050D2*
X4156330D1*
X4323687D2*
X4409213D1*
X4830570D2*
X5044337D1*
X5211570D2*
X5266587D1*
X5973693D2*
X6524803D1*
X6722177D2*
X8395947D1*
X1104163Y2405917D2*
X2971037D1*
X3168283D2*
X3831387D1*
X4062740D2*
X4108333D1*
X4321950D2*
X4385153D1*
X4830570D2*
X5044337D1*
X5211570D2*
X5266587D1*
X5973693D2*
X6524803D1*
X6722177D2*
X8395947D1*
X1104163Y2342750D2*
X2971037D1*
X3168283D2*
X3768260D1*
X3999613D2*
X4045080D1*
X4276433D2*
X4322023D1*
X4830570D2*
X5044337D1*
X5211570D2*
X5266587D1*
X5973693D2*
X6524803D1*
X6722177D2*
X8395947D1*
X1104163Y2279583D2*
X2971037D1*
X3168283D2*
X3705133D1*
X3936360D2*
X3981953D1*
X4213307D2*
X4258773D1*
X4830570D2*
X5044337D1*
X5211570D2*
X5266587D1*
X6033473D2*
X6524803D1*
X6722177D2*
X8395947D1*
X1104163Y2216417D2*
X2971037D1*
X3168283D2*
X3641880D1*
X3873233D2*
X3918823D1*
X4150053D2*
X4195643D1*
X4426997D2*
X4472463D1*
X4830570D2*
X5044337D1*
X5211570D2*
X5266587D1*
X5819780D2*
X5865373D1*
X6096727D2*
X6524803D1*
X6722177D2*
X8395947D1*
X1104163Y2153250D2*
X2971037D1*
X3168283D2*
X3578753D1*
X3810107D2*
X3855573D1*
X4086927D2*
X4132517D1*
X4363747D2*
X4409337D1*
X4830570D2*
X5044337D1*
X5211570D2*
X5266587D1*
X5882910D2*
X5928500D1*
X6159853D2*
X6524803D1*
X6722177D2*
X8395947D1*
X1104163Y2090083D2*
X2971037D1*
X3168283D2*
X3515623D1*
X3746853D2*
X3792443D1*
X4023797D2*
X4069263D1*
X4300617D2*
X4346087D1*
X4830570D2*
X5044337D1*
X5211570D2*
X5266587D1*
X5946160D2*
X5991753D1*
X6222980D2*
X6524803D1*
X6722177D2*
X8395947D1*
X1104163Y2026917D2*
X2971037D1*
X3168283D2*
X3452373D1*
X3683727D2*
X3729317D1*
X3960547D2*
X4006137D1*
X4237490D2*
X4282957D1*
X4514310D2*
X4559900D1*
X4830570D2*
X5044337D1*
X5211570D2*
X5266587D1*
X5735447D2*
X5777937D1*
X6009290D2*
X6054880D1*
X6286110D2*
X6524803D1*
X6722177D2*
X8395947D1*
X1104163Y1963750D2*
X2264227D1*
X2493350D2*
X2971037D1*
X3168283D2*
X3389243D1*
X3620597D2*
X3666063D1*
X3897417D2*
X3943010D1*
X4174237D2*
X4219830D1*
X4451183D2*
X4496650D1*
X4830570D2*
X5044337D1*
X5211570D2*
X5266587D1*
X5795597D2*
X5841187D1*
X6072417D2*
X6118007D1*
X6349360D2*
X6524803D1*
X6722177D2*
X6968313D1*
X7197433D2*
X8395947D1*
X1104163Y1900583D2*
X2158683D1*
X2598893D2*
X2907167D1*
X6722177D2*
X6862770D1*
X7302977D2*
X8395947D1*
X1104163Y1837417D2*
X1314333D1*
X1685583D2*
X2104733D1*
X2652843D2*
X2907167D1*
X6722177D2*
X6808820D1*
X7357050D2*
X7814400D1*
X8185653D2*
X8395947D1*
X1104163Y1774250D2*
X1227640D1*
X1772400D2*
X2072983D1*
X2684717D2*
X2907167D1*
X6722177D2*
X6777070D1*
X7388800D2*
X7727583D1*
X8272343D2*
X8395947D1*
X1104163Y1711083D2*
X1175177D1*
X1824863D2*
X2056613D1*
X2700963D2*
X2877277D1*
X6722177D2*
X6760697D1*
X7405050D2*
X7675123D1*
X8324807D2*
X8395947D1*
X1104163Y1647917D2*
X1141393D1*
X1858597D2*
X2053387D1*
X2704190D2*
X2817993D1*
X3087793D2*
X3109530D1*
X3304213D2*
X3386393D1*
X3581033D2*
X3663337D1*
X3857853D2*
X3940157D1*
X4134673D2*
X4216977D1*
X4411620D2*
X4493797D1*
X4688440D2*
X4770740D1*
X4965383D2*
X5047560D1*
X5242203D2*
X5324383D1*
X5519023D2*
X5601327D1*
X5795843D2*
X5878147D1*
X6072790D2*
X6154967D1*
X6349610D2*
X6514013D1*
X6722177D2*
X6757473D1*
X7408273D2*
X7641387D1*
X8358663D2*
X8395947D1*
X1878937Y1584750D2*
X2062813D1*
X2694763D2*
X2804847D1*
X3024663D2*
X3057933D1*
X6401203D2*
X6450887D1*
X6714983D2*
X6766900D1*
X7398847D2*
X7621047D1*
X1887867Y1521583D2*
X2086130D1*
X2671447D2*
X2804847D1*
X3002093D2*
X3044337D1*
X6661403D2*
X6790213D1*
X7375530D2*
X7612117D1*
X1886130Y1458417D2*
X2127307D1*
X2630270D2*
X2804847D1*
X6598277D2*
X6831390D1*
X7334357D2*
X7613853D1*
X1104163Y1395250D2*
X1126280D1*
X1873850D2*
X2198497D1*
X2559080D2*
X2831883D1*
X3305950D2*
X3384657D1*
X3582770D2*
X3661477D1*
X3859713D2*
X3938297D1*
X4136537D2*
X4215240D1*
X4413357D2*
X4492060D1*
X4690177D2*
X4769003D1*
X4967120D2*
X5045827D1*
X5243940D2*
X5322647D1*
X5520760D2*
X5599467D1*
X5797703D2*
X5876410D1*
X6074527D2*
X6153230D1*
X6535150D2*
X6902703D1*
X7263167D2*
X7626257D1*
X8373797D2*
X8395947D1*
X1104163Y1332083D2*
X1150563D1*
X1849543D2*
X2895010D1*
X6471897D2*
X7650440D1*
X8349610D2*
X8395947D1*
X1104163Y1268917D2*
X1189317D1*
X1810600D2*
X2958263D1*
X6408770D2*
X7689383D1*
X8310667D2*
X8395947D1*
X1104163Y1205750D2*
X1249963D1*
X1750077D2*
X3021390D1*
X6345640D2*
X7749907D1*
X8250020D2*
X8395947D1*
X1104163Y1142583D2*
X1358610D1*
X1641430D2*
X7858553D1*
X8141377D2*
X8395947D1*
X8380907Y13470023D2*
X8377380Y13440230D1*
X8371527Y13410803D1*
X8363383Y13381930D1*
X8353000Y13353783D1*
X8340440Y13326537D1*
X8325780Y13300363D1*
X8309113Y13275417D1*
X8290540Y13251857D1*
X8270173Y13229827D1*
X8248143Y13209460D1*
X8224583Y13190887D1*
X8199637Y13174220D1*
X8173463Y13159560D1*
X8146217Y13147000D1*
X8118070Y13136617D1*
X8089197Y13128473D1*
X8059770Y13122620D1*
X8029977Y13119093D1*
X8000000Y13117917D1*
X7970023Y13119093D1*
X7940230Y13122620D1*
X7910803Y13128473D1*
X7881930Y13136617D1*
X7853783Y13147000D1*
X7826537Y13159560D1*
X7800363Y13174220D1*
X7775417Y13190887D1*
X7751857Y13209460D1*
X7729827Y13229827D1*
X7709460Y13251857D1*
X7690887Y13275417D1*
X7674220Y13300363D1*
X7659560Y13326537D1*
X7647000Y13353783D1*
X7636617Y13381930D1*
X7628473Y13410803D1*
X7622620Y13440230D1*
X7619093Y13470023D1*
X7617917Y13500000D1*
X7619093Y13529977D1*
X7622620Y13559770D1*
X7628473Y13589197D1*
X7636617Y13618070D1*
X7647000Y13646217D1*
X7659560Y13673463D1*
X7674220Y13699637D1*
X7690887Y13724583D1*
X7709460Y13748143D1*
X7729827Y13770173D1*
X7751857Y13790540D1*
X7775417Y13809113D1*
X7800363Y13825780D1*
X7826537Y13840440D1*
X7853783Y13853000D1*
X7881930Y13863383D1*
X7910803Y13871527D1*
X7940230Y13877380D1*
X7970023Y13880907D1*
X8000000Y13882083D1*
X8029977Y13880907D1*
X8059770Y13877380D1*
X8089197Y13871527D1*
X8118070Y13863383D1*
X8146217Y13853000D1*
X8173463Y13840440D1*
X8199637Y13825780D1*
X8224583Y13809113D1*
X8248143Y13790540D1*
X8270173Y13770173D1*
X8290540Y13748143D1*
X8309113Y13724583D1*
X8325780Y13699637D1*
X8340440Y13673463D1*
X8353000Y13646217D1*
X8363383Y13618070D1*
X8371527Y13589197D1*
X8377380Y13559770D1*
X8380907Y13529977D1*
X8382083Y13500000D1*
X8380907Y13470023D1*
X7401350Y1638137D2*
X7398400Y1613230D1*
X7393507Y1588630D1*
X7386700Y1564490D1*
X7378017Y1540957D1*
X7367517Y1518180D1*
X7355263Y1496297D1*
X7341327Y1475443D1*
X7325800Y1455743D1*
X7308773Y1437327D1*
X7290357Y1420300D1*
X7270657Y1404773D1*
X7249803Y1390837D1*
X7227920Y1378583D1*
X7205143Y1368083D1*
X7181610Y1359400D1*
X7157470Y1352593D1*
X7132870Y1347700D1*
X7107963Y1344750D1*
X7082900Y1343767D1*
X7057837Y1344750D1*
X7032930Y1347700D1*
X7008330Y1352593D1*
X6984190Y1359400D1*
X6960657Y1368083D1*
X6937880Y1378583D1*
X6915997Y1390837D1*
X6895143Y1404773D1*
X6875443Y1420300D1*
X6857027Y1437327D1*
X6840000Y1455743D1*
X6824473Y1475443D1*
X6810537Y1496297D1*
X6798283Y1518180D1*
X6787783Y1540957D1*
X6779100Y1564490D1*
X6772293Y1588630D1*
X6767400Y1613230D1*
X6764450Y1638137D1*
X6763467Y1663200D1*
X6764450Y1688263D1*
X6767400Y1713170D1*
X6772293Y1737770D1*
X6779100Y1761910D1*
X6787783Y1785443D1*
X6798283Y1808220D1*
X6810537Y1830103D1*
X6824473Y1850957D1*
X6840000Y1870657D1*
X6857027Y1889073D1*
X6875443Y1906100D1*
X6895143Y1921627D1*
X6915997Y1935563D1*
X6937880Y1947817D1*
X6960657Y1958317D1*
X6984190Y1967000D1*
X7008330Y1973807D1*
X7032930Y1978700D1*
X7057837Y1981650D1*
X7082900Y1982633D1*
X7107963Y1981650D1*
X7132870Y1978700D1*
X7157470Y1973807D1*
X7181610Y1967000D1*
X7205143Y1958317D1*
X7227920Y1947817D1*
X7249803Y1935563D1*
X7270657Y1921627D1*
X7290357Y1906100D1*
X7308773Y1889073D1*
X7325800Y1870657D1*
X7341327Y1850957D1*
X7355263Y1830103D1*
X7367517Y1808220D1*
X7378017Y1785443D1*
X7386700Y1761910D1*
X7393507Y1737770D1*
X7398400Y1713170D1*
X7401350Y1688263D1*
X7402333Y1663200D1*
X7401350Y1638137D1*
X1880907Y13470023D2*
X1877380Y13440230D1*
X1871527Y13410803D1*
X1863383Y13381930D1*
X1853000Y13353783D1*
X1840440Y13326537D1*
X1825780Y13300363D1*
X1809113Y13275417D1*
X1790540Y13251857D1*
X1770173Y13229827D1*
X1748143Y13209460D1*
X1724583Y13190887D1*
X1699637Y13174220D1*
X1673463Y13159560D1*
X1646217Y13147000D1*
X1618070Y13136617D1*
X1589197Y13128473D1*
X1559770Y13122620D1*
X1529977Y13119093D1*
X1500000Y13117917D1*
X1470023Y13119093D1*
X1440230Y13122620D1*
X1410803Y13128473D1*
X1381930Y13136617D1*
X1353783Y13147000D1*
X1326537Y13159560D1*
X1300363Y13174220D1*
X1275417Y13190887D1*
X1251857Y13209460D1*
X1229827Y13229827D1*
X1209460Y13251857D1*
X1190887Y13275417D1*
X1174220Y13300363D1*
X1159560Y13326537D1*
X1147000Y13353783D1*
X1136617Y13381930D1*
X1128473Y13410803D1*
X1122620Y13440230D1*
X1119093Y13470023D1*
X1117917Y13500000D1*
X1119093Y13529977D1*
X1122620Y13559770D1*
X1128473Y13589197D1*
X1136617Y13618070D1*
X1147000Y13646217D1*
X1159560Y13673463D1*
X1174220Y13699637D1*
X1190887Y13724583D1*
X1209460Y13748143D1*
X1229827Y13770173D1*
X1251857Y13790540D1*
X1275417Y13809113D1*
X1300363Y13825780D1*
X1326537Y13840440D1*
X1353783Y13853000D1*
X1381930Y13863383D1*
X1410803Y13871527D1*
X1440230Y13877380D1*
X1470023Y13880907D1*
X1500000Y13882083D1*
X1529977Y13880907D1*
X1559770Y13877380D1*
X1589197Y13871527D1*
X1618070Y13863383D1*
X1646217Y13853000D1*
X1673463Y13840440D1*
X1699637Y13825780D1*
X1724583Y13809113D1*
X1748143Y13790540D1*
X1770173Y13770173D1*
X1790540Y13748143D1*
X1809113Y13724583D1*
X1825780Y13699637D1*
X1840440Y13673463D1*
X1853000Y13646217D1*
X1863383Y13618070D1*
X1871527Y13589197D1*
X1877380Y13559770D1*
X1880907Y13529977D1*
X1882083Y13500000D1*
X1880907Y13470023D1*
X2697250Y1638137D2*
X2694300Y1613230D1*
X2689407Y1588630D1*
X2682600Y1564490D1*
X2673917Y1540957D1*
X2663417Y1518180D1*
X2651163Y1496297D1*
X2637227Y1475443D1*
X2621700Y1455743D1*
X2604673Y1437327D1*
X2586257Y1420300D1*
X2566557Y1404773D1*
X2545703Y1390837D1*
X2523820Y1378583D1*
X2501043Y1368083D1*
X2477510Y1359400D1*
X2453370Y1352593D1*
X2428770Y1347700D1*
X2403863Y1344750D1*
X2378800Y1343767D1*
X2353737Y1344750D1*
X2328830Y1347700D1*
X2304230Y1352593D1*
X2280090Y1359400D1*
X2256557Y1368083D1*
X2233780Y1378583D1*
X2211897Y1390837D1*
X2191043Y1404773D1*
X2171343Y1420300D1*
X2152927Y1437327D1*
X2135900Y1455743D1*
X2120373Y1475443D1*
X2106437Y1496297D1*
X2094183Y1518180D1*
X2083683Y1540957D1*
X2075000Y1564490D1*
X2068193Y1588630D1*
X2063300Y1613230D1*
X2060350Y1638137D1*
X2059367Y1663200D1*
X2060350Y1688263D1*
X2063300Y1713170D1*
X2068193Y1737770D1*
X2075000Y1761910D1*
X2083683Y1785443D1*
X2094183Y1808220D1*
X2106437Y1830103D1*
X2120373Y1850957D1*
X2135900Y1870657D1*
X2152927Y1889073D1*
X2171343Y1906100D1*
X2191043Y1921627D1*
X2211897Y1935563D1*
X2233780Y1947817D1*
X2256557Y1958317D1*
X2280090Y1967000D1*
X2304230Y1973807D1*
X2328830Y1978700D1*
X2353737Y1981650D1*
X2378800Y1982633D1*
X2403863Y1981650D1*
X2428770Y1978700D1*
X2453370Y1973807D1*
X2477510Y1967000D1*
X2501043Y1958317D1*
X2523820Y1947817D1*
X2545703Y1935563D1*
X2566557Y1921627D1*
X2586257Y1906100D1*
X2604673Y1889073D1*
X2621700Y1870657D1*
X2637227Y1850957D1*
X2651163Y1830103D1*
X2663417Y1808220D1*
X2673917Y1785443D1*
X2682600Y1761910D1*
X2689407Y1737770D1*
X2694300Y1713170D1*
X2697250Y1688263D1*
X2698233Y1663200D1*
X2697250Y1638137D1*
X8380907Y1470023D2*
X8377380Y1440230D1*
X8371527Y1410803D1*
X8363383Y1381930D1*
X8353000Y1353783D1*
X8340440Y1326537D1*
X8325780Y1300363D1*
X8309113Y1275417D1*
X8290540Y1251857D1*
X8270173Y1229827D1*
X8248143Y1209460D1*
X8224583Y1190887D1*
X8199637Y1174220D1*
X8173463Y1159560D1*
X8146217Y1147000D1*
X8118070Y1136617D1*
X8089197Y1128473D1*
X8059770Y1122620D1*
X8029977Y1119093D1*
X8000000Y1117917D1*
X7970023Y1119093D1*
X7940230Y1122620D1*
X7910803Y1128473D1*
X7881930Y1136617D1*
X7853783Y1147000D1*
X7826537Y1159560D1*
X7800363Y1174220D1*
X7775417Y1190887D1*
X7751857Y1209460D1*
X7729827Y1229827D1*
X7709460Y1251857D1*
X7690887Y1275417D1*
X7674220Y1300363D1*
X7659560Y1326537D1*
X7647000Y1353783D1*
X7636617Y1381930D1*
X7628473Y1410803D1*
X7622620Y1440230D1*
X7619093Y1470023D1*
X7617917Y1500000D1*
X7619093Y1529977D1*
X7622620Y1559770D1*
X7628473Y1589197D1*
X7636617Y1618070D1*
X7647000Y1646217D1*
X7659560Y1673463D1*
X7674220Y1699637D1*
X7690887Y1724583D1*
X7709460Y1748143D1*
X7729827Y1770173D1*
X7751857Y1790540D1*
X7775417Y1809113D1*
X7800363Y1825780D1*
X7826537Y1840440D1*
X7853783Y1853000D1*
X7881930Y1863383D1*
X7910803Y1871527D1*
X7940230Y1877380D1*
X7970023Y1880907D1*
X8000000Y1882083D1*
X8029977Y1880907D1*
X8059770Y1877380D1*
X8089197Y1871527D1*
X8118070Y1863383D1*
X8146217Y1853000D1*
X8173463Y1840440D1*
X8199637Y1825780D1*
X8224583Y1809113D1*
X8248143Y1790540D1*
X8270173Y1770173D1*
X8290540Y1748143D1*
X8309113Y1724583D1*
X8325780Y1699637D1*
X8340440Y1673463D1*
X8353000Y1646217D1*
X8363383Y1618070D1*
X8371527Y1589197D1*
X8377380Y1559770D1*
X8380907Y1529977D1*
X8382083Y1500000D1*
X8380907Y1470023D1*
X1880907D2*
X1877380Y1440230D1*
X1871527Y1410803D1*
X1863383Y1381930D1*
X1853000Y1353783D1*
X1840440Y1326537D1*
X1825780Y1300363D1*
X1809113Y1275417D1*
X1790540Y1251857D1*
X1770173Y1229827D1*
X1748143Y1209460D1*
X1724583Y1190887D1*
X1699637Y1174220D1*
X1673463Y1159560D1*
X1646217Y1147000D1*
X1618070Y1136617D1*
X1589197Y1128473D1*
X1559770Y1122620D1*
X1529977Y1119093D1*
X1500000Y1117917D1*
X1470023Y1119093D1*
X1440230Y1122620D1*
X1410803Y1128473D1*
X1381930Y1136617D1*
X1353783Y1147000D1*
X1326537Y1159560D1*
X1300363Y1174220D1*
X1275417Y1190887D1*
X1251857Y1209460D1*
X1229827Y1229827D1*
X1209460Y1251857D1*
X1190887Y1275417D1*
X1174220Y1300363D1*
X1159560Y1326537D1*
X1147000Y1353783D1*
X1136617Y1381930D1*
X1128473Y1410803D1*
X1122620Y1440230D1*
X1119093Y1470023D1*
X1117917Y1500000D1*
X1119093Y1529977D1*
X1122620Y1559770D1*
X1128473Y1589197D1*
X1136617Y1618070D1*
X1147000Y1646217D1*
X1159560Y1673463D1*
X1174220Y1699637D1*
X1190887Y1724583D1*
X1209460Y1748143D1*
X1229827Y1770173D1*
X1251857Y1790540D1*
X1275417Y1809113D1*
X1300363Y1825780D1*
X1326537Y1840440D1*
X1353783Y1853000D1*
X1381930Y1863383D1*
X1410803Y1871527D1*
X1440230Y1877380D1*
X1470023Y1880907D1*
X1500000Y1882083D1*
X1529977Y1880907D1*
X1559770Y1877380D1*
X1589197Y1871527D1*
X1618070Y1863383D1*
X1646217Y1853000D1*
X1673463Y1840440D1*
X1699637Y1825780D1*
X1724583Y1809113D1*
X1748143Y1790540D1*
X1770173Y1770173D1*
X1790540Y1748143D1*
X1809113Y1724583D1*
X1825780Y1699637D1*
X1840440Y1673463D1*
X1853000Y1646217D1*
X1863383Y1618070D1*
X1871527Y1589197D1*
X1877380Y1559770D1*
X1880907Y1529977D1*
X1882083Y1500000D1*
X1880907Y1470023D1*
X5839213Y13503740D2*
X5836610Y13481747D1*
X5832290Y13460023D1*
X5826277Y13438703D1*
X5818610Y13417923D1*
X5809337Y13397810D1*
X5798517Y13378487D1*
X5786210Y13360070D1*
X5772497Y13342673D1*
X5757463Y13326410D1*
X5741200Y13311377D1*
X5723803Y13297663D1*
X5705387Y13285357D1*
X5686063Y13274537D1*
X5665950Y13265263D1*
X5645170Y13257597D1*
X5623850Y13251583D1*
X5602127Y13247263D1*
X5580133Y13244660D1*
X5558000Y13243790D1*
X5535867Y13244660D1*
X5513873Y13247263D1*
X5492150Y13251583D1*
X5470830Y13257597D1*
X5450050Y13265263D1*
X5429937Y13274537D1*
X5410613Y13285357D1*
X5392197Y13297663D1*
X5374800Y13311377D1*
X5358537Y13326410D1*
X5343503Y13342673D1*
X5329790Y13360070D1*
X5317483Y13378487D1*
X5306663Y13397810D1*
X5297390Y13417923D1*
X5289723Y13438703D1*
X5283710Y13460023D1*
X5279390Y13481747D1*
X5276787Y13503740D1*
X5275917Y13525873D1*
X5276787Y13548007D1*
X5279390Y13570000D1*
X5283710Y13591723D1*
X5289723Y13613043D1*
X5297390Y13633823D1*
X5306663Y13653937D1*
X5317483Y13673260D1*
X5329790Y13691677D1*
X5343503Y13709073D1*
X5358537Y13725337D1*
X5374800Y13740370D1*
X5392197Y13754083D1*
X5410613Y13766390D1*
X5429937Y13777210D1*
X5450050Y13786483D1*
X5470830Y13794150D1*
X5492150Y13800163D1*
X5513873Y13804483D1*
X5535867Y13807087D1*
X5558000Y13807957D1*
X5580133Y13807087D1*
X5602127Y13804483D1*
X5623850Y13800163D1*
X5645170Y13794150D1*
X5665950Y13786483D1*
X5686063Y13777210D1*
X5705387Y13766390D1*
X5723803Y13754083D1*
X5741200Y13740370D1*
X5757463Y13725337D1*
X5772497Y13709073D1*
X5786210Y13691677D1*
X5798517Y13673260D1*
X5809337Y13653937D1*
X5818610Y13633823D1*
X5826277Y13613043D1*
X5832290Y13591723D1*
X5836610Y13570000D1*
X5839213Y13548007D1*
X5840083Y13525873D1*
X5839213Y13503740D1*
X6879213D2*
X6876610Y13481747D1*
X6872290Y13460023D1*
X6866277Y13438703D1*
X6858610Y13417923D1*
X6849337Y13397810D1*
X6838517Y13378487D1*
X6826210Y13360070D1*
X6812497Y13342673D1*
X6797463Y13326410D1*
X6781200Y13311377D1*
X6763803Y13297663D1*
X6745387Y13285357D1*
X6726063Y13274537D1*
X6705950Y13265263D1*
X6685170Y13257597D1*
X6663850Y13251583D1*
X6642127Y13247263D1*
X6620133Y13244660D1*
X6598000Y13243790D1*
X6575867Y13244660D1*
X6553873Y13247263D1*
X6532150Y13251583D1*
X6510830Y13257597D1*
X6490050Y13265263D1*
X6469937Y13274537D1*
X6450613Y13285357D1*
X6432197Y13297663D1*
X6414800Y13311377D1*
X6398537Y13326410D1*
X6383503Y13342673D1*
X6369790Y13360070D1*
X6357483Y13378487D1*
X6346663Y13397810D1*
X6337390Y13417923D1*
X6329723Y13438703D1*
X6323710Y13460023D1*
X6319390Y13481747D1*
X6316787Y13503740D1*
X6315917Y13525873D1*
X6316787Y13548007D1*
X6319390Y13570000D1*
X6323710Y13591723D1*
X6329723Y13613043D1*
X6337390Y13633823D1*
X6346663Y13653937D1*
X6357483Y13673260D1*
X6369790Y13691677D1*
X6383503Y13709073D1*
X6398537Y13725337D1*
X6414800Y13740370D1*
X6432197Y13754083D1*
X6450613Y13766390D1*
X6469937Y13777210D1*
X6490050Y13786483D1*
X6510830Y13794150D1*
X6532150Y13800163D1*
X6553873Y13804483D1*
X6575867Y13807087D1*
X6598000Y13807957D1*
X6620133Y13807087D1*
X6642127Y13804483D1*
X6663850Y13800163D1*
X6685170Y13794150D1*
X6705950Y13786483D1*
X6726063Y13777210D1*
X6745387Y13766390D1*
X6763803Y13754083D1*
X6781200Y13740370D1*
X6797463Y13725337D1*
X6812497Y13709073D1*
X6826210Y13691677D1*
X6838517Y13673260D1*
X6849337Y13653937D1*
X6858610Y13633823D1*
X6866277Y13613043D1*
X6872290Y13591723D1*
X6876610Y13570000D1*
X6879213Y13548007D1*
X6880083Y13525873D1*
X6879213Y13503740D1*
X5238690Y12730630D2*
X5233923Y12700517D1*
X5231253Y12691053D1*
X5250853Y12698530D1*
X5284010Y12706487D1*
X5318000Y12709163D1*
X5351990Y12706487D1*
X5385147Y12698530D1*
X5416647Y12685480D1*
X5445720Y12667663D1*
X5471647Y12645520D1*
X5493790Y12619593D1*
X5511607Y12590520D1*
X5524657Y12559020D1*
X5532613Y12525863D1*
X5535290Y12491873D1*
X5532613Y12457883D1*
X5524657Y12424727D1*
X5511607Y12393227D1*
X5493790Y12364153D1*
X5471647Y12338227D1*
X5445720Y12316083D1*
X5416647Y12298267D1*
X5387583Y12286117D1*
X4725800Y11624813D1*
X4710910Y11613993D1*
X4694513Y11605637D1*
X4677007Y11599950D1*
X4658830Y11597070D1*
X4459127Y11596710D1*
X1641670Y11597070D1*
X1623493Y11599950D1*
X1605987Y11605637D1*
X1589590Y11613993D1*
X1574700Y11624813D1*
X1557500Y11641500D1*
X1537120Y11621770D1*
X1509533Y11601730D1*
X1479153Y11586250D1*
X1446727Y11575713D1*
X1413050Y11570380D1*
X1378950D1*
X1345273Y11575713D1*
X1312847Y11586250D1*
X1282467Y11601730D1*
X1254880Y11621770D1*
X1230770Y11645880D1*
X1210730Y11673467D1*
X1195250Y11703847D1*
X1184713Y11736273D1*
X1179380Y11769950D1*
Y11804050D1*
X1184713Y11837727D1*
X1195250Y11870153D1*
X1210730Y11900533D1*
X1230770Y11928120D1*
X1254880Y11952230D1*
X1282467Y11972270D1*
X1312847Y11987750D1*
X1345273Y11998287D1*
X1378950Y12003620D1*
X1413050D1*
X1446727Y11998287D1*
X1479153Y11987750D1*
X1509533Y11972270D1*
X1529633Y11958130D1*
X1551253Y11955050D1*
X1568760Y11949363D1*
X1585157Y11941007D1*
X1600047Y11930187D1*
X1699507Y11831240D1*
X4601020Y11831290D1*
X5138743Y12368990D1*
X5124393Y12393227D1*
X5111343Y12424727D1*
X5103387Y12457883D1*
X5100710Y12491873D1*
X5103387Y12525863D1*
X5111343Y12559020D1*
X5113167Y12563960D1*
X5090357Y12556950D1*
X5060243Y12552183D1*
X5029757D1*
X4999643Y12556950D1*
X4970650Y12566373D1*
X4943483Y12580213D1*
X4918820Y12598133D1*
X4897260Y12619693D1*
X4879340Y12644357D1*
X4865500Y12671523D1*
X4856077Y12700517D1*
X4851310Y12730630D1*
Y12761117D1*
X4856077Y12791230D1*
X4865500Y12820223D1*
X4879340Y12847390D1*
X4897260Y12872053D1*
X4918820Y12893613D1*
X4943483Y12911533D1*
X4970650Y12925373D1*
X4999643Y12934797D1*
X5029757Y12939563D1*
X5060243D1*
X5090357Y12934797D1*
X5119350Y12925373D1*
X5146517Y12911533D1*
X5171180Y12893613D1*
X5192740Y12872053D1*
X5210660Y12847390D1*
X5224500Y12820223D1*
X5233923Y12791230D1*
X5238690Y12761117D1*
Y12730630D1*
X7308690D2*
X7303923Y12700517D1*
X7294500Y12671523D1*
X7280660Y12644357D1*
X7262740Y12619693D1*
X7241180Y12598133D1*
X7216517Y12580213D1*
X7189350Y12566373D1*
X7160357Y12556950D1*
X7130243Y12552183D1*
X7099757D1*
X7069643Y12556950D1*
X7046967Y12564043D1*
X7053287Y12542600D1*
X7058620Y12508923D1*
Y12474823D1*
X7053287Y12441147D1*
X7042750Y12408720D1*
X7027270Y12378340D1*
X7007230Y12350753D1*
X6983120Y12326643D1*
X6955533Y12306603D1*
X6934293Y12295337D1*
X6934007Y11375010D1*
X6931740Y11360707D1*
X6927267Y11346933D1*
X6920690Y11334030D1*
X6912177Y11322313D1*
X6864023Y11273757D1*
X6861577Y11259433D1*
X6855850Y11241810D1*
X6847437Y11225297D1*
X6836547Y11210307D1*
X6823443Y11197203D1*
X6808453Y11186313D1*
X6791940Y11177900D1*
X6774317Y11172173D1*
X6756017Y11169273D1*
X6737483D1*
X6719183Y11172173D1*
X6701560Y11177900D1*
X6685047Y11186313D1*
X6670057Y11197203D1*
X6656953Y11210307D1*
X6646063Y11225297D1*
X6637650Y11241810D1*
X6631923Y11259433D1*
X6629023Y11277733D1*
Y11296267D1*
X6631923Y11314567D1*
X6637650Y11332190D1*
X6646063Y11348703D1*
X6656953Y11363693D1*
X6670057Y11376797D1*
X6685047Y11387687D1*
X6701560Y11396100D1*
X6719183Y11401827D1*
X6733493Y11404253D1*
X6749633Y11420400D1*
X6749710Y12295187D1*
X6728467Y12306603D1*
X6700880Y12326643D1*
X6676770Y12350753D1*
X6656730Y12378340D1*
X6641250Y12408720D1*
X6630713Y12441147D1*
X6625380Y12474823D1*
Y12508923D1*
X6630713Y12542600D1*
X6641250Y12575027D1*
X6656730Y12605407D1*
X6676770Y12632993D1*
X6700880Y12657103D1*
X6728467Y12677143D1*
X6758847Y12692623D1*
X6791273Y12703160D1*
X6824950Y12708493D1*
X6859050D1*
X6892727Y12703160D1*
X6925153Y12692623D1*
X6928603Y12691033D1*
X6923103Y12715480D1*
X6920710Y12745873D1*
X6923103Y12776267D1*
X6930220Y12805913D1*
X6941887Y12834080D1*
X6957817Y12860073D1*
X6977617Y12883257D1*
X7000800Y12903057D1*
X7026793Y12918987D1*
X7054960Y12930653D1*
X7084607Y12937770D1*
X7115000Y12940163D1*
X7145393Y12937770D1*
X7175040Y12930653D1*
X7203207Y12918987D1*
X7229200Y12903057D1*
X7252383Y12883257D1*
X7272183Y12860073D1*
X7288113Y12834080D1*
X7299780Y12805913D1*
X7306897Y12776267D1*
X7309290Y12745873D1*
X7308690Y12730630D1*
X2426850Y6680027D2*
X2424047Y6661440D1*
X2534273Y6550887D1*
X2544367Y6535780D1*
X2550653Y6518733D1*
X2552790Y6500690D1*
Y5272237D1*
X2565297Y5259693D1*
X2576187Y5244703D1*
X2584600Y5228190D1*
X2590327Y5210567D1*
X2593227Y5192267D1*
Y5173733D1*
X2590327Y5155433D1*
X2584600Y5137810D1*
X2576187Y5121297D1*
X2565297Y5106307D1*
X2552193Y5093203D1*
X2537203Y5082313D1*
X2520690Y5073900D1*
X2503067Y5068173D1*
X2492283Y5066163D1*
X2426740Y5000593D1*
X2426807Y4724970D1*
X2439313Y4712450D1*
X2450203Y4697460D1*
X2458617Y4680947D1*
X2464343Y4663323D1*
X2467243Y4645023D1*
Y4626490D1*
X2464343Y4608190D1*
X2458617Y4590567D1*
X2450203Y4574053D1*
X2439313Y4559063D1*
X2426210Y4545960D1*
X2411220Y4535070D1*
X2394707Y4526657D1*
X2377083Y4520930D1*
X2358783Y4518030D1*
X2340250D1*
X2321950Y4520930D1*
X2304327Y4526657D1*
X2287813Y4535070D1*
X2272823Y4545960D1*
X2259720Y4559063D1*
X2248830Y4574053D1*
X2240417Y4590567D1*
X2234690Y4608190D1*
X2231790Y4626490D1*
Y4645023D1*
X2234690Y4663323D1*
X2240417Y4680947D1*
X2248830Y4697460D1*
X2259720Y4712450D1*
X2272210Y4724987D1*
X2272463Y5038737D1*
X2276010Y5056557D1*
X2283617Y5073057D1*
X2294863Y5087327D1*
X2361077Y5153537D1*
X2357773Y5173733D1*
Y5192267D1*
X2360673Y5210567D1*
X2366400Y5228190D1*
X2374813Y5244703D1*
X2385703Y5259693D1*
X2398193Y5272230D1*
X2398210Y6468730D1*
X2314820Y6552063D1*
X2296163Y6549340D1*
X2273837D1*
X2251783Y6552830D1*
X2230547Y6559730D1*
X2225277Y6562160D1*
X2225290Y6466023D1*
X2301313Y6389993D1*
X2321613Y6381970D1*
X2337410Y6372287D1*
X2351503Y6360253D1*
X2363537Y6346160D1*
X2373220Y6330363D1*
X2380310Y6313243D1*
X2384637Y6295223D1*
X2386090Y6276750D1*
X2384637Y6258277D1*
X2380310Y6240257D1*
X2373220Y6223137D1*
X2363537Y6207340D1*
X2351503Y6193247D1*
X2337410Y6181213D1*
X2321613Y6171530D1*
X2304493Y6164440D1*
X2286473Y6160113D1*
X2268000Y6158660D1*
X2249527Y6160113D1*
X2231507Y6164440D1*
X2214387Y6171530D1*
X2198590Y6181213D1*
X2184497Y6193247D1*
X2172463Y6207340D1*
X2162780Y6223137D1*
X2155690Y6240257D1*
X2151363Y6258277D1*
X2149910Y6276750D1*
X2151363Y6295223D1*
X2156707Y6315993D1*
X2089227Y6383803D1*
X2079133Y6398910D1*
X2072847Y6415957D1*
X2070710Y6434000D1*
Y6554673D1*
X2053260Y6550653D1*
X2031000Y6548900D1*
X2008740Y6550653D1*
X1987030Y6555863D1*
X1966403Y6564410D1*
X1947363Y6576073D1*
X1930387Y6590577D1*
X1915883Y6607553D1*
X1904017Y6627027D1*
X1892410Y6607963D1*
X1880267Y6593300D1*
X1866277Y6580393D1*
X1850690Y6569467D1*
X1833783Y6560720D1*
X1815860Y6554310D1*
X1797240Y6550347D1*
X1778260Y6548907D1*
X1759253Y6550010D1*
X1740570Y6553643D1*
X1722533Y6559737D1*
X1705477Y6568183D1*
X1689697Y6578830D1*
X1675480Y6591490D1*
X1663080Y6605933D1*
X1652720Y6621903D1*
X1644583Y6639113D1*
X1638817Y6657253D1*
X1635523Y6676003D1*
X1634760Y6695023D1*
X1636547Y6713973D1*
X1640843Y6732520D1*
X1647580Y6750323D1*
X1656630Y6767070D1*
X1667837Y6782457D1*
X1680997Y6796213D1*
X1695873Y6808087D1*
X1712850Y6818183D1*
X1693363Y6830073D1*
X1676387Y6844577D1*
X1661883Y6861553D1*
X1650220Y6880593D1*
X1641673Y6901220D1*
X1636463Y6922930D1*
X1634710Y6945190D1*
X1636463Y6967450D1*
X1641673Y6989160D1*
X1650220Y7009787D1*
X1661883Y7028827D1*
X1676387Y7045803D1*
X1693363Y7060307D1*
X1712403Y7071970D1*
X1733030Y7080517D1*
X1754740Y7085727D1*
X1777000Y7087480D1*
X1799260Y7085727D1*
X1806750Y7084237D1*
X1978113Y7255273D1*
X1993220Y7265367D1*
X2010267Y7271653D1*
X2028310Y7273790D1*
X2417370D1*
X2542143Y7398573D1*
X2542367Y8166440D1*
X2545913Y8184260D1*
X2553520Y8200760D1*
X2564767Y8215030D1*
X3388690Y9038950D1*
X3379190Y9060697D1*
X3374863Y9078717D1*
X3373410Y9097190D1*
X3374863Y9115663D1*
X3379190Y9133683D1*
X3386280Y9150803D1*
X3395963Y9166600D1*
X3407997Y9180693D1*
X3422090Y9192727D1*
X3437887Y9202410D1*
X3455007Y9209500D1*
X3473027Y9213827D1*
X3491500Y9215280D1*
X3509973Y9213827D1*
X3527993Y9209500D1*
X3545113Y9202410D1*
X3560910Y9192727D1*
X3575003Y9180693D1*
X3587037Y9166600D1*
X3596720Y9150803D1*
X3603810Y9133683D1*
X3608137Y9115663D1*
X3609590Y9097190D1*
X3608137Y9078717D1*
X3603810Y9060697D1*
X3596720Y9043577D1*
X3587037Y9027780D1*
X3575003Y9013687D1*
X3562907Y9002880D1*
X3554030Y8987027D1*
X3546153Y8977803D1*
X2696623Y8128277D1*
X2696473Y7360480D1*
X2692927Y7342660D1*
X2685320Y7326160D1*
X2674073Y7311890D1*
X2499573Y7137727D1*
X2484467Y7127633D1*
X2467420Y7121347D1*
X2449377Y7119210D1*
X2060317D1*
X2028503Y7087387D1*
X2053260Y7085727D1*
X2074970Y7080517D1*
X2095597Y7071970D1*
X2114637Y7060307D1*
X2131613Y7045803D1*
X2142683Y7033180D1*
X2142710Y7087480D1*
X2427290D1*
Y6802900D1*
X2373093D1*
X2385613Y6791803D1*
X2400117Y6774827D1*
X2411780Y6755787D1*
X2420327Y6735160D1*
X2425537Y6713450D1*
X2427290Y6691190D1*
X2426850Y6680027D1*
X1966837Y6818207D2*
X1947363Y6830073D1*
X1930387Y6844577D1*
X1915883Y6861553D1*
X1904017Y6881027D1*
X1892117Y6861553D1*
X1877613Y6844577D1*
X1860637Y6830073D1*
X1841163Y6818207D1*
X1857137Y6808767D1*
X1872113Y6797020D1*
X1885390Y6783377D1*
X1896723Y6768083D1*
X1904220Y6755787D1*
X1915883Y6774827D1*
X1930387Y6791803D1*
X1947363Y6806307D1*
X1966837Y6818173D1*
X2426850Y7442027D2*
X2423360Y7419973D1*
X2416460Y7398737D1*
X2406323Y7378843D1*
X2393197Y7360780D1*
X2377410Y7344993D1*
X2359347Y7331867D1*
X2339453Y7321730D1*
X2318217Y7314830D1*
X2296163Y7311340D1*
X2273837D1*
X2251783Y7314830D1*
X2230547Y7321730D1*
X2210653Y7331867D1*
X2192590Y7344993D1*
X2176803Y7360780D1*
X2163677Y7378843D1*
X2157780Y7388593D1*
X2146117Y7369553D1*
X2131613Y7352577D1*
X2114637Y7338073D1*
X2095597Y7326410D1*
X2074970Y7317863D1*
X2053260Y7312653D1*
X2031000Y7310900D1*
X2008740Y7312653D1*
X1987030Y7317863D1*
X1966403Y7326410D1*
X1947363Y7338073D1*
X1930387Y7352577D1*
X1915883Y7369553D1*
X1904017Y7389027D1*
X1892410Y7369963D1*
X1880267Y7355300D1*
X1866277Y7342393D1*
X1850690Y7331467D1*
X1833783Y7322720D1*
X1815860Y7316310D1*
X1797240Y7312347D1*
X1778260Y7310907D1*
X1759253Y7312010D1*
X1740570Y7315643D1*
X1722533Y7321737D1*
X1705477Y7330183D1*
X1689697Y7340830D1*
X1675480Y7353490D1*
X1663080Y7367933D1*
X1652720Y7383903D1*
X1644583Y7401113D1*
X1638817Y7419253D1*
X1635523Y7438003D1*
X1634760Y7457023D1*
X1636547Y7475973D1*
X1640843Y7494520D1*
X1647580Y7512323D1*
X1656630Y7529070D1*
X1667837Y7544457D1*
X1680997Y7558213D1*
X1695873Y7570087D1*
X1712850Y7580183D1*
X1693363Y7592073D1*
X1676387Y7606577D1*
X1661883Y7623553D1*
X1650220Y7642593D1*
X1641673Y7663220D1*
X1636463Y7684930D1*
X1634710Y7707190D1*
X1636463Y7729450D1*
X1641673Y7751160D1*
X1650220Y7771787D1*
X1661883Y7790827D1*
X1676387Y7807803D1*
X1693363Y7822307D1*
X1712403Y7833970D1*
X1733030Y7842517D1*
X1754740Y7847727D1*
X1777000Y7849480D1*
X1793147Y7848450D1*
X1826797Y7882100D1*
X1826710Y8081800D1*
X1803503Y8075390D1*
X1784603Y8073103D1*
X1765570Y8073360D1*
X1746740Y8076153D1*
X1728453Y8081437D1*
X1711033Y8089113D1*
X1694797Y8099047D1*
X1680030Y8111060D1*
X1666997Y8124937D1*
X1655933Y8140427D1*
X1647037Y8157257D1*
X1640467Y8175123D1*
X1636340Y8193707D1*
X1634733Y8212673D1*
X1635670Y8231687D1*
X1639137Y8250403D1*
X1645070Y8268490D1*
X1653367Y8285623D1*
X1663873Y8301497D1*
X1676407Y8315823D1*
X1690740Y8328350D1*
X1706617Y8338853D1*
X1712403Y8342410D1*
X1693363Y8354073D1*
X1676387Y8368577D1*
X1661883Y8385553D1*
X1650220Y8404593D1*
X1641673Y8425220D1*
X1636463Y8446930D1*
X1634710Y8469190D1*
X1636463Y8491450D1*
X1641673Y8513160D1*
X1650220Y8533787D1*
X1661883Y8552827D1*
X1676387Y8569803D1*
X1693363Y8584307D1*
X1712403Y8595970D1*
X1733030Y8604517D1*
X1754740Y8609727D1*
X1777000Y8611480D1*
X1799260Y8609727D1*
X1820970Y8604517D1*
X1842550Y8595437D1*
X1871797Y8625603D1*
X3382393Y10136197D1*
X3382460Y10348453D1*
X3369953Y10360997D1*
X3359063Y10375987D1*
X3350650Y10392500D1*
X3344923Y10410123D1*
X3342023Y10428423D1*
Y10446957D1*
X3344923Y10465257D1*
X3350650Y10482880D1*
X3359063Y10499393D1*
X3369953Y10514383D1*
X3383057Y10527487D1*
X3398047Y10538377D1*
X3414560Y10546790D1*
X3432183Y10552517D1*
X3450483Y10555417D1*
X3469017D1*
X3487317Y10552517D1*
X3504940Y10546790D1*
X3521453Y10538377D1*
X3536443Y10527487D1*
X3549547Y10514383D1*
X3560437Y10499393D1*
X3568850Y10482880D1*
X3574577Y10465257D1*
X3577477Y10446957D1*
Y10428423D1*
X3574577Y10410123D1*
X3568850Y10392500D1*
X3560437Y10375987D1*
X3549547Y10360997D1*
X3537057Y10348460D1*
X3536803Y10098187D1*
X3533257Y10080367D1*
X3525650Y10063867D1*
X3514403Y10049597D1*
X3142827Y9678023D1*
X3164113Y9669720D1*
X3179910Y9660037D1*
X3194003Y9648003D1*
X3206037Y9633910D1*
X3214923Y9619533D1*
X3605913Y10010533D1*
X3605867Y10541500D1*
X3557907Y10589573D1*
X3536527Y10590930D1*
X3518507Y10595257D1*
X3501387Y10602347D1*
X3485590Y10612030D1*
X3471497Y10624063D1*
X3458760Y10639210D1*
X3334017Y10639230D1*
X2637863Y9943297D1*
X2622757Y9933203D1*
X2605710Y9926917D1*
X2587667Y9924780D1*
X2200563Y9925017D1*
X2182743Y9928563D1*
X2166243Y9936170D1*
X2151973Y9947417D1*
X2102600Y9996790D1*
X2081937Y10003140D1*
X2065423Y10011553D1*
X2050433Y10022443D1*
X2037330Y10035547D1*
X2026440Y10050537D1*
X2018027Y10067050D1*
X2012300Y10084673D1*
X2009400Y10102973D1*
Y10121507D1*
X2012300Y10139807D1*
X2018027Y10157430D1*
X2026440Y10173943D1*
X2037330Y10188933D1*
X2050433Y10202037D1*
X2065423Y10212927D1*
X2081937Y10221340D1*
X2099560Y10227067D1*
X2117860Y10229967D1*
X2136393D1*
X2154693Y10227067D1*
X2172317Y10221340D1*
X2188830Y10212927D1*
X2203820Y10202037D1*
X2216923Y10188933D1*
X2227813Y10173943D1*
X2236227Y10157430D1*
X2241953Y10139807D1*
X2244853Y10121507D1*
Y10102973D1*
X2241953Y10084673D1*
X2240450Y10079340D1*
X2555753Y10079360D1*
X3251920Y10775293D1*
X3267027Y10785387D1*
X3284073Y10791673D1*
X3302117Y10793810D1*
X3474387D1*
X3485590Y10803103D1*
X3501387Y10812787D1*
X3518507Y10819877D1*
X3529103Y10822727D1*
X3552000Y10845623D1*
X3120593Y10845627D1*
X2482583Y10207637D1*
X2482487Y10189850D1*
X2479587Y10171550D1*
X2473860Y10153927D1*
X2465447Y10137413D1*
X2454557Y10122423D1*
X2441453Y10109320D1*
X2426463Y10098430D1*
X2409950Y10090017D1*
X2392327Y10084290D1*
X2374027Y10081390D1*
X2355493D1*
X2337193Y10084290D1*
X2319570Y10090017D1*
X2303057Y10098430D1*
X2288067Y10109320D1*
X2274963Y10122423D1*
X2264073Y10137413D1*
X2255660Y10153927D1*
X2249933Y10171550D1*
X2247033Y10189850D1*
Y10208383D1*
X2249933Y10226683D1*
X2255660Y10244307D1*
X2264073Y10260820D1*
X2274963Y10275810D1*
X2288067Y10288913D1*
X2303057Y10299803D1*
X2319570Y10308217D1*
X2337193Y10313943D1*
X2355493Y10316843D1*
X2373193Y10316877D1*
X3038363Y10981690D1*
X3053470Y10991783D1*
X3070517Y10998070D1*
X3088560Y11000207D1*
X4943477Y10999970D1*
X4961297Y10996423D1*
X4977797Y10988817D1*
X4992067Y10977570D1*
X5091447Y10877853D1*
X5101540Y10862747D1*
X5107827Y10845700D1*
X5109963Y10827657D1*
X5109727Y10329417D1*
X5106180Y10311597D1*
X5098573Y10295097D1*
X5087327Y10280827D1*
X4632963Y9826467D1*
X4633030Y9446913D1*
X4645537Y9434347D1*
X4656427Y9419357D1*
X4664840Y9402843D1*
X4670567Y9385220D1*
X4673467Y9366920D1*
Y9348387D1*
X4670567Y9330087D1*
X4664840Y9312463D1*
X4656427Y9295950D1*
X4645537Y9280960D1*
X4632433Y9267857D1*
X4617443Y9256967D1*
X4600930Y9248553D1*
X4583307Y9242827D1*
X4565007Y9239927D1*
X4546473D1*
X4528173Y9242827D1*
X4510550Y9248553D1*
X4494037Y9256967D1*
X4479047Y9267857D1*
X4465943Y9280960D1*
X4455053Y9295950D1*
X4446640Y9312463D1*
X4440913Y9330087D1*
X4438013Y9348387D1*
Y9366920D1*
X4440913Y9385220D1*
X4446640Y9402843D1*
X4455053Y9419357D1*
X4465943Y9434347D1*
X4478433Y9446883D1*
X4478687Y9864610D1*
X4482233Y9882430D1*
X4489840Y9898930D1*
X4501087Y9913200D1*
X4955450Y10367560D1*
X4955383Y10795730D1*
X4905320Y10845707D1*
X4527267Y10845627D1*
X4545160Y10834853D1*
X4559253Y10822820D1*
X4571287Y10808727D1*
X4580970Y10792930D1*
X4588060Y10775810D1*
X4592387Y10757790D1*
X4593840Y10739317D1*
X4592387Y10720843D1*
X4588060Y10702823D1*
X4580970Y10685703D1*
X4571287Y10669907D1*
X4559253Y10655813D1*
X4545160Y10643780D1*
X4529363Y10634097D1*
X4512243Y10627007D1*
X4494223Y10622680D1*
X4475750Y10621227D1*
X4457277Y10622680D1*
X4439257Y10627007D1*
X4422137Y10634097D1*
X4406340Y10643780D1*
X4392247Y10655813D1*
X4380213Y10669907D1*
X4370530Y10685703D1*
X4363440Y10702823D1*
X4359113Y10720843D1*
X4357660Y10739317D1*
X4357990Y10747750D1*
X4348570Y10757190D1*
X3682373Y10757277D1*
X3669827Y10735133D1*
X3672727Y10716833D1*
X3672760Y10699133D1*
X3741930Y10629607D1*
X3752023Y10614500D1*
X3758310Y10597453D1*
X3760447Y10579410D1*
X3760210Y9972407D1*
X3756663Y9954587D1*
X3749057Y9938087D1*
X3737810Y9923817D1*
X2616243Y8802250D1*
X2616053Y8335080D1*
X2612507Y8317260D1*
X2604900Y8300760D1*
X2593653Y8286490D1*
X2463243Y8156417D1*
X2448137Y8146323D1*
X2431090Y8140037D1*
X2413047Y8137900D1*
X2404490D1*
X2393197Y8122780D1*
X2377410Y8106993D1*
X2359347Y8093867D1*
X2339453Y8083730D1*
X2318217Y8076830D1*
X2296163Y8073340D1*
X2273837D1*
X2251783Y8076830D1*
X2230547Y8083730D1*
X2210653Y8093867D1*
X2192590Y8106993D1*
X2176803Y8122780D1*
X2163677Y8140843D1*
X2157780Y8150593D1*
X2146117Y8131553D1*
X2131613Y8114577D1*
X2114637Y8100073D1*
X2095597Y8088410D1*
X2074970Y8079863D1*
X2053260Y8074653D1*
X2031000Y8072900D1*
X2008740Y8074653D1*
X1987030Y8079863D1*
X1981257Y8081993D1*
X1981050Y7843913D1*
X1987030Y7842517D1*
X2008740Y7847727D1*
X2031000Y7849480D1*
X2053260Y7847727D1*
X2074970Y7842517D1*
X2095597Y7833970D1*
X2114637Y7822307D1*
X2131613Y7807803D1*
X2142683Y7795180D1*
X2142710Y7849480D1*
X2427290D1*
Y7564900D1*
X2373093D1*
X2385613Y7553803D1*
X2400117Y7536827D1*
X2411780Y7517787D1*
X2420327Y7497160D1*
X2425537Y7475450D1*
X2427290Y7453190D1*
X2426850Y7442027D1*
X1966837Y7580207D2*
X1947363Y7592073D1*
X1930387Y7606577D1*
X1915883Y7623553D1*
X1904017Y7643027D1*
X1892117Y7623553D1*
X1877613Y7606577D1*
X1860637Y7592073D1*
X1841163Y7580207D1*
X1857137Y7570767D1*
X1872113Y7559020D1*
X1885390Y7545377D1*
X1896723Y7530083D1*
X1904220Y7517787D1*
X1915883Y7536827D1*
X1930387Y7553803D1*
X1947363Y7568307D1*
X1966837Y7580173D1*
X3345250Y1448653D2*
X3333217Y1429133D1*
X3317300Y1410497D1*
X3298663Y1394580D1*
X3277767Y1381773D1*
X3255123Y1372393D1*
X3231290Y1366673D1*
X3206857Y1364750D1*
X3182423Y1366673D1*
X3158590Y1372393D1*
X3135947Y1381773D1*
X3115050Y1394580D1*
X3096413Y1410497D1*
X3080497Y1429133D1*
X3067690Y1450030D1*
X3058310Y1472673D1*
X3052590Y1496507D1*
X3050667Y1520940D1*
X3052590Y1545373D1*
X3058310Y1569207D1*
X3067690Y1591850D1*
X3080497Y1612747D1*
X3096413Y1631383D1*
X3115050Y1647300D1*
X3117880Y1649190D1*
X3082633Y1649217D1*
X2995773Y1562253D1*
X2995790Y1498677D1*
X3141787Y1352730D1*
X6225293Y1352790D1*
X6227890Y1366673D1*
X6204057Y1372393D1*
X6181413Y1381773D1*
X6160517Y1394580D1*
X6141880Y1410497D1*
X6125963Y1429133D1*
X6113930Y1448653D1*
X6101817Y1429133D1*
X6085900Y1410497D1*
X6067263Y1394580D1*
X6046367Y1381773D1*
X6023723Y1372393D1*
X5999890Y1366673D1*
X5975457Y1364750D1*
X5951023Y1366673D1*
X5927190Y1372393D1*
X5904547Y1381773D1*
X5883650Y1394580D1*
X5865013Y1410497D1*
X5849097Y1429133D1*
X5837063Y1448653D1*
X5824950Y1429133D1*
X5809033Y1410497D1*
X5790397Y1394580D1*
X5769500Y1381773D1*
X5746857Y1372393D1*
X5723023Y1366673D1*
X5698590Y1364750D1*
X5674157Y1366673D1*
X5650323Y1372393D1*
X5627680Y1381773D1*
X5606783Y1394580D1*
X5588147Y1410497D1*
X5572230Y1429133D1*
X5560197Y1448653D1*
X5548083Y1429133D1*
X5532167Y1410497D1*
X5513530Y1394580D1*
X5492633Y1381773D1*
X5469990Y1372393D1*
X5446157Y1366673D1*
X5421723Y1364750D1*
X5397290Y1366673D1*
X5373457Y1372393D1*
X5350813Y1381773D1*
X5329917Y1394580D1*
X5311280Y1410497D1*
X5295363Y1429133D1*
X5283330Y1448653D1*
X5271250Y1429133D1*
X5255333Y1410497D1*
X5236697Y1394580D1*
X5215800Y1381773D1*
X5193157Y1372393D1*
X5169323Y1366673D1*
X5144890Y1364750D1*
X5120457Y1366673D1*
X5096623Y1372393D1*
X5073980Y1381773D1*
X5053083Y1394580D1*
X5034447Y1410497D1*
X5018530Y1429133D1*
X5006497Y1448653D1*
X4994383Y1429133D1*
X4978467Y1410497D1*
X4959830Y1394580D1*
X4938933Y1381773D1*
X4916290Y1372393D1*
X4892457Y1366673D1*
X4868023Y1364750D1*
X4843590Y1366673D1*
X4819757Y1372393D1*
X4797113Y1381773D1*
X4776217Y1394580D1*
X4757580Y1410497D1*
X4741663Y1429133D1*
X4729630Y1448653D1*
X4717517Y1429133D1*
X4701600Y1410497D1*
X4682963Y1394580D1*
X4662067Y1381773D1*
X4639423Y1372393D1*
X4615590Y1366673D1*
X4591157Y1364750D1*
X4566723Y1366673D1*
X4542890Y1372393D1*
X4520247Y1381773D1*
X4499350Y1394580D1*
X4480713Y1410497D1*
X4464797Y1429133D1*
X4452763Y1448653D1*
X4440650Y1429133D1*
X4424733Y1410497D1*
X4406097Y1394580D1*
X4385200Y1381773D1*
X4362557Y1372393D1*
X4338723Y1366673D1*
X4314290Y1364750D1*
X4289857Y1366673D1*
X4266023Y1372393D1*
X4243380Y1381773D1*
X4222483Y1394580D1*
X4203847Y1410497D1*
X4187930Y1429133D1*
X4175897Y1448653D1*
X4163783Y1429133D1*
X4147867Y1410497D1*
X4129230Y1394580D1*
X4108333Y1381773D1*
X4085690Y1372393D1*
X4061857Y1366673D1*
X4037423Y1364750D1*
X4012990Y1366673D1*
X3989157Y1372393D1*
X3966513Y1381773D1*
X3945617Y1394580D1*
X3926980Y1410497D1*
X3911063Y1429133D1*
X3899030Y1448653D1*
X3886950Y1429133D1*
X3871033Y1410497D1*
X3852397Y1394580D1*
X3831500Y1381773D1*
X3808857Y1372393D1*
X3785023Y1366673D1*
X3760590Y1364750D1*
X3736157Y1366673D1*
X3712323Y1372393D1*
X3689680Y1381773D1*
X3668783Y1394580D1*
X3650147Y1410497D1*
X3634230Y1429133D1*
X3622197Y1448653D1*
X3610083Y1429133D1*
X3594167Y1410497D1*
X3575530Y1394580D1*
X3554633Y1381773D1*
X3531990Y1372393D1*
X3508157Y1366673D1*
X3483723Y1364750D1*
X3459290Y1366673D1*
X3435457Y1372393D1*
X3412813Y1381773D1*
X3391917Y1394580D1*
X3373280Y1410497D1*
X3357363Y1429133D1*
X3345330Y1448653D1*
X3225913Y1675843D2*
X3243320Y1672813D1*
X3266627Y1665240D1*
X3288467Y1654113D1*
X3308293Y1639707D1*
X3325623Y1622377D1*
X3340030Y1602550D1*
X3345250Y1593227D1*
X3357363Y1612747D1*
X3373280Y1631383D1*
X3391917Y1647300D1*
X3412813Y1660107D1*
X3435457Y1669487D1*
X3459290Y1675207D1*
X3483723Y1677130D1*
X3508157Y1675207D1*
X3531990Y1669487D1*
X3554633Y1660107D1*
X3575530Y1647300D1*
X3594167Y1631383D1*
X3610083Y1612747D1*
X3622117Y1593227D1*
X3634230Y1612747D1*
X3650147Y1631383D1*
X3668783Y1647300D1*
X3689680Y1660107D1*
X3712323Y1669487D1*
X3736157Y1675207D1*
X3760590Y1677130D1*
X3785023Y1675207D1*
X3808857Y1669487D1*
X3831500Y1660107D1*
X3852397Y1647300D1*
X3871033Y1631383D1*
X3886950Y1612747D1*
X3898983Y1593227D1*
X3911063Y1612747D1*
X3926980Y1631383D1*
X3945617Y1647300D1*
X3966513Y1660107D1*
X3989157Y1669487D1*
X4012990Y1675207D1*
X4037423Y1677130D1*
X4061857Y1675207D1*
X4085690Y1669487D1*
X4108333Y1660107D1*
X4129230Y1647300D1*
X4147867Y1631383D1*
X4163783Y1612747D1*
X4175817Y1593227D1*
X4187930Y1612747D1*
X4203847Y1631383D1*
X4222483Y1647300D1*
X4243380Y1660107D1*
X4266023Y1669487D1*
X4289857Y1675207D1*
X4314290Y1677130D1*
X4338723Y1675207D1*
X4362557Y1669487D1*
X4385200Y1660107D1*
X4406097Y1647300D1*
X4424733Y1631383D1*
X4440650Y1612747D1*
X4452683Y1593227D1*
X4464797Y1612747D1*
X4480713Y1631383D1*
X4499350Y1647300D1*
X4520247Y1660107D1*
X4542890Y1669487D1*
X4566723Y1675207D1*
X4591157Y1677130D1*
X4615590Y1675207D1*
X4639423Y1669487D1*
X4662067Y1660107D1*
X4682963Y1647300D1*
X4701600Y1631383D1*
X4717517Y1612747D1*
X4729550Y1593227D1*
X4741663Y1612747D1*
X4757580Y1631383D1*
X4776217Y1647300D1*
X4797113Y1660107D1*
X4819757Y1669487D1*
X4843590Y1675207D1*
X4868023Y1677130D1*
X4892457Y1675207D1*
X4916290Y1669487D1*
X4938933Y1660107D1*
X4959830Y1647300D1*
X4978467Y1631383D1*
X4994383Y1612747D1*
X5006417Y1593227D1*
X5018530Y1612747D1*
X5034447Y1631383D1*
X5053083Y1647300D1*
X5073980Y1660107D1*
X5096623Y1669487D1*
X5120457Y1675207D1*
X5144890Y1677130D1*
X5169323Y1675207D1*
X5193157Y1669487D1*
X5215800Y1660107D1*
X5236697Y1647300D1*
X5255333Y1631383D1*
X5271250Y1612747D1*
X5283283Y1593227D1*
X5295363Y1612747D1*
X5311280Y1631383D1*
X5329917Y1647300D1*
X5350813Y1660107D1*
X5373457Y1669487D1*
X5397290Y1675207D1*
X5421723Y1677130D1*
X5446157Y1675207D1*
X5469990Y1669487D1*
X5492633Y1660107D1*
X5513530Y1647300D1*
X5532167Y1631383D1*
X5548083Y1612747D1*
X5560117Y1593227D1*
X5572230Y1612747D1*
X5588147Y1631383D1*
X5606783Y1647300D1*
X5627680Y1660107D1*
X5650323Y1669487D1*
X5674157Y1675207D1*
X5698590Y1677130D1*
X5723023Y1675207D1*
X5746857Y1669487D1*
X5769500Y1660107D1*
X5790397Y1647300D1*
X5809033Y1631383D1*
X5824950Y1612747D1*
X5836983Y1593227D1*
X5849097Y1612747D1*
X5865013Y1631383D1*
X5883650Y1647300D1*
X5904547Y1660107D1*
X5927190Y1669487D1*
X5951023Y1675207D1*
X5975457Y1677130D1*
X5999890Y1675207D1*
X6023723Y1669487D1*
X6046367Y1660107D1*
X6067263Y1647300D1*
X6085900Y1631383D1*
X6101817Y1612747D1*
X6113850Y1593227D1*
X6125963Y1612747D1*
X6141880Y1631383D1*
X6160517Y1647300D1*
X6181413Y1660107D1*
X6204057Y1669487D1*
X6227890Y1675207D1*
X6252323Y1677130D1*
X6276757Y1675207D1*
X6300590Y1669487D1*
X6323233Y1660107D1*
X6344130Y1647300D1*
X6362767Y1631383D1*
X6378683Y1612747D1*
X6391490Y1591850D1*
X6400870Y1569207D1*
X6406590Y1545373D1*
X6407780Y1535337D1*
X6531230Y1658747D1*
X6531190Y1734497D1*
X6518383Y1713600D1*
X6502467Y1694963D1*
X6483830Y1679047D1*
X6462933Y1666240D1*
X6440290Y1656860D1*
X6416457Y1651140D1*
X6392023Y1649217D1*
X6367590Y1651140D1*
X6343757Y1656860D1*
X6321113Y1666240D1*
X6300217Y1679047D1*
X6281580Y1694963D1*
X6265663Y1713600D1*
X6253630Y1733120D1*
X6241517Y1713600D1*
X6225600Y1694963D1*
X6206963Y1679047D1*
X6186067Y1666240D1*
X6163423Y1656860D1*
X6139590Y1651140D1*
X6115157Y1649217D1*
X6090723Y1651140D1*
X6066890Y1656860D1*
X6044247Y1666240D1*
X6023350Y1679047D1*
X6004713Y1694963D1*
X5988797Y1713600D1*
X5976763Y1733120D1*
X5964650Y1713600D1*
X5948733Y1694963D1*
X5930097Y1679047D1*
X5909200Y1666240D1*
X5886557Y1656860D1*
X5862723Y1651140D1*
X5838290Y1649217D1*
X5813857Y1651140D1*
X5790023Y1656860D1*
X5767380Y1666240D1*
X5746483Y1679047D1*
X5727847Y1694963D1*
X5711930Y1713600D1*
X5699897Y1733120D1*
X5687783Y1713600D1*
X5671867Y1694963D1*
X5653230Y1679047D1*
X5632333Y1666240D1*
X5609690Y1656860D1*
X5585857Y1651140D1*
X5561423Y1649217D1*
X5536990Y1651140D1*
X5513157Y1656860D1*
X5490513Y1666240D1*
X5469617Y1679047D1*
X5450980Y1694963D1*
X5435063Y1713600D1*
X5423030Y1733120D1*
X5410950Y1713600D1*
X5395033Y1694963D1*
X5376397Y1679047D1*
X5355500Y1666240D1*
X5332857Y1656860D1*
X5309023Y1651140D1*
X5284590Y1649217D1*
X5260157Y1651140D1*
X5236323Y1656860D1*
X5213680Y1666240D1*
X5192783Y1679047D1*
X5174147Y1694963D1*
X5158230Y1713600D1*
X5146197Y1733120D1*
X5134083Y1713600D1*
X5118167Y1694963D1*
X5099530Y1679047D1*
X5078633Y1666240D1*
X5055990Y1656860D1*
X5032157Y1651140D1*
X5007723Y1649217D1*
X4983290Y1651140D1*
X4959457Y1656860D1*
X4936813Y1666240D1*
X4915917Y1679047D1*
X4897280Y1694963D1*
X4881363Y1713600D1*
X4869330Y1733120D1*
X4857217Y1713600D1*
X4841300Y1694963D1*
X4822663Y1679047D1*
X4801767Y1666240D1*
X4779123Y1656860D1*
X4755290Y1651140D1*
X4730857Y1649217D1*
X4706423Y1651140D1*
X4682590Y1656860D1*
X4659947Y1666240D1*
X4639050Y1679047D1*
X4620413Y1694963D1*
X4604497Y1713600D1*
X4592463Y1733120D1*
X4580350Y1713600D1*
X4564433Y1694963D1*
X4545797Y1679047D1*
X4524900Y1666240D1*
X4502257Y1656860D1*
X4478423Y1651140D1*
X4453990Y1649217D1*
X4429557Y1651140D1*
X4405723Y1656860D1*
X4383080Y1666240D1*
X4362183Y1679047D1*
X4343547Y1694963D1*
X4327630Y1713600D1*
X4315597Y1733120D1*
X4303483Y1713600D1*
X4287567Y1694963D1*
X4268930Y1679047D1*
X4248033Y1666240D1*
X4225390Y1656860D1*
X4201557Y1651140D1*
X4177123Y1649217D1*
X4152690Y1651140D1*
X4128857Y1656860D1*
X4106213Y1666240D1*
X4085317Y1679047D1*
X4066680Y1694963D1*
X4050763Y1713600D1*
X4038730Y1733120D1*
X4026650Y1713600D1*
X4010733Y1694963D1*
X3992097Y1679047D1*
X3971200Y1666240D1*
X3948557Y1656860D1*
X3924723Y1651140D1*
X3900290Y1649217D1*
X3875857Y1651140D1*
X3852023Y1656860D1*
X3829380Y1666240D1*
X3808483Y1679047D1*
X3789847Y1694963D1*
X3773930Y1713600D1*
X3761897Y1733120D1*
X3749783Y1713600D1*
X3733867Y1694963D1*
X3715230Y1679047D1*
X3694333Y1666240D1*
X3671690Y1656860D1*
X3647857Y1651140D1*
X3623423Y1649217D1*
X3598990Y1651140D1*
X3575157Y1656860D1*
X3552513Y1666240D1*
X3531617Y1679047D1*
X3512980Y1694963D1*
X3497063Y1713600D1*
X3485030Y1733120D1*
X3472917Y1713600D1*
X3457000Y1694963D1*
X3438363Y1679047D1*
X3417467Y1666240D1*
X3394823Y1656860D1*
X3370990Y1651140D1*
X3346557Y1649217D1*
X3322123Y1651140D1*
X3298290Y1656860D1*
X3275647Y1666240D1*
X3254750Y1679047D1*
X3236113Y1694963D1*
X3225860Y1706413D1*
X1613197Y11272650D2*
X1610973Y11247363D1*
X1605817Y11222507D1*
X1597797Y11198420D1*
X1587023Y11175437D1*
X1573640Y11153863D1*
X1557833Y11134000D1*
X1539817Y11116117D1*
X1519840Y11100453D1*
X1498170Y11087230D1*
X1475107Y11076623D1*
X1450963Y11068777D1*
X1426070Y11063800D1*
X1400767Y11061763D1*
X1375400Y11062690D1*
X1350313Y11066567D1*
X1325847Y11073347D1*
X1302340Y11082930D1*
X1280113Y11095193D1*
X1259467Y11109963D1*
X1240683Y11127040D1*
X1224020Y11146190D1*
X1209707Y11167153D1*
X1197933Y11189647D1*
X1188863Y11213357D1*
X1182620Y11237960D1*
X1179290Y11263127D1*
X1178917Y11288510D1*
X1181510Y11313763D1*
X1187027Y11338543D1*
X1195397Y11362507D1*
X1206507Y11385333D1*
X1220200Y11406710D1*
X1236293Y11426340D1*
X1254570Y11443960D1*
X1274773Y11459330D1*
X1296633Y11472237D1*
X1319847Y11482510D1*
X1344100Y11490000D1*
X1369063Y11494613D1*
X1394397Y11496283D1*
X1419747Y11494990D1*
X1444777Y11490743D1*
X1469140Y11483610D1*
X1492503Y11473683D1*
X1514550Y11461100D1*
X1534980Y11446033D1*
X1553510Y11428683D1*
X1569893Y11409290D1*
X1583903Y11388120D1*
X1595347Y11365463D1*
X1604070Y11341623D1*
X1609953Y11316927D1*
X1612917Y11291717D1*
X1613197Y11272650D1*
X4824983Y7087337D2*
X4813117Y7067863D1*
X4798613Y7050887D1*
X4781637Y7036383D1*
X4762597Y7024720D1*
X4741970Y7016173D1*
X4720260Y7010963D1*
X4698000Y7009210D1*
X4675740Y7010963D1*
X4654030Y7016173D1*
X4633403Y7024720D1*
X4614363Y7036383D1*
X4597387Y7050887D1*
X4582883Y7067863D1*
X4571220Y7086903D1*
X4562673Y7107530D1*
X4557463Y7129240D1*
X4555710Y7151500D1*
X4557463Y7173760D1*
X4562673Y7195470D1*
X4571220Y7216097D1*
X4582883Y7235137D1*
X4597387Y7252113D1*
X4614363Y7266617D1*
X4633837Y7278483D1*
X4614363Y7290383D1*
X4597387Y7304887D1*
X4582883Y7321863D1*
X4571220Y7340903D1*
X4562673Y7361530D1*
X4557463Y7383240D1*
X4555710Y7405500D1*
X4557463Y7427760D1*
X4562673Y7449470D1*
X4571220Y7470097D1*
X4582883Y7489137D1*
X4597387Y7506113D1*
X4614363Y7520617D1*
X4633403Y7532280D1*
X4654030Y7540827D1*
X4675740Y7546037D1*
X4698000Y7547790D1*
X4720260Y7546037D1*
X4741970Y7540827D1*
X4762597Y7532280D1*
X4781637Y7520617D1*
X4798613Y7506113D1*
X4813117Y7489137D1*
X4824983Y7469663D1*
X4836883Y7489137D1*
X4851387Y7506113D1*
X4868363Y7520617D1*
X4887403Y7532280D1*
X4908030Y7540827D1*
X4929740Y7546037D1*
X4952000Y7547790D1*
X4974260Y7546037D1*
X4995970Y7540827D1*
X5016597Y7532280D1*
X5035637Y7520617D1*
X5052613Y7506113D1*
X5067117Y7489137D1*
X5078780Y7470097D1*
X5087327Y7449470D1*
X5092537Y7427760D1*
X5094290Y7405500D1*
X5092537Y7383240D1*
X5087327Y7361530D1*
X5078780Y7340903D1*
X5067117Y7321863D1*
X5052613Y7304887D1*
X5035637Y7290383D1*
X5016163Y7278517D1*
X5035637Y7266617D1*
X5052613Y7252113D1*
X5067117Y7235137D1*
X5078780Y7216097D1*
X5087327Y7195470D1*
X5092537Y7173760D1*
X5094290Y7151500D1*
X5092537Y7129240D1*
X5087327Y7107530D1*
X5078780Y7086903D1*
X5067117Y7067863D1*
X5052613Y7050887D1*
X5035637Y7036383D1*
X5016597Y7024720D1*
X4995970Y7016173D1*
X4974260Y7010963D1*
X4952000Y7009210D1*
X4929740Y7010963D1*
X4908030Y7016173D1*
X4887403Y7024720D1*
X4868363Y7036383D1*
X4851387Y7050887D1*
X4836883Y7067863D1*
X4825017Y7087337D1*
X4762163Y7278483D2*
X4781637Y7266617D1*
X4798613Y7252113D1*
X4813117Y7235137D1*
X4824983Y7215663D1*
X4836883Y7235137D1*
X4851387Y7252113D1*
X4868363Y7266617D1*
X4887837Y7278483D1*
X4868363Y7290383D1*
X4851387Y7304887D1*
X4836883Y7321863D1*
X4825017Y7341337D1*
X4813117Y7321863D1*
X4798613Y7304887D1*
X4781637Y7290383D1*
X4762163Y7278517D1*
X6043197Y12485523D2*
X6040973Y12460237D1*
X6035817Y12435380D1*
X6027797Y12411293D1*
X6017023Y12388310D1*
X6003640Y12366737D1*
X5987833Y12346873D1*
X5969817Y12328990D1*
X5949840Y12313327D1*
X5928170Y12300103D1*
X5905107Y12289497D1*
X5880963Y12281650D1*
X5856070Y12276673D1*
X5830767Y12274637D1*
X5805400Y12275563D1*
X5780313Y12279440D1*
X5755847Y12286220D1*
X5732340Y12295803D1*
X5710113Y12308067D1*
X5689467Y12322837D1*
X5670683Y12339913D1*
X5654020Y12359063D1*
X5639707Y12380027D1*
X5627933Y12402520D1*
X5618863Y12426230D1*
X5612620Y12450833D1*
X5609290Y12476000D1*
X5608917Y12501383D1*
X5611510Y12526637D1*
X5617027Y12551417D1*
X5625397Y12575380D1*
X5636507Y12598207D1*
X5650200Y12619583D1*
X5666293Y12639213D1*
X5684570Y12656833D1*
X5704773Y12672203D1*
X5726633Y12685110D1*
X5749847Y12695383D1*
X5774100Y12702873D1*
X5799063Y12707487D1*
X5824397Y12709157D1*
X5849747Y12707863D1*
X5874777Y12703617D1*
X5899140Y12696483D1*
X5922503Y12686557D1*
X5944550Y12673973D1*
X5964980Y12658907D1*
X5983510Y12641557D1*
X5999893Y12622163D1*
X6013903Y12600993D1*
X6025347Y12578337D1*
X6034070Y12554497D1*
X6039953Y12529800D1*
X6042917Y12504590D1*
X6043197Y12485523D1*
X6551197D2*
X6548973Y12460237D1*
X6543817Y12435380D1*
X6535797Y12411293D1*
X6525023Y12388310D1*
X6511640Y12366737D1*
X6495833Y12346873D1*
X6477817Y12328990D1*
X6457840Y12313327D1*
X6436170Y12300103D1*
X6413107Y12289497D1*
X6388963Y12281650D1*
X6364070Y12276673D1*
X6338767Y12274637D1*
X6313400Y12275563D1*
X6288313Y12279440D1*
X6263847Y12286220D1*
X6240340Y12295803D1*
X6218113Y12308067D1*
X6197467Y12322837D1*
X6178683Y12339913D1*
X6162020Y12359063D1*
X6147707Y12380027D1*
X6135933Y12402520D1*
X6126863Y12426230D1*
X6120620Y12450833D1*
X6117290Y12476000D1*
X6116917Y12501383D1*
X6119510Y12526637D1*
X6125027Y12551417D1*
X6133397Y12575380D1*
X6144507Y12598207D1*
X6158200Y12619583D1*
X6174293Y12639213D1*
X6192570Y12656833D1*
X6212773Y12672203D1*
X6234633Y12685110D1*
X6257847Y12695383D1*
X6282100Y12702873D1*
X6307063Y12707487D1*
X6332397Y12709157D1*
X6357747Y12707863D1*
X6382777Y12703617D1*
X6407140Y12696483D1*
X6430503Y12686557D1*
X6452550Y12673973D1*
X6472980Y12658907D1*
X6491510Y12641557D1*
X6507893Y12622163D1*
X6521903Y12600993D1*
X6533347Y12578337D1*
X6542070Y12554497D1*
X6547953Y12529800D1*
X6550917Y12504590D1*
X6551197Y12485523D1*
X6350813Y1955943D2*
X6367590Y1959673D1*
X6392023Y1961597D1*
X6416457Y1959673D1*
X6440290Y1953953D1*
X6462933Y1944573D1*
X6483830Y1931767D1*
X6502467Y1915850D1*
X6518383Y1897213D1*
X6531210Y1876273D1*
Y3314537D1*
X6300323Y3545410D1*
X6284567Y3540540D1*
X6266267Y3537640D1*
X6247733D1*
X6229433Y3540540D1*
X6211810Y3546267D1*
X6195297Y3554680D1*
X6180307Y3565570D1*
X6167203Y3578673D1*
X6156313Y3593663D1*
X6147900Y3610177D1*
X6142173Y3627800D1*
X6139273Y3646100D1*
Y3664633D1*
X6142173Y3682933D1*
X6147900Y3700557D1*
X6156313Y3717070D1*
X6167203Y3732060D1*
X6180307Y3745163D1*
X6195297Y3756053D1*
X6211810Y3764467D1*
X6228560Y3769947D1*
X6228877Y9725370D1*
X6231143Y9739673D1*
X6235620Y9753447D1*
X6242193Y9766350D1*
X6250707Y9778067D1*
X6502580Y10030347D1*
X7439107Y10966870D1*
X7441550Y10981190D1*
X7447277Y10998813D1*
X7455690Y11015327D1*
X7466580Y11030317D1*
X7479683Y11043420D1*
X7494673Y11054310D1*
X7511187Y11062723D1*
X7528810Y11068450D1*
X7547110Y11071350D1*
X7565643D1*
X7583943Y11068450D1*
X7601567Y11062723D1*
X7618080Y11054310D1*
X7633070Y11043420D1*
X7646173Y11030317D1*
X7657063Y11015327D1*
X7665477Y10998813D1*
X7671203Y10981190D1*
X7674103Y10962890D1*
Y10944357D1*
X7671203Y10926057D1*
X7665477Y10908433D1*
X7657063Y10891920D1*
X7646173Y10876930D1*
X7633070Y10863827D1*
X7618080Y10852937D1*
X7601567Y10844523D1*
X7583943Y10838797D1*
X7569633Y10836370D1*
X6413247Y9679977D1*
X6413173Y3693690D1*
X6693677Y3412687D1*
X6702190Y3400970D1*
X6708763Y3388067D1*
X6713240Y3374293D1*
X6715507Y3359990D1*
X6715790Y3003500D1*
X6715507Y1613260D1*
X6713240Y1598957D1*
X6708763Y1585183D1*
X6702190Y1572280D1*
X6693677Y1560563D1*
X6441803Y1308283D1*
X6323437Y1190323D1*
X6311720Y1181810D1*
X6298817Y1175237D1*
X6285043Y1170760D1*
X6270740Y1168493D1*
X5914250Y1168210D1*
X3096260Y1168493D1*
X3081957Y1170760D1*
X3068183Y1175237D1*
X3055280Y1181810D1*
X3043563Y1190323D1*
X2838240Y1395240D1*
X2828837Y1406253D1*
X2821270Y1418600D1*
X2815727Y1431980D1*
X2812347Y1446063D1*
X2811210Y1460500D1*
X2811493Y1607740D1*
X2813760Y1622043D1*
X2818233Y1635817D1*
X2824810Y1648720D1*
X2833323Y1660437D1*
X2913573Y1741090D1*
X2913500Y1961597D1*
X2977373D1*
X2977400Y2582167D1*
X2335383Y3224097D1*
X2312007Y3229190D1*
X2294887Y3236280D1*
X2279090Y3245963D1*
X2264997Y3257997D1*
X2252963Y3272090D1*
X2243280Y3287887D1*
X2236190Y3305007D1*
X2231863Y3323027D1*
X2230410Y3341500D1*
X2231863Y3359973D1*
X2236190Y3377993D1*
X2243280Y3395113D1*
X2252963Y3410910D1*
X2264997Y3425003D1*
X2279090Y3437037D1*
X2294887Y3446720D1*
X2312007Y3453810D1*
X2330027Y3458137D1*
X2348500Y3459590D1*
X2366973Y3458137D1*
X2384993Y3453810D1*
X2402113Y3446720D1*
X2417910Y3437037D1*
X2432003Y3425003D1*
X2444037Y3410910D1*
X2453720Y3395113D1*
X2460810Y3377993D1*
X2465137Y3359973D1*
X2465753Y3354757D1*
X3139867Y2680247D1*
X3148380Y2668530D1*
X3154957Y2655627D1*
X3159430Y2641853D1*
X3161697Y2627550D1*
X3161980Y2271060D1*
Y1961620D1*
X3225880Y1961597D1*
Y1904670D1*
X3245120Y1924173D1*
X3264947Y1938580D1*
X3286787Y1949707D1*
X3310093Y1957280D1*
X3334303Y1961117D1*
X3358810D1*
X3383020Y1957280D1*
X3387767Y1955943D1*
X3942710Y2510863D1*
X3942533Y3965503D1*
X3925413Y3958413D1*
X3907393Y3954087D1*
X3888920Y3952633D1*
X3870447Y3954087D1*
X3852427Y3958413D1*
X3835307Y3965503D1*
X3819510Y3975187D1*
X3805417Y3987220D1*
X3793383Y4001313D1*
X3783700Y4017110D1*
X3776610Y4034230D1*
X3772283Y4052250D1*
X3770830Y4070723D1*
X3772283Y4089197D1*
X3776610Y4107217D1*
X3779053Y4113840D1*
X3772093Y4126923D1*
X3767160Y4144410D1*
X3766210Y4156500D1*
Y4649740D1*
X3743620Y4646540D1*
X3744570Y4634450D1*
Y4016937D1*
X3824803Y3936597D1*
X3839993Y3932810D1*
X3857113Y3925720D1*
X3872910Y3916037D1*
X3887003Y3904003D1*
X3899037Y3889910D1*
X3908720Y3874113D1*
X3915810Y3856993D1*
X3920137Y3838973D1*
X3921590Y3820500D1*
X3920137Y3802027D1*
X3915810Y3784007D1*
X3908720Y3766887D1*
X3899037Y3751090D1*
X3887003Y3736997D1*
X3872910Y3724963D1*
X3857113Y3715280D1*
X3839993Y3708190D1*
X3821973Y3703863D1*
X3803500Y3702410D1*
X3785027Y3703863D1*
X3767007Y3708190D1*
X3749887Y3715280D1*
X3734090Y3724963D1*
X3719997Y3736997D1*
X3707963Y3751090D1*
X3698280Y3766887D1*
X3691190Y3784007D1*
X3686863Y3802027D1*
X3685410Y3820500D1*
X3686863Y3838973D1*
X3690000Y3852773D1*
X3608507Y3934617D1*
X3598413Y3949723D1*
X3592127Y3966770D1*
X3589990Y3984813D1*
Y4602327D1*
X3560273Y4632153D1*
X3542483Y4632253D1*
X3524183Y4635153D1*
X3506560Y4640880D1*
X3490047Y4649293D1*
X3475057Y4660183D1*
X3461953Y4673287D1*
X3451063Y4688277D1*
X3442650Y4704790D1*
X3436923Y4722413D1*
X3434023Y4740713D1*
Y4759247D1*
X3436923Y4777547D1*
X3442650Y4795170D1*
X3451063Y4811683D1*
X3461953Y4826673D1*
X3475057Y4839777D1*
X3490047Y4850667D1*
X3506560Y4859080D1*
X3524183Y4864807D1*
X3542483Y4867707D1*
X3548093Y4867927D1*
X3278883Y5137120D1*
X3269537Y5122030D1*
X3257503Y5107937D1*
X3243410Y5095903D1*
X3227613Y5086220D1*
X3210493Y5079130D1*
X3192473Y5074803D1*
X3174000Y5073350D1*
X3155527Y5074803D1*
X3137507Y5079130D1*
X3120387Y5086220D1*
X3104590Y5095903D1*
X3090497Y5107937D1*
X3078463Y5122030D1*
X3068780Y5137827D1*
X3061690Y5154947D1*
X3057363Y5172967D1*
X3055910Y5191440D1*
X3057363Y5209913D1*
X3061690Y5227933D1*
X3068780Y5245053D1*
X3078463Y5260850D1*
X3090497Y5274943D1*
X3096693Y5280670D1*
X3096710Y5946620D1*
X3077247Y5948020D1*
X3059227Y5952347D1*
X3042107Y5959437D1*
X3026310Y5969120D1*
X3012217Y5981153D1*
X3000183Y5995247D1*
X2990500Y6011043D1*
X2983410Y6028163D1*
X2979083Y6046183D1*
X2977630Y6064657D1*
X2979083Y6083130D1*
X2983410Y6101150D1*
X2990500Y6118270D1*
X3000183Y6134067D1*
X3012217Y6148160D1*
X3026310Y6160193D1*
X3042107Y6169877D1*
X3059227Y6176967D1*
X3077247Y6181293D1*
X3095720Y6182747D1*
X3114193Y6181293D1*
X3132213Y6176967D1*
X3149333Y6169877D1*
X3165130Y6160193D1*
X3179223Y6148160D1*
X3191257Y6134067D1*
X3200940Y6118270D1*
X3208030Y6101150D1*
X3210880Y6090553D1*
X3226220Y6075217D1*
X3226210Y6107710D1*
X3211203Y6122307D1*
X3200313Y6137297D1*
X3191900Y6153810D1*
X3186173Y6171433D1*
X3183273Y6189733D1*
Y6208267D1*
X3186173Y6226567D1*
X3191900Y6244190D1*
X3200313Y6260703D1*
X3211203Y6275693D1*
X3224307Y6288797D1*
X3239297Y6299687D1*
X3255810Y6308100D1*
X3273433Y6313827D1*
X3291733Y6316727D1*
X3310267D1*
X3328567Y6313827D1*
X3346190Y6308100D1*
X3364420Y6298540D1*
X3382810Y6308100D1*
X3400433Y6313827D1*
X3418733Y6316727D1*
X3437267D1*
X3455567Y6313827D1*
X3473190Y6308100D1*
X3491420Y6298540D1*
X3509810Y6308100D1*
X3527433Y6313827D1*
X3545733Y6316727D1*
X3564267D1*
X3582567Y6313827D1*
X3600190Y6308100D1*
X3618420Y6298540D1*
X3633553Y6306600D1*
X3242227Y6698273D1*
X3232133Y6713380D1*
X3225847Y6730427D1*
X3223710Y6748470D1*
Y7062127D1*
X3211203Y7074807D1*
X3200313Y7089797D1*
X3191900Y7106310D1*
X3186173Y7123933D1*
X3183273Y7142233D1*
Y7160767D1*
X3186173Y7179067D1*
X3191900Y7196690D1*
X3200313Y7213203D1*
X3211203Y7228193D1*
X3224307Y7241297D1*
X3239297Y7252187D1*
X3255810Y7260600D1*
X3273433Y7266327D1*
X3291733Y7269227D1*
X3310267D1*
X3328567Y7266327D1*
X3346190Y7260600D1*
X3364420Y7251040D1*
X3382810Y7260600D1*
X3400433Y7266327D1*
X3418733Y7269227D1*
X3437267D1*
X3455567Y7266327D1*
X3473190Y7260600D1*
X3491420Y7251040D1*
X3509810Y7260600D1*
X3527433Y7266327D1*
X3545733Y7269227D1*
X3564267D1*
X3582567Y7266327D1*
X3600190Y7260600D1*
X3618420Y7251040D1*
X3636810Y7260600D1*
X3654433Y7266327D1*
X3672733Y7269227D1*
X3691267D1*
X3709567Y7266327D1*
X3727190Y7260600D1*
X3743703Y7252187D1*
X3758693Y7241297D1*
X3763987Y7236403D1*
X3764000Y7261577D1*
X3421027Y7604617D1*
X3040733Y7224427D1*
X3040790Y6768467D1*
X3060783Y6747177D1*
X3069660Y6731323D1*
X3074593Y6713837D1*
X3075543Y6701747D1*
Y6651767D1*
X3088050Y6639193D1*
X3098940Y6624203D1*
X3107353Y6607690D1*
X3113080Y6590067D1*
X3115980Y6571767D1*
Y6553233D1*
X3113080Y6534933D1*
X3107353Y6517310D1*
X3098940Y6500797D1*
X3088050Y6485807D1*
X3074947Y6472703D1*
X3059957Y6461813D1*
X3043443Y6453400D1*
X3025820Y6447673D1*
X3007520Y6444773D1*
X2988987D1*
X2970687Y6447673D1*
X2953063Y6453400D1*
X2936550Y6461813D1*
X2921560Y6472703D1*
X2908457Y6485807D1*
X2897567Y6500797D1*
X2889153Y6517310D1*
X2883427Y6534933D1*
X2880527Y6553233D1*
Y6571767D1*
X2883427Y6590067D1*
X2889153Y6607690D1*
X2897567Y6624203D1*
X2908457Y6639193D1*
X2920947Y6651730D1*
X2920963Y6669780D1*
X2900970Y6691070D1*
X2892093Y6706923D1*
X2887160Y6724410D1*
X2886210Y6736500D1*
X2886447Y7262563D1*
X2889993Y7280383D1*
X2897600Y7296883D1*
X2908847Y7311153D1*
X4041097Y8443417D1*
Y8461950D1*
X4043997Y8480250D1*
X4049723Y8497873D1*
X4058137Y8514387D1*
X4069027Y8529377D1*
X4082130Y8542480D1*
X4097120Y8553370D1*
X4113633Y8561783D1*
X4131257Y8567510D1*
X4149557Y8570410D1*
X4168090D1*
X4186390Y8567510D1*
X4204013Y8561783D1*
X4220527Y8553370D1*
X4235517Y8542480D1*
X4248620Y8529377D1*
X4259510Y8514387D1*
X4267923Y8497873D1*
X4273650Y8480250D1*
X4276550Y8461950D1*
Y8443417D1*
X4273650Y8425117D1*
X4267923Y8407493D1*
X4259510Y8390980D1*
X4248620Y8375990D1*
X4235517Y8362887D1*
X4220527Y8351997D1*
X4204013Y8343583D1*
X4186390Y8337857D1*
X4168090Y8334957D1*
X4151187Y8334893D1*
X3530223Y7713917D1*
X3900063Y7343853D1*
X3910157Y7328747D1*
X3916443Y7311700D1*
X3918580Y7293657D1*
Y6875327D1*
X4182803Y6611040D1*
X4200477Y6611053D1*
X4218777Y6608153D1*
X4236400Y6602427D1*
X4252913Y6594013D1*
X4267903Y6583123D1*
X4281007Y6570020D1*
X4291897Y6555030D1*
X4300310Y6538517D1*
X4306037Y6520893D1*
X4308937Y6502593D1*
Y6484060D1*
X4306037Y6465760D1*
X4300310Y6448137D1*
X4291897Y6431623D1*
X4281007Y6416633D1*
X4267903Y6403530D1*
X4252913Y6392640D1*
X4236400Y6384227D1*
X4218777Y6378500D1*
X4200477Y6375600D1*
X4181943D1*
X4163643Y6378500D1*
X4157333Y6380280D1*
X4157363Y6110460D1*
X4493673Y5774133D1*
X4493710Y6109827D1*
X4481203Y6122307D1*
X4470313Y6137297D1*
X4461900Y6153810D1*
X4456173Y6171433D1*
X4453273Y6189733D1*
Y6208267D1*
X4456173Y6226567D1*
X4461900Y6244190D1*
X4470313Y6260703D1*
X4481203Y6275693D1*
X4494307Y6288797D1*
X4509297Y6299687D1*
X4525810Y6308100D1*
X4543433Y6313827D1*
X4561733Y6316727D1*
X4580267D1*
X4598567Y6313827D1*
X4616190Y6308100D1*
X4634420Y6298540D1*
X4652810Y6308100D1*
X4670433Y6313827D1*
X4688733Y6316727D1*
X4707267D1*
X4725567Y6313827D1*
X4743190Y6308100D1*
X4761420Y6298540D1*
X4779810Y6308100D1*
X4797433Y6313827D1*
X4815733Y6316727D1*
X4834267D1*
X4852567Y6313827D1*
X4870190Y6308100D1*
X4888420Y6298540D1*
X4906810Y6308100D1*
X4924433Y6313827D1*
X4942733Y6316727D1*
X4961267D1*
X4979567Y6313827D1*
X4997190Y6308100D1*
X5013703Y6299687D1*
X5028693Y6288797D1*
X5041797Y6275693D1*
X5052687Y6260703D1*
X5061100Y6244190D1*
X5066827Y6226567D1*
X5069727Y6208267D1*
Y6189733D1*
X5066827Y6171433D1*
X5061100Y6153810D1*
X5052687Y6137297D1*
X5041797Y6122307D1*
X5029307Y6109770D1*
X5029290Y5875670D1*
X5499603Y5405377D1*
X5514387Y5414480D1*
X5531507Y5421570D1*
X5549527Y5425897D1*
X5568000Y5427350D1*
X5586473Y5425897D1*
X5604493Y5421570D1*
X5621613Y5414480D1*
X5637410Y5404797D1*
X5651503Y5392763D1*
X5663537Y5378670D1*
X5673220Y5362873D1*
X5680310Y5345753D1*
X5684637Y5327733D1*
X5686090Y5309260D1*
X5684637Y5290787D1*
X5680813Y5274547D1*
X5701973Y5273137D1*
X5719993Y5268810D1*
X5737113Y5261720D1*
X5752910Y5252037D1*
X5767003Y5240003D1*
X5779037Y5225910D1*
X5788720Y5210113D1*
X5795810Y5192993D1*
X5800137Y5174973D1*
X5801590Y5156500D1*
X5799903Y5136853D1*
X5948787Y4987610D1*
X5958880Y4972503D1*
X5965167Y4955457D1*
X5967303Y4937413D1*
Y2339493D1*
X6350620Y1956117D1*
X6073947Y1955943D2*
X6090723Y1959673D1*
X6115157Y1961597D1*
X6126980Y1961133D1*
X5831240Y2257220D1*
X5821147Y2272327D1*
X5814860Y2289373D1*
X5812723Y2307417D1*
Y4905337D1*
X5806400Y4906797D1*
X5808537Y4888753D1*
Y2221380D1*
X6073810Y1956057D1*
X2920147Y11407653D2*
X2918030Y11388733D1*
X2913403Y11370270D1*
X2906353Y11352587D1*
X2897007Y11336003D1*
X2885533Y11320817D1*
X2872130Y11307297D1*
X2857047Y11295687D1*
X2840547Y11286193D1*
X2822927Y11278990D1*
X2804503Y11274200D1*
X2785603Y11271913D1*
X2766570Y11272170D1*
X2747740Y11274963D1*
X2729453Y11280247D1*
X2712033Y11287923D1*
X2695797Y11297857D1*
X2681030Y11309870D1*
X2667997Y11323747D1*
X2656933Y11339237D1*
X2648037Y11356067D1*
X2641467Y11373933D1*
X2637340Y11392517D1*
X2635733Y11411483D1*
X2636670Y11430497D1*
X2640137Y11449213D1*
X2646070Y11467300D1*
X2654367Y11484433D1*
X2664873Y11500307D1*
X2677407Y11514633D1*
X2691740Y11527160D1*
X2707617Y11537663D1*
X2724753Y11545950D1*
X2742843Y11551877D1*
X2761560Y11555337D1*
X2780573Y11556267D1*
X2799540Y11554650D1*
X2818123Y11550517D1*
X2835987Y11543940D1*
X2852810Y11535037D1*
X2868297Y11523967D1*
X2882170Y11510930D1*
X2894173Y11496157D1*
X2904103Y11479917D1*
X2911773Y11462493D1*
X2917047Y11444203D1*
X2919833Y11425373D1*
X2920147Y11407653D1*
X5797080Y1955943D2*
X5813857Y1959673D1*
X5838290Y1961597D1*
X5850113Y1961133D1*
X5729093Y2082163D1*
X5729153Y2023883D1*
X5796933Y1956070D1*
X2411850Y11402837D2*
X2408360Y11380783D1*
X2401460Y11359547D1*
X2391323Y11339653D1*
X2378197Y11321590D1*
X2362410Y11305803D1*
X2344347Y11292677D1*
X2324453Y11282540D1*
X2303217Y11275640D1*
X2281163Y11272150D1*
X2258837D1*
X2236783Y11275640D1*
X2215547Y11282540D1*
X2195653Y11292677D1*
X2177590Y11305803D1*
X2161803Y11321590D1*
X2148677Y11339653D1*
X2138540Y11359547D1*
X2131640Y11380783D1*
X2128150Y11402837D1*
Y11425163D1*
X2131640Y11447217D1*
X2138540Y11468453D1*
X2148677Y11488347D1*
X2161803Y11506410D1*
X2177590Y11522197D1*
X2195653Y11535323D1*
X2215547Y11545460D1*
X2236783Y11552360D1*
X2258837Y11555850D1*
X2281163D1*
X2303217Y11552360D1*
X2324453Y11545460D1*
X2344347Y11535323D1*
X2362410Y11522197D1*
X2378197Y11506410D1*
X2391323Y11488347D1*
X2401460Y11468453D1*
X2408360Y11447217D1*
X2411850Y11425163D1*
Y11402837D1*
X3793983Y11095837D2*
X3782117Y11076363D1*
X3767613Y11059387D1*
X3750637Y11044883D1*
X3731597Y11033220D1*
X3710970Y11024673D1*
X3689260Y11019463D1*
X3667000Y11017710D1*
X3644740Y11019463D1*
X3623030Y11024673D1*
X3602403Y11033220D1*
X3583363Y11044883D1*
X3566387Y11059387D1*
X3551883Y11076363D1*
X3540017Y11095837D1*
X3528117Y11076363D1*
X3513613Y11059387D1*
X3496637Y11044883D1*
X3477597Y11033220D1*
X3456970Y11024673D1*
X3435260Y11019463D1*
X3413000Y11017710D1*
X3390740Y11019463D1*
X3369030Y11024673D1*
X3348403Y11033220D1*
X3329363Y11044883D1*
X3312387Y11059387D1*
X3297883Y11076363D1*
X3286220Y11095403D1*
X3277673Y11116030D1*
X3272463Y11137740D1*
X3270710Y11160000D1*
X3272463Y11182260D1*
X3277673Y11203970D1*
X3286220Y11224597D1*
X3297883Y11243637D1*
X3312387Y11260613D1*
X3329363Y11275117D1*
X3348403Y11286780D1*
X3369030Y11295327D1*
X3390740Y11300537D1*
X3413000Y11302290D1*
X3435260Y11300537D1*
X3456970Y11295327D1*
X3477597Y11286780D1*
X3496637Y11275117D1*
X3513613Y11260613D1*
X3528117Y11243637D1*
X3539983Y11224163D1*
X3551883Y11243637D1*
X3566387Y11260613D1*
X3583363Y11275117D1*
X3602403Y11286780D1*
X3623030Y11295327D1*
X3644740Y11300537D1*
X3667000Y11302290D1*
X3689260Y11300537D1*
X3710970Y11295327D1*
X3731597Y11286780D1*
X3750637Y11275117D1*
X3767613Y11260613D1*
X3782117Y11243637D1*
X3793983Y11224163D1*
X3805883Y11243637D1*
X3820387Y11260613D1*
X3837363Y11275117D1*
X3856403Y11286780D1*
X3877030Y11295327D1*
X3898740Y11300537D1*
X3921000Y11302290D1*
X3943260Y11300537D1*
X3964970Y11295327D1*
X3985597Y11286780D1*
X4004637Y11275117D1*
X4021613Y11260613D1*
X4036117Y11243637D1*
X4047983Y11224163D1*
X4059883Y11243637D1*
X4074387Y11260613D1*
X4091363Y11275117D1*
X4110403Y11286780D1*
X4131030Y11295327D1*
X4152740Y11300537D1*
X4175000Y11302290D1*
X4197260Y11300537D1*
X4218970Y11295327D1*
X4239597Y11286780D1*
X4258637Y11275117D1*
X4275613Y11260613D1*
X4290117Y11243637D1*
X4301983Y11224163D1*
X4313883Y11243637D1*
X4328387Y11260613D1*
X4345363Y11275117D1*
X4364403Y11286780D1*
X4385030Y11295327D1*
X4406740Y11300537D1*
X4429000Y11302290D1*
X4451260Y11300537D1*
X4472970Y11295327D1*
X4493597Y11286780D1*
X4512637Y11275117D1*
X4529613Y11260613D1*
X4544117Y11243637D1*
X4555983Y11224163D1*
X4567883Y11243637D1*
X4582387Y11260613D1*
X4599363Y11275117D1*
X4618403Y11286780D1*
X4639030Y11295327D1*
X4660740Y11300537D1*
X4683000Y11302290D1*
X4705260Y11300537D1*
X4726970Y11295327D1*
X4747597Y11286780D1*
X4766637Y11275117D1*
X4783613Y11260613D1*
X4798117Y11243637D1*
X4809780Y11224597D1*
X4818327Y11203970D1*
X4823537Y11182260D1*
X4825290Y11160000D1*
X4823537Y11137740D1*
X4818327Y11116030D1*
X4809780Y11095403D1*
X4798117Y11076363D1*
X4783613Y11059387D1*
X4766637Y11044883D1*
X4747597Y11033220D1*
X4726970Y11024673D1*
X4705260Y11019463D1*
X4683000Y11017710D1*
X4660740Y11019463D1*
X4639030Y11024673D1*
X4618403Y11033220D1*
X4599363Y11044883D1*
X4582387Y11059387D1*
X4567883Y11076363D1*
X4556017Y11095837D1*
X4544117Y11076363D1*
X4529613Y11059387D1*
X4512637Y11044883D1*
X4493597Y11033220D1*
X4472970Y11024673D1*
X4451260Y11019463D1*
X4429000Y11017710D1*
X4406740Y11019463D1*
X4385030Y11024673D1*
X4364403Y11033220D1*
X4345363Y11044883D1*
X4328387Y11059387D1*
X4313883Y11076363D1*
X4302017Y11095837D1*
X4290117Y11076363D1*
X4275613Y11059387D1*
X4258637Y11044883D1*
X4239597Y11033220D1*
X4218970Y11024673D1*
X4197260Y11019463D1*
X4175000Y11017710D1*
X4152740Y11019463D1*
X4131030Y11024673D1*
X4110403Y11033220D1*
X4091363Y11044883D1*
X4074387Y11059387D1*
X4059883Y11076363D1*
X4048017Y11095837D1*
X4036117Y11076363D1*
X4021613Y11059387D1*
X4004637Y11044883D1*
X3985597Y11033220D1*
X3964970Y11024673D1*
X3943260Y11019463D1*
X3921000Y11017710D1*
X3898740Y11019463D1*
X3877030Y11024673D1*
X3856403Y11033220D1*
X3837363Y11044883D1*
X3820387Y11059387D1*
X3805883Y11076363D1*
X3794017Y11095837D1*
X3611600Y1961133D2*
X3635677Y1961117D1*
X3659887Y1957280D1*
X3664633Y1955943D1*
X4162747Y2454037D1*
X4162053Y3947560D1*
X4143580Y3946107D1*
X4125107Y3947560D1*
X4107087Y3951887D1*
X4097303Y3955597D1*
X4097053Y2472787D1*
X4093507Y2454967D1*
X4085900Y2438467D1*
X4074653Y2424197D1*
X3611520Y1961067D1*
X3888467Y1961133D2*
X3912543Y1961117D1*
X3936753Y1957280D1*
X3941500Y1955943D1*
X4415587Y2430007D1*
X4415577Y3947407D1*
X4397607Y3946107D1*
X4379133Y3947560D1*
X4361113Y3951887D1*
X4343993Y3958977D1*
X4328197Y3968660D1*
X4317270Y3977770D1*
X4317053Y2415920D1*
X4313507Y2398100D1*
X4305900Y2381600D1*
X4294653Y2367330D1*
X3888523Y1961203D1*
X4165300Y1961133D2*
X4189377Y1961117D1*
X4213587Y1957280D1*
X4218333Y1955943D1*
X4494923Y2232513D1*
X4494960Y2290700D1*
X4165420Y1961230D1*
X4442167Y1961133D2*
X4466243Y1961117D1*
X4490453Y1957280D1*
X4495200Y1955943D1*
X4574293Y2035017D1*
X4574343Y2093217D1*
X4442123Y1961100D1*
X1411417Y5429797D2*
X1409300Y5410877D1*
X1404673Y5392413D1*
X1397623Y5374730D1*
X1388277Y5358147D1*
X1376803Y5342960D1*
X1363400Y5329440D1*
X1348317Y5317830D1*
X1331817Y5308337D1*
X1314197Y5301133D1*
X1295773Y5296343D1*
X1276873Y5294057D1*
X1257840Y5294313D1*
X1239010Y5297107D1*
X1220723Y5302390D1*
X1203303Y5310067D1*
X1187067Y5320000D1*
X1172300Y5332013D1*
X1159267Y5345890D1*
X1148203Y5361380D1*
X1139307Y5378210D1*
X1132737Y5396077D1*
X1128610Y5414660D1*
X1127003Y5433627D1*
X1127940Y5452640D1*
X1131407Y5471357D1*
X1137340Y5489443D1*
X1145637Y5506577D1*
X1156143Y5522450D1*
X1168677Y5536777D1*
X1183010Y5549303D1*
X1198887Y5559807D1*
X1204673Y5563363D1*
X1185633Y5575027D1*
X1168657Y5589530D1*
X1154153Y5606507D1*
X1142490Y5625547D1*
X1133943Y5646173D1*
X1128733Y5667883D1*
X1126980Y5690143D1*
X1128733Y5712403D1*
X1133943Y5734113D1*
X1142490Y5754740D1*
X1154153Y5773780D1*
X1168657Y5790757D1*
X1185633Y5805260D1*
X1205107Y5817127D1*
X1185633Y5829027D1*
X1168657Y5843530D1*
X1154153Y5860507D1*
X1142490Y5879547D1*
X1133943Y5900173D1*
X1128733Y5921883D1*
X1126980Y5944143D1*
X1128733Y5966403D1*
X1133943Y5988113D1*
X1142490Y6008740D1*
X1154153Y6027780D1*
X1168657Y6044757D1*
X1185633Y6059260D1*
X1204673Y6070923D1*
X1225300Y6079470D1*
X1247010Y6084680D1*
X1269270Y6086433D1*
X1291530Y6084680D1*
X1313240Y6079470D1*
X1333867Y6070923D1*
X1352907Y6059260D1*
X1369883Y6044757D1*
X1384387Y6027780D1*
X1396050Y6008740D1*
X1404597Y5988113D1*
X1409807Y5966403D1*
X1411560Y5944143D1*
X1409807Y5921883D1*
X1408317Y5914393D1*
X1621303Y5701413D1*
X1634707Y5692207D1*
X1893163Y5434087D1*
X1904410Y5419817D1*
X1912017Y5403317D1*
X1915563Y5385497D1*
X1915800Y4781763D1*
X2257020Y4440640D1*
X2695593Y4440723D1*
X2827643Y4572873D1*
X2827697Y5244493D1*
X2815190Y5257180D1*
X2804300Y5272170D1*
X2795887Y5288683D1*
X2790160Y5306307D1*
X2787260Y5324607D1*
Y5343140D1*
X2790160Y5361440D1*
X2796143Y5379623D1*
X2796157Y6239120D1*
X2719413Y6316117D1*
X2709320Y6331223D1*
X2703033Y6348270D1*
X2700897Y6366313D1*
X2701133Y7777813D1*
X2704680Y7795633D1*
X2712287Y7812133D1*
X2723533Y7826403D1*
X3322950Y8425817D1*
X3298060Y8429293D1*
X3278920Y8435513D1*
X3260990Y8444650D1*
X3244707Y8456477D1*
X3230477Y8470707D1*
X3218650Y8486990D1*
X3209513Y8504920D1*
X3203293Y8524060D1*
X3200147Y8543937D1*
Y8564063D1*
X3203293Y8583940D1*
X3209513Y8603080D1*
X3218650Y8621010D1*
X3230477Y8637293D1*
X3244707Y8651523D1*
X3260990Y8663350D1*
X3278920Y8672487D1*
X3298060Y8678707D1*
X3317937Y8681853D1*
X3338063D1*
X3357940Y8678707D1*
X3377080Y8672487D1*
X3395010Y8663350D1*
X3411293Y8651523D1*
X3425523Y8637293D1*
X3437350Y8621010D1*
X3446487Y8603080D1*
X3452707Y8583940D1*
X3455853Y8564063D1*
X3456057Y8558913D1*
X3684613Y8787483D1*
X3684853Y9467693D1*
X3688400Y9485513D1*
X3696007Y9502013D1*
X3707253Y9516283D1*
X4629047Y10438073D1*
X4629167Y10455883D1*
X4632067Y10474183D1*
X4637793Y10491807D1*
X4646207Y10508320D1*
X4657097Y10523310D1*
X4670200Y10536413D1*
X4685190Y10547303D1*
X4701703Y10555717D1*
X4719327Y10561443D1*
X4737627Y10564343D1*
X4756160D1*
X4774460Y10561443D1*
X4792083Y10555717D1*
X4808597Y10547303D1*
X4823587Y10536413D1*
X4836690Y10523310D1*
X4847580Y10508320D1*
X4855993Y10491807D1*
X4861720Y10474183D1*
X4864620Y10455883D1*
Y10437350D1*
X4861720Y10419050D1*
X4855993Y10401427D1*
X4847580Y10384913D1*
X4836690Y10369923D1*
X4823587Y10356820D1*
X4808597Y10345930D1*
X4792083Y10337517D1*
X4774460Y10331790D1*
X4756160Y10328890D1*
X4738460Y10328857D1*
X3839237Y9429657D1*
X3838960Y8749407D1*
X3835413Y8731587D1*
X3827807Y8715087D1*
X3816560Y8700817D1*
X3797353Y8681613D1*
X3820663Y8681853D1*
X3840540Y8678707D1*
X3859680Y8672487D1*
X3877610Y8663350D1*
X3893893Y8651523D1*
X3908123Y8637293D1*
X3919950Y8621010D1*
X3929087Y8603080D1*
X3935307Y8583940D1*
X3938453Y8564063D1*
Y8543937D1*
X3935307Y8524060D1*
X3929087Y8504920D1*
X3919950Y8486990D1*
X3908123Y8470707D1*
X3893893Y8456477D1*
X3877610Y8444650D1*
X3859680Y8435513D1*
X3840540Y8429293D1*
X3820663Y8426147D1*
X3800537D1*
X3780660Y8429293D1*
X3761520Y8435513D1*
X3743590Y8444650D1*
X3727307Y8456477D1*
X3713077Y8470707D1*
X3701250Y8486990D1*
X3692113Y8504920D1*
X3685893Y8524060D1*
X3682747Y8543937D1*
X3683140Y8567383D1*
X2855480Y7739737D1*
X2855477Y6398440D1*
X2932220Y6321250D1*
X2942313Y6306143D1*
X2948600Y6289097D1*
X2950737Y6271053D1*
Y5442700D1*
X2966690Y5434560D1*
X2981680Y5423670D1*
X2994783Y5410567D1*
X3005673Y5395577D1*
X3014087Y5379063D1*
X3019813Y5361440D1*
X3022713Y5343140D1*
Y5324607D1*
X3019813Y5306307D1*
X3014087Y5288683D1*
X3005673Y5272170D1*
X2994783Y5257180D1*
X2982293Y5244643D1*
X2982040Y4534847D1*
X2978493Y4517027D1*
X2970887Y4500527D1*
X2959640Y4486257D1*
X2777707Y4304660D1*
X2762600Y4294567D1*
X2745553Y4288280D1*
X2727510Y4286143D1*
X2218860Y4286380D1*
X2201040Y4289927D1*
X2184540Y4297533D1*
X2170270Y4308780D1*
X1779737Y4699650D1*
X1769643Y4714757D1*
X1763357Y4731803D1*
X1761220Y4749847D1*
Y5347517D1*
X1543127Y5565510D1*
X1529783Y5574660D1*
X1411583Y5692527D1*
X1409807Y5667883D1*
X1404597Y5646173D1*
X1396050Y5625547D1*
X1384387Y5606507D1*
X1369883Y5589530D1*
X1352907Y5575027D1*
X1333433Y5563160D1*
X1349407Y5553720D1*
X1364383Y5541973D1*
X1377660Y5528330D1*
X1388993Y5513037D1*
X1398187Y5496367D1*
X1405073Y5478620D1*
X1409527Y5460113D1*
X1411560Y5436143D1*
X1411417Y5429797D1*
X4824207Y1930550D2*
X4841300Y1915850D1*
X4857217Y1897213D1*
X4869250Y1877693D1*
X4881363Y1897213D1*
X4897280Y1915850D1*
X4915917Y1931767D1*
X4936813Y1944573D1*
X4959457Y1953953D1*
X4983290Y1959673D1*
X5007723Y1961597D1*
X5032157Y1959673D1*
X5048933Y1955943D1*
X5050643Y1989117D1*
Y3956997D1*
X5029600Y3945747D1*
X5011977Y3940020D1*
X4993677Y3937120D1*
X4975143D1*
X4956843Y3940020D1*
X4939220Y3945747D1*
X4922707Y3954160D1*
X4907717Y3965050D1*
X4894613Y3978153D1*
X4883723Y3993143D1*
X4875310Y4009657D1*
X4869583Y4027280D1*
X4866683Y4045580D1*
X4866650Y4063280D1*
X4824257Y4105693D1*
X4824183Y1930687D1*
X5205197Y1939820D2*
X5224820Y1949707D1*
X5248127Y1957280D1*
X5272957Y1961140D1*
X5272917Y3963423D1*
X5254947Y3961983D1*
X5236473Y3963437D1*
X5218453Y3967763D1*
X5205250Y3973050D1*
X5205223Y1939943D1*
X1516683Y12114507D2*
X1494647Y12101393D1*
X1463147Y12088343D1*
X1429990Y12080387D1*
X1396000Y12077710D1*
X1362010Y12080387D1*
X1328853Y12088343D1*
X1297353Y12101393D1*
X1268280Y12119210D1*
X1242353Y12141353D1*
X1220210Y12167280D1*
X1202393Y12196353D1*
X1189343Y12227853D1*
X1181387Y12261010D1*
X1178710Y12295000D1*
X1181387Y12328990D1*
X1189343Y12362147D1*
X1202393Y12393647D1*
X1220210Y12422720D1*
X1242353Y12448647D1*
X1268280Y12470790D1*
X1297353Y12488607D1*
X1328853Y12501657D1*
X1362010Y12509613D1*
X1396000Y12512290D1*
X1429990Y12509613D1*
X1463147Y12501657D1*
X1494647Y12488607D1*
X1523720Y12470790D1*
X1549647Y12448647D1*
X1571790Y12422720D1*
X1589607Y12393647D1*
X1602657Y12362147D1*
X1610613Y12328990D1*
X1613290Y12295000D1*
X1612687Y12279617D1*
X1695567Y12196703D1*
X4465513Y12196790D1*
X4485637Y12209720D1*
X4502757Y12216810D1*
X4520777Y12221137D1*
X4539250Y12222590D1*
X4557723Y12221137D1*
X4575743Y12216810D1*
X4592863Y12209720D1*
X4608660Y12200037D1*
X4622753Y12188003D1*
X4634787Y12173910D1*
X4644470Y12158113D1*
X4651560Y12140993D1*
X4655887Y12122973D1*
X4657340Y12104500D1*
X4655887Y12086027D1*
X4651560Y12068007D1*
X4644470Y12050887D1*
X4634787Y12035090D1*
X4622753Y12020997D1*
X4608660Y12008963D1*
X4592863Y11999280D1*
X4575743Y11992190D1*
X4557723Y11987863D1*
X4539250Y11986410D1*
X4520777Y11987863D1*
X4502757Y11992190D1*
X4485637Y11999280D1*
X4469840Y12008963D1*
X4465713Y12012213D1*
X1650010Y12012493D1*
X1635707Y12014760D1*
X1621933Y12019237D1*
X1609030Y12025810D1*
X1597313Y12034323D1*
X1516833Y12114397D1*
X5427477Y1885637D2*
X5431683Y1892153D1*
X5427497Y1892043D1*
Y1885720D1*
X5431683Y1900657D1*
Y3936997D1*
X5427497Y3924043D1*
Y1892043D1*
X7428483Y9881337D2*
X7416617Y9861863D1*
X7402113Y9844887D1*
X7385137Y9830383D1*
X7366097Y9818720D1*
X7345470Y9810173D1*
X7323760Y9804963D1*
X7301500Y9803210D1*
X7279240Y9804963D1*
X7257530Y9810173D1*
X7236903Y9818720D1*
X7217863Y9830383D1*
X7200887Y9844887D1*
X7186383Y9861863D1*
X7174720Y9880903D1*
X7166173Y9901530D1*
X7160963Y9923240D1*
X7159210Y9945500D1*
X7160963Y9967760D1*
X7166173Y9989470D1*
X7174720Y10010097D1*
X7186383Y10029137D1*
X7200887Y10046113D1*
X7217863Y10060617D1*
X7236903Y10072280D1*
X7257530Y10080827D1*
X7279240Y10086037D1*
X7301500Y10087790D1*
X7323760Y10086037D1*
X7345470Y10080827D1*
X7366097Y10072280D1*
X7385137Y10060617D1*
X7402113Y10046113D1*
X7416617Y10029137D1*
X7428483Y10009663D1*
X7440383Y10029137D1*
X7454887Y10046113D1*
X7471863Y10060617D1*
X7490903Y10072280D1*
X7511530Y10080827D1*
X7533240Y10086037D1*
X7555500Y10087790D1*
X7577760Y10086037D1*
X7599470Y10080827D1*
X7620097Y10072280D1*
X7639137Y10060617D1*
X7656113Y10046113D1*
X7670617Y10029137D1*
X7682483Y10009663D1*
X7694383Y10029137D1*
X7708887Y10046113D1*
X7725863Y10060617D1*
X7744903Y10072280D1*
X7765530Y10080827D1*
X7787240Y10086037D1*
X7809500Y10087790D1*
X7831760Y10086037D1*
X7853470Y10080827D1*
X7874097Y10072280D1*
X7893137Y10060617D1*
X7910113Y10046113D1*
X7924617Y10029137D1*
X7936483Y10009663D1*
X7948383Y10029137D1*
X7962887Y10046113D1*
X7979863Y10060617D1*
X7998903Y10072280D1*
X8019530Y10080827D1*
X8041240Y10086037D1*
X8063500Y10087790D1*
X8085760Y10086037D1*
X8107470Y10080827D1*
X8128097Y10072280D1*
X8147137Y10060617D1*
X8164113Y10046113D1*
X8178617Y10029137D1*
X8190280Y10010097D1*
X8198827Y9989470D1*
X8204037Y9967760D1*
X8205790Y9945500D1*
X8204037Y9923240D1*
X8198827Y9901530D1*
X8190280Y9880903D1*
X8178617Y9861863D1*
X8164113Y9844887D1*
X8155807Y9837220D1*
X8155910Y9545697D1*
X8171697Y9529910D1*
X8184823Y9511847D1*
X8194960Y9491953D1*
X8201860Y9470717D1*
X8205350Y9448663D1*
Y9426337D1*
X8201860Y9404283D1*
X8194960Y9383047D1*
X8184823Y9363153D1*
X8171697Y9345090D1*
X8155807Y9329220D1*
X8155910Y9037697D1*
X8171697Y9021910D1*
X8184823Y9003847D1*
X8194960Y8983953D1*
X8201860Y8962717D1*
X8205350Y8940663D1*
Y8918337D1*
X8201860Y8896283D1*
X8194960Y8875047D1*
X8184823Y8855153D1*
X8171697Y8837090D1*
X8155910Y8821303D1*
X8137847Y8808177D1*
X8117953Y8798040D1*
X8096717Y8791140D1*
X8074663Y8787650D1*
X8052337D1*
X8030283Y8791140D1*
X8009047Y8798040D1*
X7989153Y8808177D1*
X7971090Y8821303D1*
X7955303Y8837090D1*
X7942177Y8855153D1*
X7936280Y8864903D1*
X7924617Y8845863D1*
X7910113Y8828887D1*
X7893137Y8814383D1*
X7874097Y8802720D1*
X7853470Y8794173D1*
X7831760Y8788963D1*
X7809500Y8787210D1*
X7787240Y8788963D1*
X7765530Y8794173D1*
X7744903Y8802720D1*
X7725863Y8814383D1*
X7708887Y8828887D1*
X7694383Y8845863D1*
X7682517Y8865337D1*
X7670617Y8845863D1*
X7656113Y8828887D1*
X7639137Y8814383D1*
X7620097Y8802720D1*
X7599470Y8794173D1*
X7577760Y8788963D1*
X7555500Y8787210D1*
X7544207Y8787663D1*
X6950837Y8194317D1*
X6950780Y6245760D1*
X7102677Y6093473D1*
X7111190Y6081757D1*
X7117763Y6068853D1*
X7122240Y6055080D1*
X7124507Y6040777D1*
X7124790Y5684287D1*
Y3486717D1*
X7137720Y3466613D1*
X7144810Y3449493D1*
X7149137Y3431473D1*
X7150590Y3413000D1*
X7149137Y3394527D1*
X7144810Y3376507D1*
X7137720Y3359387D1*
X7128037Y3343590D1*
X7116003Y3329497D1*
X7101910Y3317463D1*
X7086113Y3307780D1*
X7068993Y3300690D1*
X7050973Y3296363D1*
X7032500Y3294910D1*
X7014027Y3296363D1*
X6996007Y3300690D1*
X6978887Y3307780D1*
X6963090Y3317463D1*
X6948997Y3329497D1*
X6936963Y3343590D1*
X6927280Y3359387D1*
X6920190Y3376507D1*
X6915863Y3394527D1*
X6914410Y3413000D1*
X6915863Y3431473D1*
X6920190Y3449493D1*
X6927280Y3466613D1*
X6936963Y3482410D1*
X6940213Y3486537D1*
X6940210Y5995293D1*
X6788313Y6147610D1*
X6779800Y6159327D1*
X6773227Y6172230D1*
X6768750Y6186003D1*
X6766483Y6200307D1*
X6766200Y6556797D1*
X6766483Y8239730D1*
X6768750Y8254033D1*
X6773237Y8267833D1*
X6760593Y8258073D1*
X6664913Y8162397D1*
X6665000Y6070110D1*
X6864553Y5870060D1*
X6873067Y5858343D1*
X6879640Y5845440D1*
X6884117Y5831667D1*
X6886383Y5817363D1*
X6886667Y5460873D1*
Y3724917D1*
X6899597Y3704737D1*
X6906687Y3687617D1*
X6911013Y3669597D1*
X6912467Y3651123D1*
X6911013Y3632650D1*
X6906687Y3614630D1*
X6899597Y3597510D1*
X6889913Y3581713D1*
X6877880Y3567620D1*
X6863787Y3555587D1*
X6847990Y3545903D1*
X6830870Y3538813D1*
X6812850Y3534487D1*
X6794377Y3533033D1*
X6775903Y3534487D1*
X6757883Y3538813D1*
X6740763Y3545903D1*
X6724967Y3555587D1*
X6710873Y3567620D1*
X6698840Y3581713D1*
X6689157Y3597510D1*
X6682067Y3614630D1*
X6677740Y3632650D1*
X6676287Y3651123D1*
X6677740Y3669597D1*
X6682067Y3687617D1*
X6689157Y3704737D1*
X6698840Y3720533D1*
X6702090Y3724660D1*
X6702087Y5771800D1*
X6502533Y5971853D1*
X6494020Y5983570D1*
X6487447Y5996473D1*
X6482970Y6010247D1*
X6480703Y6024550D1*
X6480420Y6381040D1*
X6480703Y8207950D1*
X6482970Y8222253D1*
X6487447Y8236027D1*
X6494020Y8248930D1*
X6502533Y8260647D1*
X6754407Y8512927D1*
X7159650Y8918337D1*
Y8940663D1*
X7163140Y8962717D1*
X7170040Y8983953D1*
X7180177Y9003847D1*
X7193303Y9021910D1*
X7209090Y9037697D1*
X7227153Y9050823D1*
X7247047Y9060960D1*
X7268283Y9067860D1*
X7290337Y9071350D1*
X7312663D1*
X7334717Y9067860D1*
X7355953Y9060960D1*
X7375847Y9050823D1*
X7393910Y9037697D1*
X7409697Y9021910D1*
X7422823Y9003847D1*
X7428720Y8994097D1*
X7440383Y9013137D1*
X7454887Y9030113D1*
X7471863Y9044617D1*
X7490903Y9056280D1*
X7511530Y9064827D1*
X7533240Y9070037D1*
X7555500Y9071790D1*
X7577760Y9070037D1*
X7599470Y9064827D1*
X7620097Y9056280D1*
X7639137Y9044617D1*
X7656113Y9030113D1*
X7670617Y9013137D1*
X7682483Y8993663D1*
X7694383Y9013137D1*
X7708887Y9030113D1*
X7725863Y9044617D1*
X7744903Y9056280D1*
X7765530Y9064827D1*
X7787240Y9070037D1*
X7809500Y9071790D1*
X7831760Y9070037D1*
X7853470Y9064827D1*
X7874097Y9056280D1*
X7893137Y9044617D1*
X7910113Y9030113D1*
X7924617Y9013137D1*
X7936483Y8993663D1*
X7948383Y9013137D1*
X7962887Y9030113D1*
X7971193Y9037780D1*
X7971210Y9084157D1*
X7075400Y9084477D1*
X7061097Y9086743D1*
X7047323Y9091220D1*
X7034420Y9097793D1*
X7022703Y9106307D1*
X6946610Y9181997D1*
X6923257Y9187063D1*
X6906137Y9194153D1*
X6890340Y9203837D1*
X6876247Y9215870D1*
X6864213Y9229963D1*
X6854530Y9245760D1*
X6847440Y9262880D1*
X6843113Y9280900D1*
X6841660Y9299373D1*
X6843113Y9317847D1*
X6847440Y9335867D1*
X6854530Y9352987D1*
X6864213Y9368783D1*
X6876247Y9382877D1*
X6890340Y9394910D1*
X6906137Y9404593D1*
X6923257Y9411683D1*
X6941277Y9416010D1*
X6959750Y9417463D1*
X6978223Y9416010D1*
X6996243Y9411683D1*
X7013363Y9404593D1*
X7029160Y9394910D1*
X7043253Y9382877D1*
X7055287Y9368783D1*
X7064970Y9352987D1*
X7072060Y9335867D1*
X7076387Y9317847D1*
X7077003Y9312630D1*
X7120863Y9268780D1*
X7971267Y9268773D1*
X7971090Y9329303D1*
X7955303Y9345090D1*
X7942177Y9363153D1*
X7936280Y9372903D1*
X7924617Y9353863D1*
X7910113Y9336887D1*
X7893137Y9322383D1*
X7874097Y9310720D1*
X7853470Y9302173D1*
X7831760Y9296963D1*
X7809500Y9295210D1*
X7787240Y9296963D1*
X7765530Y9302173D1*
X7744903Y9310720D1*
X7725863Y9322383D1*
X7708887Y9336887D1*
X7694383Y9353863D1*
X7682517Y9373337D1*
X7670617Y9353863D1*
X7656113Y9336887D1*
X7639137Y9322383D1*
X7620097Y9310720D1*
X7599470Y9302173D1*
X7577760Y9296963D1*
X7555500Y9295210D1*
X7533240Y9296963D1*
X7511530Y9302173D1*
X7490903Y9310720D1*
X7471863Y9322383D1*
X7454887Y9336887D1*
X7440383Y9353863D1*
X7428517Y9373337D1*
X7416617Y9353863D1*
X7402113Y9336887D1*
X7385137Y9322383D1*
X7366097Y9310720D1*
X7345470Y9302173D1*
X7323760Y9296963D1*
X7301500Y9295210D1*
X7279240Y9296963D1*
X7257530Y9302173D1*
X7236903Y9310720D1*
X7217863Y9322383D1*
X7200887Y9336887D1*
X7186383Y9353863D1*
X7174720Y9372903D1*
X7166173Y9393530D1*
X7160963Y9415240D1*
X7159210Y9437500D1*
X7160963Y9459760D1*
X7166173Y9481470D1*
X7174720Y9502097D1*
X7186383Y9521137D1*
X7200887Y9538113D1*
X7217863Y9552617D1*
X7236903Y9564280D1*
X7257530Y9572827D1*
X7279240Y9578037D1*
X7301500Y9579790D1*
X7323760Y9578037D1*
X7345470Y9572827D1*
X7366097Y9564280D1*
X7385137Y9552617D1*
X7402113Y9538113D1*
X7416617Y9521137D1*
X7428483Y9501663D1*
X7440383Y9521137D1*
X7454887Y9538113D1*
X7471863Y9552617D1*
X7490903Y9564280D1*
X7511530Y9572827D1*
X7533240Y9578037D1*
X7555500Y9579790D1*
X7577760Y9578037D1*
X7599470Y9572827D1*
X7620097Y9564280D1*
X7639137Y9552617D1*
X7656113Y9538113D1*
X7670617Y9521137D1*
X7682483Y9501663D1*
X7694383Y9521137D1*
X7708887Y9538113D1*
X7725863Y9552617D1*
X7744903Y9564280D1*
X7765530Y9572827D1*
X7787240Y9578037D1*
X7809500Y9579790D1*
X7831760Y9578037D1*
X7853470Y9572827D1*
X7874097Y9564280D1*
X7893137Y9552617D1*
X7910113Y9538113D1*
X7924617Y9521137D1*
X7936483Y9501663D1*
X7948383Y9521137D1*
X7962887Y9538113D1*
X7971193Y9545780D1*
X7971090Y9837303D1*
X7955303Y9853090D1*
X7942177Y9871153D1*
X7936280Y9880903D1*
X7924617Y9861863D1*
X7910113Y9844887D1*
X7893137Y9830383D1*
X7874097Y9818720D1*
X7853470Y9810173D1*
X7831760Y9804963D1*
X7809500Y9803210D1*
X7787240Y9804963D1*
X7765530Y9810173D1*
X7744903Y9818720D1*
X7725863Y9830383D1*
X7708887Y9844887D1*
X7694383Y9861863D1*
X7682517Y9881337D1*
X7670617Y9861863D1*
X7656113Y9844887D1*
X7639137Y9830383D1*
X7620097Y9818720D1*
X7599470Y9810173D1*
X7577760Y9804963D1*
X7555500Y9803210D1*
X7533240Y9804963D1*
X7511530Y9810173D1*
X7490903Y9818720D1*
X7471863Y9830383D1*
X7454887Y9844887D1*
X7440383Y9861863D1*
X7428517Y9881337D1*
X5171847Y8647607D2*
X5148680Y8644623D1*
X5344730Y8448573D1*
X5358723Y8460753D1*
X5171933Y8647513D1*
X2070560Y8605760D2*
X2085453Y8600650D1*
X2105347Y8590513D1*
X2123410Y8577387D1*
X2139197Y8561600D1*
X2142683Y8557180D1*
X2142710Y8611480D1*
X2398263D1*
X2398210Y8933500D1*
X2070633Y8605830D1*
X4394303Y4353397D2*
X4407507Y4358683D1*
X4425527Y4363010D1*
X4444000Y4364463D1*
X4462473Y4363010D1*
X4480493Y4358683D1*
X4494947Y4352820D1*
X4494960Y4495837D1*
X3968697Y5021997D1*
X3954473Y5018737D1*
X3936000Y5017283D1*
X3917563Y5018733D1*
X4375773Y4560163D1*
X4385867Y4545057D1*
X4392153Y4528010D1*
X4394290Y4509967D1*
Y4353573D1*
X4156193Y4359440D2*
X4171527Y4363010D1*
X4190000Y4364463D1*
X4208473Y4363010D1*
X4226493Y4358683D1*
X4239697Y4353397D1*
X4239710Y4478053D1*
X4156147Y4561517D1*
X4156167Y4359507D1*
X3920800Y4363397D2*
X3936000Y4364463D1*
X3954473Y4363010D1*
X3972493Y4358683D1*
X3989613Y4351593D1*
X4001587Y4344467D1*
Y4557410D1*
X3920830Y4638067D1*
X3920790Y4363443D1*
X4544960Y5250503D2*
X4561733Y5253100D1*
X4580267D1*
X4598567Y5250200D1*
X4616190Y5244473D1*
X4632703Y5236060D1*
X4647693Y5225170D1*
X4660797Y5212067D1*
X4671687Y5197077D1*
X4680100Y5180563D1*
X4685827Y5162940D1*
X4688893Y5140403D1*
X4748990Y5080317D1*
X4748987Y5149730D1*
X3998567Y5900127D1*
X3998597Y5772603D1*
X4419447Y5351857D1*
X4437267Y5351727D1*
X4455567Y5348827D1*
X4473190Y5343100D1*
X4489703Y5334687D1*
X4504693Y5323797D1*
X4517797Y5310693D1*
X4528687Y5295703D1*
X4537100Y5279190D1*
X4542827Y5261567D1*
X4544863Y5250567D1*
X4363737Y5026987D2*
X4344567Y5020547D1*
X4326267Y5017647D1*
X4307733D1*
X4289433Y5020547D1*
X4271810Y5026273D1*
X4255297Y5034687D1*
X4240307Y5045577D1*
X4227203Y5058680D1*
X4216313Y5073670D1*
X4207900Y5090183D1*
X4202173Y5107807D1*
X4199273Y5126107D1*
X4199047Y5138810D1*
X4184693Y5124203D1*
X4169703Y5113313D1*
X4153190Y5104900D1*
X4135567Y5099173D1*
X4113177Y5096113D1*
X4574320Y4634987D1*
X4574343Y4816273D1*
X4363793Y5026903D1*
X4226060Y5210617D2*
X4240307Y5225170D1*
X4255297Y5236060D1*
X4271810Y5244473D1*
X4289433Y5250200D1*
X4300433Y5252237D1*
X3919160Y5633533D1*
X3919213Y5512147D1*
X4099597Y5331710D1*
X4117267Y5331727D1*
X4135567Y5328827D1*
X4153190Y5323100D1*
X4169703Y5314687D1*
X4184693Y5303797D1*
X4197797Y5290693D1*
X4208687Y5275703D1*
X4217100Y5259190D1*
X4222827Y5241567D1*
X4225727Y5223267D1*
X4225953Y5210563D1*
X3901077Y5248127D2*
X3917527Y5252010D1*
X3936000Y5253463D1*
X3954473Y5252010D1*
X3962253Y5250463D1*
X3783150Y5429880D1*
X3773057Y5444987D1*
X3766770Y5462033D1*
X3764633Y5480077D1*
Y6114703D1*
X3759290Y6103750D1*
Y5352043D1*
X3788000Y5332090D1*
X3806473Y5330637D1*
X3824493Y5326310D1*
X3841613Y5319220D1*
X3857410Y5309537D1*
X3871503Y5297503D1*
X3883537Y5283410D1*
X3893220Y5267613D1*
X3900970Y5248157D1*
X5472193Y5038500D2*
X5457267Y5036273D1*
X5438733D1*
X5420433Y5039173D1*
X5402810Y5044900D1*
X5386297Y5053313D1*
X5371307Y5064203D1*
X5358203Y5077307D1*
X5347313Y5092297D1*
X5338900Y5108810D1*
X5333173Y5126433D1*
X5330273Y5144733D1*
Y5163267D1*
X5332870Y5180040D1*
X5315567Y5174433D1*
X5297267Y5171533D1*
X5278733D1*
X5260433Y5174433D1*
X5252413Y5176013D1*
Y4761403D1*
X5535993Y4477477D1*
X5546087Y4462370D1*
X5552373Y4445323D1*
X5554510Y4427280D1*
Y4307100D1*
X5572910Y4296037D1*
X5587003Y4284003D1*
X5599037Y4269910D1*
X5608720Y4254113D1*
X5615810Y4236993D1*
X5620137Y4218973D1*
X5620840Y4213040D1*
X5635987Y4214040D1*
X5653993Y4212640D1*
X5653957Y4856690D1*
X5472347Y5038350D1*
X4938410Y4210133D2*
X4933173Y4226433D1*
X4930273Y4244733D1*
Y4263267D1*
X4933173Y4281567D1*
X4938900Y4299190D1*
X4947313Y4315703D1*
X4958203Y4330693D1*
X4971307Y4343797D1*
X4986297Y4354687D1*
X5002810Y4363100D1*
X5020433Y4368827D1*
X5042317Y4371867D1*
X4903590Y4510603D1*
X4903567Y4244973D1*
X4938370Y4210190D1*
X3577477Y9369483D2*
X3574577Y9351183D1*
X3568850Y9333560D1*
X3560437Y9317047D1*
X3549547Y9302057D1*
X3536443Y9288953D1*
X3521453Y9278063D1*
X3504940Y9269650D1*
X3487317Y9263923D1*
X3469017Y9261023D1*
X3450483D1*
X3432183Y9263923D1*
X3414560Y9269650D1*
X3398047Y9278063D1*
X3383057Y9288953D1*
X3369953Y9302057D1*
X3359063Y9317047D1*
X3350650Y9333560D1*
X3344923Y9351183D1*
X3342023Y9369483D1*
Y9388017D1*
X3344923Y9406317D1*
X3350650Y9423940D1*
X3359063Y9440453D1*
X3369953Y9455443D1*
X3383057Y9468547D1*
X3392597Y9475797D1*
X3400977Y9487703D1*
X3831660Y9918720D1*
X4627867Y10714930D1*
X4627897Y10732647D1*
X4630797Y10750947D1*
X4636523Y10768570D1*
X4644937Y10785083D1*
X4655827Y10800073D1*
X4668930Y10813177D1*
X4683920Y10824067D1*
X4700433Y10832480D1*
X4718057Y10838207D1*
X4736357Y10841107D1*
X4754890D1*
X4773190Y10838207D1*
X4790813Y10832480D1*
X4807327Y10824067D1*
X4822317Y10813177D1*
X4835420Y10800073D1*
X4846310Y10785083D1*
X4854723Y10768570D1*
X4860450Y10750947D1*
X4863350Y10732647D1*
Y10714113D1*
X4860450Y10695813D1*
X4854723Y10678190D1*
X4846310Y10661677D1*
X4835420Y10646687D1*
X4822317Y10633583D1*
X4807327Y10622693D1*
X4790813Y10614280D1*
X4773190Y10608553D1*
X4754890Y10605653D1*
X4737190Y10605620D1*
X3564527Y9432977D1*
X3572060Y9415243D1*
X3576387Y9397223D1*
X3577840Y9378750D1*
X3577477Y9369483D1*
X5395307Y9820480D2*
X5407797Y9807943D1*
X5418687Y9792953D1*
X5427100Y9776440D1*
X5432827Y9758817D1*
X5435727Y9740517D1*
Y9721983D1*
X5432827Y9703683D1*
X5427100Y9686060D1*
X5418687Y9669547D1*
X5407797Y9654557D1*
X5394693Y9641453D1*
X5379703Y9630563D1*
X5363190Y9622150D1*
X5345567Y9616423D1*
X5327267Y9613523D1*
X5308733D1*
X5290433Y9616423D1*
X5272810Y9622150D1*
X5256297Y9630563D1*
X5241307Y9641453D1*
X5228203Y9654557D1*
X5217313Y9669547D1*
X5208900Y9686060D1*
X5203173Y9703683D1*
X5200273Y9721983D1*
Y9740517D1*
X5203173Y9758817D1*
X5208900Y9776440D1*
X5217313Y9792953D1*
X5228203Y9807943D1*
X5240693Y9820480D1*
X5240710Y9953127D1*
X5205927Y9956533D1*
X5194273Y9956520D1*
X5201400Y9944547D1*
X5208490Y9927427D1*
X5212817Y9909407D1*
X5214270Y9890933D1*
X5212817Y9872460D1*
X5208490Y9854440D1*
X5201400Y9837320D1*
X5191717Y9821523D1*
X5179683Y9807430D1*
X5165590Y9795397D1*
X5149793Y9785713D1*
X5132673Y9778623D1*
X5114653Y9774297D1*
X5093683Y9772940D1*
X5093663Y8920333D1*
X5108880Y8925013D1*
X5130933Y8928503D1*
X5153260D1*
X5175313Y8925013D1*
X5196550Y8918113D1*
X5216443Y8907977D1*
X5234507Y8894850D1*
X5250293Y8879063D1*
X5263420Y8861000D1*
X5273557Y8841107D1*
X5280457Y8819870D1*
X5283947Y8797817D1*
Y8775490D1*
X5281143Y8756903D1*
X5883897Y8153823D1*
X5893990Y8138717D1*
X5900277Y8121670D1*
X5902413Y8103627D1*
Y5938300D1*
X6075800Y5764547D1*
X6085893Y5749440D1*
X6092180Y5732393D1*
X6094317Y5714350D1*
Y5328267D1*
X6106823Y5315763D1*
X6117713Y5300773D1*
X6126127Y5284260D1*
X6131853Y5266637D1*
X6134753Y5248337D1*
Y5229803D1*
X6131853Y5211503D1*
X6126127Y5193880D1*
X6117713Y5177367D1*
X6106823Y5162377D1*
X6093720Y5149273D1*
X6078730Y5138383D1*
X6062217Y5129970D1*
X6044593Y5124243D1*
X6026293Y5121343D1*
X6007760D1*
X5989460Y5124243D1*
X5971837Y5129970D1*
X5955323Y5138383D1*
X5940333Y5149273D1*
X5927230Y5162377D1*
X5916340Y5177367D1*
X5907927Y5193880D1*
X5902200Y5211503D1*
X5899300Y5229803D1*
Y5248337D1*
X5902200Y5266637D1*
X5907927Y5284260D1*
X5916340Y5300773D1*
X5927230Y5315763D1*
X5939720Y5328300D1*
X5939737Y5682453D1*
X5766350Y5856057D1*
X5756257Y5871163D1*
X5749970Y5888210D1*
X5747833Y5906253D1*
Y8071580D1*
X5523953Y8295493D1*
X5512633Y8282497D1*
X5498540Y8270463D1*
X5482743Y8260780D1*
X5465623Y8253690D1*
X5447603Y8249363D1*
X5429130Y8247910D1*
X5410657Y8249363D1*
X5392637Y8253690D1*
X5375517Y8260780D1*
X5359720Y8270463D1*
X5345627Y8282497D1*
X5339900Y8288693D1*
X5305910Y8289660D1*
X5288423Y8294593D1*
X5272570Y8303470D1*
X5263347Y8311347D1*
X4957600Y8617430D1*
X4947507Y8632537D1*
X4941213Y8649607D1*
X4940213Y8654333D1*
X4921313Y8648293D1*
X4899260Y8644803D1*
X4876933D1*
X4854880Y8648293D1*
X4833643Y8655193D1*
X4813750Y8665330D1*
X4795687Y8678457D1*
X4779900Y8694243D1*
X4766773Y8712307D1*
X4760877Y8722057D1*
X4749213Y8703017D1*
X4734710Y8686040D1*
X4717733Y8671537D1*
X4698693Y8659873D1*
X4678067Y8651327D1*
X4656357Y8646117D1*
X4634097Y8644363D1*
X4611837Y8646117D1*
X4590127Y8651327D1*
X4569500Y8659873D1*
X4550460Y8671537D1*
X4533483Y8686040D1*
X4518980Y8703017D1*
X4507073Y8722517D1*
X4495507Y8703427D1*
X4483363Y8688763D1*
X4469373Y8675857D1*
X4453787Y8664930D1*
X4436880Y8656183D1*
X4418957Y8649773D1*
X4400337Y8645810D1*
X4381357Y8644370D1*
X4362350Y8645473D1*
X4343667Y8649107D1*
X4325630Y8655200D1*
X4308573Y8663647D1*
X4292793Y8674293D1*
X4278577Y8686953D1*
X4266177Y8701397D1*
X4255817Y8717367D1*
X4247680Y8734577D1*
X4241913Y8752717D1*
X4238620Y8771467D1*
X4237857Y8790487D1*
X4239643Y8809437D1*
X4243940Y8827983D1*
X4250677Y8845787D1*
X4259727Y8862533D1*
X4270933Y8877920D1*
X4284093Y8891677D1*
X4298970Y8903550D1*
X4315300Y8913333D1*
X4332790Y8920850D1*
X4351123Y8925963D1*
X4369980Y8928583D1*
X4389013Y8928663D1*
X4407890Y8926203D1*
X4426270Y8921243D1*
X4443823Y8913877D1*
X4460233Y8904230D1*
X4475210Y8892483D1*
X4488487Y8878840D1*
X4499820Y8863547D1*
X4507317Y8851250D1*
X4518980Y8870290D1*
X4533483Y8887267D1*
X4550460Y8901770D1*
X4569500Y8913433D1*
X4590127Y8921980D1*
X4611837Y8927190D1*
X4634097Y8928943D1*
X4656357Y8927190D1*
X4678067Y8921980D1*
X4698693Y8913433D1*
X4717733Y8901770D1*
X4734710Y8887267D1*
X4749213Y8870290D1*
X4761080Y8850817D1*
X4772980Y8870290D1*
X4787483Y8887267D1*
X4804460Y8901770D1*
X4823500Y8913433D1*
X4844127Y8921980D1*
X4865837Y8927190D1*
X4888097Y8928943D1*
X4910357Y8927190D1*
X4932067Y8921980D1*
X4939070Y8919397D1*
X4939083Y9338220D1*
X4840087Y9239280D1*
X4839823Y9075160D1*
X4836277Y9057340D1*
X4828670Y9040840D1*
X4817423Y9026570D1*
X4749460Y8958943D1*
X4734353Y8948850D1*
X4717307Y8942563D1*
X4699263Y8940427D1*
X4259847D1*
X4260100Y8920300D1*
X4257200Y8902000D1*
X4251473Y8884377D1*
X4243060Y8867863D1*
X4232170Y8852873D1*
X4219067Y8839770D1*
X4204077Y8828880D1*
X4187563Y8820467D1*
X4169940Y8814740D1*
X4151640Y8811840D1*
X4133107D1*
X4114807Y8814740D1*
X4097183Y8820467D1*
X4080670Y8828880D1*
X4065680Y8839770D1*
X4052577Y8852873D1*
X4041687Y8867863D1*
X4033273Y8884377D1*
X4027547Y8902000D1*
X4024647Y8920300D1*
Y8938833D1*
X4027547Y8957133D1*
X4033273Y8974757D1*
X4041687Y8991270D1*
X4052577Y9006260D1*
X4067813Y9021043D1*
X4073507Y9035723D1*
X4083600Y9050830D1*
X4109260Y9076490D1*
X4124367Y9086583D1*
X4141413Y9092870D1*
X4159457Y9095007D1*
X4667333D1*
X4685480Y9113347D1*
X4685717Y9277333D1*
X4689263Y9295153D1*
X4696870Y9311653D1*
X4708117Y9325923D1*
X4860097Y9477903D1*
X4860360Y9944627D1*
X4863907Y9962447D1*
X4871513Y9978947D1*
X4882760Y9993217D1*
X4982477Y10092597D1*
X4997583Y10102690D1*
X5014630Y10108977D1*
X5032673Y10111113D1*
X5275490Y10110877D1*
X5293310Y10107330D1*
X5309810Y10099723D1*
X5324080Y10088477D1*
X5376773Y10035447D1*
X5386867Y10020340D1*
X5393153Y10003293D1*
X5395290Y9985250D1*
Y9820423D1*
X2876790Y12399907D2*
Y12358210D1*
X2582210D1*
Y12652790D1*
X2592007D1*
X2585443Y12674800D1*
X2582690Y12693637D1*
X2582383Y12712673D1*
X2584540Y12731587D1*
X2589113Y12750067D1*
X2596033Y12767800D1*
X2605183Y12784493D1*
X2616410Y12799867D1*
X2629527Y12813663D1*
X2644313Y12825657D1*
X2660520Y12835640D1*
X2677883Y12843450D1*
X2696107Y12848953D1*
X2714887Y12852063D1*
X2733910Y12852723D1*
X2752863Y12850927D1*
X2771423Y12846697D1*
X2789287Y12840110D1*
X2806147Y12831277D1*
X2821730Y12820340D1*
X2835770Y12807483D1*
X2848037Y12792927D1*
X2854497Y12783373D1*
X2867500Y12801157D1*
X2883843Y12817500D1*
X2902540Y12831087D1*
X2923133Y12841577D1*
X2945117Y12848720D1*
X2967943Y12852337D1*
X2991057D1*
X3013883Y12848720D1*
X3035867Y12841577D1*
X3056460Y12831087D1*
X3075157Y12817500D1*
X3091500Y12801157D1*
X3105087Y12782460D1*
X3115577Y12761867D1*
X3122720Y12739883D1*
X3126337Y12717057D1*
Y12693943D1*
X3122720Y12671117D1*
X3115577Y12649133D1*
X3105087Y12628540D1*
X3091500Y12609843D1*
X3087543Y12605563D1*
X3098660Y12592073D1*
X3110737Y12572367D1*
X3119580Y12551017D1*
X3124977Y12528540D1*
X3126790Y12505500D1*
X3124977Y12482460D1*
X3119580Y12459983D1*
X3110737Y12438633D1*
X3098660Y12418927D1*
X3083650Y12401350D1*
X3066073Y12386340D1*
X3046367Y12374263D1*
X3025017Y12365420D1*
X3002540Y12360023D1*
X2979500Y12358210D1*
X2956460Y12360023D1*
X2933983Y12365420D1*
X2912633Y12374263D1*
X2892927Y12386340D1*
X2876777Y12400030D1*
X3688703Y12970150D2*
X3686623Y12944850D1*
X3681797Y12919923D1*
X3674277Y12895677D1*
X3664153Y12872393D1*
X3651553Y12850353D1*
X3636623Y12829823D1*
X3619540Y12811040D1*
X3600510Y12794237D1*
X3579760Y12779610D1*
X3557537Y12767337D1*
X3534110Y12757557D1*
X3509753Y12750397D1*
X3484760Y12745937D1*
X3459430Y12744230D1*
X3434067Y12745297D1*
X3408970Y12749127D1*
X3384440Y12755670D1*
X3360770Y12764853D1*
X3338247Y12776563D1*
X3317133Y12790663D1*
X3297687Y12806980D1*
X3280133Y12825323D1*
X3264690Y12845473D1*
X3251537Y12867190D1*
X3240833Y12890210D1*
X3232703Y12914260D1*
X3227247Y12939053D1*
X3224530Y12964297D1*
X3224583Y12989683D1*
X3227407Y13014913D1*
X3232967Y13039683D1*
X3241197Y13063700D1*
X3252000Y13086673D1*
X3265243Y13108333D1*
X3280773Y13128417D1*
X3298400Y13146687D1*
X3317917Y13162923D1*
X3339090Y13176933D1*
X3361663Y13188550D1*
X3385370Y13197633D1*
X3409927Y13204073D1*
X3435040Y13207797D1*
X3460410Y13208757D1*
X3485730Y13206943D1*
X3510703Y13202377D1*
X3535030Y13195113D1*
X3558420Y13185237D1*
X3580590Y13172870D1*
X3601277Y13158153D1*
X3620237Y13141270D1*
X3637240Y13122417D1*
X3652083Y13101823D1*
X3664593Y13079730D1*
X3674613Y13056403D1*
X3682030Y13032127D1*
X3686753Y13007180D1*
X3688727Y12981870D1*
X3688703Y12970150D1*
X2484703D2*
X2482623Y12944850D1*
X2477797Y12919923D1*
X2470277Y12895677D1*
X2460153Y12872393D1*
X2447553Y12850353D1*
X2432623Y12829823D1*
X2415540Y12811040D1*
X2396510Y12794237D1*
X2375760Y12779610D1*
X2353537Y12767337D1*
X2330110Y12757557D1*
X2305753Y12750397D1*
X2280760Y12745937D1*
X2255430Y12744230D1*
X2230067Y12745297D1*
X2204970Y12749127D1*
X2180440Y12755670D1*
X2156770Y12764853D1*
X2134247Y12776563D1*
X2113133Y12790663D1*
X2093687Y12806980D1*
X2076133Y12825323D1*
X2060690Y12845473D1*
X2047537Y12867190D1*
X2036833Y12890210D1*
X2028703Y12914260D1*
X2023247Y12939053D1*
X2020530Y12964297D1*
X2020583Y12989683D1*
X2023407Y13014913D1*
X2028967Y13039683D1*
X2037197Y13063700D1*
X2048000Y13086673D1*
X2061243Y13108333D1*
X2076773Y13128417D1*
X2094400Y13146687D1*
X2113917Y13162923D1*
X2135090Y13176933D1*
X2157663Y13188550D1*
X2181370Y13197633D1*
X2205927Y13204073D1*
X2231040Y13207797D1*
X2256410Y13208757D1*
X2281730Y13206943D1*
X2306703Y13202377D1*
X2331030Y13195113D1*
X2354420Y13185237D1*
X2376590Y13172870D1*
X2397277Y13158153D1*
X2416237Y13141270D1*
X2433240Y13122417D1*
X2448083Y13101823D1*
X2460593Y13079730D1*
X2470613Y13056403D1*
X2478030Y13032127D1*
X2482753Y13007180D1*
X2484727Y12981870D1*
X2484703Y12970150D1*
X8402127Y13902250D2*
X1097640D1*
X1097750Y1097697D1*
X8402360Y1097750D1*
X8402250Y13902303D1*
X1777000Y6691190D2*
D18*
Y6549023D1*
X1634833Y6691190D2*
X1777000D1*
Y7453190D2*
Y7311023D1*
X1634833Y7453190D2*
X1777000D1*
X1396000Y11496167D2*
Y11061833D1*
X1178833Y11279000D2*
X1613167D1*
X5826000Y12709040D2*
Y12274707D1*
X5608833Y12491873D2*
X6043167D1*
X6334000Y12709040D2*
Y12274707D1*
X6116833Y12491873D2*
X6551167D1*
X2778000Y11556167D2*
Y11271833D1*
X2635833Y11414000D2*
X2920167D1*
X1269270Y5436143D2*
Y5293977D1*
X1127103Y5436143D2*
X1411437D1*
X4380097Y8928820D2*
Y8644487D1*
X4237930Y8786653D2*
X4380097D1*
X1777000Y8215190D2*
Y8073023D1*
X1634833Y8215190D2*
X1777000D1*
X2729500Y12852667D2*
Y12705500D1*
X2582333D2*
X2729500D1*
X3456500Y13208667D2*
Y12744333D1*
X3224333Y12976500D2*
X3688667D1*
X2252500Y13208667D2*
Y12744333D1*
X2020333Y12976500D2*
X2484667D1*
D30*
X2285000Y6691190D3*
X2031000Y6945190D3*
X1777000D3*
D31*
X2285000D3*
D30*
X2031000Y6691190D3*
X1777000D3*
X2285000Y7453190D3*
X2031000Y7707190D3*
X1777000D3*
D31*
X2285000D3*
D30*
X2031000Y7453190D3*
X1777000D3*
D32*
X1396000Y11787000D3*
D33*
X3206857Y1520940D3*
D32*
X1396000Y11279000D3*
D33*
X3483723Y1520940D3*
D30*
X4698000Y7151500D3*
D33*
X3760590Y1520940D3*
D30*
X4698000Y7405500D3*
D33*
X4037423Y1520940D3*
D32*
X5318000Y12491873D3*
X5826000D3*
X6334000D3*
X6842000D3*
D30*
X4952000Y7151500D3*
D33*
X4314290Y1520940D3*
D30*
X4952000Y7405500D3*
D33*
X4591157Y1520940D3*
X4868023D3*
X5144890D3*
X5421723D3*
X5698590D3*
X5975457D3*
X6252323D3*
X6392023Y1805407D3*
X6115157D3*
D30*
X2778000Y11414000D3*
D33*
X5838290Y1805407D3*
D30*
X2270000Y11414000D3*
D34*
X3069690Y1805407D3*
D30*
X3667000Y11160000D3*
D33*
X3346557Y1805407D3*
X3623423D3*
X3900290D3*
X4177123D3*
D30*
X3921000Y11160000D3*
D33*
X4453990Y1805407D3*
D30*
X1269270Y5436143D3*
D33*
X4730857Y1805407D3*
D30*
X1269270Y5690143D3*
D33*
X5007723Y1805407D3*
D30*
X1269270Y5944143D3*
D33*
X5284590Y1805407D3*
D32*
X1396000Y12295000D3*
D33*
X5561423Y1805407D3*
D30*
X4175000Y11160000D3*
X4429000D3*
X4683000D3*
X3413000D3*
X7301500Y9945500D3*
X7555500D3*
X7809500D3*
X8063500D3*
X7301500Y9437500D3*
X7555500D3*
X7809500D3*
X8063500D3*
X7301500Y8929500D3*
X7555500D3*
X7809500D3*
X8063500D3*
X4380097Y8786653D3*
X4634097D3*
X4888097D3*
X5142097D3*
X2285000Y8215190D3*
X2031000Y8469190D3*
X1777000D3*
D31*
X2285000D3*
D30*
X2031000Y8215190D3*
X1777000D3*
D44*
X2729500Y12505500D3*
D45*
X2979500D3*
Y12705500D3*
X2729500D3*
D46*
X3456500Y12976500D3*
X2252500D3*
D47*
X3328000Y8554000D3*
X3810600D3*
M02*
