G04 DipTrace 3.0.0.1*
G04 keyboard.Top.gbr*
%MOMM*%
G04 #@! TF.FileFunction,Copper,L1,Top*
G04 #@! TF.Part,Single*
G04 #@! TA.AperFunction,Conductor*
%ADD14C,0.5*%
%ADD15C,0.2*%
G04 #@! TA.AperFunction,CopperBalancing*
%ADD17C,0.635*%
%ADD18C,0.33*%
%ADD20R,1.1X1.0*%
%ADD21R,1.0X1.1*%
%ADD23R,2.7X1.4*%
%ADD25R,1.8X0.5*%
%ADD26R,0.5X1.8*%
%ADD27R,0.6X2.0*%
%ADD28R,2.0X0.6*%
%ADD29R,1.9X3.4*%
G04 #@! TA.AperFunction,ComponentPad*
%ADD30C,1.5*%
%ADD31R,1.5X1.5*%
%ADD32C,3.0*%
%ADD33C,1.778*%
%ADD34R,1.778X1.778*%
%ADD36R,0.55X0.95*%
%ADD38R,0.95X0.55*%
%ADD39R,1.3X1.5*%
%ADD41O,0.85X0.3*%
%ADD42O,0.3X0.85*%
%ADD43R,5.5X5.5*%
G04 #@! TA.AperFunction,ComponentPad*
%ADD44R,1.6X1.6*%
%ADD45C,1.6*%
%ADD46C,3.3*%
%ADD47C,1.2192*%
G04 #@! TA.AperFunction,ViaPad*
%ADD48C,1.016*%
%FSLAX35Y35*%
G04*
G71*
G90*
G75*
G01*
G04 Top*
%LPD*%
X6842000Y12491873D2*
D14*
X6856077Y12140000D1*
X4539250D1*
Y12112500D1*
Y12104500D1*
X5015500Y11374250D2*
D15*
Y11526230D1*
Y12112500D1*
X4539250D1*
X6856077Y12140000D2*
D14*
X7036750D1*
X7191250Y11985500D1*
Y11738250D1*
X7173500Y11720500D1*
Y11240500D2*
X6793250D1*
X6746750Y11287000D1*
X5634753Y11479833D2*
D15*
X5317220D1*
X5270823Y11526230D1*
X5015500D1*
X5634753Y11479833D2*
Y11559833D1*
X3898000Y9280690D2*
Y8970500D1*
X3869750Y8942250D1*
X3745500Y9951940D2*
X3596250D1*
X3555000Y9993190D1*
X3430500D1*
X3428000Y9990690D1*
X3895500Y10251940D2*
Y10296500D1*
X3745500Y10446500D1*
Y10533190D1*
X3738000Y10540690D1*
X4295500Y10251940D2*
Y10352690D1*
X4380500Y10437690D1*
Y10538190D1*
X4378000Y10540690D1*
X3995500Y9551940D2*
Y9481190D1*
X3904250Y9389940D1*
Y9286940D1*
X3898000Y9280690D1*
X3738000Y10540690D2*
Y10699193D1*
X3729627Y10707567D1*
X3869750Y8942250D2*
Y8889750D1*
X3700000Y8720000D1*
X3240000D1*
X3100000Y8580000D1*
Y8000000D1*
X3220000Y7880000D1*
X3382000D1*
X3388000Y7874000D1*
X3428000Y9990690D2*
X3185307D1*
X2762123Y10413873D1*
X2651000D1*
X4378000Y10540690D2*
Y10855000D1*
X4429000Y10906000D1*
X4683000D1*
X4937000Y11160000D1*
X4683000Y11414000D1*
X3888460D1*
X3810170Y11335710D1*
X4651633Y5716603D2*
X4731633D1*
X4811633D1*
X4891633D1*
X4445500Y9651940D2*
Y9589013D1*
X4524620Y9509893D1*
X4687203D1*
X4688000Y9510690D1*
X2285000Y6945190D2*
Y7167440D1*
X2158000Y7294440D1*
Y7516690D1*
X2285000Y7643690D1*
Y7707190D1*
Y7992940D1*
X2158000Y8119940D1*
Y8342190D1*
X2285000Y8469190D1*
Y8548500D1*
X3250500Y9514000D1*
X3428000D1*
Y9510690D1*
X3745500Y9651940D2*
X3690000D1*
X3555000Y9516940D1*
X3434250D1*
X3428000Y9510690D1*
X2285000Y6945190D2*
Y6851000D1*
X2168000Y6734000D1*
Y6594000D1*
X2199500Y6562500D1*
X2436500D1*
X2628000Y6754000D1*
X3857287D1*
X3936550Y6833263D1*
Y6929300D1*
X3935987Y6929863D1*
X2031000Y6691190D2*
X2158000Y6818190D1*
Y7135690D1*
X2031000Y7262690D1*
Y7453190D1*
Y7516690D1*
X2158000Y7643690D1*
Y7929440D1*
X2031000Y8056440D1*
Y8215190D1*
X2793000Y4976940D2*
Y5128997D1*
X2028000Y5893997D1*
Y6688190D1*
X2031000Y6691190D1*
X3428000Y9590690D2*
X3145440D1*
X3119250Y9564500D1*
X3110500D1*
X3745500Y9701940D2*
X3676500D1*
X3555000Y9580440D1*
X3438250D1*
X3428000Y9590690D1*
X4190000Y4246373D2*
Y4437223D1*
X4189987Y4437237D1*
X4097183Y3763773D2*
Y3843157D1*
X4238840Y3984813D1*
Y4197533D1*
X4190000Y4246373D1*
X4444000D2*
Y4437223D1*
X4443987Y4437237D1*
X4177183Y3763773D2*
X4303580D1*
X4508743Y3968937D1*
Y4181630D1*
X4444000Y4246373D1*
X5048000Y4254000D2*
X5088000D1*
Y4427877D1*
X5079000Y4436877D1*
X5048000Y4254000D2*
Y4239390D1*
X5112057Y4175333D1*
Y3890787D1*
X5254947Y3747897D1*
X5288000Y4254000D2*
X5328000D1*
Y4431877D1*
X5333000Y4436877D1*
X5334947Y3747897D2*
Y3937800D1*
X5381960Y3984813D1*
Y4160040D1*
X5288000Y4254000D1*
X3301000Y4436940D2*
Y4294000D1*
X3428000Y4167000D1*
Y3945000D1*
X3174000Y4436940D2*
Y4294000D1*
X3301000Y4167000D1*
Y3945000D1*
X3047000Y4436940D2*
Y4294000D1*
X3174000Y4167000D1*
Y3945000D1*
X2920000Y4436940D2*
Y4294000D1*
X3047000Y4167000D1*
Y3945000D1*
X5794753Y11559833D2*
X6486957D1*
X6618873Y11691750D1*
X6539500Y4436940D2*
Y4294000D1*
X6666500Y4167000D1*
Y3944750D1*
X6412500Y4436940D2*
Y4294000D1*
X6539500Y4167000D1*
Y3944750D1*
X6285500Y4436940D2*
Y4294000D1*
X6412500Y4167000D1*
Y3944750D1*
X5635987Y4095950D2*
Y4254717D1*
X5587000Y4303703D1*
Y4436877D1*
X5414947Y3747897D2*
Y3859033D1*
X5651863Y4095950D1*
X5635987D1*
X2793000Y4436940D2*
Y4294000D1*
X2920000Y4167000D1*
Y3945000D1*
X2666000Y4436940D2*
Y4294000D1*
X2793000Y4167000D1*
Y3945000D1*
X2539000Y4436940D2*
Y4294000D1*
X2666000Y4167000D1*
Y3945000D1*
X3428000Y3405000D2*
D14*
Y3341500D1*
X4868023Y1901477D1*
Y1520940D1*
X5683500Y5156500D2*
D15*
X5703500D1*
Y4987377D1*
X5714000Y4976877D1*
X5494947Y3747897D2*
Y3796143D1*
X5810630Y4111827D1*
Y4699263D1*
X5715370Y4794523D1*
Y4975507D1*
X5714000Y4976877D1*
X5448000Y5154000D2*
Y4988877D1*
X5460000Y4976877D1*
X4891633Y5556603D2*
X5254947D1*
X5445467Y5366083D1*
Y5156533D1*
X5448000Y5154000D1*
X5088000D2*
Y4985877D1*
X5079000Y4976877D1*
X4811633Y5556603D2*
Y5460110D1*
X4873907Y5397837D1*
X5048550D1*
X5112057Y5334330D1*
Y5178057D1*
X5088000Y5154000D1*
X3936000Y5135373D2*
Y4977250D1*
X3935987Y4977237D1*
X3551750Y4749980D2*
Y4937000D1*
X3556143D1*
Y5143640D1*
X3746377Y5333873D1*
X3905127D1*
X3935987Y5303013D1*
Y4977237D1*
X3937183Y3763773D2*
X3860227D1*
X3803500Y3820500D1*
X4317000Y5135373D2*
Y4977250D1*
X4316987Y4977237D1*
X4651633Y5556603D2*
X4492867D1*
X4270593Y5334330D1*
Y5181780D1*
X4317000Y5135373D1*
X4571000D2*
Y4977250D1*
X4570987Y4977237D1*
X4731633Y5556603D2*
Y5296007D1*
X4571000Y5135373D1*
X3658000Y9280690D2*
Y9397690D1*
X3809000Y9548690D1*
X3842250D1*
X3845500Y9551940D1*
X3658000Y9400000D2*
X3438500D1*
X3459750Y9378750D1*
X4745623Y10723380D2*
X5015500D1*
Y10707500D1*
X5794753Y11479833D2*
X6269820D1*
X6604463Y11145190D1*
Y11007660D1*
X6618873Y10993250D1*
X4571000Y6929500D2*
Y7278500D1*
X4698000Y7405500D1*
X4731017Y7668200D2*
Y7438517D1*
X4698000Y7405500D1*
Y6929500D2*
Y7151500D1*
X4811017Y7668200D2*
Y7303653D1*
X4746893Y7239530D1*
Y7200393D1*
X4698000Y7151500D1*
X4825000Y6929500D2*
Y7215000D1*
X5015500Y7405500D1*
X4952000D1*
X4891017Y7668200D2*
Y7466483D1*
X4952000Y7405500D1*
Y6929500D2*
Y7151500D1*
X4971017Y7668200D2*
Y7602843D1*
X5080303Y7493557D1*
Y7279803D1*
X4952000Y7151500D1*
X3428000Y4976940D2*
Y5190310D1*
X4071690Y5834000D1*
X5707877D1*
X6285500Y5256377D1*
Y4976940D1*
X3047000D2*
Y5333000D1*
X3635767Y5921767D1*
X5763000D1*
X6539500Y5145267D1*
Y4976940D1*
X2904987Y5333873D2*
X2905860Y5333000D1*
X3047000D1*
X4746893Y10446617D2*
Y10369583D1*
X4688000Y10310690D1*
X4445500Y10151940D2*
X4604250Y10310690D1*
X4688000D1*
X4298000Y9280690D2*
Y9101447D1*
X4612793Y8786653D1*
X4634097D1*
X4245500Y9551940D2*
Y9429690D1*
X4285250Y9389940D1*
Y9293440D1*
X4298000Y9280690D1*
X4378000D2*
X4368000D1*
Y9154000D1*
X4468000Y9054000D1*
X4648000D1*
X4888097Y8813903D1*
Y8786653D1*
X4295500Y9551940D2*
Y9474940D1*
X4380500Y9389940D1*
Y9283190D1*
X4378000Y9280690D1*
X3995500Y10251940D2*
Y10323500D1*
X3904250Y10414750D1*
Y10534440D1*
X3898000Y10540690D1*
Y10802000D1*
X3794000Y10906000D1*
X3667000D1*
X3413000Y11160000D1*
X4045500Y10251940D2*
Y10337000D1*
X3967750Y10414750D1*
Y10530440D1*
X3978000Y10540690D1*
Y10849000D1*
X3667000Y11160000D1*
X4095500Y10251940D2*
Y10373440D1*
X4063000Y10405940D1*
Y10535690D1*
X4058000Y10540690D1*
Y11023000D1*
X3921000Y11160000D1*
X4145500Y10251940D2*
Y10533190D1*
X4138000Y10540690D1*
Y11123000D1*
X4175000Y11160000D1*
X4195500Y10251940D2*
Y10379690D1*
X4221750Y10405940D1*
Y10536940D1*
X4218000Y10540690D1*
Y10949000D1*
X4429000Y11160000D1*
X4245500Y10251940D2*
Y10366190D1*
X4285250Y10405940D1*
Y10527940D1*
X4298000Y10540690D1*
Y10902000D1*
X4429000Y11033000D1*
X4556000D1*
X4683000Y11160000D1*
X4445500Y10101940D2*
X4489250D1*
X4539250Y10151940D1*
Y10167813D1*
X4602127Y10230690D1*
X4688000D1*
X5570690D1*
X5580000Y10240000D1*
X4445500Y10051940D2*
X4502750D1*
X4601500Y10150690D1*
X4688000D1*
X5389310D1*
X5420000Y10120000D1*
X5573000D1*
X5580000Y10113000D1*
X4445500Y10001940D2*
X4516250D1*
X4571000Y10056690D1*
X4674000D1*
X4688000Y10070690D1*
X5309310D1*
X5400000Y9980000D1*
X5574000D1*
X5580000Y9986000D1*
X4445500Y9951940D2*
X4529750D1*
X4571000Y9993190D1*
X4685500D1*
X4688000Y9990690D1*
X5269310D1*
X5401000Y9859000D1*
X5580000D1*
X4445500Y9751940D2*
X4519433D1*
X4595683Y9675690D1*
X4683000D1*
X4688000Y9670690D1*
X4871877D1*
X5286250Y9256317D1*
Y6700173D1*
X6779550Y5206873D1*
X7127753D1*
X7366543Y4968083D1*
Y4720070D1*
Y4620167D1*
X6794377Y4048000D1*
Y3945627D1*
X6793500Y3944750D1*
X7366543Y4746893D2*
Y4720070D1*
Y4746893D2*
Y4916893D1*
X4445500Y9801940D2*
X4532933D1*
X4595683Y9739190D1*
X4676500D1*
X4688000Y9750690D1*
X4918890D1*
X5189080Y9480500D1*
X5577500D1*
X5580000Y9478000D1*
X4445500Y9901940D2*
X4679250D1*
X4688000Y9910690D1*
X5076423D1*
X5096180Y9890933D1*
X5429130Y8366000D2*
X5429590D1*
Y6715600D1*
X6874817Y5270373D1*
X7238877D1*
X7525310Y4983940D1*
Y4733427D1*
Y4619880D1*
X6937250Y4031820D1*
Y3944750D1*
X6920500D1*
X7525310Y4746893D2*
Y4733427D1*
Y4916893D2*
Y4746893D1*
X1983200Y9865707D2*
X2332027D1*
X2332523Y9866203D1*
X4138000Y9280690D2*
Y8933940D1*
X4142373Y8929567D1*
X4145500Y9551940D2*
Y9288190D1*
X4138000Y9280690D1*
X5580000Y9732000D2*
X5318750D1*
X5318000Y9731250D1*
X5634753Y11399833D2*
X5211083D1*
X5185500Y11374250D1*
X6158500Y4436940D2*
Y4294000D1*
X6285500Y4167000D1*
Y3944750D1*
X6031500Y4436940D2*
Y4294000D1*
X6158500Y4167000D1*
Y3944750D1*
Y3404750D2*
D14*
Y3062550D1*
X5144890Y2048940D1*
Y1520940D1*
X6120000Y10240000D2*
X6842750D1*
X7064250Y10461500D1*
X7572250D1*
X7809500Y10224250D1*
Y9945500D1*
X6120000Y10113000D2*
X6890377D1*
X7127753Y10350377D1*
X7492873D1*
X7682500Y10160750D1*
Y9564500D1*
X7809500Y9437500D1*
X6120000Y9986000D2*
X6922127D1*
X7175377Y10239250D1*
X7429377D1*
X7555500Y10113127D1*
Y9945500D1*
X6120000Y9859000D2*
X6953877D1*
X7223000Y10128123D1*
X7350003D1*
X7429377Y10048750D1*
Y9563623D1*
X7555500Y9437500D1*
X6064123Y8921623D2*
X5984750D1*
X5794250Y9112123D1*
Y9699500D1*
X5953750Y9859000D1*
X6120000D1*
Y9732000D2*
X7088000D1*
X7301500Y9945500D1*
X6120000Y9605000D2*
X7134000D1*
X7301500Y9437500D1*
X6120000Y9605000D2*
X5969627D1*
X5889500Y9524873D1*
Y9239123D1*
X6016500Y9112123D1*
X6064123D1*
X6285500Y3404750D2*
Y2935523D1*
X5421723Y2071747D1*
Y1520940D1*
X6412500Y3404750D2*
Y2832000D1*
X5698590Y2118090D1*
Y1520940D1*
X7563500Y11240500D2*
Y10953623D1*
X7556377D1*
X2348500Y3341500D2*
D15*
X2475500D1*
X2539000Y3405000D1*
X6031500Y3404750D2*
Y3595500D1*
X6087403Y3651403D1*
X6260963D1*
X6257000Y3655367D1*
X7556377Y10953623D2*
Y10985373D1*
X6796750D1*
X6788873Y10993250D1*
X6539500Y3404750D2*
D14*
Y2738250D1*
X5975457Y2174207D1*
Y1520940D1*
X6666500Y3404750D2*
Y2641233D1*
X6252323Y2227057D1*
Y1520940D1*
X6120000Y9478000D2*
X6968250D1*
X7207127Y9239123D1*
X7556377D1*
X7762750Y9032750D1*
Y8976250D1*
X7809500Y8929500D1*
X4345500Y9551940D2*
D15*
Y9546123D1*
X4461113Y9430510D1*
Y9283803D1*
X4458000Y9280690D1*
X4478777D1*
X4555740Y9357653D1*
X2364760Y10199117D2*
Y10087980D1*
X2523527Y9929213D1*
Y9866203D1*
X2502523D1*
X3808987Y6929863D2*
Y7070863D1*
X3857167Y7119043D1*
X3984180D1*
X4158823Y6944400D1*
Y6833263D1*
X4301713Y6690373D1*
X5143177D1*
X5206683Y6753880D1*
Y6928817D1*
X5206000Y6929500D1*
X3491500Y9097190D2*
X3643250D1*
X3745500Y9199440D1*
Y9273190D1*
X3738000Y9280690D1*
X3895500Y9551940D2*
Y9508190D1*
X3840750Y9453440D1*
X3809000D1*
X3745500Y9389940D1*
Y9288190D1*
X3738000Y9280690D1*
X1269270Y5690143D2*
X1387220D1*
X1584510Y5887433D1*
Y6752700D1*
X1777000Y6945190D1*
X5634753Y11319833D2*
Y11156753D1*
X5185500Y10707500D1*
X3301000Y3405000D2*
D14*
Y3192097D1*
X4591157Y1901940D1*
Y1520940D1*
X8063500Y8929500D2*
Y9437500D1*
Y9945500D1*
X6120000Y9351000D2*
X6908123D1*
X6959750Y9299373D1*
X8063500Y9945500D2*
Y11192623D1*
X7778623Y11477500D1*
X7563500D1*
Y11720500D1*
Y11477500D2*
X7003123D1*
X6788873Y11691750D1*
X3174000Y3405000D2*
Y3096823D1*
X4314290Y1956533D1*
Y1520940D1*
X4445500Y9851940D2*
D15*
X4553500D1*
X4571000Y9834440D1*
X4684250D1*
X4688000Y9830690D1*
X4981780D1*
X5212470Y9600000D1*
X5575000D1*
X5580000Y9605000D1*
X3428000Y9750690D2*
X2979190D1*
X2642730Y9414230D1*
X1763500Y8535000D1*
Y8469190D1*
X1777000D1*
X3745500Y9801940D2*
X3649500D1*
X3586750Y9739190D1*
X3439500D1*
X3428000Y9750690D1*
X2502523Y9596300D2*
Y9554437D1*
X2642730Y9414230D1*
X3978000Y9280690D2*
Y8860440D1*
X3671560Y8554000D1*
X3328000D1*
X3308000Y8067000D2*
Y8534000D1*
X3328000Y8554000D1*
X4045500Y9551940D2*
Y9467690D1*
X3967750Y9389940D1*
Y9290940D1*
X3978000Y9280690D1*
X4095500Y9551940D2*
Y9454190D1*
X4063000Y9421690D1*
Y9285690D1*
X4058000Y9280690D1*
Y8400627D1*
X3983623Y8326250D1*
X3878000D1*
Y8486600D1*
X3810600Y8554000D1*
Y8134400D1*
X3878000Y8067000D1*
X1983200Y9595803D2*
X2332027D1*
X2332523Y9596300D1*
X3046987Y6389863D2*
Y6513767D1*
X2998253Y6562500D1*
X4218000Y9280690D2*
X4206453D1*
Y9071873D1*
X4238207Y9040120D1*
Y8532067D1*
X4158823Y8452683D1*
X4195500Y9551940D2*
Y9416190D1*
X4221750Y9389940D1*
Y9284440D1*
X4218000Y9280690D1*
X4191210Y6493327D2*
X4213173D1*
X4317000Y6389500D1*
X3047000Y3405000D2*
D14*
Y2969797D1*
X4037423Y1979373D1*
Y1520940D1*
X2920000Y3405000D2*
Y2874523D1*
X3760590Y2033933D1*
Y1520940D1*
X2793000Y3405000D2*
Y2763373D1*
X3483723Y2072650D1*
Y1520940D1*
X3428000Y10310690D2*
D15*
Y10405940D1*
X3459750Y10437690D1*
X3745500Y10151940D2*
X3713750D1*
X3555000Y10310690D1*
X3428000D1*
X2666000Y3405000D2*
D14*
Y2620470D1*
X3206857Y2079613D1*
Y1520940D1*
X3936000Y4246373D2*
D15*
Y4437223D1*
X3935987Y4437237D1*
X4017183Y3763773D2*
Y4111210D1*
X3921307Y4207087D1*
Y4246373D1*
X3936000D1*
X3745500Y10051940D2*
X3655000D1*
X3556250Y10150690D1*
X3428000D1*
X3279310D1*
X3142250Y10287750D1*
Y12009250D1*
X3237500Y12104500D1*
Y12485500D1*
X2979500D1*
Y12505500D1*
X3745500Y10001940D2*
X3609750D1*
X3555000Y10056690D1*
X3442000D1*
X3428000Y10070690D1*
X3271060D1*
X3047000Y10294750D1*
Y11970500D1*
X2856500Y12161000D1*
Y12582500D1*
X2979500Y12705500D1*
X3428000Y9910690D2*
X2984183D1*
X2651000Y10243873D1*
X3745500Y9901940D2*
X3436750D1*
X3428000Y9910690D1*
X3808987Y4437237D2*
Y4150657D1*
X3888920Y4070723D1*
X3301000Y6199000D2*
Y6389850D1*
X3300987Y6389863D1*
X4062987Y4437237D2*
Y4192420D1*
X4143580Y4111827D1*
Y4064197D1*
X3428000Y6199000D2*
Y6389850D1*
X3427987Y6389863D1*
X4316987Y4437237D2*
Y4144817D1*
X4397607Y4064197D1*
X3555000Y6199000D2*
Y6389850D1*
X3554987Y6389863D1*
X4952000Y4436877D2*
Y4087257D1*
X4984410Y4054847D1*
X3555000Y7151500D2*
Y6929877D1*
X3554987Y6929863D1*
X5206000Y4436877D2*
Y4129020D1*
X5254947Y4080073D1*
X3682000Y7151500D2*
Y6929877D1*
X3681987Y6929863D1*
X5460000Y4436877D2*
Y4244000D1*
X5503500Y4200500D1*
X4698000Y6389500D2*
Y6199000D1*
X3808987Y4977237D2*
Y5193013D1*
X3788000Y5214000D1*
X3682000Y6199000D2*
Y6389850D1*
X3681987Y6389863D1*
X4189987Y4977237D2*
Y5132013D1*
X4108000Y5214000D1*
X3301000Y7151500D2*
Y6929877D1*
X3300987Y6929863D1*
X4443987Y4977237D2*
Y5218013D1*
X4428000Y5234000D1*
X3428000Y7151500D2*
Y6929877D1*
X3427987Y6929863D1*
X4952000Y4976877D2*
Y5253657D1*
X4985043Y5286700D1*
X4571000Y6389500D2*
Y6199000D1*
X5333000Y4976877D2*
Y5244260D1*
X5288000Y5289260D1*
X4825000Y6389500D2*
Y6199000D1*
X5587000Y4976877D2*
Y5290260D1*
X5568000Y5309260D1*
X4952000Y6389500D2*
Y6199000D1*
X6793500Y3404750D2*
D14*
Y3650247D1*
X6794377Y3651123D1*
X7301500Y8929500D2*
X6242000D1*
X6234123Y8921623D1*
X6920500Y3404750D2*
X7024250D1*
X7032500Y3413000D1*
X7555500Y8929500D2*
Y9049500D1*
X7477000Y9128000D1*
X6250000D1*
X6234123Y9112123D1*
X2031000Y8469190D2*
D15*
X1904000Y8342190D1*
Y7834190D1*
X2031000Y7707190D1*
X1904000Y7580190D1*
Y7072190D1*
X2031000Y6945190D1*
X3428000Y9670690D2*
X3026190D1*
X2031000Y8675500D1*
Y8469190D1*
X4444000Y6389500D2*
Y6594000D1*
X3248000D1*
X3168000Y6514000D1*
Y6395850D1*
X3173987Y6389863D1*
X3174000Y4976940D2*
Y5191440D1*
X3095720Y6064657D2*
X3111597D1*
Y6096410D1*
Y6159917D1*
X3168000Y6216320D1*
Y6389863D1*
X3173987D1*
X4444000Y6594000D2*
X5188000D1*
X5329000Y6453000D1*
X5390533D1*
X6666500Y5177033D1*
Y4976940D1*
X2268000Y6276750D2*
Y6279567D1*
X2348567Y6199000D1*
X3072513D1*
X3111597Y6159917D1*
X3745500Y9751940D2*
X3663000D1*
X3586750Y9675690D1*
X3433000D1*
X3428000Y9670690D1*
X2539000Y4976940D2*
Y5119500D1*
X2475500Y5183000D1*
X2349517Y4635757D2*
X3302117D1*
X3651403D1*
X3682880Y4604280D1*
Y4503670D1*
Y3365367D1*
X3778123Y3270123D1*
X4508373D1*
X4825000Y3586750D1*
Y4436877D1*
X2285000Y6691190D2*
X2412000Y6818190D1*
Y6929863D1*
Y7453190D1*
Y8088190D1*
X2285000Y8215190D1*
Y7453190D2*
X2412000D1*
X3046987Y6929863D2*
X2412000D1*
X3818000Y9280690D2*
Y9164000D1*
X3699750Y9045750D1*
Y8942250D1*
X4688000Y9590690D2*
X4824863D1*
X5142500Y9273053D1*
Y8787057D1*
X5142097Y8786653D1*
X6031500Y4976940D2*
Y5253543D1*
X6017027Y5239070D1*
X3046987Y6929863D2*
Y7219987D1*
X3223500Y7396500D1*
X4120000D1*
Y7158000D1*
X4317000Y6961000D1*
Y6929500D1*
X3301000Y4976940D2*
X3302117Y4635757D1*
X2285000Y8215190D2*
X2402190D1*
X3129250Y8942250D1*
X3699750D1*
X3745500Y10101940D2*
X3668500D1*
X3523250Y10247190D1*
X3444500D1*
X3428000Y10230690D1*
X3945500Y10251940D2*
Y10310000D1*
X3809000Y10446500D1*
Y10531690D1*
X3818000Y10540690D1*
X3845500Y10251940D2*
X3836000D1*
X3650250Y10437690D1*
Y10532940D1*
X3658000Y10540690D1*
X4345500Y10251940D2*
Y10339190D1*
X4444000Y10437690D1*
Y10526690D1*
X4458000Y10540690D1*
X3945500Y9551940D2*
Y9494690D1*
X3809000Y9358190D1*
Y9289690D1*
X3818000Y9280690D1*
X4445500Y9701940D2*
X4490060D1*
X4611560Y9580440D1*
X4677750D1*
X4688000Y9590690D1*
X3428000Y10230690D2*
X3301627D1*
X3253377Y10278940D1*
Y10413753D1*
X3531313Y10691690D1*
X3555000D1*
X3570877D1*
X3618500D1*
X3666127Y10644063D1*
Y10548817D1*
X3658000Y10540690D1*
X3818000D2*
Y10777940D1*
X3777250Y10818690D1*
X3650250D1*
X3570877Y10739317D1*
Y10691690D1*
X3555000Y10707567D2*
Y10691690D1*
X4458000Y10540690D2*
Y10721567D1*
X4475750Y10739317D1*
X4120000Y7396500D2*
Y7764557D1*
X5142097Y8786653D1*
X6793500Y4976940D2*
Y4833750D1*
X6603000Y4643250D1*
X6222000D1*
X6031500Y4833750D1*
Y4976940D1*
X3681987Y4437237D2*
D14*
X3682880Y4503670D1*
X2408000Y10714000D2*
D15*
X2500000D1*
Y10358250D1*
Y10142000D1*
X2811310Y9830690D1*
X3428000D1*
X3745500Y9851940D2*
X3636000D1*
X3618500Y9834440D1*
X3431750D1*
X3428000Y9830690D1*
X1793200Y9865707D2*
Y10025200D1*
X2034890Y10266890D1*
X2126250Y10358250D1*
X2500000D1*
X1793200Y9595803D2*
Y9865707D1*
X2729500Y12505500D2*
Y12191000D1*
X2460500Y11922000D1*
Y11414000D1*
Y10766500D1*
X2408000Y10714000D1*
X2127127Y10112240D2*
Y10174653D1*
X2034890Y10266890D1*
X2270000Y11414000D2*
X2460500D1*
D48*
X3174000Y5191440D3*
X3095720Y6064657D3*
X2349517Y4635757D3*
X6017027Y5239070D3*
X4444000Y4246373D3*
X4190000D3*
X3936000D3*
X4571000Y5135373D3*
X4317000D3*
X3936000D3*
X5683500Y5156500D3*
X5448000Y5154000D3*
X5088000D3*
X5048000Y4254000D3*
X5288000D3*
X5635987Y4095950D3*
X3459750Y9378750D3*
X4745623Y10723380D3*
X3822880Y3386627D3*
X4122880D3*
X7556377Y10953623D3*
X6257000Y3655367D3*
X2348500Y3341500D3*
X3803500Y3820500D3*
X3551750Y4749980D3*
X4343497Y3386627D3*
X4142373Y8929567D3*
X5002880Y3386627D3*
X6001150Y3175103D3*
X5600000Y5520000D3*
X5905890Y5366083D3*
X6103500Y6182263D3*
X3110500Y9564500D3*
X5429130Y8366000D3*
X2998253Y6562500D3*
X6440000Y5951137D3*
X4191210Y6493327D3*
X4555740Y9357653D3*
X4158823Y8452683D3*
X2268000Y6276750D3*
X2904987Y5333873D3*
X3459750Y10437690D3*
X2475500Y5183000D3*
X4746893Y10446617D3*
X3788000Y5214000D3*
X4108000D3*
X4428000Y5234000D3*
X4985043Y5286700D3*
X5288000Y5289260D3*
X5568000Y5309260D3*
X3888920Y4070723D3*
X4143580Y4064197D3*
X4397607D3*
X4984410Y4054847D3*
X5254947Y4080073D3*
X5503500Y4200500D3*
X3301000Y6199000D3*
X3428000D3*
X3555000D3*
X3682000D3*
X4571000D3*
X4698000D3*
X4825000D3*
X4952000D3*
X3301000Y7151500D3*
X3428000D3*
X3555000D3*
X3682000D3*
X5411753Y8960000D3*
X4889783Y9128853D3*
X5548000Y7934000D3*
X4828000Y8114000D3*
X3928000Y7594000D3*
X3388000Y7874000D3*
X5206000Y6103750D3*
X4348000Y6114000D3*
X4444000Y7151500D3*
X4000000Y7260000D3*
X6959750Y9299373D3*
X3491500Y9097190D3*
X3809877Y3143123D3*
X2127127Y10112240D3*
X4127377Y3143123D3*
X4349617D3*
X6794377Y3651123D3*
X8248000Y12934000D3*
X7365877Y12412500D3*
X4948000Y12426000D3*
X3745500Y12422000D3*
X3364500Y12215623D3*
X2508000Y12260000D3*
X3268000Y11320000D3*
X3810170Y11335710D3*
X2648000Y10934000D3*
X1840500Y11025000D3*
X1468000Y12774000D3*
X1396000Y5056000D3*
Y10009000D3*
X7032500Y3413000D3*
X7191900Y4699263D3*
X2619420Y6382190D3*
X2748617Y5854000D3*
X1408000Y7914000D3*
Y7154000D3*
X1388000Y6321000D3*
X6032377Y11255250D3*
X1399750Y3974000D3*
Y3294000D3*
X7858000Y10540873D3*
X6778500Y10747250D3*
X5270377Y10398000D3*
X6699127Y11477500D3*
X6683250Y11874373D3*
X1904000Y3976500D3*
X5302127Y11842623D3*
X6460130Y4770250D3*
X3206623Y9175623D3*
X6746750Y11287000D3*
X3729627Y10707567D3*
X3555000D3*
X4475750Y10739317D3*
X5096180Y9890933D3*
X1317533Y2060747D3*
X2364760Y10199117D3*
X4539250Y12104500D3*
X5318000Y9731250D3*
X1104163Y13839083D2*
D17*
X1317557D1*
X1682483D2*
X7817500D1*
X8182427D2*
X8395947D1*
X1104163Y13775917D2*
X1229377D1*
X1770663D2*
X5421120D1*
X5694890D2*
X6461057D1*
X6734950D2*
X7729320D1*
X8270607D2*
X8395947D1*
X1104163Y13712750D2*
X1176293D1*
X1823747D2*
X5340380D1*
X5775630D2*
X6380317D1*
X6815690D2*
X7676240D1*
X8323690D2*
X8395947D1*
X1104163Y13649583D2*
X1142137D1*
X1857977D2*
X5298090D1*
X5817920D2*
X6338150D1*
X6857857D2*
X7642007D1*
X8357920D2*
X8395947D1*
X1878563Y13586417D2*
X5276137D1*
X5839873D2*
X6316197D1*
X6879810D2*
X7621420D1*
X1887743Y13523250D2*
X5269563D1*
X5846447D2*
X6309623D1*
X6886383D2*
X7612243D1*
X1886377Y13460083D2*
X5277377D1*
X5838633D2*
X6317313D1*
X6878693D2*
X7613607D1*
X1874223Y13396917D2*
X5300817D1*
X5815193D2*
X6340753D1*
X6855253D2*
X7625760D1*
X1104163Y13333750D2*
X1149573D1*
X1850410D2*
X5345093D1*
X5770917D2*
X6385153D1*
X6810853D2*
X7649573D1*
X8350357D2*
X8395947D1*
X1104163Y13270583D2*
X1188077D1*
X1811840D2*
X5431663D1*
X5684347D2*
X6471600D1*
X6724283D2*
X7688143D1*
X8311907D2*
X8395947D1*
X1104163Y13207417D2*
X1247980D1*
X1752060D2*
X2200977D1*
X2303963D2*
X3404997D1*
X3507983D2*
X7747923D1*
X8252130D2*
X8395947D1*
X1104163Y13144250D2*
X1354267D1*
X1645773D2*
X2081170D1*
X2423897D2*
X3285190D1*
X3627790D2*
X7854213D1*
X8145717D2*
X8395947D1*
X1104163Y13081083D2*
X2035403D1*
X2469660D2*
X3239423D1*
X3673680D2*
X8395947D1*
X1104163Y13017917D2*
X2014570D1*
X2490497D2*
X3218587D1*
X3694517D2*
X8395947D1*
X1104163Y12954750D2*
X2011840D1*
X2493100D2*
X3215860D1*
X3697120D2*
X8395947D1*
X1104163Y12891583D2*
X2026723D1*
X2478343D2*
X3230743D1*
X3682237D2*
X4905680D1*
X5184410D2*
X6975630D1*
X7254360D2*
X8395947D1*
X1104163Y12828417D2*
X2063310D1*
X2441753D2*
X2636670D1*
X2822383D2*
X2886700D1*
X3072290D2*
X3267330D1*
X3645650D2*
X4859417D1*
X5230547D2*
X6929493D1*
X7300497D2*
X8395947D1*
X1104163Y12765250D2*
X2142560D1*
X2362503D2*
X2585200D1*
X3123760D2*
X3346580D1*
X3566400D2*
X4842303D1*
X5247660D2*
X6912253D1*
X7317737D2*
X8395947D1*
X1104163Y12702083D2*
X2572923D1*
X3136163D2*
X4846270D1*
X5390163D2*
X5753750D1*
X5898163D2*
X6261750D1*
X6406163D2*
X6769750D1*
X7313767D2*
X8395947D1*
X1104163Y12638917D2*
X2572923D1*
X3120537D2*
X4872813D1*
X5488390D2*
X5655650D1*
X5996390D2*
X6163650D1*
X6504390D2*
X6671650D1*
X7287103D2*
X8395947D1*
X1104163Y12575750D2*
X2572923D1*
X3118673D2*
X4938793D1*
X5528077D2*
X5615960D1*
X6036077D2*
X6123960D1*
X6544077D2*
X6631960D1*
X7221247D2*
X8395947D1*
X1104163Y12512583D2*
X1355260D1*
X1436793D2*
X2572923D1*
X3319470D2*
X5092333D1*
X5543703D2*
X5600333D1*
X6051703D2*
X6108333D1*
X6559703D2*
X6616333D1*
X7067703D2*
X8395947D1*
X1104163Y12449417D2*
X1232600D1*
X1559453D2*
X2572923D1*
X3324180D2*
X5095433D1*
X5540480D2*
X5603433D1*
X6048480D2*
X6111433D1*
X6556480D2*
X6619433D1*
X7064480D2*
X8395947D1*
X1104163Y12386250D2*
X1189193D1*
X1602860D2*
X2572923D1*
X3324180D2*
X5118380D1*
X5517660D2*
X5626380D1*
X6025660D2*
X6134380D1*
X6533660D2*
X6642380D1*
X7041660D2*
X8395947D1*
X1104163Y12323083D2*
X1171210D1*
X1620843D2*
X2642870D1*
X3324180D2*
X5170097D1*
X5465943D2*
X5678097D1*
X5973943D2*
X6186097D1*
X6481943D2*
X6694097D1*
X6989943D2*
X8395947D1*
X1104163Y12259917D2*
X1172200D1*
X1619850D2*
X2642870D1*
X3324180D2*
X6749537D1*
X6952983D2*
X8395947D1*
X1104163Y12196750D2*
X1192540D1*
X1599510D2*
X2615337D1*
X3324180D2*
X4454480D1*
X7121160D2*
X8395947D1*
X1104163Y12133583D2*
X1239793D1*
X1552260D2*
X2552210D1*
X3324180D2*
X4415413D1*
X7184287D2*
X8395947D1*
X1104163Y12070417D2*
X2488957D1*
X2728870D2*
X2827170D1*
X3316493D2*
X4416653D1*
X7247413D2*
X8395947D1*
X1104163Y12007250D2*
X2425830D1*
X2665617D2*
X2890297D1*
X3260187D2*
X4460807D1*
X4617747D2*
X4928870D1*
X5102180D2*
X7028340D1*
X7290327D2*
X8395947D1*
X1104163Y11944083D2*
X1235207D1*
X1556847D2*
X2376963D1*
X2602490D2*
X2953550D1*
X3228930D2*
X4928870D1*
X5102180D2*
X7001800D1*
X7345147D2*
X7391853D1*
X7735200D2*
X8395947D1*
X1104163Y11880917D2*
X1190433D1*
X1601620D2*
X2373863D1*
X2547173D2*
X2960370D1*
X3228930D2*
X4928870D1*
X5102180D2*
X7001800D1*
X7345147D2*
X7391853D1*
X7735200D2*
X8395947D1*
X1104163Y11817750D2*
X1171457D1*
X1620470D2*
X2373863D1*
X2547173D2*
X2960370D1*
X3228930D2*
X4928870D1*
X5102180D2*
X7001800D1*
X7345147D2*
X7391853D1*
X7735200D2*
X8395947D1*
X1104163Y11754583D2*
X1171707D1*
X1620223D2*
X2373863D1*
X2547173D2*
X2960370D1*
X3228930D2*
X4928870D1*
X5102180D2*
X6487227D1*
X6920490D2*
X7001800D1*
X7345147D2*
X7391853D1*
X7735200D2*
X8395947D1*
X1104163Y11691417D2*
X1191177D1*
X1600877D2*
X2373863D1*
X2547173D2*
X2960370D1*
X3228930D2*
X4928870D1*
X5102180D2*
X6487227D1*
X6930287D2*
X7001800D1*
X7345147D2*
X7391853D1*
X7735200D2*
X8395947D1*
X1104163Y11628250D2*
X1236940D1*
X1555110D2*
X2373863D1*
X2547173D2*
X2960370D1*
X3228930D2*
X4928870D1*
X5102180D2*
X5510667D1*
X7345147D2*
X7391853D1*
X7735200D2*
X8395947D1*
X1104163Y11565083D2*
X2373863D1*
X2547173D2*
X2960370D1*
X3228930D2*
X4928870D1*
X5351840D2*
X5510667D1*
X6612043D2*
X6774463D1*
X7822510D2*
X8395947D1*
X1104163Y11501917D2*
X2148017D1*
X2547173D2*
X2656017D1*
X2900020D2*
X2960370D1*
X3228930D2*
X4928870D1*
X6548913D2*
X6837593D1*
X7895313D2*
X8395947D1*
X1104163Y11438750D2*
X1237933D1*
X1553997D2*
X2120483D1*
X2547173D2*
X2628483D1*
X2927553D2*
X2960273D1*
X3228930D2*
X4883850D1*
X6430843D2*
X6900720D1*
X7958440D2*
X8395947D1*
X1104163Y11375583D2*
X1191673D1*
X1600380D2*
X2123587D1*
X2547173D2*
X2631587D1*
X2924453D2*
X2960413D1*
X3228930D2*
X4883850D1*
X5918877D2*
X6254187D1*
X6493973D2*
X6657883D1*
X6835657D2*
X7001800D1*
X8021693D2*
X8395947D1*
X1104163Y11312417D2*
X1171953D1*
X1620100D2*
X2159800D1*
X2547173D2*
X2667800D1*
X2888240D2*
X2960370D1*
X3228930D2*
X4883850D1*
X5317113D2*
X5510667D1*
X5918877D2*
X6317313D1*
X6557100D2*
X6622040D1*
X7735200D2*
X7802617D1*
X8084820D2*
X8395947D1*
X1104163Y11249250D2*
X1171333D1*
X1620597D2*
X2373863D1*
X2547173D2*
X2960370D1*
X3228930D2*
X3292010D1*
X4804030D2*
X5510667D1*
X5918877D2*
X6380567D1*
X7735200D2*
X7865747D1*
X8146460D2*
X8395947D1*
X1104163Y11186083D2*
X1189937D1*
X1602117D2*
X2373863D1*
X2547173D2*
X2960370D1*
X3228930D2*
X3263733D1*
X4832307D2*
X5544150D1*
X5721430D2*
X6443693D1*
X7735200D2*
X7928873D1*
X8165190D2*
X8395947D1*
X1104163Y11122917D2*
X1234213D1*
X1557840D2*
X2373863D1*
X2547173D2*
X2960370D1*
X3228930D2*
X3266213D1*
X4829827D2*
X5481023D1*
X5713867D2*
X6506820D1*
X6691047D2*
X7001800D1*
X7735200D2*
X7961863D1*
X8165190D2*
X8395947D1*
X1104163Y11059750D2*
X1368283D1*
X1423770D2*
X2373863D1*
X2547173D2*
X2960370D1*
X3228930D2*
X3301437D1*
X4794480D2*
X5417897D1*
X5657683D2*
X6487227D1*
X7735200D2*
X7961863D1*
X8165190D2*
X8395947D1*
X1104163Y10996583D2*
X2373863D1*
X2547173D2*
X2960370D1*
X3228930D2*
X3456463D1*
X4639450D2*
X5354643D1*
X5594430D2*
X6487227D1*
X7675917D2*
X7961863D1*
X8165190D2*
X8395947D1*
X1104163Y10933417D2*
X2373863D1*
X2547173D2*
X2960370D1*
X3228930D2*
X3519717D1*
X4449323D2*
X5291517D1*
X5531303D2*
X6487227D1*
X7682117D2*
X7961863D1*
X8165190D2*
X8395947D1*
X1104163Y10870250D2*
X2373863D1*
X2547173D2*
X2960370D1*
X3228930D2*
X3581853D1*
X4386193D2*
X5228387D1*
X5468173D2*
X7462173D1*
X7650490D2*
X7961863D1*
X8165190D2*
X8395947D1*
X1104163Y10807083D2*
X1756350D1*
X2619603D2*
X2960370D1*
X3228930D2*
X3479657D1*
X4582400D2*
X4651803D1*
X4839500D2*
X4883850D1*
X5404923D2*
X7961863D1*
X8165190D2*
X8395947D1*
X1104163Y10743917D2*
X1756350D1*
X2619603D2*
X2960370D1*
X3228930D2*
X3433150D1*
X5341793D2*
X7961863D1*
X8165190D2*
X8395947D1*
X1104163Y10680750D2*
X1756350D1*
X2619603D2*
X2960370D1*
X3228930D2*
X3400530D1*
X4588103D2*
X4625883D1*
X5317113D2*
X7961863D1*
X8165190D2*
X8395947D1*
X1104163Y10617583D2*
X1756350D1*
X2619603D2*
X2960370D1*
X3228930D2*
X3337280D1*
X4559580D2*
X4680327D1*
X4810850D2*
X4883850D1*
X5317113D2*
X7961863D1*
X8165190D2*
X8395947D1*
X1104163Y10554417D2*
X2413303D1*
X2586613D2*
X2960370D1*
X3228930D2*
X3274150D1*
X4559580D2*
X4685413D1*
X4808370D2*
X7036773D1*
X7599767D2*
X7961863D1*
X8165190D2*
X8395947D1*
X1104163Y10491250D2*
X2413303D1*
X2777610D2*
X2960370D1*
X4559580D2*
X4627990D1*
X4865793D2*
X6952933D1*
X7683607D2*
X7961863D1*
X8165190D2*
X8395947D1*
X1104163Y10428083D2*
X2080300D1*
X2777610D2*
X2960370D1*
X4559580D2*
X4620920D1*
X4872863D2*
X6889683D1*
X7746733D2*
X7961863D1*
X8165190D2*
X8395947D1*
X1104163Y10364917D2*
X2013080D1*
X2777610D2*
X2960370D1*
X4854630D2*
X6826553D1*
X7809987D2*
X7961863D1*
X8165190D2*
X8395947D1*
X1104163Y10301750D2*
X1949827D1*
X2777610D2*
X2960370D1*
X4434190D2*
X4475440D1*
X5756653D2*
X5943383D1*
X7873113D2*
X7961863D1*
X8165190D2*
X8395947D1*
X1104163Y10238583D2*
X1886700D1*
X2777610D2*
X2983317D1*
X5756653D2*
X5943383D1*
X7910073D2*
X7961863D1*
X8165190D2*
X8395947D1*
X1104163Y10175417D2*
X1823573D1*
X2839373D2*
X3046443D1*
X5756653D2*
X5943383D1*
X7911190D2*
X7961863D1*
X8165190D2*
X8395947D1*
X1104163Y10112250D2*
X1760320D1*
X2902503D2*
X3109570D1*
X5756653D2*
X5943383D1*
X7911190D2*
X7961863D1*
X8165190D2*
X8395947D1*
X1104163Y10049083D2*
X1710213D1*
X2965630D2*
X3172823D1*
X5756653D2*
X5943383D1*
X7917760D2*
X7955290D1*
X8171760D2*
X8395947D1*
X1104163Y9985917D2*
X1651553D1*
X5756653D2*
X5943383D1*
X8209463D2*
X8395947D1*
X1104163Y9922750D2*
X1651553D1*
X5756653D2*
X5876410D1*
X8213310D2*
X8395947D1*
X1104163Y9859583D2*
X1651553D1*
X5756653D2*
X5813283D1*
X8187017D2*
X8395947D1*
X1104163Y9796417D2*
X1651553D1*
X8165190D2*
X8395947D1*
X1104163Y9733250D2*
X1651553D1*
X8165190D2*
X8395947D1*
X1104163Y9670083D2*
X1651553D1*
X8165190D2*
X8395947D1*
X1104163Y9606917D2*
X1651553D1*
X8165190D2*
X8395947D1*
X1104163Y9543750D2*
X1651553D1*
X8168910D2*
X8395947D1*
X1104163Y9480583D2*
X1651553D1*
X2124873D2*
X2200850D1*
X8208597D2*
X8395947D1*
X1104163Y9417417D2*
X2519593D1*
X8213807D2*
X8395947D1*
X1104163Y9354250D2*
X2462913D1*
X3210700D2*
X3334797D1*
X4683107D2*
X4941397D1*
X5308183D2*
X5403383D1*
X8188877D2*
X8395947D1*
X1104163Y9291083D2*
X2399660D1*
X3147447D2*
X3369897D1*
X4663263D2*
X5004527D1*
X5364987D2*
X5403263D1*
X8165190D2*
X8395947D1*
X1104163Y9227917D2*
X2336533D1*
X3084320D2*
X3556303D1*
X4559580D2*
X5055870D1*
X5372923D2*
X5692607D1*
X8165190D2*
X8395947D1*
X1104163Y9164750D2*
X2273407D1*
X3021193D2*
X3384657D1*
X4559580D2*
X5055870D1*
X5372923D2*
X5692607D1*
X8165190D2*
X8395947D1*
X1104163Y9101583D2*
X2210153D1*
X2957940D2*
X3364190D1*
X4720313D2*
X5055870D1*
X5372923D2*
X5693227D1*
X8165190D2*
X8395947D1*
X1104163Y9038417D2*
X2147027D1*
X2894813D2*
X3379323D1*
X4783440D2*
X5055870D1*
X5372923D2*
X5726837D1*
X8166057D2*
X8395947D1*
X1104163Y8975250D2*
X2083897D1*
X2831683D2*
X3042350D1*
X4846693D2*
X5055870D1*
X5372923D2*
X5789967D1*
X8207730D2*
X8395947D1*
X1104163Y8912083D2*
X2020647D1*
X2768433D2*
X2979223D1*
X4967740D2*
X5055870D1*
X5372923D2*
X5853217D1*
X8214053D2*
X8395947D1*
X1104163Y8848917D2*
X1957517D1*
X2705303D2*
X2915970D1*
X3155757D2*
X3568087D1*
X5372923D2*
X5916843D1*
X8190737D2*
X8395947D1*
X1104163Y8785750D2*
X1894390D1*
X2642177D2*
X2852843D1*
X3092630D2*
X3783390D1*
X5372923D2*
X7274030D1*
X7328900D2*
X7528030D1*
X7582900D2*
X7782030D1*
X7836900D2*
X8036030D1*
X8090900D2*
X8395947D1*
X1104163Y8722583D2*
X1831137D1*
X2578923D2*
X2789713D1*
X3029503D2*
X3720263D1*
X5372923D2*
X8395947D1*
X1104163Y8659417D2*
X1768010D1*
X2515797D2*
X2726463D1*
X2966373D2*
X3243517D1*
X3412487D2*
X3657133D1*
X4456640D2*
X4557547D1*
X4710640D2*
X4811547D1*
X5372923D2*
X8395947D1*
X1104163Y8596250D2*
X1700170D1*
X2452670D2*
X2663337D1*
X2903123D2*
X3197380D1*
X4324803D2*
X4831760D1*
X5071547D2*
X5199613D1*
X5372923D2*
X8395947D1*
X1104163Y8533083D2*
X1640143D1*
X2436670D2*
X2600207D1*
X2839993D2*
X3192047D1*
X4324803D2*
X4768633D1*
X5008420D2*
X5199613D1*
X5372923D2*
X8395947D1*
X1104163Y8469917D2*
X1625383D1*
X2436670D2*
X2537080D1*
X2776867D2*
X3220820D1*
X3435183D2*
X3703520D1*
X4295907D2*
X4705503D1*
X4945293D2*
X5199613D1*
X5497693D2*
X8395947D1*
X1104163Y8406750D2*
X1639520D1*
X2436670D2*
X2473827D1*
X2713613D2*
X3221317D1*
X3394627D2*
X3723983D1*
X4277177D2*
X4642253D1*
X4882040D2*
X5199613D1*
X5549533D2*
X8395947D1*
X1104163Y8343583D2*
X1697690D1*
X2650487D2*
X3221317D1*
X3394627D2*
X3723983D1*
X4217770D2*
X4579127D1*
X4818913D2*
X5199613D1*
X5554497D2*
X8395947D1*
X1104163Y8280417D2*
X1640887D1*
X2587357D2*
X3221317D1*
X3394627D2*
X3723983D1*
X4057657D2*
X4515997D1*
X4755783D2*
X5199613D1*
X5521133D2*
X8395947D1*
X1104163Y8217250D2*
X1625383D1*
X2524107D2*
X3221317D1*
X3394627D2*
X3723983D1*
X3897293D2*
X4452747D1*
X4692533D2*
X5199613D1*
X5516173D2*
X8395947D1*
X1104163Y8154083D2*
X1638777D1*
X2466063D2*
X3176420D1*
X4009660D2*
X4389617D1*
X4629403D2*
X5199613D1*
X5516173D2*
X8395947D1*
X1104163Y8090917D2*
X1695333D1*
X2498557D2*
X3176420D1*
X4009660D2*
X4326490D1*
X4566277D2*
X5199613D1*
X5516173D2*
X8395947D1*
X1104163Y8027750D2*
X1817370D1*
X2498680D2*
X3176420D1*
X4009660D2*
X4263237D1*
X4503150D2*
X5199613D1*
X5516173D2*
X8395947D1*
X1104163Y7964583D2*
X1817370D1*
X2498680D2*
X3176420D1*
X4009660D2*
X4200110D1*
X4439897D2*
X5199613D1*
X5516173D2*
X8395947D1*
X1104163Y7901417D2*
X1817370D1*
X2498680D2*
X4136980D1*
X4376770D2*
X4626873D1*
X5075143D2*
X5199613D1*
X5516173D2*
X8395947D1*
X1104163Y7838250D2*
X1707983D1*
X2498680D2*
X4073853D1*
X4313640D2*
X4626873D1*
X5075143D2*
X5199613D1*
X5516173D2*
X8395947D1*
X1104163Y7775083D2*
X1642250D1*
X2498680D2*
X4034043D1*
X4250390D2*
X4626873D1*
X5075143D2*
X5199613D1*
X5516173D2*
X8395947D1*
X1104163Y7711917D2*
X1625383D1*
X2498680D2*
X4033297D1*
X4206607D2*
X4626873D1*
X5075143D2*
X5199613D1*
X5516173D2*
X8395947D1*
X1104163Y7648750D2*
X1637660D1*
X2498680D2*
X4033297D1*
X4206607D2*
X4626873D1*
X5075143D2*
X5199613D1*
X5516173D2*
X8395947D1*
X1104163Y7585583D2*
X1691117D1*
X2498680D2*
X4033297D1*
X4206607D2*
X4626873D1*
X5108133D2*
X5199613D1*
X5516173D2*
X8395947D1*
X1104163Y7522417D2*
X1642870D1*
X2498680D2*
X4033297D1*
X4206607D2*
X4605417D1*
X5161590D2*
X5199613D1*
X5516173D2*
X8395947D1*
X1104163Y7459250D2*
X1625507D1*
X2498680D2*
X3167117D1*
X4206607D2*
X4556677D1*
X5166923D2*
X5199613D1*
X5516173D2*
X8395947D1*
X1104163Y7396083D2*
X1637040D1*
X2498680D2*
X3103247D1*
X4206607D2*
X4546630D1*
X5166923D2*
X5199613D1*
X5516173D2*
X8395947D1*
X1104163Y7332917D2*
X1689130D1*
X2498680D2*
X3039993D1*
X4206607D2*
X4505580D1*
X5166923D2*
X5199613D1*
X5516173D2*
X8395947D1*
X1104163Y7269750D2*
X1817370D1*
X2498680D2*
X2977610D1*
X3216653D2*
X3268570D1*
X3333483D2*
X3395570D1*
X3460483D2*
X3522570D1*
X3587483D2*
X3649570D1*
X3714483D2*
X4033423D1*
X4206607D2*
X4484370D1*
X5166300D2*
X5199613D1*
X5516173D2*
X8395947D1*
X1104163Y7206583D2*
X1817370D1*
X2498680D2*
X2960370D1*
X3153527D2*
X3186810D1*
X3796213D2*
X4033423D1*
X4206607D2*
X4484370D1*
X5126987D2*
X5199613D1*
X5516173D2*
X8395947D1*
X1104163Y7143417D2*
X1817370D1*
X2498680D2*
X2960370D1*
X3133680D2*
X3173817D1*
X4254480D2*
X4484370D1*
X5103423D2*
X5199613D1*
X5516173D2*
X8395947D1*
X1104163Y7080250D2*
X1717037D1*
X2498680D2*
X2940403D1*
X5516173D2*
X8395947D1*
X1104163Y7017083D2*
X1644360D1*
X2498680D2*
X2940403D1*
X5516173D2*
X8395947D1*
X1104163Y6953917D2*
X1625630D1*
X5516173D2*
X8395947D1*
X1104163Y6890750D2*
X1602687D1*
X5516173D2*
X8395947D1*
X1104163Y6827583D2*
X1539433D1*
X5516173D2*
X8395947D1*
X1104163Y6764417D2*
X1498753D1*
X5516173D2*
X8395947D1*
X1104163Y6701250D2*
X1497887D1*
X5563797D2*
X8395947D1*
X1104163Y6638083D2*
X1497887D1*
X2632007D2*
X2897243D1*
X5627050D2*
X8395947D1*
X1104163Y6574917D2*
X1497887D1*
X1870503D2*
X1937550D1*
X2568753D2*
X2871447D1*
X5690177D2*
X8395947D1*
X1104163Y6511750D2*
X1497887D1*
X1671197D2*
X1941393D1*
X2505627D2*
X2881990D1*
X5753303D2*
X8395947D1*
X1104163Y6448583D2*
X1497887D1*
X1671197D2*
X1941393D1*
X2114580D2*
X2940403D1*
X5816557D2*
X8395947D1*
X1104163Y6385417D2*
X1497887D1*
X1671197D2*
X1941393D1*
X2114580D2*
X2208170D1*
X2327777D2*
X2940403D1*
X4042650D2*
X4129913D1*
X5879683D2*
X8395947D1*
X1104163Y6322250D2*
X1497887D1*
X1671197D2*
X1941393D1*
X2114580D2*
X2149383D1*
X2386563D2*
X2940403D1*
X4042650D2*
X4210403D1*
X5312650D2*
X5401400D1*
X5942813D2*
X8395947D1*
X1104163Y6259083D2*
X1497887D1*
X1671197D2*
X1941393D1*
X4042650D2*
X4210403D1*
X5312650D2*
X5464530D1*
X6006063D2*
X8395947D1*
X1104163Y6195917D2*
X1497887D1*
X1671197D2*
X1941393D1*
X2114580D2*
X2171457D1*
X3809360D2*
X4443567D1*
X5079360D2*
X5527780D1*
X6069193D2*
X8395947D1*
X1104163Y6132750D2*
X1497887D1*
X1671197D2*
X1941393D1*
X2114580D2*
X2296847D1*
X3789767D2*
X4463287D1*
X5059767D2*
X5590907D1*
X6132320D2*
X8395947D1*
X1104163Y6069583D2*
X1189563D1*
X1348983D2*
X1497887D1*
X1671197D2*
X1941393D1*
X2114580D2*
X2968433D1*
X3223103D2*
X5654037D1*
X6195447D2*
X8395947D1*
X1406903Y6006417D2*
X1497887D1*
X1671197D2*
X1941393D1*
X2114580D2*
X2983190D1*
X3208220D2*
X5717163D1*
X6258700D2*
X8395947D1*
X1420917Y5943250D2*
X1497887D1*
X1671197D2*
X1941393D1*
X2114580D2*
X3537327D1*
X6321827D2*
X8395947D1*
X1406037Y5880083D2*
X1457207D1*
X1670827D2*
X1942633D1*
X2161833D2*
X3474200D1*
X6384957D2*
X8395947D1*
X1104163Y5816917D2*
X1191920D1*
X1346627D2*
X1394080D1*
X1633867D2*
X1985173D1*
X2224963D2*
X3411073D1*
X6448207D2*
X8395947D1*
X1570737Y5753750D2*
X2048303D1*
X2288090D2*
X3347820D1*
X6511337D2*
X8395947D1*
X1507610Y5690583D2*
X2111553D1*
X2351343D2*
X3284693D1*
X4048230D2*
X4547500D1*
X4995770D2*
X5731427D1*
X6574463D2*
X8395947D1*
X1443737Y5627417D2*
X2174683D1*
X2414470D2*
X3221563D1*
X3984980D2*
X4448653D1*
X5299130D2*
X5794553D1*
X6637717D2*
X8395947D1*
X1104163Y5564250D2*
X1190433D1*
X1348117D2*
X2237810D1*
X2477597D2*
X3158313D1*
X3921850D2*
X4380563D1*
X5367220D2*
X5857683D1*
X6700843D2*
X8395947D1*
X1405540Y5501083D2*
X2301063D1*
X2540850D2*
X3095183D1*
X3858723D2*
X4317437D1*
X5430347D2*
X5920933D1*
X6763970D2*
X8395947D1*
X1420917Y5437917D2*
X2364190D1*
X2603977D2*
X2836720D1*
X2973320D2*
X3032057D1*
X3795470D2*
X4254307D1*
X5493477D2*
X5984063D1*
X6827223D2*
X8395947D1*
X1407277Y5374750D2*
X2427320D1*
X2667107D2*
X2784630D1*
X3984110D2*
X4194900D1*
X5676163D2*
X6047190D1*
X6890350D2*
X8395947D1*
X1104163Y5311583D2*
X1188077D1*
X1350473D2*
X2490570D1*
X2730357D2*
X2779670D1*
X4818293D2*
X4860163D1*
X5695387D2*
X5913740D1*
X7317613D2*
X8395947D1*
X1104163Y5248417D2*
X2367290D1*
X4802663D2*
X4863760D1*
X5768683D2*
X5889930D1*
X7380740D2*
X8395947D1*
X1104163Y5185250D2*
X2348067D1*
X2856613D2*
X2960370D1*
X4740777D2*
X4865370D1*
X5807503D2*
X5902207D1*
X6131823D2*
X6198870D1*
X7443867D2*
X8395947D1*
X1104163Y5122083D2*
X2364440D1*
X5820650D2*
X5924903D1*
X7027150D2*
X7092583D1*
X7507120D2*
X8395947D1*
X1104163Y5058917D2*
X2432403D1*
X4677650D2*
X4718403D1*
X5820650D2*
X5924903D1*
X7027150D2*
X7155837D1*
X7570247D2*
X8395947D1*
X1104163Y4995750D2*
X2432403D1*
X4677650D2*
X4718403D1*
X5820650D2*
X5924903D1*
X7027150D2*
X7218963D1*
X7651980D2*
X8395947D1*
X1104163Y4932583D2*
X2432403D1*
X4677650D2*
X4718403D1*
X5820650D2*
X5924903D1*
X7027150D2*
X7239923D1*
X7651980D2*
X8395947D1*
X1104163Y4869417D2*
X2432403D1*
X4677650D2*
X4718403D1*
X5820650D2*
X5924903D1*
X7027150D2*
X7239923D1*
X7651980D2*
X8395947D1*
X1104163Y4806250D2*
X3214867D1*
X3665370D2*
X5628737D1*
X5823503D2*
X5949707D1*
X6178953D2*
X6646100D1*
X6875343D2*
X7239923D1*
X7651980D2*
X8395947D1*
X1104163Y4743083D2*
X2287047D1*
X2411990D2*
X3215117D1*
X3679013D2*
X5647340D1*
X5884273D2*
X6002293D1*
X6242080D2*
X6582973D1*
X6822760D2*
X7239923D1*
X7651980D2*
X8395947D1*
X1104163Y4679917D2*
X2230370D1*
X3727133D2*
X5710093D1*
X5897297D2*
X6065423D1*
X6759507D2*
X7239923D1*
X7651980D2*
X8395947D1*
X1104163Y4616750D2*
X2223547D1*
X3768557D2*
X5723987D1*
X5897297D2*
X6128550D1*
X6696380D2*
X7243273D1*
X7611920D2*
X8395947D1*
X1104163Y4553583D2*
X2254183D1*
X3534650D2*
X3575403D1*
X4677650D2*
X4718403D1*
X7027150D2*
X7180020D1*
X7578930D2*
X8395947D1*
X1104163Y4490417D2*
X2432403D1*
X3534650D2*
X3575403D1*
X4677650D2*
X4718403D1*
X7027150D2*
X7116893D1*
X7515800D2*
X8395947D1*
X1104163Y4427250D2*
X2432403D1*
X3534650D2*
X3575403D1*
X4677650D2*
X4718403D1*
X7452550D2*
X8395947D1*
X1104163Y4364083D2*
X2432403D1*
X3534650D2*
X3575403D1*
X4677650D2*
X4718403D1*
X7389423D2*
X8395947D1*
X1104163Y4300917D2*
X2432403D1*
X3534650D2*
X3575403D1*
X4677650D2*
X4718403D1*
X7326293D2*
X8395947D1*
X1104163Y4237750D2*
X2475317D1*
X3477103D2*
X3596240D1*
X4572477D2*
X4738370D1*
X5897297D2*
X5967817D1*
X7263043D2*
X8395947D1*
X1104163Y4174583D2*
X2538567D1*
X3514310D2*
X3596240D1*
X4595423D2*
X4738370D1*
X5897297D2*
X6031067D1*
X7199913D2*
X8395947D1*
X1104163Y4111417D2*
X2432403D1*
X3534650D2*
X3596240D1*
X4595423D2*
X4738370D1*
X7136787D2*
X8395947D1*
X1104163Y4048250D2*
X2432403D1*
X3534650D2*
X3596240D1*
X4595423D2*
X4738370D1*
X5866910D2*
X5924903D1*
X7073533D2*
X8395947D1*
X1104163Y3985083D2*
X2432403D1*
X3534650D2*
X3596240D1*
X4595423D2*
X4738370D1*
X5803783D2*
X5924903D1*
X7027150D2*
X8395947D1*
X1104163Y3921917D2*
X2432403D1*
X3534650D2*
X3596240D1*
X4580167D2*
X4738370D1*
X4911680D2*
X5025360D1*
X5740653D2*
X5924903D1*
X7027150D2*
X8395947D1*
X1104163Y3858750D2*
X2432403D1*
X3534650D2*
X3596240D1*
X4518403D2*
X4738370D1*
X4911680D2*
X5032060D1*
X5677403D2*
X5924903D1*
X7027150D2*
X8395947D1*
X1104163Y3795583D2*
X2432403D1*
X3534650D2*
X3596240D1*
X4455277D2*
X4738370D1*
X4911680D2*
X5087373D1*
X5614273D2*
X5924903D1*
X7027150D2*
X8395947D1*
X1104163Y3732417D2*
X3596240D1*
X4392147D2*
X4738370D1*
X4911680D2*
X5150500D1*
X5599143D2*
X6157200D1*
X6356803D2*
X6698313D1*
X6890477D2*
X8395947D1*
X1104163Y3669250D2*
X3596240D1*
X3769550D2*
X3833000D1*
X4281270D2*
X4738370D1*
X4911680D2*
X5150750D1*
X5599143D2*
X5985303D1*
X6383593D2*
X6668300D1*
X6920490D2*
X8395947D1*
X1104163Y3606083D2*
X3596240D1*
X3769550D2*
X3833000D1*
X4281270D2*
X4724480D1*
X4911680D2*
X5150750D1*
X5599143D2*
X5945617D1*
X6373917D2*
X6675617D1*
X6913173D2*
X8395947D1*
X1104163Y3542917D2*
X2432403D1*
X3534650D2*
X3596240D1*
X3769550D2*
X3833000D1*
X4281270D2*
X4661230D1*
X4898660D2*
X5150750D1*
X5599143D2*
X5924903D1*
X7027150D2*
X8395947D1*
X1104163Y3479750D2*
X2432403D1*
X3534650D2*
X3596240D1*
X3769550D2*
X4598100D1*
X4837887D2*
X5150750D1*
X5599143D2*
X5924903D1*
X7139887D2*
X8395947D1*
X1104163Y3416583D2*
X2247113D1*
X3534650D2*
X3596240D1*
X3769550D2*
X4534973D1*
X4774760D2*
X5924903D1*
X7159853D2*
X8395947D1*
X1104163Y3353417D2*
X2221687D1*
X3557220D2*
X3597173D1*
X3814693D2*
X4471720D1*
X4711507D2*
X5924903D1*
X7144227D2*
X8395947D1*
X1104163Y3290250D2*
X2232477D1*
X4648380D2*
X5924903D1*
X7027150D2*
X8395947D1*
X1104163Y3227083D2*
X2302550D1*
X2394503D2*
X2564363D1*
X4585253D2*
X6056863D1*
X6768190D2*
X8395947D1*
X1104163Y3163917D2*
X2564363D1*
X3746730D2*
X6056863D1*
X6768190D2*
X8395947D1*
X1104163Y3100750D2*
X2564363D1*
X3809857D2*
X6055623D1*
X6768190D2*
X8395947D1*
X1104163Y3037583D2*
X2564363D1*
X3872987D2*
X5992373D1*
X6768190D2*
X8395947D1*
X1104163Y2974417D2*
X2564363D1*
X3936237D2*
X5929243D1*
X6768190D2*
X8395947D1*
X1104163Y2911250D2*
X2564363D1*
X3999367D2*
X5866117D1*
X6768190D2*
X8395947D1*
X1104163Y2848083D2*
X2564363D1*
X4062493D2*
X5802863D1*
X6768190D2*
X8395947D1*
X1104163Y2784917D2*
X2564363D1*
X4125747D2*
X5739737D1*
X6768190D2*
X8395947D1*
X1104163Y2721750D2*
X2564363D1*
X4188873D2*
X5676610D1*
X6768190D2*
X8395947D1*
X1104163Y2658583D2*
X2564363D1*
X4252000D2*
X5613480D1*
X6768190D2*
X8395947D1*
X1104163Y2595417D2*
X2567713D1*
X4315253D2*
X5550230D1*
X6756407D2*
X8395947D1*
X1104163Y2532250D2*
X2613107D1*
X4378380D2*
X5487100D1*
X6698610D2*
X8395947D1*
X1104163Y2469083D2*
X2676233D1*
X4441510D2*
X5423973D1*
X6635483D2*
X8395947D1*
X1104163Y2405917D2*
X2739487D1*
X4504637D2*
X5360720D1*
X6572357D2*
X8395947D1*
X1104163Y2342750D2*
X2802613D1*
X4567890D2*
X5297593D1*
X6509103D2*
X8395947D1*
X1104163Y2279583D2*
X2865740D1*
X4631017D2*
X5234463D1*
X6445977D2*
X8395947D1*
X1104163Y2216417D2*
X2928993D1*
X4694143D2*
X5171213D1*
X6382847D2*
X8395947D1*
X1104163Y2153250D2*
X2992120D1*
X4757397D2*
X5108087D1*
X6353950D2*
X8395947D1*
X1104163Y2090083D2*
X3055250D1*
X4820523D2*
X5052647D1*
X6353950D2*
X8395947D1*
X1104163Y2026917D2*
X3105230D1*
X4883653D2*
X5043220D1*
X6353950D2*
X8395947D1*
X1104163Y1963750D2*
X2264227D1*
X2493350D2*
X2904190D1*
X4946533D2*
X4984993D1*
X6414717D2*
X6968313D1*
X7197433D2*
X8395947D1*
X1104163Y1900583D2*
X2158683D1*
X2598893D2*
X2904190D1*
X6525970D2*
X6862770D1*
X7302977D2*
X8395947D1*
X1104163Y1837417D2*
X1314333D1*
X1685583D2*
X2104733D1*
X2652843D2*
X2904190D1*
X6554373D2*
X6808820D1*
X7357050D2*
X7814400D1*
X8185653D2*
X8395947D1*
X1104163Y1774250D2*
X1227640D1*
X1772400D2*
X2072983D1*
X2684717D2*
X2904190D1*
X6554497D2*
X6777070D1*
X7388800D2*
X7727583D1*
X8272343D2*
X8395947D1*
X1104163Y1711083D2*
X1175177D1*
X1824863D2*
X2056613D1*
X2700963D2*
X2904190D1*
X6526590D2*
X6760697D1*
X7405050D2*
X7675123D1*
X8324807D2*
X8395947D1*
X1104163Y1647917D2*
X1141393D1*
X1858597D2*
X2053387D1*
X2704190D2*
X2904190D1*
X6421510D2*
X6757473D1*
X7408273D2*
X7641387D1*
X8358663D2*
X8395947D1*
X1878937Y1584750D2*
X2062813D1*
X2694763D2*
X3054630D1*
X6404550D2*
X6766900D1*
X7398847D2*
X7621047D1*
X1887867Y1521583D2*
X2086130D1*
X2671447D2*
X3041360D1*
X6417823D2*
X6790213D1*
X7375530D2*
X7612117D1*
X1886130Y1458417D2*
X2127307D1*
X2630270D2*
X3054133D1*
X6405047D2*
X6831390D1*
X7334357D2*
X7613853D1*
X1873850Y1395250D2*
X2198497D1*
X2559080D2*
X3102873D1*
X3310910D2*
X3379693D1*
X3587730D2*
X3656513D1*
X3864677D2*
X3933337D1*
X4141497D2*
X4210280D1*
X4418317D2*
X4487100D1*
X4695137D2*
X4764043D1*
X4972080D2*
X5040863D1*
X5248900D2*
X5317683D1*
X5525720D2*
X5594503D1*
X5802667D2*
X5871450D1*
X6079487D2*
X6148270D1*
X6356307D2*
X6902703D1*
X7263167D2*
X7626257D1*
X1104163Y1332083D2*
X1150563D1*
X1849543D2*
X7650440D1*
X8349610D2*
X8395947D1*
X1104163Y1268917D2*
X1189317D1*
X1810600D2*
X7689383D1*
X8310667D2*
X8395947D1*
X1104163Y1205750D2*
X1249963D1*
X1750077D2*
X7749907D1*
X8250020D2*
X8395947D1*
X1104163Y1142583D2*
X1358610D1*
X1641430D2*
X7858553D1*
X8141377D2*
X8395947D1*
X3744550Y8821960D2*
X3574460D1*
Y8862020D1*
X3162603Y8861960D1*
X2458947Y8158400D1*
X2476957Y8135383D1*
X2486180Y8118917D1*
X2491300Y8100750D1*
X2492290Y8088190D1*
Y7010053D1*
X2946667Y7010153D1*
X2946697Y7100153D1*
X2966663D1*
X2966943Y7226287D1*
X2970627Y7244797D1*
X2978527Y7261937D1*
X2990213Y7276760D1*
X3171357Y7457553D1*
X3187050Y7468040D1*
X3204757Y7474573D1*
X3223500Y7476790D1*
X4039697D1*
X4039957Y7770857D1*
X4043640Y7789367D1*
X4051540Y7806507D1*
X4063227Y7821330D1*
X4883290Y8641393D1*
X4865367Y8643153D1*
X4843200Y8648473D1*
X4822137Y8657200D1*
X4802697Y8669110D1*
X4785360Y8683917D1*
X4770553Y8701253D1*
X4761147Y8716223D1*
X4751640Y8701253D1*
X4736833Y8683917D1*
X4719497Y8669110D1*
X4700057Y8657200D1*
X4678993Y8648473D1*
X4656827Y8643153D1*
X4634097Y8641363D1*
X4611367Y8643153D1*
X4589200Y8648473D1*
X4568137Y8657200D1*
X4548697Y8669110D1*
X4531360Y8683917D1*
X4516553Y8701253D1*
X4507147Y8716223D1*
X4495267Y8698080D1*
X4482697Y8683783D1*
X4468367Y8671253D1*
X4452523Y8660703D1*
X4435433Y8652313D1*
X4417397Y8646233D1*
X4398717Y8642560D1*
X4379717Y8641363D1*
X4360727Y8642660D1*
X4342067Y8646430D1*
X4324060Y8652603D1*
X4318507Y8655070D1*
X4318250Y8525767D1*
X4314567Y8507257D1*
X4306667Y8490117D1*
X4294980Y8475293D1*
X4279633Y8459947D1*
X4279540Y8443183D1*
X4276567Y8424417D1*
X4270697Y8406343D1*
X4262070Y8389413D1*
X4250900Y8374043D1*
X4237463Y8360607D1*
X4222093Y8349437D1*
X4205163Y8340810D1*
X4187090Y8334940D1*
X4168323Y8331967D1*
X4149323D1*
X4130557Y8334940D1*
X4111977Y8341043D1*
X4035767Y8265197D1*
X4020073Y8254710D1*
X4002367Y8248177D1*
X3983623Y8245960D1*
X3890977D1*
X3890890Y8187263D1*
X4003290Y8187290D1*
Y7946710D1*
X3182710D1*
Y8187290D1*
X3227730D1*
X3227710Y8469457D1*
X3216090Y8485423D1*
X3206740Y8503773D1*
X3200377Y8523360D1*
X3197153Y8543703D1*
Y8564297D1*
X3200377Y8584640D1*
X3206740Y8604227D1*
X3216090Y8622577D1*
X3228197Y8639240D1*
X3242760Y8653803D1*
X3259423Y8665910D1*
X3277773Y8675260D1*
X3297360Y8681623D1*
X3317703Y8684847D1*
X3338297D1*
X3358640Y8681623D1*
X3378227Y8675260D1*
X3396577Y8665910D1*
X3413240Y8653803D1*
X3427803Y8639240D1*
X3431717Y8634277D1*
X3638183Y8634290D1*
X3826050Y8822037D1*
X3744460Y8821983D1*
X3589060Y8187290D2*
X3730323D1*
X3730310Y8450287D1*
X3717793Y8461193D1*
X3702380Y8479900D1*
X3690303Y8475927D1*
X3671560Y8473710D1*
X3431823D1*
X3420807Y8461193D1*
X3405147Y8447817D1*
X3388323Y8437470D1*
X3388290Y8187353D1*
X3589060Y8187290D1*
X2580293Y10539163D2*
X2771290D1*
Y10237077D1*
X3017433Y9990987D1*
X3258500Y9991390D1*
X3240333Y9996510D1*
X3223867Y10005733D1*
X3214287Y10013917D1*
X2985947Y10242607D1*
X2975460Y10258300D1*
X2968927Y10276007D1*
X2966710Y10294750D1*
Y11937193D1*
X2795447Y12108857D1*
X2784950Y12124570D1*
X2763823Y12111777D1*
X2540807Y11888760D1*
X2540790Y10854283D1*
X2613290Y10854290D1*
Y10573710D1*
X2580177D1*
X2580290Y10539250D1*
X1769060Y10854290D2*
X2173290D1*
Y10573710D1*
X1762710D1*
Y10854290D1*
X1769060D1*
X3344337Y9415400D2*
X3267710D1*
Y9417757D1*
X2430207Y8580160D1*
X2430290Y8356883D1*
X3077107Y9003303D1*
X3092800Y9013790D1*
X3110507Y9020323D1*
X3129250Y9022540D1*
X3396273D1*
X3388253Y9033920D1*
X3379627Y9050850D1*
X3373757Y9068923D1*
X3370783Y9087690D1*
Y9106690D1*
X3373757Y9125457D1*
X3379627Y9143530D1*
X3388253Y9160460D1*
X3399423Y9175830D1*
X3412860Y9189267D1*
X3428230Y9200437D1*
X3445160Y9209063D1*
X3463233Y9214933D1*
X3482000Y9217907D1*
X3501000D1*
X3519767Y9214933D1*
X3537840Y9209063D1*
X3554770Y9200437D1*
X3562703Y9195130D1*
X3562710Y9314993D1*
X3551827Y9300110D1*
X3538390Y9286673D1*
X3523020Y9275503D1*
X3506090Y9266877D1*
X3488017Y9261007D1*
X3469250Y9258033D1*
X3450250D1*
X3431483Y9261007D1*
X3413410Y9266877D1*
X3396480Y9275503D1*
X3381110Y9286673D1*
X3367673Y9300110D1*
X3356503Y9315480D1*
X3347877Y9332410D1*
X3342007Y9350483D1*
X3339033Y9369250D1*
Y9388250D1*
X3342007Y9407017D1*
X3344373Y9415417D1*
X4553290Y9236463D2*
Y9134270D1*
X4654300Y9134043D1*
X4672810Y9130360D1*
X4689950Y9122460D1*
X4704790Y9110757D1*
X4883590Y8931957D1*
X4910827Y8930153D1*
X4932993Y8924833D1*
X4954057Y8916107D1*
X4973497Y8904197D1*
X4990833Y8889390D1*
X5005640Y8872053D1*
X5015047Y8857083D1*
X5024553Y8872053D1*
X5039360Y8889390D1*
X5056697Y8904197D1*
X5062217Y8907883D1*
X5062210Y9239867D1*
X4848290Y9453580D1*
Y9415400D1*
X4662180D1*
X4670903Y9395073D1*
X4675340Y9376597D1*
X4676830Y9357653D1*
X4675340Y9338710D1*
X4670903Y9320233D1*
X4663633Y9302680D1*
X4653703Y9286480D1*
X4641363Y9272030D1*
X4626913Y9259690D1*
X4610713Y9249760D1*
X4593160Y9242490D1*
X4574683Y9238053D1*
X4553253Y9236660D1*
X4527710Y10347733D2*
Y10380477D1*
X4500333Y10380400D1*
X4426617Y10305797D1*
X4430527Y10286133D1*
X4430790Y10250790D1*
X4527727Y10347713D1*
X2946710Y5147140D2*
X2966677Y5147230D1*
X2966710Y5229577D1*
X2951327Y5222000D1*
X2933253Y5216130D1*
X2914487Y5213157D1*
X2895487D1*
X2876720Y5216130D1*
X2858647Y5222000D1*
X2841717Y5230627D1*
X2826347Y5241797D1*
X2812910Y5255233D1*
X2801740Y5270603D1*
X2793113Y5287533D1*
X2787243Y5305607D1*
X2784270Y5324373D1*
Y5343373D1*
X2787243Y5362140D1*
X2793113Y5380213D1*
X2801740Y5397143D1*
X2812910Y5412513D1*
X2826347Y5425950D1*
X2841717Y5437120D1*
X2858647Y5445747D1*
X2876720Y5451617D1*
X2895487Y5454590D1*
X2914487D1*
X2933253Y5451617D1*
X2951327Y5445747D1*
X2968257Y5437120D1*
X2983627Y5425950D1*
X2996333Y5413307D1*
X3013637Y5413290D1*
X3583623Y5982820D1*
X3599317Y5993307D1*
X3617023Y5999837D1*
X3635767Y6002057D1*
X5727917D1*
X5357313Y6372673D1*
X5316440Y6373697D1*
X5306290Y6375640D1*
Y6219210D1*
X5071513D1*
X5073090Y6199000D1*
X5071600Y6180057D1*
X5067163Y6161580D1*
X5059893Y6144027D1*
X5049963Y6127827D1*
X5037623Y6113377D1*
X5023173Y6101037D1*
X5006973Y6091107D1*
X4989420Y6083837D1*
X4970943Y6079400D1*
X4952000Y6077910D1*
X4933057Y6079400D1*
X4914580Y6083837D1*
X4897027Y6091107D1*
X4888270Y6095753D1*
X4871340Y6087127D1*
X4853267Y6081257D1*
X4834500Y6078283D1*
X4815500D1*
X4796733Y6081257D1*
X4778660Y6087127D1*
X4761270Y6095753D1*
X4744340Y6087127D1*
X4726267Y6081257D1*
X4707500Y6078283D1*
X4688500D1*
X4669733Y6081257D1*
X4651660Y6087127D1*
X4634270Y6095753D1*
X4617340Y6087127D1*
X4599267Y6081257D1*
X4580500Y6078283D1*
X4561500D1*
X4542733Y6081257D1*
X4524660Y6087127D1*
X4507730Y6095753D1*
X4492360Y6106923D1*
X4478923Y6120360D1*
X4467753Y6135730D1*
X4459127Y6152660D1*
X4453257Y6170733D1*
X4450283Y6189500D1*
Y6208500D1*
X4451653Y6219217D1*
X4216710Y6219210D1*
Y6374860D1*
X4200710Y6372610D1*
X4181710D1*
X4162943Y6375583D1*
X4144870Y6381453D1*
X4127940Y6390080D1*
X4112570Y6401250D1*
X4099133Y6414687D1*
X4087963Y6430057D1*
X4079337Y6446987D1*
X4073467Y6465060D1*
X4070493Y6483827D1*
Y6502827D1*
X4071893Y6513690D1*
X4036333Y6513710D1*
X4036277Y6219573D1*
X3801253D1*
X3803090Y6199000D1*
X3801600Y6180057D1*
X3797163Y6161580D1*
X3789893Y6144027D1*
X3779963Y6127827D1*
X3767623Y6113377D1*
X3753173Y6101037D1*
X3736973Y6091107D1*
X3719420Y6083837D1*
X3700943Y6079400D1*
X3682000Y6077910D1*
X3663057Y6079400D1*
X3644580Y6083837D1*
X3627027Y6091107D1*
X3618270Y6095753D1*
X3601340Y6087127D1*
X3583267Y6081257D1*
X3564500Y6078283D1*
X3545500D1*
X3526733Y6081257D1*
X3508660Y6087127D1*
X3491270Y6095753D1*
X3474340Y6087127D1*
X3456267Y6081257D1*
X3437500Y6078283D1*
X3418500D1*
X3399733Y6081257D1*
X3381660Y6087127D1*
X3364270Y6095753D1*
X3347340Y6087127D1*
X3329267Y6081257D1*
X3310500Y6078283D1*
X3291500D1*
X3272733Y6081257D1*
X3254660Y6087127D1*
X3237730Y6095753D1*
X3222360Y6106923D1*
X3208923Y6120360D1*
X3199053Y6133787D1*
X3198967Y6127927D1*
X3207593Y6110997D1*
X3213463Y6092923D1*
X3216437Y6074157D1*
Y6055157D1*
X3213463Y6036390D1*
X3207593Y6018317D1*
X3198967Y6001387D1*
X3187797Y5986017D1*
X3174360Y5972580D1*
X3158990Y5961410D1*
X3142060Y5952783D1*
X3123987Y5946913D1*
X3105220Y5943940D1*
X3086220D1*
X3067453Y5946913D1*
X3049380Y5952783D1*
X3032450Y5961410D1*
X3017080Y5972580D1*
X3003643Y5986017D1*
X2992473Y6001387D1*
X2983847Y6018317D1*
X2977977Y6036390D1*
X2975003Y6055157D1*
Y6074157D1*
X2977977Y6092923D1*
X2983847Y6110997D1*
X2987407Y6118720D1*
X2342267Y6118957D1*
X2323757Y6122640D1*
X2306617Y6130540D1*
X2291793Y6142227D1*
X2277500Y6156033D1*
X2258500D1*
X2239733Y6159007D1*
X2221660Y6164877D1*
X2204730Y6173503D1*
X2189360Y6184673D1*
X2175923Y6198110D1*
X2164753Y6213480D1*
X2156127Y6230410D1*
X2150257Y6248483D1*
X2147283Y6267250D1*
Y6286250D1*
X2150257Y6305017D1*
X2156127Y6323090D1*
X2164753Y6340020D1*
X2175923Y6355390D1*
X2189360Y6368827D1*
X2204730Y6379997D1*
X2221660Y6388623D1*
X2239733Y6394493D1*
X2258500Y6397467D1*
X2277500D1*
X2296267Y6394493D1*
X2314340Y6388623D1*
X2331270Y6379997D1*
X2346640Y6368827D1*
X2360077Y6355390D1*
X2371247Y6340020D1*
X2379873Y6323090D1*
X2385743Y6305017D1*
X2388717Y6286250D1*
X2388990Y6279310D1*
X2946733Y6279290D1*
X2946697Y6452860D1*
X2927080Y6464537D1*
X2912630Y6476877D1*
X2900290Y6491327D1*
X2890360Y6507527D1*
X2883090Y6525080D1*
X2878653Y6543557D1*
X2877163Y6562500D1*
X2878653Y6581443D1*
X2883090Y6599920D1*
X2890360Y6617473D1*
X2900290Y6633673D1*
X2912630Y6648123D1*
X2927080Y6660463D1*
X2943280Y6670393D1*
X2950463Y6673703D1*
X2661330Y6673710D1*
X2488643Y6501447D1*
X2472950Y6490960D1*
X2455243Y6484427D1*
X2436500Y6482210D1*
X2193200Y6482457D1*
X2174690Y6486140D1*
X2157550Y6494040D1*
X2142727Y6505727D1*
X2111210Y6537243D1*
X2108290Y6529440D1*
Y5927307D1*
X2854053Y5181140D1*
X2864540Y5165447D1*
X2871077Y5147717D1*
X2908610Y5147230D1*
X2946687D1*
X3127300Y7100153D2*
X3191347D1*
X3185837Y7114080D1*
X3181400Y7132557D1*
X3179910Y7151500D1*
X3181400Y7170443D1*
X3185837Y7188920D1*
X3193107Y7206473D1*
X3203037Y7222673D1*
X3215377Y7237123D1*
X3229827Y7249463D1*
X3246027Y7259393D1*
X3263580Y7266663D1*
X3282057Y7271100D1*
X3301000Y7272590D1*
X3319943Y7271100D1*
X3338420Y7266663D1*
X3355973Y7259393D1*
X3364730Y7254747D1*
X3381660Y7263373D1*
X3399733Y7269243D1*
X3418500Y7272217D1*
X3437500D1*
X3456267Y7269243D1*
X3474340Y7263373D1*
X3491730Y7254747D1*
X3508660Y7263373D1*
X3526733Y7269243D1*
X3545500Y7272217D1*
X3564500D1*
X3583267Y7269243D1*
X3601340Y7263373D1*
X3618730Y7254747D1*
X3635660Y7263373D1*
X3653733Y7269243D1*
X3672500Y7272217D1*
X3691500D1*
X3710267Y7269243D1*
X3728340Y7263373D1*
X3745270Y7254747D1*
X3760640Y7243577D1*
X3774077Y7230140D1*
X3785247Y7214770D1*
X3793873Y7197840D1*
X3800507Y7175943D1*
X3815217Y7187503D1*
X3832357Y7195403D1*
X3850867Y7199087D1*
X3990480D1*
X4008990Y7195403D1*
X4026130Y7187503D1*
X4036343Y7180080D1*
X4039710Y7189750D1*
Y7316130D1*
X3256673Y7316210D1*
X3127240Y7186693D1*
X3127277Y7100057D1*
X5137460Y7099790D2*
X5206047D1*
X5205960Y8656147D1*
X5186993Y8648473D1*
X5164827Y8643153D1*
X5142097Y8641363D1*
X5119367Y8643153D1*
X5113380Y8644343D1*
X4200257Y7731263D1*
X4200290Y7191240D1*
X4291747Y7099803D1*
X4490680Y7099790D1*
X4490957Y7284800D1*
X4494640Y7303310D1*
X4502540Y7320450D1*
X4514227Y7335273D1*
X4555533Y7376580D1*
X4553157Y7394100D1*
Y7416900D1*
X4556723Y7439417D1*
X4563770Y7461100D1*
X4574120Y7481413D1*
X4587520Y7499857D1*
X4603643Y7515980D1*
X4622087Y7529380D1*
X4642400Y7539730D1*
X4650720Y7542800D1*
X4638307Y7550410D1*
X4633227D1*
Y7945990D1*
X5068807D1*
Y7618683D1*
X5141357Y7545700D1*
X5151843Y7530007D1*
X5158377Y7512300D1*
X5160593Y7493557D1*
X5160347Y7273503D1*
X5156663Y7254993D1*
X5148763Y7237853D1*
X5137077Y7223030D1*
X5094367Y7180320D1*
X5096843Y7162900D1*
Y7140100D1*
X5093277Y7117583D1*
X5087663Y7099787D1*
X5137460Y7099790D1*
X3782243Y4607527D2*
X4417277D1*
X4671277D1*
Y4266947D1*
X4563353D1*
X4565090Y4246373D1*
X4565517Y4238403D1*
X4577203Y4223580D1*
X4585103Y4206440D1*
X4588787Y4187930D1*
X4589033Y3968937D1*
X4586817Y3950193D1*
X4580283Y3932487D1*
X4569797Y3916793D1*
X4360353Y3707000D1*
X4345530Y3695313D1*
X4328390Y3687413D1*
X4309880Y3683730D1*
X4274930Y3683483D1*
X4274973Y3485983D1*
X3839393D1*
Y3686230D1*
X3823777Y3692233D1*
X3813013Y3698833D1*
X3784557Y3700900D1*
X3763190Y3706403D1*
X3763170Y3398747D1*
X3811303Y3350490D1*
X4475010Y3350413D1*
X4744773Y3620070D1*
X4744710Y4266523D1*
X4724710Y4266587D1*
Y4607167D1*
X5306290D1*
X5687290Y4607043D1*
X5730317Y4607167D1*
X5730340Y4666087D1*
X5654317Y4742380D1*
X5643830Y4758073D1*
X5637297Y4775780D1*
X5635080Y4794523D1*
Y4806553D1*
X4724710Y4806587D1*
Y5147167D1*
X4871677D1*
X4871710Y5244137D1*
X4867300Y5258433D1*
X4864327Y5277200D1*
Y5296200D1*
X4868097Y5317793D1*
X4855163Y5319767D1*
X4837457Y5326297D1*
X4821763Y5336783D1*
X4817117Y5341080D1*
X4811923Y5334353D1*
X4811677Y5289707D1*
X4807993Y5271197D1*
X4800093Y5254057D1*
X4788407Y5239233D1*
X4691853Y5142677D1*
X4691717Y5125873D1*
X4688743Y5107107D1*
X4682873Y5089033D1*
X4674247Y5072103D1*
X4671297Y5067687D1*
X4671277Y4806947D1*
X3658627D1*
X3666913Y4787400D1*
X3671350Y4768923D1*
X3672840Y4749980D1*
X3671350Y4731037D1*
X3667447Y4714457D1*
X3682130Y4709937D1*
X3698597Y4700713D1*
X3708177Y4692530D1*
X3743933Y4656423D1*
X3754420Y4640730D1*
X3760953Y4623023D1*
X3762923Y4610580D1*
X6680437Y4607230D2*
X7020790D1*
Y4387980D1*
X7254407Y4621577D1*
X7246253Y4621603D1*
Y4974787D1*
X7094470Y5126607D1*
X7020720Y5126583D1*
X7020790Y4806650D1*
X6869110D1*
X6861960Y4791800D1*
X6850273Y4776977D1*
X6680580Y4607280D1*
X6639790Y4806740D2*
X6172097Y4806650D1*
X6255337Y4723460D1*
X6569637Y4723540D1*
X6652780Y4806577D1*
X2565743Y3234710D2*
X2438710D1*
Y3260630D1*
X2427140Y3249423D1*
X2411770Y3238253D1*
X2394840Y3229627D1*
X2376767Y3223757D1*
X2358000Y3220783D1*
X2339000D1*
X2320233Y3223757D1*
X2302160Y3229627D1*
X2285230Y3238253D1*
X2269860Y3249423D1*
X2256423Y3262860D1*
X2245253Y3278230D1*
X2236627Y3295160D1*
X2230757Y3313233D1*
X2227783Y3332000D1*
Y3351000D1*
X2230757Y3369767D1*
X2236627Y3387840D1*
X2245253Y3404770D1*
X2256423Y3420140D1*
X2269860Y3433577D1*
X2285230Y3444747D1*
X2302160Y3453373D1*
X2320233Y3459243D1*
X2339000Y3462217D1*
X2358000D1*
X2376767Y3459243D1*
X2394840Y3453373D1*
X2411770Y3444747D1*
X2427140Y3433577D1*
X2438687Y3422187D1*
X2438710Y3575290D1*
X3020290D1*
X3401290Y3575167D1*
X3528290Y3575290D1*
Y3375983D1*
X4940483Y1963363D1*
X4945130Y1957463D1*
X4958530Y1956807D1*
X4982820Y1962637D1*
X5007723Y1964597D1*
X5032627Y1962637D1*
X5049633Y1958860D1*
X5049893Y2056417D1*
X5052233Y2071187D1*
X5056853Y2085407D1*
X5063643Y2098730D1*
X5072430Y2110827D1*
X5302017Y2340827D1*
X6063147Y3101957D1*
X6063210Y3234570D1*
X5931210Y3234460D1*
Y3575040D1*
X5951177D1*
X5952197Y3608060D1*
X5957320Y3626227D1*
X5966543Y3642693D1*
X5974727Y3652273D1*
X6035260Y3712457D1*
X6050953Y3722943D1*
X6068660Y3729477D1*
X6087403Y3731693D1*
X6162933D1*
X6178360Y3747443D1*
X6193730Y3758613D1*
X6210660Y3767240D1*
X6228733Y3773110D1*
X6235543Y3774467D1*
X5931210Y3774460D1*
Y4115040D1*
X6078177D1*
X6056827Y4155127D1*
X5970447Y4241857D1*
X5959960Y4257550D1*
X5956050Y4266650D1*
X5931210D1*
Y4607230D1*
X6131790Y4607107D1*
X6142777Y4608927D1*
X5970447Y4781607D1*
X5959960Y4797300D1*
X5957313Y4803047D1*
X5941290Y4806650D1*
X5931210D1*
Y5147230D1*
X5938030D1*
X5924950Y5160430D1*
X5913780Y5175800D1*
X5905153Y5192730D1*
X5899283Y5210803D1*
X5896310Y5229570D1*
Y5248570D1*
X5899283Y5267337D1*
X5905153Y5285410D1*
X5913780Y5302340D1*
X5924950Y5317710D1*
X5938387Y5331147D1*
X5953757Y5342317D1*
X5970687Y5350943D1*
X5988760Y5356813D1*
X6007527Y5359787D1*
X6026527D1*
X6045293Y5356813D1*
X6063367Y5350943D1*
X6080297Y5342317D1*
X6095667Y5331147D1*
X6109103Y5317710D1*
X6120273Y5302340D1*
X6128900Y5285410D1*
X6134770Y5267337D1*
X6137743Y5248570D1*
Y5229570D1*
X6134770Y5210803D1*
X6128900Y5192730D1*
X6120273Y5175800D1*
X6111793Y5163840D1*
X6111790Y5147257D1*
X6205177Y5147230D1*
X6205210Y5223127D1*
X5674563Y5753767D1*
X4989410Y5753710D1*
X4989423Y5636873D1*
X5261247Y5636647D1*
X5279757Y5632963D1*
X5296897Y5625063D1*
X5311720Y5613377D1*
X5506537Y5418210D1*
X5513027Y5417153D1*
X5530580Y5424423D1*
X5549057Y5428860D1*
X5568000Y5430350D1*
X5586943Y5428860D1*
X5605420Y5424423D1*
X5622973Y5417153D1*
X5639173Y5407223D1*
X5653623Y5394883D1*
X5665963Y5380433D1*
X5675893Y5364233D1*
X5683163Y5346680D1*
X5687600Y5328203D1*
X5689090Y5309260D1*
X5687600Y5290317D1*
X5684787Y5277597D1*
X5702443Y5276100D1*
X5720920Y5271663D1*
X5738473Y5264393D1*
X5754673Y5254463D1*
X5769123Y5242123D1*
X5781463Y5227673D1*
X5791393Y5211473D1*
X5798663Y5193920D1*
X5803100Y5175443D1*
X5804590Y5156500D1*
X5804223Y5147183D1*
X5814290Y5147167D1*
Y4809200D1*
X5871683Y4751407D1*
X5882170Y4735713D1*
X5888703Y4718007D1*
X5890920Y4699263D1*
X5890673Y4105527D1*
X5886990Y4087017D1*
X5879090Y4069877D1*
X5867403Y4055053D1*
X5592823Y3780470D1*
X5592737Y3470107D1*
X5157157D1*
Y3732177D1*
X5051003Y3838643D1*
X5040517Y3854337D1*
X5033983Y3872043D1*
X5031767Y3890787D1*
Y3943497D1*
X5012677Y3937103D1*
X4993910Y3934130D1*
X4974910D1*
X4956143Y3937103D1*
X4938070Y3942973D1*
X4921140Y3951600D1*
X4905303Y3963197D1*
X4905043Y3580450D1*
X4901360Y3561940D1*
X4893460Y3544800D1*
X4881773Y3529977D1*
X4560517Y3209070D1*
X4544823Y3198583D1*
X4527117Y3192050D1*
X4508373Y3189833D1*
X3771823Y3190080D1*
X3753313Y3193763D1*
X3736173Y3201663D1*
X3721350Y3213350D1*
X3621827Y3313223D1*
X3611340Y3328917D1*
X3604807Y3346623D1*
X3602590Y3365367D1*
X3602567Y4266947D1*
X3581697D1*
Y4555550D1*
X3528290Y4555463D1*
Y4266650D1*
X3441897D1*
X3489053Y4219143D1*
X3499540Y4203450D1*
X3506073Y4185743D1*
X3508290Y4167000D1*
Y4115283D1*
X3528290Y4115290D1*
Y3774710D1*
X2438710D1*
Y4115290D1*
X2585677D1*
X2564327Y4155127D1*
X2477947Y4241857D1*
X2467460Y4257550D1*
X2463550Y4266650D1*
X2438710D1*
Y4553763D1*
X2420690Y4537793D1*
X2404490Y4527863D1*
X2386937Y4520593D1*
X2368460Y4516157D1*
X2349517Y4514667D1*
X2330573Y4516157D1*
X2312097Y4520593D1*
X2294543Y4527863D1*
X2278343Y4537793D1*
X2263893Y4550133D1*
X2251553Y4564583D1*
X2241623Y4580783D1*
X2234353Y4598337D1*
X2229917Y4616813D1*
X2228427Y4635757D1*
X2229917Y4654700D1*
X2234353Y4673177D1*
X2241623Y4690730D1*
X2251553Y4706930D1*
X2263893Y4721380D1*
X2278343Y4733720D1*
X2294543Y4743650D1*
X2312097Y4750920D1*
X2330573Y4755357D1*
X2349517Y4756847D1*
X2368460Y4755357D1*
X2386937Y4750920D1*
X2404490Y4743650D1*
X2420690Y4733720D1*
X2435140Y4721380D1*
X2440057Y4716063D1*
X3221527Y4716047D1*
X3221267Y4806770D1*
X2438710Y4806650D1*
X2438080Y5067837D1*
X2420527Y5075107D1*
X2404327Y5085037D1*
X2389877Y5097377D1*
X2377537Y5111827D1*
X2367607Y5128027D1*
X2360337Y5145580D1*
X2355900Y5164057D1*
X2354410Y5183000D1*
X2355900Y5201943D1*
X2360337Y5220420D1*
X2367607Y5237973D1*
X2377537Y5254173D1*
X2389877Y5268623D1*
X2404327Y5280963D1*
X2420527Y5290893D1*
X2438080Y5298163D1*
X2456557Y5302600D1*
X2475500Y5304090D1*
X2494443Y5302600D1*
X2509237Y5299203D1*
X1966947Y5841853D1*
X1956460Y5857547D1*
X1949927Y5875253D1*
X1947710Y5893997D1*
Y6572033D1*
X1928263Y6588453D1*
X1913457Y6605790D1*
X1904050Y6620760D1*
X1892170Y6602617D1*
X1879600Y6588320D1*
X1865270Y6575790D1*
X1849427Y6565240D1*
X1832337Y6556850D1*
X1814300Y6550770D1*
X1795620Y6547097D1*
X1776620Y6545900D1*
X1757630Y6547197D1*
X1738970Y6550967D1*
X1720963Y6557140D1*
X1703917Y6565620D1*
X1688127Y6576250D1*
X1673863Y6588857D1*
X1664813Y6598893D1*
X1664553Y5881133D1*
X1660870Y5862623D1*
X1652970Y5845483D1*
X1641283Y5830660D1*
X1439363Y5629090D1*
X1423670Y5618603D1*
X1405963Y5612070D1*
X1393493Y5610100D1*
X1386813Y5604743D1*
X1372007Y5587407D1*
X1354670Y5572600D1*
X1339700Y5563193D1*
X1358740Y5550617D1*
X1372940Y5537937D1*
X1385357Y5523510D1*
X1395783Y5507580D1*
X1404037Y5490427D1*
X1409980Y5472343D1*
X1413503Y5453633D1*
X1414420Y5429797D1*
X1412347Y5410873D1*
X1407813Y5392383D1*
X1400903Y5374647D1*
X1391733Y5357963D1*
X1380460Y5342623D1*
X1367280Y5328890D1*
X1352417Y5316997D1*
X1336123Y5307147D1*
X1318687Y5299513D1*
X1300397Y5294227D1*
X1281577Y5291377D1*
X1262543Y5291010D1*
X1243627Y5293133D1*
X1225150Y5297713D1*
X1207430Y5304670D1*
X1190770Y5313883D1*
X1175460Y5325197D1*
X1161760Y5338413D1*
X1149907Y5353310D1*
X1140100Y5369627D1*
X1132513Y5387083D1*
X1127273Y5405387D1*
X1124470Y5424213D1*
X1124153Y5443250D1*
X1126330Y5462160D1*
X1130957Y5480627D1*
X1137960Y5498327D1*
X1147217Y5514960D1*
X1158570Y5530243D1*
X1171823Y5543907D1*
X1186747Y5555723D1*
X1198703Y5563117D1*
X1183870Y5572600D1*
X1166533Y5587407D1*
X1151727Y5604743D1*
X1139817Y5624183D1*
X1131090Y5645247D1*
X1125770Y5667413D1*
X1123980Y5690143D1*
X1125770Y5712873D1*
X1131090Y5735040D1*
X1139817Y5756103D1*
X1151727Y5775543D1*
X1166533Y5792880D1*
X1183870Y5807687D1*
X1198840Y5817093D1*
X1183870Y5826600D1*
X1166533Y5841407D1*
X1151727Y5858743D1*
X1139817Y5878183D1*
X1131090Y5899247D1*
X1125770Y5921413D1*
X1123980Y5944143D1*
X1125770Y5966873D1*
X1131090Y5989040D1*
X1139817Y6010103D1*
X1151727Y6029543D1*
X1166533Y6046880D1*
X1183870Y6061687D1*
X1203310Y6073597D1*
X1224373Y6082323D1*
X1246540Y6087643D1*
X1269270Y6089433D1*
X1292000Y6087643D1*
X1314167Y6082323D1*
X1335230Y6073597D1*
X1354670Y6061687D1*
X1372007Y6046880D1*
X1386813Y6029543D1*
X1398723Y6010103D1*
X1407450Y5989040D1*
X1412770Y5966873D1*
X1414560Y5944143D1*
X1412770Y5921413D1*
X1407450Y5899247D1*
X1398723Y5878183D1*
X1386813Y5858743D1*
X1372007Y5841407D1*
X1354670Y5826600D1*
X1339700Y5817193D1*
X1354670Y5807687D1*
X1374093Y5790620D1*
X1504177Y5920647D1*
X1504467Y6759000D1*
X1508150Y6777510D1*
X1516050Y6794650D1*
X1527753Y6809490D1*
X1634640Y6916377D1*
X1632157Y6933790D1*
Y6956590D1*
X1635723Y6979107D1*
X1642770Y7000790D1*
X1653120Y7021103D1*
X1666520Y7039547D1*
X1682643Y7055670D1*
X1701087Y7069070D1*
X1721400Y7079420D1*
X1743083Y7086467D1*
X1765600Y7090033D1*
X1788400D1*
X1810917Y7086467D1*
X1823693Y7082707D1*
X1823710Y7315647D1*
X1801897Y7310050D1*
X1782970Y7308023D1*
X1763940Y7308487D1*
X1745133Y7311437D1*
X1726873Y7316820D1*
X1709473Y7324547D1*
X1693233Y7334477D1*
X1678433Y7346450D1*
X1665323Y7360253D1*
X1654130Y7375650D1*
X1645047Y7392380D1*
X1638230Y7410153D1*
X1633793Y7428667D1*
X1631817Y7447600D1*
X1632333Y7466630D1*
X1635330Y7485427D1*
X1640763Y7503673D1*
X1648533Y7521050D1*
X1658507Y7537263D1*
X1670517Y7552037D1*
X1684353Y7565110D1*
X1699780Y7576260D1*
X1706433Y7580163D1*
X1691600Y7589647D1*
X1674263Y7604453D1*
X1659457Y7621790D1*
X1647547Y7641230D1*
X1638820Y7662293D1*
X1633500Y7684460D1*
X1631710Y7707190D1*
X1633500Y7729920D1*
X1638820Y7752087D1*
X1647547Y7773150D1*
X1659457Y7792590D1*
X1674263Y7809927D1*
X1691600Y7824733D1*
X1711040Y7836643D1*
X1732103Y7845370D1*
X1754270Y7850690D1*
X1777000Y7852480D1*
X1799730Y7850690D1*
X1823693Y7844707D1*
X1823710Y8077647D1*
X1801897Y8072050D1*
X1782970Y8070023D1*
X1763940Y8070487D1*
X1745133Y8073437D1*
X1726873Y8078820D1*
X1709473Y8086547D1*
X1693233Y8096477D1*
X1678433Y8108450D1*
X1665323Y8122253D1*
X1654130Y8137650D1*
X1645047Y8154380D1*
X1638230Y8172153D1*
X1633793Y8190667D1*
X1631817Y8209600D1*
X1632333Y8228630D1*
X1635330Y8247427D1*
X1640763Y8265673D1*
X1648533Y8283050D1*
X1658507Y8299263D1*
X1670517Y8314037D1*
X1684353Y8327110D1*
X1699780Y8338260D1*
X1706433Y8342163D1*
X1691600Y8351647D1*
X1674263Y8366453D1*
X1659457Y8383790D1*
X1647547Y8403230D1*
X1638820Y8424293D1*
X1633500Y8446460D1*
X1631710Y8469190D1*
X1633500Y8491920D1*
X1638820Y8514087D1*
X1647547Y8535150D1*
X1659457Y8554590D1*
X1674263Y8571927D1*
X1691600Y8586733D1*
X1711040Y8598643D1*
X1715773Y8600827D1*
X2529243Y9414290D1*
X2467477Y9475937D1*
X2207233Y9476010D1*
Y9515573D1*
X2118583Y9515513D1*
X2118490Y9450513D1*
X1657910D1*
Y10010997D1*
X1712853D1*
X1713900Y10037760D1*
X1719020Y10055927D1*
X1728243Y10072393D1*
X1736427Y10081973D1*
X2074107Y10419303D1*
X2089800Y10429790D1*
X2107507Y10436323D1*
X2126250Y10438540D1*
X2419813D1*
X2419690Y10573710D1*
X2202710D1*
Y10854290D1*
X2380187D1*
X2380210Y11319273D1*
X2364357Y11303520D1*
X2345913Y11290120D1*
X2325600Y11279770D1*
X2303917Y11272723D1*
X2281400Y11269157D1*
X2258600D1*
X2236083Y11272723D1*
X2214400Y11279770D1*
X2194087Y11290120D1*
X2175643Y11303520D1*
X2159520Y11319643D1*
X2146120Y11338087D1*
X2135770Y11358400D1*
X2128723Y11380083D1*
X2125157Y11402600D1*
Y11425400D1*
X2128723Y11447917D1*
X2135770Y11469600D1*
X2146120Y11489913D1*
X2159520Y11508357D1*
X2175643Y11524480D1*
X2194087Y11537880D1*
X2214400Y11548230D1*
X2236083Y11555277D1*
X2258600Y11558843D1*
X2281400D1*
X2303917Y11555277D1*
X2325600Y11548230D1*
X2345913Y11537880D1*
X2364357Y11524480D1*
X2380207Y11508653D1*
X2380457Y11928300D1*
X2384140Y11946810D1*
X2392040Y11963950D1*
X2403727Y11978773D1*
X2649193Y12224240D1*
X2649210Y12355330D1*
X2579210Y12355210D1*
Y12655790D1*
X2587767D1*
X2581747Y12678007D1*
X2579457Y12696903D1*
X2579573Y12715940D1*
X2582097Y12734810D1*
X2586983Y12753210D1*
X2594160Y12770843D1*
X2603503Y12787430D1*
X2614873Y12802700D1*
X2628080Y12816410D1*
X2642913Y12828340D1*
X2659137Y12838300D1*
X2676490Y12846130D1*
X2694693Y12851703D1*
X2713457Y12854930D1*
X2732473Y12855760D1*
X2751447Y12854180D1*
X2770067Y12850213D1*
X2788033Y12843923D1*
X2805063Y12835413D1*
X2820880Y12824817D1*
X2835230Y12812310D1*
X2847883Y12798087D1*
X2854477Y12788930D1*
X2865220Y12803107D1*
X2881893Y12819780D1*
X2900973Y12833643D1*
X2921987Y12844350D1*
X2944417Y12851637D1*
X2967710Y12855327D1*
X2991290D1*
X3014583Y12851637D1*
X3037013Y12844350D1*
X3058027Y12833643D1*
X3077107Y12819780D1*
X3093780Y12803107D1*
X3107643Y12784027D1*
X3118350Y12763013D1*
X3125637Y12740583D1*
X3129327Y12717290D1*
Y12693710D1*
X3125637Y12670417D1*
X3118350Y12647987D1*
X3107643Y12626973D1*
X3091623Y12605560D1*
X3107643Y12584027D1*
X3117057Y12565817D1*
X3243800Y12565543D1*
X3262310Y12561860D1*
X3279450Y12553960D1*
X3294273Y12542273D1*
X3305960Y12527450D1*
X3313860Y12510310D1*
X3317543Y12491800D1*
X3317790Y12104500D1*
X3315573Y12085757D1*
X3309040Y12068050D1*
X3298553Y12052357D1*
X3222623Y11976077D1*
X3222540Y10496537D1*
X3433827Y10707750D1*
X3435400Y10726510D1*
X3439837Y10744987D1*
X3447107Y10762540D1*
X3457037Y10778740D1*
X3469377Y10793190D1*
X3483827Y10805530D1*
X3500027Y10815460D1*
X3517580Y10822730D1*
X3536057Y10827167D1*
X3546353Y10828317D1*
X3588733Y10870720D1*
X3441933Y11017517D1*
X3424400Y11015157D1*
X3401600D1*
X3379083Y11018723D1*
X3357400Y11025770D1*
X3337087Y11036120D1*
X3318643Y11049520D1*
X3302520Y11065643D1*
X3289120Y11084087D1*
X3278770Y11104400D1*
X3271723Y11126083D1*
X3268157Y11148600D1*
Y11171400D1*
X3271723Y11193917D1*
X3278770Y11215600D1*
X3289120Y11235913D1*
X3302520Y11254357D1*
X3318643Y11270480D1*
X3337087Y11283880D1*
X3357400Y11294230D1*
X3379083Y11301277D1*
X3401600Y11304843D1*
X3424400D1*
X3446917Y11301277D1*
X3468600Y11294230D1*
X3488913Y11283880D1*
X3507357Y11270480D1*
X3523480Y11254357D1*
X3536880Y11235913D1*
X3539950Y11230430D1*
X3549457Y11245400D1*
X3564263Y11262737D1*
X3581600Y11277543D1*
X3601040Y11289453D1*
X3622103Y11298180D1*
X3644270Y11303500D1*
X3667000Y11305290D1*
X3689730Y11303500D1*
X3711897Y11298180D1*
X3732960Y11289453D1*
X3752400Y11277543D1*
X3769737Y11262737D1*
X3784543Y11245400D1*
X3793950Y11230430D1*
X3803457Y11245400D1*
X3818263Y11262737D1*
X3835600Y11277543D1*
X3855040Y11289453D1*
X3876103Y11298180D1*
X3898270Y11303500D1*
X3921000Y11305290D1*
X3943730Y11303500D1*
X3965897Y11298180D1*
X3986960Y11289453D1*
X4006400Y11277543D1*
X4023737Y11262737D1*
X4038543Y11245400D1*
X4047950Y11230430D1*
X4057457Y11245400D1*
X4072263Y11262737D1*
X4089600Y11277543D1*
X4109040Y11289453D1*
X4130103Y11298180D1*
X4152270Y11303500D1*
X4175000Y11305290D1*
X4197730Y11303500D1*
X4219897Y11298180D1*
X4240960Y11289453D1*
X4260400Y11277543D1*
X4277737Y11262737D1*
X4292543Y11245400D1*
X4301950Y11230430D1*
X4311457Y11245400D1*
X4326263Y11262737D1*
X4343600Y11277543D1*
X4363040Y11289453D1*
X4384103Y11298180D1*
X4406270Y11303500D1*
X4429000Y11305290D1*
X4451730Y11303500D1*
X4473897Y11298180D1*
X4494960Y11289453D1*
X4514400Y11277543D1*
X4531737Y11262737D1*
X4546543Y11245400D1*
X4555950Y11230430D1*
X4565457Y11245400D1*
X4580263Y11262737D1*
X4597600Y11277543D1*
X4617040Y11289453D1*
X4638103Y11298180D1*
X4660270Y11303500D1*
X4683000Y11305290D1*
X4705730Y11303500D1*
X4727897Y11298180D1*
X4748960Y11289453D1*
X4768400Y11277543D1*
X4785737Y11262737D1*
X4800543Y11245400D1*
X4812453Y11225960D1*
X4821180Y11204897D1*
X4826500Y11182730D1*
X4828290Y11160000D1*
X4826500Y11137270D1*
X4821180Y11115103D1*
X4812453Y11094040D1*
X4800543Y11074600D1*
X4785737Y11057263D1*
X4768400Y11042457D1*
X4748960Y11030547D1*
X4727897Y11021820D1*
X4705730Y11016500D1*
X4683000Y11014710D1*
X4660270Y11016500D1*
X4654283Y11017690D1*
X4608143Y10971947D1*
X4592450Y10961460D1*
X4574743Y10954930D1*
X4556000Y10952710D1*
X4462363D1*
X4378343Y10868797D1*
X4378290Y10811090D1*
X4390127Y10824940D1*
X4404577Y10837280D1*
X4420777Y10847210D1*
X4438330Y10854480D1*
X4456807Y10858917D1*
X4475750Y10860407D1*
X4494693Y10858917D1*
X4513170Y10854480D1*
X4530723Y10847210D1*
X4546923Y10837280D1*
X4561373Y10824940D1*
X4573713Y10810490D1*
X4583643Y10794290D1*
X4590913Y10776737D1*
X4595350Y10758260D1*
X4596840Y10739317D1*
X4595350Y10720373D1*
X4590913Y10701897D1*
X4583643Y10684343D1*
X4573713Y10668143D1*
X4561373Y10653693D1*
X4553313Y10646390D1*
X4553290Y10405927D1*
X4632757Y10405980D1*
X4627293Y10427673D1*
X4625803Y10446617D1*
X4627293Y10465560D1*
X4631730Y10484037D1*
X4639000Y10501590D1*
X4648930Y10517790D1*
X4661270Y10532240D1*
X4675720Y10544580D1*
X4691920Y10554510D1*
X4709473Y10561780D1*
X4727950Y10566217D1*
X4746893Y10567707D1*
X4765837Y10566217D1*
X4784313Y10561780D1*
X4801867Y10554510D1*
X4818067Y10544580D1*
X4832517Y10532240D1*
X4844857Y10517790D1*
X4854787Y10501590D1*
X4862057Y10484037D1*
X4866493Y10465560D1*
X4867983Y10446617D1*
X4866493Y10427673D1*
X4862057Y10409197D1*
X4854787Y10391643D1*
X4848303Y10380600D1*
X4848290Y10311103D1*
X5409693Y10310980D1*
X5409710Y10340290D1*
X5750290D1*
Y9790247D1*
X5891863Y9931460D1*
X5903960Y9940247D1*
X5917283Y9947037D1*
X5931503Y9951657D1*
X5946303Y9953997D1*
X5949833Y9959290D1*
X5938843Y9953117D1*
X5946273Y9953997D1*
X5949710Y9959257D1*
Y10340290D1*
X6290290D1*
Y10335203D1*
X6803247Y10335290D1*
X7002363Y10533960D1*
X7014460Y10542747D1*
X7027783Y10549537D1*
X7042003Y10554157D1*
X7056773Y10556497D1*
X7381750Y10556790D1*
X7579727Y10556497D1*
X7594497Y10554157D1*
X7608717Y10549537D1*
X7622040Y10542747D1*
X7634137Y10533960D1*
X7876880Y10291630D1*
X7886590Y10280260D1*
X7894403Y10267510D1*
X7900127Y10253697D1*
X7903617Y10239157D1*
X7904790Y10224250D1*
Y10055207D1*
X7919980Y10039857D1*
X7933380Y10021413D1*
X7936450Y10015930D1*
X7945957Y10030900D1*
X7960763Y10048237D1*
X7968193Y10055103D1*
X7968210Y11153117D1*
X7739077Y11382287D1*
X7728790Y11353790D1*
Y11000210D1*
X7668250Y10999963D1*
X7674120Y10981890D1*
X7677093Y10963123D1*
Y10944123D1*
X7674120Y10925357D1*
X7668250Y10907283D1*
X7659623Y10890353D1*
X7648453Y10874983D1*
X7635017Y10861547D1*
X7619647Y10850377D1*
X7602717Y10841750D1*
X7584643Y10835880D1*
X7565877Y10832907D1*
X7546877D1*
X7528110Y10835880D1*
X7510037Y10841750D1*
X7493107Y10850377D1*
X7477737Y10861547D1*
X7464300Y10874983D1*
X7453130Y10890353D1*
X7445513Y10905093D1*
X6914060Y10905083D1*
X6914163Y10872960D1*
X6493583D1*
Y11113540D1*
X6522480D1*
X6236627Y11399480D1*
X5912510Y11399543D1*
X5912543Y11222043D1*
X5715023D1*
X5714797Y11150453D1*
X5711113Y11131943D1*
X5703213Y11114803D1*
X5691527Y11099980D1*
X5310830Y10719283D1*
X5310790Y10587210D1*
X4890210D1*
Y10643143D1*
X4836287Y10643090D1*
X4824263Y10631303D1*
X4808893Y10620133D1*
X4791963Y10611507D1*
X4773890Y10605637D1*
X4755123Y10602663D1*
X4736123D1*
X4717357Y10605637D1*
X4699283Y10611507D1*
X4682353Y10620133D1*
X4666983Y10631303D1*
X4653547Y10644740D1*
X4642377Y10660110D1*
X4633750Y10677040D1*
X4627880Y10695113D1*
X4624907Y10713880D1*
Y10732880D1*
X4627880Y10751647D1*
X4633750Y10769720D1*
X4642377Y10786650D1*
X4653547Y10802020D1*
X4666983Y10815457D1*
X4682353Y10826627D1*
X4699283Y10835253D1*
X4717357Y10841123D1*
X4736123Y10844097D1*
X4755123D1*
X4773890Y10841123D1*
X4791963Y10835253D1*
X4808893Y10826627D1*
X4824263Y10815457D1*
X4836163Y10803687D1*
X4890110Y10803670D1*
X4890210Y10827790D1*
X5192293D1*
X5554500Y11190047D1*
X5554463Y11222113D1*
X5516963Y11222043D1*
Y11319530D1*
X5310680Y11319543D1*
X5310790Y11253960D1*
X4890210D1*
Y11494540D1*
X4935230D1*
X4935210Y12032120D1*
X4636360Y12032210D1*
X4624873Y12018877D1*
X4610423Y12006537D1*
X4594223Y11996607D1*
X4576670Y11989337D1*
X4558193Y11984900D1*
X4539250Y11983410D1*
X4520307Y11984900D1*
X4501830Y11989337D1*
X4484277Y11996607D1*
X4468077Y12006537D1*
X4453627Y12018877D1*
X4441287Y12033327D1*
X4431357Y12049527D1*
X4424087Y12067080D1*
X4419650Y12085557D1*
X4418160Y12104500D1*
X4419650Y12123443D1*
X4424087Y12141920D1*
X4431357Y12159473D1*
X4441287Y12175673D1*
X4453627Y12190123D1*
X4466790Y12201887D1*
X4477363Y12212460D1*
X4489460Y12221247D1*
X4502783Y12228037D1*
X4517003Y12232657D1*
X4531773Y12234997D1*
X4856750Y12235290D1*
X6756913D1*
X6754730Y12289487D1*
X6726900Y12304047D1*
X6698933Y12324363D1*
X6674490Y12348807D1*
X6654173Y12376773D1*
X6638480Y12407573D1*
X6627797Y12440447D1*
X6622390Y12474590D1*
Y12509157D1*
X6627797Y12543300D1*
X6638480Y12576173D1*
X6654173Y12606973D1*
X6674490Y12634940D1*
X6698933Y12659383D1*
X6726900Y12679700D1*
X6757700Y12695393D1*
X6790573Y12706077D1*
X6824717Y12711483D1*
X6859283D1*
X6893427Y12706077D1*
X6924083Y12696213D1*
X6920140Y12715010D1*
X6917710Y12745873D1*
X6920140Y12776737D1*
X6927367Y12806840D1*
X6939213Y12835440D1*
X6955390Y12861837D1*
X6975493Y12885380D1*
X6999037Y12905483D1*
X7025433Y12921660D1*
X7054033Y12933507D1*
X7084137Y12940733D1*
X7115000Y12943163D1*
X7145863Y12940733D1*
X7175967Y12933507D1*
X7204567Y12921660D1*
X7230963Y12905483D1*
X7254507Y12885380D1*
X7274610Y12861837D1*
X7290787Y12835440D1*
X7302633Y12806840D1*
X7309860Y12776737D1*
X7312290Y12745873D1*
X7309860Y12715010D1*
X7302633Y12684907D1*
X7290787Y12656307D1*
X7274610Y12629910D1*
X7254507Y12606367D1*
X7230963Y12586263D1*
X7204567Y12570087D1*
X7175967Y12558240D1*
X7145863Y12551013D1*
X7115000Y12548583D1*
X7084137Y12551013D1*
X7054033Y12558240D1*
X7051820Y12559057D1*
X7059577Y12526333D1*
X7062290Y12491873D1*
X7059577Y12457413D1*
X7051507Y12423800D1*
X7038280Y12391863D1*
X7020220Y12362390D1*
X6997770Y12336103D1*
X6971483Y12313653D1*
X6945133Y12297343D1*
X6947630Y12235317D1*
X7044227Y12234997D1*
X7058997Y12232657D1*
X7073217Y12228037D1*
X7086540Y12221247D1*
X7098637Y12212460D1*
X7258630Y12052880D1*
X7268340Y12041510D1*
X7276153Y12028760D1*
X7281877Y12014947D1*
X7285367Y12000407D1*
X7286540Y11985500D1*
Y11960820D1*
X7338790Y11960790D1*
Y11572720D1*
X7398137Y11572790D1*
X7398210Y11960790D1*
X7728790D1*
Y11572720D1*
X7786100Y11572497D1*
X7800870Y11570157D1*
X7815090Y11565537D1*
X7828413Y11558747D1*
X7840510Y11549960D1*
X8070510Y11320373D1*
X8135960Y11254510D1*
X8144747Y11242413D1*
X8151537Y11229090D1*
X8156157Y11214870D1*
X8158497Y11200100D1*
X8158790Y10875123D1*
Y10055203D1*
X8173980Y10039857D1*
X8187380Y10021413D1*
X8197730Y10001100D1*
X8204777Y9979417D1*
X8208343Y9956900D1*
Y9934100D1*
X8204777Y9911583D1*
X8197730Y9889900D1*
X8187380Y9869587D1*
X8173980Y9851143D1*
X8158807Y9835897D1*
X8158790Y9547260D1*
X8173980Y9531857D1*
X8187380Y9513413D1*
X8197730Y9493100D1*
X8204777Y9471417D1*
X8208343Y9448900D1*
Y9426100D1*
X8204777Y9403583D1*
X8197730Y9381900D1*
X8187380Y9361587D1*
X8173980Y9343143D1*
X8158807Y9327897D1*
X8158790Y9039260D1*
X8173980Y9023857D1*
X8187380Y9005413D1*
X8197730Y8985100D1*
X8204777Y8963417D1*
X8208343Y8940900D1*
Y8918100D1*
X8204777Y8895583D1*
X8197730Y8873900D1*
X8187380Y8853587D1*
X8173980Y8835143D1*
X8157857Y8819020D1*
X8139413Y8805620D1*
X8119100Y8795270D1*
X8097417Y8788223D1*
X8074900Y8784657D1*
X8052100D1*
X8029583Y8788223D1*
X8007900Y8795270D1*
X7987587Y8805620D1*
X7969143Y8819020D1*
X7953020Y8835143D1*
X7939620Y8853587D1*
X7936550Y8859070D1*
X7927043Y8844100D1*
X7912237Y8826763D1*
X7894900Y8811957D1*
X7875460Y8800047D1*
X7854397Y8791320D1*
X7832230Y8786000D1*
X7809500Y8784210D1*
X7786770Y8786000D1*
X7764603Y8791320D1*
X7743540Y8800047D1*
X7724100Y8811957D1*
X7706763Y8826763D1*
X7691957Y8844100D1*
X7682550Y8859070D1*
X7673043Y8844100D1*
X7658237Y8826763D1*
X7640900Y8811957D1*
X7621460Y8800047D1*
X7600397Y8791320D1*
X7578230Y8786000D1*
X7555500Y8784210D1*
X7532770Y8786000D1*
X7510603Y8791320D1*
X7489540Y8800047D1*
X7470100Y8811957D1*
X7452763Y8826763D1*
X7437957Y8844100D1*
X7428550Y8859070D1*
X7419043Y8844100D1*
X7404237Y8826763D1*
X7386900Y8811957D1*
X7367460Y8800047D1*
X7346397Y8791320D1*
X7324230Y8786000D1*
X7301500Y8784210D1*
X7278770Y8786000D1*
X7256603Y8791320D1*
X7235540Y8800047D1*
X7216100Y8811957D1*
X7198763Y8826763D1*
X7191897Y8834193D1*
X6359293Y8834210D1*
X6359413Y8801333D1*
X5938833D1*
Y8838167D1*
X5922863Y8849163D1*
X5726870Y9044743D1*
X5717160Y9056113D1*
X5709347Y9068863D1*
X5703623Y9082677D1*
X5700133Y9097217D1*
X5698960Y9112123D1*
X5698970Y9250710D1*
X5409710D1*
Y9377733D1*
X5387000Y9400210D1*
X5255907D1*
X5347303Y9308460D1*
X5357790Y9292767D1*
X5364323Y9275060D1*
X5366540Y9256317D1*
Y8469637D1*
X5382790Y8477873D1*
X5400863Y8483743D1*
X5419630Y8486717D1*
X5438630D1*
X5457397Y8483743D1*
X5475470Y8477873D1*
X5492400Y8469247D1*
X5507770Y8458077D1*
X5521207Y8444640D1*
X5532377Y8429270D1*
X5541003Y8412340D1*
X5546873Y8394267D1*
X5549847Y8375500D1*
Y8356500D1*
X5546873Y8337733D1*
X5541003Y8319660D1*
X5532377Y8302730D1*
X5521207Y8287360D1*
X5509873Y8275863D1*
X5509880Y6748860D1*
X6908033Y5350703D1*
X7245177Y5350417D1*
X7263687Y5346733D1*
X7280827Y5338833D1*
X7295650Y5327147D1*
X7580553Y5042243D1*
X7645600Y5042183D1*
Y4621603D1*
X7605540D1*
X7604610Y4607320D1*
X7599490Y4589153D1*
X7590267Y4572687D1*
X7582083Y4563107D1*
X7020790Y4001807D1*
Y3774460D1*
X6820210Y3774583D1*
X6822643Y3768867D1*
X6840717Y3762997D1*
X6857647Y3754370D1*
X6873017Y3743200D1*
X6886453Y3729763D1*
X6897623Y3714393D1*
X6906250Y3697463D1*
X6912120Y3679390D1*
X6915093Y3660623D1*
Y3641623D1*
X6912120Y3622857D1*
X6906250Y3604783D1*
X6897623Y3587853D1*
X6888777Y3575427D1*
X6947210Y3575040D1*
X7020790D1*
Y3533490D1*
X7042000Y3533717D1*
X7060767Y3530743D1*
X7078840Y3524873D1*
X7095770Y3516247D1*
X7111140Y3505077D1*
X7124577Y3491640D1*
X7135747Y3476270D1*
X7144373Y3459340D1*
X7150243Y3441267D1*
X7153217Y3422500D1*
Y3403500D1*
X7150243Y3384733D1*
X7144373Y3366660D1*
X7135747Y3349730D1*
X7124577Y3334360D1*
X7111140Y3320923D1*
X7095770Y3309753D1*
X7078840Y3301127D1*
X7060767Y3295257D1*
X7042000Y3292283D1*
X7020823Y3292540D1*
X7020790Y3234460D1*
X6761707D1*
X6761497Y2633757D1*
X6759157Y2618987D1*
X6754537Y2604767D1*
X6747747Y2591443D1*
X6738960Y2579347D1*
X6509373Y2349347D1*
X6347570Y2187543D1*
X6347613Y1958297D1*
X6367120Y1962637D1*
X6392023Y1964597D1*
X6416927Y1962637D1*
X6441217Y1956807D1*
X6464293Y1947247D1*
X6485593Y1934193D1*
X6504587Y1917970D1*
X6520810Y1898977D1*
X6533863Y1877677D1*
X6543423Y1854600D1*
X6549253Y1830310D1*
X6551213Y1805407D1*
X6549253Y1780503D1*
X6543423Y1756213D1*
X6533863Y1733137D1*
X6520810Y1711837D1*
X6504587Y1692843D1*
X6485593Y1676620D1*
X6464293Y1663567D1*
X6441217Y1654007D1*
X6416927Y1648177D1*
X6392023Y1646217D1*
X6367120Y1648177D1*
X6347577Y1652670D1*
X6355710Y1641990D1*
X6373373Y1624327D1*
X6388057Y1604117D1*
X6399397Y1581860D1*
X6407113Y1558103D1*
X6411023Y1533430D1*
Y1508450D1*
X6407113Y1483777D1*
X6399397Y1460020D1*
X6388057Y1437763D1*
X6373373Y1417553D1*
X6355710Y1399890D1*
X6335500Y1385207D1*
X6313243Y1373867D1*
X6289487Y1366150D1*
X6264813Y1362240D1*
X6239833D1*
X6215160Y1366150D1*
X6191403Y1373867D1*
X6169147Y1385207D1*
X6148937Y1399890D1*
X6131273Y1417553D1*
X6116590Y1437763D1*
X6113943Y1442493D1*
X6104243Y1427370D1*
X6088020Y1408377D1*
X6069027Y1392153D1*
X6047727Y1379100D1*
X6024650Y1369540D1*
X6000360Y1363710D1*
X5975457Y1361750D1*
X5950553Y1363710D1*
X5926263Y1369540D1*
X5903187Y1379100D1*
X5881887Y1392153D1*
X5862893Y1408377D1*
X5846670Y1427370D1*
X5837077Y1442493D1*
X5827377Y1427370D1*
X5811153Y1408377D1*
X5792160Y1392153D1*
X5770860Y1379100D1*
X5747783Y1369540D1*
X5723493Y1363710D1*
X5698590Y1361750D1*
X5673687Y1363710D1*
X5649397Y1369540D1*
X5626320Y1379100D1*
X5605020Y1392153D1*
X5586027Y1408377D1*
X5569803Y1427370D1*
X5560210Y1442493D1*
X5550510Y1427370D1*
X5534287Y1408377D1*
X5515293Y1392153D1*
X5493993Y1379100D1*
X5470917Y1369540D1*
X5446627Y1363710D1*
X5421723Y1361750D1*
X5396820Y1363710D1*
X5372530Y1369540D1*
X5349453Y1379100D1*
X5328153Y1392153D1*
X5309160Y1408377D1*
X5292937Y1427370D1*
X5283390Y1442407D1*
X5273677Y1427370D1*
X5257453Y1408377D1*
X5238460Y1392153D1*
X5217160Y1379100D1*
X5194083Y1369540D1*
X5169793Y1363710D1*
X5144890Y1361750D1*
X5119987Y1363710D1*
X5095697Y1369540D1*
X5072620Y1379100D1*
X5051320Y1392153D1*
X5032327Y1408377D1*
X5016103Y1427370D1*
X5006510Y1442493D1*
X4996810Y1427370D1*
X4980587Y1408377D1*
X4961593Y1392153D1*
X4940293Y1379100D1*
X4917217Y1369540D1*
X4892927Y1363710D1*
X4868023Y1361750D1*
X4843120Y1363710D1*
X4818830Y1369540D1*
X4795753Y1379100D1*
X4774453Y1392153D1*
X4755460Y1408377D1*
X4739237Y1427370D1*
X4729643Y1442493D1*
X4719943Y1427370D1*
X4703720Y1408377D1*
X4684727Y1392153D1*
X4663427Y1379100D1*
X4640350Y1369540D1*
X4616060Y1363710D1*
X4591157Y1361750D1*
X4566253Y1363710D1*
X4541963Y1369540D1*
X4518887Y1379100D1*
X4497587Y1392153D1*
X4478593Y1408377D1*
X4462370Y1427370D1*
X4452777Y1442493D1*
X4443077Y1427370D1*
X4426853Y1408377D1*
X4407860Y1392153D1*
X4386560Y1379100D1*
X4363483Y1369540D1*
X4339193Y1363710D1*
X4314290Y1361750D1*
X4289387Y1363710D1*
X4265097Y1369540D1*
X4242020Y1379100D1*
X4220720Y1392153D1*
X4201727Y1408377D1*
X4185503Y1427370D1*
X4175910Y1442493D1*
X4166210Y1427370D1*
X4149987Y1408377D1*
X4130993Y1392153D1*
X4109693Y1379100D1*
X4086617Y1369540D1*
X4062327Y1363710D1*
X4037423Y1361750D1*
X4012520Y1363710D1*
X3988230Y1369540D1*
X3965153Y1379100D1*
X3943853Y1392153D1*
X3924860Y1408377D1*
X3908637Y1427370D1*
X3899090Y1442407D1*
X3889377Y1427370D1*
X3873153Y1408377D1*
X3854160Y1392153D1*
X3832860Y1379100D1*
X3809783Y1369540D1*
X3785493Y1363710D1*
X3760590Y1361750D1*
X3735687Y1363710D1*
X3711397Y1369540D1*
X3688320Y1379100D1*
X3667020Y1392153D1*
X3648027Y1408377D1*
X3631803Y1427370D1*
X3622210Y1442493D1*
X3612510Y1427370D1*
X3596287Y1408377D1*
X3577293Y1392153D1*
X3555993Y1379100D1*
X3532917Y1369540D1*
X3508627Y1363710D1*
X3483723Y1361750D1*
X3458820Y1363710D1*
X3434530Y1369540D1*
X3411453Y1379100D1*
X3390153Y1392153D1*
X3371160Y1408377D1*
X3354937Y1427370D1*
X3345343Y1442493D1*
X3335643Y1427370D1*
X3319420Y1408377D1*
X3300427Y1392153D1*
X3279127Y1379100D1*
X3256050Y1369540D1*
X3231760Y1363710D1*
X3206857Y1361750D1*
X3181953Y1363710D1*
X3157663Y1369540D1*
X3134587Y1379100D1*
X3113287Y1392153D1*
X3094293Y1408377D1*
X3078070Y1427370D1*
X3065017Y1448670D1*
X3055457Y1471747D1*
X3049627Y1496037D1*
X3047667Y1520940D1*
X3049627Y1545843D1*
X3055457Y1570133D1*
X3065017Y1593210D1*
X3078070Y1614510D1*
X3094293Y1633503D1*
X3108800Y1646190D1*
X2910500Y1646217D1*
Y1964597D1*
X3111543D1*
X3111567Y2040227D1*
X2593540Y2558583D1*
X2584753Y2570680D1*
X2577963Y2584003D1*
X2573343Y2598223D1*
X2571003Y2612993D1*
X2570710Y2937970D1*
Y3234710D1*
X2565710Y3234833D1*
X2570710Y3223720D1*
Y3234757D1*
X6820243Y3774460D2*
X6279007D1*
X6294420Y3770530D1*
X6311973Y3763260D1*
X6328173Y3753330D1*
X6342623Y3740990D1*
X6354963Y3726540D1*
X6364893Y3710340D1*
X6372163Y3692787D1*
X6376600Y3674310D1*
X6378090Y3655367D1*
X6376600Y3636423D1*
X6372163Y3617947D1*
X6364893Y3600393D1*
X6354963Y3584193D1*
X6347540Y3575060D1*
X6698297Y3575040D1*
X6686483Y3596150D1*
X6679213Y3613703D1*
X6674777Y3632180D1*
X6673287Y3651123D1*
X6674777Y3670067D1*
X6679213Y3688543D1*
X6686483Y3706097D1*
X6696413Y3722297D1*
X6708753Y3736747D1*
X6723203Y3749087D1*
X6739403Y3759017D1*
X6756957Y3766287D1*
X6775433Y3770723D1*
X6794377Y3772213D1*
X6813320Y3770723D1*
X6822643Y3768867D1*
X7039960Y11960790D2*
X7081260D1*
X6997323Y12044667D1*
X5095813Y12044710D1*
X5095790Y11606610D1*
X5277123Y11606273D1*
X5295633Y11602590D1*
X5312773Y11594690D1*
X5327597Y11583003D1*
X5350487Y11560113D1*
X5517023Y11560123D1*
X5516963Y11657623D1*
X5912543D1*
Y11640137D1*
X6453690Y11640123D1*
X6493587Y11680013D1*
X6493583Y11812040D1*
X6914163D1*
Y11701287D1*
X7008210Y11607210D1*
Y11960790D1*
X7039960D1*
X7008210Y11065570D2*
Y11145193D1*
X6785773Y11145503D1*
X6771003Y11147843D1*
X6756783Y11152463D1*
X6743460Y11159253D1*
X6737217Y11163427D1*
X6727807Y11167400D1*
X6709330Y11171837D1*
X6691777Y11179107D1*
X6675577Y11189037D1*
X6665573Y11197267D1*
X6676003Y11181640D1*
X6682537Y11163933D1*
X6684753Y11145190D1*
Y11113563D1*
X6914163Y11113540D1*
Y11065543D1*
X7008210Y11065663D1*
Y11335693D2*
Y11382327D1*
X6988217Y11383383D1*
X6973677Y11386873D1*
X6959863Y11392597D1*
X6947113Y11400410D1*
X6935743Y11410120D1*
X6774467Y11571397D1*
X6612080Y11571460D1*
X6539100Y11498780D1*
X6523407Y11488293D1*
X6505700Y11481760D1*
X6486957Y11479543D1*
X6383647D1*
X6653690Y11209510D1*
X6643503Y11223730D1*
X6634877Y11240660D1*
X6629007Y11258733D1*
X6626033Y11277500D1*
Y11296500D1*
X6629007Y11315267D1*
X6634877Y11333340D1*
X6643503Y11350270D1*
X6654673Y11365640D1*
X6668110Y11379077D1*
X6683480Y11390247D1*
X6700410Y11398873D1*
X6718483Y11404743D1*
X6737250Y11407717D1*
X6756250D1*
X6775017Y11404743D1*
X6793090Y11398873D1*
X6810020Y11390247D1*
X6825390Y11379077D1*
X6838827Y11365640D1*
X6849997Y11350270D1*
X6857487Y11335800D1*
X7008183Y11335790D1*
X7003123Y11382210D1*
X6988217Y11383383D1*
X6973677Y11386873D1*
X6959863Y11392597D1*
X6947113Y11400410D1*
X6935743Y11410120D1*
X8380907Y13470023D2*
X8377380Y13440230D1*
X8371527Y13410803D1*
X8363383Y13381930D1*
X8353000Y13353783D1*
X8340440Y13326537D1*
X8325780Y13300363D1*
X8309113Y13275417D1*
X8290540Y13251857D1*
X8270173Y13229827D1*
X8248143Y13209460D1*
X8224583Y13190887D1*
X8199637Y13174220D1*
X8173463Y13159560D1*
X8146217Y13147000D1*
X8118070Y13136617D1*
X8089197Y13128473D1*
X8059770Y13122620D1*
X8029977Y13119093D1*
X8000000Y13117917D1*
X7970023Y13119093D1*
X7940230Y13122620D1*
X7910803Y13128473D1*
X7881930Y13136617D1*
X7853783Y13147000D1*
X7826537Y13159560D1*
X7800363Y13174220D1*
X7775417Y13190887D1*
X7751857Y13209460D1*
X7729827Y13229827D1*
X7709460Y13251857D1*
X7690887Y13275417D1*
X7674220Y13300363D1*
X7659560Y13326537D1*
X7647000Y13353783D1*
X7636617Y13381930D1*
X7628473Y13410803D1*
X7622620Y13440230D1*
X7619093Y13470023D1*
X7617917Y13500000D1*
X7619093Y13529977D1*
X7622620Y13559770D1*
X7628473Y13589197D1*
X7636617Y13618070D1*
X7647000Y13646217D1*
X7659560Y13673463D1*
X7674220Y13699637D1*
X7690887Y13724583D1*
X7709460Y13748143D1*
X7729827Y13770173D1*
X7751857Y13790540D1*
X7775417Y13809113D1*
X7800363Y13825780D1*
X7826537Y13840440D1*
X7853783Y13853000D1*
X7881930Y13863383D1*
X7910803Y13871527D1*
X7940230Y13877380D1*
X7970023Y13880907D1*
X8000000Y13882083D1*
X8029977Y13880907D1*
X8059770Y13877380D1*
X8089197Y13871527D1*
X8118070Y13863383D1*
X8146217Y13853000D1*
X8173463Y13840440D1*
X8199637Y13825780D1*
X8224583Y13809113D1*
X8248143Y13790540D1*
X8270173Y13770173D1*
X8290540Y13748143D1*
X8309113Y13724583D1*
X8325780Y13699637D1*
X8340440Y13673463D1*
X8353000Y13646217D1*
X8363383Y13618070D1*
X8371527Y13589197D1*
X8377380Y13559770D1*
X8380907Y13529977D1*
X8382083Y13500000D1*
X8380907Y13470023D1*
X7401350Y1638137D2*
X7398400Y1613230D1*
X7393507Y1588630D1*
X7386700Y1564490D1*
X7378017Y1540957D1*
X7367517Y1518180D1*
X7355263Y1496297D1*
X7341327Y1475443D1*
X7325800Y1455743D1*
X7308773Y1437327D1*
X7290357Y1420300D1*
X7270657Y1404773D1*
X7249803Y1390837D1*
X7227920Y1378583D1*
X7205143Y1368083D1*
X7181610Y1359400D1*
X7157470Y1352593D1*
X7132870Y1347700D1*
X7107963Y1344750D1*
X7082900Y1343767D1*
X7057837Y1344750D1*
X7032930Y1347700D1*
X7008330Y1352593D1*
X6984190Y1359400D1*
X6960657Y1368083D1*
X6937880Y1378583D1*
X6915997Y1390837D1*
X6895143Y1404773D1*
X6875443Y1420300D1*
X6857027Y1437327D1*
X6840000Y1455743D1*
X6824473Y1475443D1*
X6810537Y1496297D1*
X6798283Y1518180D1*
X6787783Y1540957D1*
X6779100Y1564490D1*
X6772293Y1588630D1*
X6767400Y1613230D1*
X6764450Y1638137D1*
X6763467Y1663200D1*
X6764450Y1688263D1*
X6767400Y1713170D1*
X6772293Y1737770D1*
X6779100Y1761910D1*
X6787783Y1785443D1*
X6798283Y1808220D1*
X6810537Y1830103D1*
X6824473Y1850957D1*
X6840000Y1870657D1*
X6857027Y1889073D1*
X6875443Y1906100D1*
X6895143Y1921627D1*
X6915997Y1935563D1*
X6937880Y1947817D1*
X6960657Y1958317D1*
X6984190Y1967000D1*
X7008330Y1973807D1*
X7032930Y1978700D1*
X7057837Y1981650D1*
X7082900Y1982633D1*
X7107963Y1981650D1*
X7132870Y1978700D1*
X7157470Y1973807D1*
X7181610Y1967000D1*
X7205143Y1958317D1*
X7227920Y1947817D1*
X7249803Y1935563D1*
X7270657Y1921627D1*
X7290357Y1906100D1*
X7308773Y1889073D1*
X7325800Y1870657D1*
X7341327Y1850957D1*
X7355263Y1830103D1*
X7367517Y1808220D1*
X7378017Y1785443D1*
X7386700Y1761910D1*
X7393507Y1737770D1*
X7398400Y1713170D1*
X7401350Y1688263D1*
X7402333Y1663200D1*
X7401350Y1638137D1*
X1880907Y13470023D2*
X1877380Y13440230D1*
X1871527Y13410803D1*
X1863383Y13381930D1*
X1853000Y13353783D1*
X1840440Y13326537D1*
X1825780Y13300363D1*
X1809113Y13275417D1*
X1790540Y13251857D1*
X1770173Y13229827D1*
X1748143Y13209460D1*
X1724583Y13190887D1*
X1699637Y13174220D1*
X1673463Y13159560D1*
X1646217Y13147000D1*
X1618070Y13136617D1*
X1589197Y13128473D1*
X1559770Y13122620D1*
X1529977Y13119093D1*
X1500000Y13117917D1*
X1470023Y13119093D1*
X1440230Y13122620D1*
X1410803Y13128473D1*
X1381930Y13136617D1*
X1353783Y13147000D1*
X1326537Y13159560D1*
X1300363Y13174220D1*
X1275417Y13190887D1*
X1251857Y13209460D1*
X1229827Y13229827D1*
X1209460Y13251857D1*
X1190887Y13275417D1*
X1174220Y13300363D1*
X1159560Y13326537D1*
X1147000Y13353783D1*
X1136617Y13381930D1*
X1128473Y13410803D1*
X1122620Y13440230D1*
X1119093Y13470023D1*
X1117917Y13500000D1*
X1119093Y13529977D1*
X1122620Y13559770D1*
X1128473Y13589197D1*
X1136617Y13618070D1*
X1147000Y13646217D1*
X1159560Y13673463D1*
X1174220Y13699637D1*
X1190887Y13724583D1*
X1209460Y13748143D1*
X1229827Y13770173D1*
X1251857Y13790540D1*
X1275417Y13809113D1*
X1300363Y13825780D1*
X1326537Y13840440D1*
X1353783Y13853000D1*
X1381930Y13863383D1*
X1410803Y13871527D1*
X1440230Y13877380D1*
X1470023Y13880907D1*
X1500000Y13882083D1*
X1529977Y13880907D1*
X1559770Y13877380D1*
X1589197Y13871527D1*
X1618070Y13863383D1*
X1646217Y13853000D1*
X1673463Y13840440D1*
X1699637Y13825780D1*
X1724583Y13809113D1*
X1748143Y13790540D1*
X1770173Y13770173D1*
X1790540Y13748143D1*
X1809113Y13724583D1*
X1825780Y13699637D1*
X1840440Y13673463D1*
X1853000Y13646217D1*
X1863383Y13618070D1*
X1871527Y13589197D1*
X1877380Y13559770D1*
X1880907Y13529977D1*
X1882083Y13500000D1*
X1880907Y13470023D1*
X2697250Y1638137D2*
X2694300Y1613230D1*
X2689407Y1588630D1*
X2682600Y1564490D1*
X2673917Y1540957D1*
X2663417Y1518180D1*
X2651163Y1496297D1*
X2637227Y1475443D1*
X2621700Y1455743D1*
X2604673Y1437327D1*
X2586257Y1420300D1*
X2566557Y1404773D1*
X2545703Y1390837D1*
X2523820Y1378583D1*
X2501043Y1368083D1*
X2477510Y1359400D1*
X2453370Y1352593D1*
X2428770Y1347700D1*
X2403863Y1344750D1*
X2378800Y1343767D1*
X2353737Y1344750D1*
X2328830Y1347700D1*
X2304230Y1352593D1*
X2280090Y1359400D1*
X2256557Y1368083D1*
X2233780Y1378583D1*
X2211897Y1390837D1*
X2191043Y1404773D1*
X2171343Y1420300D1*
X2152927Y1437327D1*
X2135900Y1455743D1*
X2120373Y1475443D1*
X2106437Y1496297D1*
X2094183Y1518180D1*
X2083683Y1540957D1*
X2075000Y1564490D1*
X2068193Y1588630D1*
X2063300Y1613230D1*
X2060350Y1638137D1*
X2059367Y1663200D1*
X2060350Y1688263D1*
X2063300Y1713170D1*
X2068193Y1737770D1*
X2075000Y1761910D1*
X2083683Y1785443D1*
X2094183Y1808220D1*
X2106437Y1830103D1*
X2120373Y1850957D1*
X2135900Y1870657D1*
X2152927Y1889073D1*
X2171343Y1906100D1*
X2191043Y1921627D1*
X2211897Y1935563D1*
X2233780Y1947817D1*
X2256557Y1958317D1*
X2280090Y1967000D1*
X2304230Y1973807D1*
X2328830Y1978700D1*
X2353737Y1981650D1*
X2378800Y1982633D1*
X2403863Y1981650D1*
X2428770Y1978700D1*
X2453370Y1973807D1*
X2477510Y1967000D1*
X2501043Y1958317D1*
X2523820Y1947817D1*
X2545703Y1935563D1*
X2566557Y1921627D1*
X2586257Y1906100D1*
X2604673Y1889073D1*
X2621700Y1870657D1*
X2637227Y1850957D1*
X2651163Y1830103D1*
X2663417Y1808220D1*
X2673917Y1785443D1*
X2682600Y1761910D1*
X2689407Y1737770D1*
X2694300Y1713170D1*
X2697250Y1688263D1*
X2698233Y1663200D1*
X2697250Y1638137D1*
X8380907Y1470023D2*
X8377380Y1440230D1*
X8371527Y1410803D1*
X8363383Y1381930D1*
X8353000Y1353783D1*
X8340440Y1326537D1*
X8325780Y1300363D1*
X8309113Y1275417D1*
X8290540Y1251857D1*
X8270173Y1229827D1*
X8248143Y1209460D1*
X8224583Y1190887D1*
X8199637Y1174220D1*
X8173463Y1159560D1*
X8146217Y1147000D1*
X8118070Y1136617D1*
X8089197Y1128473D1*
X8059770Y1122620D1*
X8029977Y1119093D1*
X8000000Y1117917D1*
X7970023Y1119093D1*
X7940230Y1122620D1*
X7910803Y1128473D1*
X7881930Y1136617D1*
X7853783Y1147000D1*
X7826537Y1159560D1*
X7800363Y1174220D1*
X7775417Y1190887D1*
X7751857Y1209460D1*
X7729827Y1229827D1*
X7709460Y1251857D1*
X7690887Y1275417D1*
X7674220Y1300363D1*
X7659560Y1326537D1*
X7647000Y1353783D1*
X7636617Y1381930D1*
X7628473Y1410803D1*
X7622620Y1440230D1*
X7619093Y1470023D1*
X7617917Y1500000D1*
X7619093Y1529977D1*
X7622620Y1559770D1*
X7628473Y1589197D1*
X7636617Y1618070D1*
X7647000Y1646217D1*
X7659560Y1673463D1*
X7674220Y1699637D1*
X7690887Y1724583D1*
X7709460Y1748143D1*
X7729827Y1770173D1*
X7751857Y1790540D1*
X7775417Y1809113D1*
X7800363Y1825780D1*
X7826537Y1840440D1*
X7853783Y1853000D1*
X7881930Y1863383D1*
X7910803Y1871527D1*
X7940230Y1877380D1*
X7970023Y1880907D1*
X8000000Y1882083D1*
X8029977Y1880907D1*
X8059770Y1877380D1*
X8089197Y1871527D1*
X8118070Y1863383D1*
X8146217Y1853000D1*
X8173463Y1840440D1*
X8199637Y1825780D1*
X8224583Y1809113D1*
X8248143Y1790540D1*
X8270173Y1770173D1*
X8290540Y1748143D1*
X8309113Y1724583D1*
X8325780Y1699637D1*
X8340440Y1673463D1*
X8353000Y1646217D1*
X8363383Y1618070D1*
X8371527Y1589197D1*
X8377380Y1559770D1*
X8380907Y1529977D1*
X8382083Y1500000D1*
X8380907Y1470023D1*
X1880907D2*
X1877380Y1440230D1*
X1871527Y1410803D1*
X1863383Y1381930D1*
X1853000Y1353783D1*
X1840440Y1326537D1*
X1825780Y1300363D1*
X1809113Y1275417D1*
X1790540Y1251857D1*
X1770173Y1229827D1*
X1748143Y1209460D1*
X1724583Y1190887D1*
X1699637Y1174220D1*
X1673463Y1159560D1*
X1646217Y1147000D1*
X1618070Y1136617D1*
X1589197Y1128473D1*
X1559770Y1122620D1*
X1529977Y1119093D1*
X1500000Y1117917D1*
X1470023Y1119093D1*
X1440230Y1122620D1*
X1410803Y1128473D1*
X1381930Y1136617D1*
X1353783Y1147000D1*
X1326537Y1159560D1*
X1300363Y1174220D1*
X1275417Y1190887D1*
X1251857Y1209460D1*
X1229827Y1229827D1*
X1209460Y1251857D1*
X1190887Y1275417D1*
X1174220Y1300363D1*
X1159560Y1326537D1*
X1147000Y1353783D1*
X1136617Y1381930D1*
X1128473Y1410803D1*
X1122620Y1440230D1*
X1119093Y1470023D1*
X1117917Y1500000D1*
X1119093Y1529977D1*
X1122620Y1559770D1*
X1128473Y1589197D1*
X1136617Y1618070D1*
X1147000Y1646217D1*
X1159560Y1673463D1*
X1174220Y1699637D1*
X1190887Y1724583D1*
X1209460Y1748143D1*
X1229827Y1770173D1*
X1251857Y1790540D1*
X1275417Y1809113D1*
X1300363Y1825780D1*
X1326537Y1840440D1*
X1353783Y1853000D1*
X1381930Y1863383D1*
X1410803Y1871527D1*
X1440230Y1877380D1*
X1470023Y1880907D1*
X1500000Y1882083D1*
X1529977Y1880907D1*
X1559770Y1877380D1*
X1589197Y1871527D1*
X1618070Y1863383D1*
X1646217Y1853000D1*
X1673463Y1840440D1*
X1699637Y1825780D1*
X1724583Y1809113D1*
X1748143Y1790540D1*
X1770173Y1770173D1*
X1790540Y1748143D1*
X1809113Y1724583D1*
X1825780Y1699637D1*
X1840440Y1673463D1*
X1853000Y1646217D1*
X1863383Y1618070D1*
X1871527Y1589197D1*
X1877380Y1559770D1*
X1880907Y1529977D1*
X1882083Y1500000D1*
X1880907Y1470023D1*
X5839213Y13503740D2*
X5836610Y13481747D1*
X5832290Y13460023D1*
X5826277Y13438703D1*
X5818610Y13417923D1*
X5809337Y13397810D1*
X5798517Y13378487D1*
X5786210Y13360070D1*
X5772497Y13342673D1*
X5757463Y13326410D1*
X5741200Y13311377D1*
X5723803Y13297663D1*
X5705387Y13285357D1*
X5686063Y13274537D1*
X5665950Y13265263D1*
X5645170Y13257597D1*
X5623850Y13251583D1*
X5602127Y13247263D1*
X5580133Y13244660D1*
X5558000Y13243790D1*
X5535867Y13244660D1*
X5513873Y13247263D1*
X5492150Y13251583D1*
X5470830Y13257597D1*
X5450050Y13265263D1*
X5429937Y13274537D1*
X5410613Y13285357D1*
X5392197Y13297663D1*
X5374800Y13311377D1*
X5358537Y13326410D1*
X5343503Y13342673D1*
X5329790Y13360070D1*
X5317483Y13378487D1*
X5306663Y13397810D1*
X5297390Y13417923D1*
X5289723Y13438703D1*
X5283710Y13460023D1*
X5279390Y13481747D1*
X5276787Y13503740D1*
X5275917Y13525873D1*
X5276787Y13548007D1*
X5279390Y13570000D1*
X5283710Y13591723D1*
X5289723Y13613043D1*
X5297390Y13633823D1*
X5306663Y13653937D1*
X5317483Y13673260D1*
X5329790Y13691677D1*
X5343503Y13709073D1*
X5358537Y13725337D1*
X5374800Y13740370D1*
X5392197Y13754083D1*
X5410613Y13766390D1*
X5429937Y13777210D1*
X5450050Y13786483D1*
X5470830Y13794150D1*
X5492150Y13800163D1*
X5513873Y13804483D1*
X5535867Y13807087D1*
X5558000Y13807957D1*
X5580133Y13807087D1*
X5602127Y13804483D1*
X5623850Y13800163D1*
X5645170Y13794150D1*
X5665950Y13786483D1*
X5686063Y13777210D1*
X5705387Y13766390D1*
X5723803Y13754083D1*
X5741200Y13740370D1*
X5757463Y13725337D1*
X5772497Y13709073D1*
X5786210Y13691677D1*
X5798517Y13673260D1*
X5809337Y13653937D1*
X5818610Y13633823D1*
X5826277Y13613043D1*
X5832290Y13591723D1*
X5836610Y13570000D1*
X5839213Y13548007D1*
X5840083Y13525873D1*
X5839213Y13503740D1*
X6879213D2*
X6876610Y13481747D1*
X6872290Y13460023D1*
X6866277Y13438703D1*
X6858610Y13417923D1*
X6849337Y13397810D1*
X6838517Y13378487D1*
X6826210Y13360070D1*
X6812497Y13342673D1*
X6797463Y13326410D1*
X6781200Y13311377D1*
X6763803Y13297663D1*
X6745387Y13285357D1*
X6726063Y13274537D1*
X6705950Y13265263D1*
X6685170Y13257597D1*
X6663850Y13251583D1*
X6642127Y13247263D1*
X6620133Y13244660D1*
X6598000Y13243790D1*
X6575867Y13244660D1*
X6553873Y13247263D1*
X6532150Y13251583D1*
X6510830Y13257597D1*
X6490050Y13265263D1*
X6469937Y13274537D1*
X6450613Y13285357D1*
X6432197Y13297663D1*
X6414800Y13311377D1*
X6398537Y13326410D1*
X6383503Y13342673D1*
X6369790Y13360070D1*
X6357483Y13378487D1*
X6346663Y13397810D1*
X6337390Y13417923D1*
X6329723Y13438703D1*
X6323710Y13460023D1*
X6319390Y13481747D1*
X6316787Y13503740D1*
X6315917Y13525873D1*
X6316787Y13548007D1*
X6319390Y13570000D1*
X6323710Y13591723D1*
X6329723Y13613043D1*
X6337390Y13633823D1*
X6346663Y13653937D1*
X6357483Y13673260D1*
X6369790Y13691677D1*
X6383503Y13709073D1*
X6398537Y13725337D1*
X6414800Y13740370D1*
X6432197Y13754083D1*
X6450613Y13766390D1*
X6469937Y13777210D1*
X6490050Y13786483D1*
X6510830Y13794150D1*
X6532150Y13800163D1*
X6553873Y13804483D1*
X6575867Y13807087D1*
X6598000Y13807957D1*
X6620133Y13807087D1*
X6642127Y13804483D1*
X6663850Y13800163D1*
X6685170Y13794150D1*
X6705950Y13786483D1*
X6726063Y13777210D1*
X6745387Y13766390D1*
X6763803Y13754083D1*
X6781200Y13740370D1*
X6797463Y13725337D1*
X6812497Y13709073D1*
X6826210Y13691677D1*
X6838517Y13673260D1*
X6849337Y13653937D1*
X6858610Y13633823D1*
X6866277Y13613043D1*
X6872290Y13591723D1*
X6876610Y13570000D1*
X6879213Y13548007D1*
X6880083Y13525873D1*
X6879213Y13503740D1*
X5241683Y12730393D2*
X5236840Y12699817D1*
X5235837Y12696263D1*
X5266573Y12706077D1*
X5300717Y12711483D1*
X5335283D1*
X5369427Y12706077D1*
X5402300Y12695393D1*
X5433100Y12679700D1*
X5461067Y12659383D1*
X5485510Y12634940D1*
X5505827Y12606973D1*
X5521520Y12576173D1*
X5532203Y12543300D1*
X5537610Y12509157D1*
Y12474590D1*
X5532203Y12440447D1*
X5521520Y12407573D1*
X5505827Y12376773D1*
X5485510Y12348807D1*
X5461067Y12324363D1*
X5433100Y12304047D1*
X5402300Y12288353D1*
X5369427Y12277670D1*
X5335283Y12272263D1*
X5300717D1*
X5266573Y12277670D1*
X5233700Y12288353D1*
X5202900Y12304047D1*
X5174933Y12324363D1*
X5150490Y12348807D1*
X5130173Y12376773D1*
X5114480Y12407573D1*
X5103797Y12440447D1*
X5098390Y12474590D1*
Y12509157D1*
X5103797Y12543300D1*
X5108217Y12558970D1*
X5075863Y12551013D1*
X5045000Y12548583D1*
X5014137Y12551013D1*
X4984033Y12558240D1*
X4955433Y12570087D1*
X4929037Y12586263D1*
X4905493Y12606367D1*
X4885390Y12629910D1*
X4869213Y12656307D1*
X4857367Y12684907D1*
X4850140Y12715010D1*
X4847710Y12745873D1*
X4850140Y12776737D1*
X4857367Y12806840D1*
X4869213Y12835440D1*
X4885390Y12861837D1*
X4905493Y12885380D1*
X4929037Y12905483D1*
X4955433Y12921660D1*
X4984033Y12933507D1*
X5014137Y12940733D1*
X5045000Y12943163D1*
X5075863Y12940733D1*
X5105967Y12933507D1*
X5134567Y12921660D1*
X5160963Y12905483D1*
X5184507Y12885380D1*
X5204610Y12861837D1*
X5220787Y12835440D1*
X5232633Y12806840D1*
X5239860Y12776737D1*
X5242290Y12745873D1*
X5241683Y12730393D1*
X1615610Y11769717D2*
X1610203Y11735573D1*
X1599520Y11702700D1*
X1583827Y11671900D1*
X1563510Y11643933D1*
X1539067Y11619490D1*
X1511100Y11599173D1*
X1480300Y11583480D1*
X1447427Y11572797D1*
X1413283Y11567390D1*
X1378717D1*
X1344573Y11572797D1*
X1311700Y11583480D1*
X1280900Y11599173D1*
X1252933Y11619490D1*
X1228490Y11643933D1*
X1208173Y11671900D1*
X1192480Y11702700D1*
X1181797Y11735573D1*
X1176390Y11769717D1*
Y11804283D1*
X1181797Y11838427D1*
X1192480Y11871300D1*
X1208173Y11902100D1*
X1228490Y11930067D1*
X1252933Y11954510D1*
X1280900Y11974827D1*
X1311700Y11990520D1*
X1344573Y12001203D1*
X1378717Y12006610D1*
X1413283D1*
X1447427Y12001203D1*
X1480300Y11990520D1*
X1511100Y11974827D1*
X1539067Y11954510D1*
X1563510Y11930067D1*
X1583827Y11902100D1*
X1599520Y11871300D1*
X1610203Y11838427D1*
X1615610Y11804283D1*
Y11769717D1*
X1616200Y11272650D2*
X1614007Y11247360D1*
X1608917Y11222490D1*
X1601003Y11198370D1*
X1590367Y11175320D1*
X1577147Y11153647D1*
X1561523Y11133637D1*
X1543700Y11115560D1*
X1523917Y11099653D1*
X1502433Y11086127D1*
X1479537Y11075163D1*
X1455530Y11066907D1*
X1430737Y11061467D1*
X1405477Y11058913D1*
X1380093Y11059283D1*
X1354923Y11062573D1*
X1330297Y11068737D1*
X1306543Y11077693D1*
X1283977Y11089320D1*
X1262897Y11103467D1*
X1243587Y11119947D1*
X1226300Y11138537D1*
X1211267Y11158993D1*
X1198687Y11181043D1*
X1188727Y11204393D1*
X1181520Y11228737D1*
X1177163Y11253743D1*
X1175710Y11279090D1*
X1177183Y11304433D1*
X1181563Y11329437D1*
X1188787Y11353773D1*
X1198767Y11377117D1*
X1211363Y11399157D1*
X1226413Y11419600D1*
X1243717Y11438177D1*
X1263040Y11454640D1*
X1284130Y11468770D1*
X1306703Y11480380D1*
X1330467Y11489317D1*
X1355097Y11495460D1*
X1380270Y11498727D1*
X1405653Y11499077D1*
X1430910Y11496507D1*
X1455703Y11491047D1*
X1479700Y11482770D1*
X1502587Y11471787D1*
X1524060Y11458243D1*
X1543830Y11442320D1*
X1561640Y11424230D1*
X1577247Y11404207D1*
X1590450Y11382523D1*
X1601067Y11359467D1*
X1608963Y11335340D1*
X1614030Y11310463D1*
X1616203Y11285173D1*
X1616200Y11272650D1*
X6046200Y12485523D2*
X6044007Y12460233D1*
X6038917Y12435363D1*
X6031003Y12411243D1*
X6020367Y12388193D1*
X6007147Y12366520D1*
X5991523Y12346510D1*
X5973700Y12328433D1*
X5953917Y12312527D1*
X5932433Y12299000D1*
X5909537Y12288037D1*
X5885530Y12279780D1*
X5860737Y12274340D1*
X5835477Y12271787D1*
X5810093Y12272157D1*
X5784923Y12275447D1*
X5760297Y12281610D1*
X5736543Y12290567D1*
X5713977Y12302193D1*
X5692897Y12316340D1*
X5673587Y12332820D1*
X5656300Y12351410D1*
X5641267Y12371867D1*
X5628687Y12393917D1*
X5618727Y12417267D1*
X5611520Y12441610D1*
X5607163Y12466617D1*
X5605710Y12491963D1*
X5607183Y12517307D1*
X5611563Y12542310D1*
X5618787Y12566647D1*
X5628767Y12589990D1*
X5641363Y12612030D1*
X5656413Y12632473D1*
X5673717Y12651050D1*
X5693040Y12667513D1*
X5714130Y12681643D1*
X5736703Y12693253D1*
X5760467Y12702190D1*
X5785097Y12708333D1*
X5810270Y12711600D1*
X5835653Y12711950D1*
X5860910Y12709380D1*
X5885703Y12703920D1*
X5909700Y12695643D1*
X5932587Y12684660D1*
X5954060Y12671117D1*
X5973830Y12655193D1*
X5991640Y12637103D1*
X6007247Y12617080D1*
X6020450Y12595397D1*
X6031067Y12572340D1*
X6038963Y12548213D1*
X6044030Y12523337D1*
X6046203Y12498047D1*
X6046200Y12485523D1*
X6554200D2*
X6552007Y12460233D1*
X6546917Y12435363D1*
X6539003Y12411243D1*
X6528367Y12388193D1*
X6515147Y12366520D1*
X6499523Y12346510D1*
X6481700Y12328433D1*
X6461917Y12312527D1*
X6440433Y12299000D1*
X6417537Y12288037D1*
X6393530Y12279780D1*
X6368737Y12274340D1*
X6343477Y12271787D1*
X6318093Y12272157D1*
X6292923Y12275447D1*
X6268297Y12281610D1*
X6244543Y12290567D1*
X6221977Y12302193D1*
X6200897Y12316340D1*
X6181587Y12332820D1*
X6164300Y12351410D1*
X6149267Y12371867D1*
X6136687Y12393917D1*
X6126727Y12417267D1*
X6119520Y12441610D1*
X6115163Y12466617D1*
X6113710Y12491963D1*
X6115183Y12517307D1*
X6119563Y12542310D1*
X6126787Y12566647D1*
X6136767Y12589990D1*
X6149363Y12612030D1*
X6164413Y12632473D1*
X6181717Y12651050D1*
X6201040Y12667513D1*
X6222130Y12681643D1*
X6244703Y12693253D1*
X6268467Y12702190D1*
X6293097Y12708333D1*
X6318270Y12711600D1*
X6343653Y12711950D1*
X6368910Y12709380D1*
X6393703Y12703920D1*
X6417700Y12695643D1*
X6440587Y12684660D1*
X6462060Y12671117D1*
X6481830Y12655193D1*
X6499640Y12637103D1*
X6515247Y12617080D1*
X6528450Y12595397D1*
X6539067Y12572340D1*
X6546963Y12548213D1*
X6552030Y12523337D1*
X6554203Y12498047D1*
X6554200Y12485523D1*
X2923150Y11407653D2*
X2921077Y11388730D1*
X2916543Y11370240D1*
X2909633Y11352503D1*
X2900463Y11335820D1*
X2889190Y11320480D1*
X2876010Y11306747D1*
X2861147Y11294853D1*
X2844853Y11285003D1*
X2827417Y11277370D1*
X2809127Y11272083D1*
X2790307Y11269233D1*
X2771273Y11268867D1*
X2752357Y11270990D1*
X2733880Y11275570D1*
X2716160Y11282527D1*
X2699500Y11291740D1*
X2684190Y11303053D1*
X2670490Y11316270D1*
X2658637Y11331167D1*
X2648830Y11347483D1*
X2641243Y11364940D1*
X2636003Y11383243D1*
X2633200Y11402070D1*
X2632883Y11421107D1*
X2635060Y11440017D1*
X2639687Y11458483D1*
X2646690Y11476183D1*
X2655947Y11492817D1*
X2667300Y11508100D1*
X2680553Y11521763D1*
X2695477Y11533580D1*
X2711820Y11543343D1*
X2729300Y11550883D1*
X2747613Y11556077D1*
X2766450Y11558830D1*
X2785483Y11559097D1*
X2804390Y11556873D1*
X2822843Y11552197D1*
X2840527Y11545147D1*
X2857137Y11535847D1*
X2872387Y11524453D1*
X2886017Y11511167D1*
X2897793Y11496210D1*
X2907513Y11479843D1*
X2915010Y11462343D1*
X2920157Y11444017D1*
X2922860Y11425173D1*
X2923150Y11407653D1*
X1615610Y12277717D2*
X1610203Y12243573D1*
X1599520Y12210700D1*
X1583827Y12179900D1*
X1563510Y12151933D1*
X1539067Y12127490D1*
X1511100Y12107173D1*
X1480300Y12091480D1*
X1447427Y12080797D1*
X1413283Y12075390D1*
X1378717D1*
X1344573Y12080797D1*
X1311700Y12091480D1*
X1280900Y12107173D1*
X1252933Y12127490D1*
X1228490Y12151933D1*
X1208173Y12179900D1*
X1192480Y12210700D1*
X1181797Y12243573D1*
X1176390Y12277717D1*
Y12312283D1*
X1181797Y12346427D1*
X1192480Y12379300D1*
X1208173Y12410100D1*
X1228490Y12438067D1*
X1252933Y12462510D1*
X1280900Y12482827D1*
X1311700Y12498520D1*
X1344573Y12509203D1*
X1378717Y12514610D1*
X1413283D1*
X1447427Y12509203D1*
X1480300Y12498520D1*
X1511100Y12482827D1*
X1539067Y12462510D1*
X1563510Y12438067D1*
X1583827Y12410100D1*
X1599520Y12379300D1*
X1610203Y12346427D1*
X1615610Y12312283D1*
Y12277717D1*
X4553843Y5636890D2*
Y5753720D1*
X4104873Y5753710D1*
X3765483Y5414243D1*
X3911427Y5413917D1*
X3929937Y5410233D1*
X3947077Y5402333D1*
X3961900Y5390647D1*
X3997040Y5355157D1*
X4007527Y5339463D1*
X4014060Y5321757D1*
X4016277Y5303013D1*
Y5292967D1*
X4029360Y5306077D1*
X4044730Y5317247D1*
X4061660Y5325873D1*
X4079733Y5331743D1*
X4098500Y5334717D1*
X4117500D1*
X4136267Y5331743D1*
X4154340Y5325873D1*
X4171270Y5317247D1*
X4186640Y5306077D1*
X4190323Y5302673D1*
X4190550Y5340630D1*
X4194233Y5359140D1*
X4202133Y5376280D1*
X4213820Y5391103D1*
X4440723Y5617657D1*
X4456417Y5628143D1*
X4474123Y5634677D1*
X4492867Y5636893D1*
X4553763D1*
X3691703Y12970150D2*
X3689650Y12944847D1*
X3684883Y12919910D1*
X3677457Y12895633D1*
X3667457Y12872297D1*
X3655003Y12850173D1*
X3640237Y12829523D1*
X3623330Y12810583D1*
X3604483Y12793573D1*
X3583913Y12778693D1*
X3561860Y12766117D1*
X3538580Y12755990D1*
X3514343Y12748430D1*
X3489433Y12743527D1*
X3464140Y12741333D1*
X3438760Y12741880D1*
X3413583Y12745157D1*
X3388910Y12751127D1*
X3365020Y12759723D1*
X3342197Y12770840D1*
X3320703Y12784353D1*
X3300790Y12800103D1*
X3282693Y12817907D1*
X3266617Y12837553D1*
X3252753Y12858823D1*
X3241260Y12881460D1*
X3232273Y12905203D1*
X3225897Y12929777D1*
X3222203Y12954897D1*
X3221240Y12980263D1*
X3223017Y13005590D1*
X3227510Y13030577D1*
X3234667Y13054933D1*
X3244410Y13078377D1*
X3256620Y13100637D1*
X3271160Y13121450D1*
X3287857Y13140573D1*
X3306513Y13157790D1*
X3326920Y13172893D1*
X3348833Y13185713D1*
X3372003Y13196093D1*
X3396153Y13203920D1*
X3421007Y13209097D1*
X3446277Y13211567D1*
X3471660Y13211300D1*
X3496870Y13208300D1*
X3521610Y13202600D1*
X3545593Y13194270D1*
X3568537Y13183403D1*
X3590177Y13170127D1*
X3610260Y13154597D1*
X3628553Y13136993D1*
X3644847Y13117523D1*
X3658943Y13096410D1*
X3670683Y13073900D1*
X3679930Y13050257D1*
X3686577Y13025753D1*
X3690543Y13000677D1*
X3691703Y12970150D1*
X2487703D2*
X2485650Y12944847D1*
X2480883Y12919910D1*
X2473457Y12895633D1*
X2463457Y12872297D1*
X2451003Y12850173D1*
X2436237Y12829523D1*
X2419330Y12810583D1*
X2400483Y12793573D1*
X2379913Y12778693D1*
X2357860Y12766117D1*
X2334580Y12755990D1*
X2310343Y12748430D1*
X2285433Y12743527D1*
X2260140Y12741333D1*
X2234760Y12741880D1*
X2209583Y12745157D1*
X2184910Y12751127D1*
X2161020Y12759723D1*
X2138197Y12770840D1*
X2116703Y12784353D1*
X2096790Y12800103D1*
X2078693Y12817907D1*
X2062617Y12837553D1*
X2048753Y12858823D1*
X2037260Y12881460D1*
X2028273Y12905203D1*
X2021897Y12929777D1*
X2018203Y12954897D1*
X2017240Y12980263D1*
X2019017Y13005590D1*
X2023510Y13030577D1*
X2030667Y13054933D1*
X2040410Y13078377D1*
X2052620Y13100637D1*
X2067160Y13121450D1*
X2083857Y13140573D1*
X2102513Y13157790D1*
X2122920Y13172893D1*
X2144833Y13185713D1*
X2168003Y13196093D1*
X2192153Y13203920D1*
X2217007Y13209097D1*
X2242277Y13211567D1*
X2267660Y13211300D1*
X2292870Y13208300D1*
X2317610Y13202600D1*
X2341593Y13194270D1*
X2364537Y13183403D1*
X2386177Y13170127D1*
X2406260Y13154597D1*
X2424553Y13136993D1*
X2440847Y13117523D1*
X2454943Y13096410D1*
X2466683Y13073900D1*
X2475930Y13050257D1*
X2482577Y13025753D1*
X2486543Y13000677D1*
X2487703Y12970150D1*
X8402127Y13902250D2*
X1097640D1*
X1097750Y1097697D1*
X8402360Y1097750D1*
X8402250Y13902303D1*
X3708000Y8187167D2*
D18*
Y7946833D1*
X3478000Y8187167D2*
Y7946833D1*
X2651000Y10539040D2*
Y10413873D1*
X2771167D1*
X1968000Y10854167D2*
Y10573833D1*
X1762833Y10714000D2*
X2173167D1*
X4688000Y9510690D2*
Y9415523D1*
X3428000Y4436940D2*
Y4266773D1*
Y4436940D2*
X3528167D1*
X2920000Y5147107D2*
Y4806773D1*
X3935987Y6389863D2*
Y6219697D1*
Y6389863D2*
X4036153D1*
X3173987Y7100030D2*
Y6929863D1*
X5206000Y6389500D2*
Y6219333D1*
Y6389500D2*
X5306167D1*
X5079000Y7099667D2*
Y6929500D1*
X4444000Y7099667D2*
Y6929500D1*
X4570987Y4607403D2*
Y4267070D1*
Y4437237D2*
X4671153D1*
X6920500Y4607107D2*
Y4436940D1*
X7020667D1*
X6412500Y4976940D2*
Y4806773D1*
X5714000Y4607043D2*
Y4436877D1*
X2539000Y4115167D2*
Y3774833D1*
X2438833Y3945000D2*
X2539000D1*
X6031500Y4114917D2*
Y3774583D1*
X5931333Y3944750D2*
X6031500D1*
X5580000Y9351000D2*
Y9250833D1*
X5409833Y9351000D2*
X5580000D1*
X1777000Y6691190D2*
Y6546023D1*
Y7453190D2*
Y7308023D1*
X1631833Y7453190D2*
X1777000D1*
X1396000Y11499167D2*
Y11058833D1*
X1175833Y11279000D2*
X1616167D1*
X5826000Y12712040D2*
Y12271707D1*
X5605833Y12491873D2*
X6046167D1*
X6334000Y12712040D2*
Y12271707D1*
X6113833Y12491873D2*
X6554167D1*
X2778000Y11559167D2*
Y11268833D1*
X2632833Y11414000D2*
X2923167D1*
X1269270Y5436143D2*
Y5290977D1*
X1124103Y5436143D2*
X1414437D1*
X3937183Y3603773D2*
Y3486107D1*
X3839517Y3603773D2*
X3937183D1*
X4017183D2*
Y3486107D1*
X4097183Y3603773D2*
Y3486107D1*
X4177183Y3603773D2*
Y3486107D1*
Y3603773D2*
X4274850D1*
X4891633Y5716603D2*
X4989300D1*
X4553967D2*
X4651633D1*
X4971017Y7945867D2*
Y7828200D1*
X5068683D1*
X4891017Y7945867D2*
Y7828200D1*
X4811017Y7945867D2*
Y7828200D1*
X4731017Y7945867D2*
Y7828200D1*
X4633350D2*
X4731017D1*
X5794753Y11319833D2*
Y11222167D1*
Y11319833D2*
X5912420D1*
X5794753Y11399833D2*
X5912420D1*
X5254947Y3587897D2*
Y3470230D1*
X5157280Y3587897D2*
X5254947D1*
X5334947D2*
Y3470230D1*
X5414947Y3587897D2*
Y3470230D1*
X5494947Y3587897D2*
Y3470230D1*
Y3587897D2*
X5592613D1*
X4380097Y8786653D2*
Y8641487D1*
X1777000Y8215190D2*
Y8070023D1*
X1631833Y8215190D2*
X1777000D1*
X2729500Y12855667D2*
Y12705500D1*
X2579333D2*
X2729500D1*
X3456500Y13211667D2*
Y12741333D1*
X3221333Y12976500D2*
X3691667D1*
X2252500Y13211667D2*
Y12741333D1*
X2017333Y12976500D2*
X2487667D1*
D20*
X3699750Y8942250D3*
X3869750D3*
X3708000Y8067000D3*
X3878000D3*
X3308000D3*
X3478000D3*
D21*
X2651000Y10413873D3*
Y10243873D3*
D23*
X2408000Y10714000D3*
X1968000D3*
D25*
X3428000Y10310690D3*
Y10230690D3*
Y10150690D3*
Y10070690D3*
Y9990690D3*
Y9910690D3*
Y9830690D3*
Y9750690D3*
Y9670690D3*
Y9590690D3*
Y9510690D3*
D26*
X3658000Y9280690D3*
X3738000D3*
X3818000D3*
X3898000D3*
X3978000D3*
X4058000D3*
X4138000D3*
X4218000D3*
X4298000D3*
X4378000D3*
X4458000D3*
D25*
X4688000Y9510690D3*
Y9590690D3*
Y9670690D3*
Y9750690D3*
Y9830690D3*
Y9910690D3*
Y9990690D3*
Y10070690D3*
Y10150690D3*
Y10230690D3*
Y10310690D3*
D26*
X4458000Y10540690D3*
X4378000D3*
X4298000D3*
X4218000D3*
X4138000D3*
X4058000D3*
X3978000D3*
X3898000D3*
X3818000D3*
X3738000D3*
X3658000D3*
D27*
X2539000Y4436940D3*
X2666000D3*
X2793000D3*
X2920000D3*
X3047000D3*
X3174000D3*
X3301000D3*
X3428000D3*
Y4976940D3*
X3301000D3*
X3174000D3*
X3047000D3*
X2920000D3*
X2793000D3*
X2666000D3*
X2539000D3*
X3046987Y6389863D3*
X3173987D3*
X3300987D3*
X3427987D3*
X3554987D3*
X3681987D3*
X3808987D3*
X3935987D3*
Y6929863D3*
X3808987D3*
X3681987D3*
X3554987D3*
X3427987D3*
X3300987D3*
X3173987D3*
X3046987D3*
X4317000Y6389500D3*
X4444000D3*
X4571000D3*
X4698000D3*
X4825000D3*
X4952000D3*
X5079000D3*
X5206000D3*
Y6929500D3*
X5079000D3*
X4952000D3*
X4825000D3*
X4698000D3*
X4571000D3*
X4444000D3*
X4317000D3*
X3681987Y4437237D3*
X3808987D3*
X3935987D3*
X4062987D3*
X4189987D3*
X4316987D3*
X4443987D3*
X4570987D3*
Y4977237D3*
X4443987D3*
X4316987D3*
X4189987D3*
X4062987D3*
X3935987D3*
X3808987D3*
X3681987D3*
X6031500Y4436940D3*
X6158500D3*
X6285500D3*
X6412500D3*
X6539500D3*
X6666500D3*
X6793500D3*
X6920500D3*
Y4976940D3*
X6793500D3*
X6666500D3*
X6539500D3*
X6412500D3*
X6285500D3*
X6158500D3*
X6031500D3*
X4825000Y4436877D3*
X4952000D3*
X5079000D3*
X5206000D3*
X5333000D3*
X5460000D3*
X5587000D3*
X5714000D3*
Y4976877D3*
X5587000D3*
X5460000D3*
X5333000D3*
X5206000D3*
X5079000D3*
X4952000D3*
X4825000D3*
X3428000Y3945000D3*
X3301000D3*
X3174000D3*
X3047000D3*
X2920000D3*
X2793000D3*
X2666000D3*
X2539000D3*
Y3405000D3*
X2666000D3*
X2793000D3*
X2920000D3*
X3047000D3*
X3174000D3*
X3301000D3*
X3428000D3*
X6920500Y3944750D3*
X6793500D3*
X6666500D3*
X6539500D3*
X6412500D3*
X6285500D3*
X6158500D3*
X6031500D3*
Y3404750D3*
X6158500D3*
X6285500D3*
X6412500D3*
X6539500D3*
X6666500D3*
X6793500D3*
X6920500D3*
D28*
X5580000Y10240000D3*
Y10113000D3*
Y9986000D3*
Y9859000D3*
Y9732000D3*
Y9605000D3*
Y9478000D3*
Y9351000D3*
X6120000D3*
Y9478000D3*
Y9605000D3*
Y9732000D3*
Y9859000D3*
Y9986000D3*
Y10113000D3*
Y10240000D3*
D29*
X7563500Y11720500D3*
X7173500D3*
X7563500Y11240500D3*
X7173500D3*
D20*
X6618873Y11691750D3*
X6788873D3*
X6618873Y10993250D3*
X6788873D3*
X5015500Y11374250D3*
X5185500D3*
X5015500Y10707500D3*
X5185500D3*
X2332523Y9866203D3*
X2502523D3*
X2332523Y9596300D3*
X2502523D3*
D30*
X2285000Y6691190D3*
X2031000Y6945190D3*
X1777000D3*
D31*
X2285000D3*
D30*
X2031000Y6691190D3*
X1777000D3*
X2285000Y7453190D3*
X2031000Y7707190D3*
X1777000D3*
D31*
X2285000D3*
D30*
X2031000Y7453190D3*
X1777000D3*
D32*
X1396000Y11787000D3*
D33*
X3206857Y1520940D3*
D32*
X1396000Y11279000D3*
D33*
X3483723Y1520940D3*
D30*
X4698000Y7151500D3*
D33*
X3760590Y1520940D3*
D30*
X4698000Y7405500D3*
D33*
X4037423Y1520940D3*
D32*
X5318000Y12491873D3*
X5826000D3*
X6334000D3*
X6842000D3*
D30*
X4952000Y7151500D3*
D33*
X4314290Y1520940D3*
D30*
X4952000Y7405500D3*
D33*
X4591157Y1520940D3*
X4868023D3*
X5144890D3*
X5421723D3*
X5698590D3*
X5975457D3*
X6252323D3*
X6392023Y1805407D3*
X6115157D3*
D30*
X2778000Y11414000D3*
D33*
X5838290Y1805407D3*
D30*
X2270000Y11414000D3*
D34*
X3069690Y1805407D3*
D30*
X3667000Y11160000D3*
D33*
X3346557Y1805407D3*
X3623423D3*
X3900290D3*
X4177123D3*
D30*
X3921000Y11160000D3*
D33*
X4453990Y1805407D3*
D30*
X1269270Y5436143D3*
D33*
X4730857Y1805407D3*
D30*
X1269270Y5690143D3*
D33*
X5007723Y1805407D3*
D30*
X1269270Y5944143D3*
D33*
X5284590Y1805407D3*
D32*
X1396000Y12295000D3*
D33*
X5561423Y1805407D3*
D30*
X4175000Y11160000D3*
X4429000D3*
X4683000D3*
X3413000D3*
D36*
X3937183Y3603773D3*
X4017183D3*
X4097183D3*
X4177183D3*
Y3763773D3*
X4097183D3*
X4017183D3*
X3937183D3*
X4651633Y5556603D3*
X4731633D3*
X4811633D3*
X4891633D3*
Y5716603D3*
X4811633D3*
X4731633D3*
X4651633D3*
X4731017Y7668200D3*
X4811017D3*
X4891017D3*
X4971017D3*
Y7828200D3*
X4891017D3*
X4811017D3*
X4731017D3*
D20*
X6064123Y8921623D3*
X6234123D3*
X6064123Y9112123D3*
X6234123D3*
D38*
X5794753Y11319833D3*
Y11399833D3*
Y11479833D3*
Y11559833D3*
X5634753D3*
Y11479833D3*
Y11399833D3*
Y11319833D3*
D21*
X7366543Y4746893D3*
Y4916893D3*
X7525310Y4746893D3*
Y4916893D3*
D36*
X5254947Y3587897D3*
X5334947D3*
X5414947D3*
X5494947D3*
Y3747897D3*
X5414947D3*
X5334947D3*
X5254947D3*
D39*
X1793200Y9865707D3*
X1983200D3*
X1793200Y9595803D3*
X1983200D3*
D30*
X7301500Y9945500D3*
X7555500D3*
X7809500D3*
X8063500D3*
X7301500Y9437500D3*
X7555500D3*
X7809500D3*
X8063500D3*
X7301500Y8929500D3*
X7555500D3*
X7809500D3*
X8063500D3*
X4380097Y8786653D3*
X4634097D3*
X4888097D3*
X5142097D3*
X2285000Y8215190D3*
X2031000Y8469190D3*
X1777000D3*
D31*
X2285000D3*
D30*
X2031000Y8215190D3*
X1777000D3*
D41*
X3745500Y10151940D3*
Y10101940D3*
Y10051940D3*
Y10001940D3*
Y9951940D3*
Y9901940D3*
Y9851940D3*
Y9801940D3*
Y9751940D3*
Y9701940D3*
Y9651940D3*
D42*
X3845500Y9551940D3*
X3895500D3*
X3945500D3*
X3995500D3*
X4045500D3*
X4095500D3*
X4145500D3*
X4195500D3*
X4245500D3*
X4295500D3*
X4345500D3*
D41*
X4445500Y9651940D3*
Y9701940D3*
Y9751940D3*
Y9801940D3*
Y9851940D3*
Y9901940D3*
Y9951940D3*
Y10001940D3*
Y10051940D3*
Y10101940D3*
Y10151940D3*
D42*
X4345500Y10251940D3*
X4295500D3*
X4245500D3*
X4195500D3*
X4145500D3*
X4095500D3*
X4045500D3*
X3995500D3*
X3945500D3*
X3895500D3*
X3845500D3*
D43*
X4095500Y9901940D3*
D44*
X2729500Y12505500D3*
D45*
X2979500D3*
Y12705500D3*
X2729500D3*
D46*
X3456500Y12976500D3*
X2252500D3*
D47*
X3328000Y8554000D3*
X3810600D3*
M02*
