G04 DipTrace 3.0.0.1*
G04 keyboard.TopSilk.gbr*
%MOMM*%
G04 #@! TF.FileFunction,Legend,Top*
G04 #@! TF.Part,Single*
%ADD10C,0.25*%
%ADD14C,0.5*%
%ADD18C,0.33*%
%ADD19O,0.33677X0.35693*%
%ADD22C,0.59988*%
%ADD24O,0.39024X0.3888*%
%ADD35O,0.30022X0.30002*%
%ADD37O,0.30002X0.30022*%
%ADD40O,0.40035X0.39956*%
%ADD107C,0.19608*%
%ADD108C,0.27451*%
%FSLAX35Y35*%
G04*
G71*
G90*
G75*
G01*
G04 TopSilk*
%LPD*%
X1923019Y10449000D2*
D10*
Y10604025D1*
Y10449000D2*
X2367963D1*
X2452977Y10534012D2*
X2367963Y10449000D1*
X2452977Y10534012D2*
Y10604025D1*
X1923019Y10823975D2*
Y10979000D1*
X2367963D1*
X2452977Y10893988D2*
X2367963Y10979000D1*
X2452977Y10823975D2*
Y10893988D1*
D22*
X2518006Y10583991D3*
X3558032Y10410658D2*
D10*
X4557968D1*
Y9410722D1*
X3558032D1*
Y10410658D1*
D24*
X3446216Y10389634D3*
G36*
X3558032Y10410658D2*
Y10310722D1*
X3657968Y10410658D1*
X3558032D1*
G37*
X2483540Y4576922D2*
D10*
X3483460D1*
X2483540Y4836958D2*
X3483460D1*
Y4576922D2*
Y4836958D1*
X2483540Y4576922D2*
Y4656916D1*
Y4756964D2*
Y4836958D1*
Y4656916D2*
G03X2483540Y4756964I-28J50024D01*
G01*
X2991527Y6529845D2*
X3991447D1*
X2991527Y6789881D2*
X3991447D1*
Y6529845D2*
Y6789881D1*
X2991527Y6529845D2*
Y6609839D1*
Y6709887D2*
Y6789881D1*
Y6609839D2*
G03X2991527Y6709887I-28J50024D01*
G01*
X4261540Y6529482D2*
X5261460D1*
X4261540Y6789518D2*
X5261460D1*
Y6529482D2*
Y6789518D1*
X4261540Y6529482D2*
Y6609476D1*
Y6709524D2*
Y6789518D1*
Y6609476D2*
G03X4261540Y6709524I-28J50024D01*
G01*
X3626527Y4577219D2*
X4626447D1*
X3626527Y4837255D2*
X4626447D1*
Y4577219D2*
Y4837255D1*
X3626527Y4577219D2*
Y4657213D1*
Y4757261D2*
Y4837255D1*
Y4657213D2*
G03X3626527Y4757261I-28J50024D01*
G01*
X5976040Y4576922D2*
X6975960D1*
X5976040Y4836958D2*
X6975960D1*
Y4576922D2*
Y4836958D1*
X5976040Y4576922D2*
Y4656916D1*
Y4756964D2*
Y4836958D1*
Y4656916D2*
G03X5976040Y4756964I-28J50024D01*
G01*
X4769540Y4576859D2*
X5769460D1*
X4769540Y4836895D2*
X5769460D1*
Y4576859D2*
Y4836895D1*
X4769540Y4576859D2*
Y4656853D1*
Y4756901D2*
Y4836895D1*
Y4656853D2*
G03X4769540Y4756901I-28J50024D01*
G01*
X3483460Y3805018D2*
X2483540D1*
X3483460Y3544982D2*
X2483540D1*
Y3805018D2*
Y3544982D1*
X3483460Y3805018D2*
Y3725024D1*
Y3624976D2*
Y3544982D1*
Y3725024D2*
G03X3483460Y3624976I28J-50024D01*
G01*
X6975960Y3804768D2*
X5976040D1*
X6975960Y3544732D2*
X5976040D1*
Y3804768D2*
Y3544732D1*
X6975960Y3804768D2*
Y3724774D1*
Y3624726D2*
Y3544732D1*
Y3724774D2*
G03X6975960Y3624726I28J-50024D01*
G01*
X5719982Y10295460D2*
Y9295540D1*
X5980018Y10295460D2*
Y9295540D1*
X5719982D2*
X5980018D1*
X5719982Y10295460D2*
X5799976D1*
X5900024D2*
X5980018D1*
X5799976D2*
G03X5900024Y10295460I50024J28D01*
G01*
X7409622Y11880640D2*
Y11560360D1*
X7428704Y11880640D2*
Y11560360D1*
Y11880640D2*
X7308470Y11880504D1*
X7428704Y11560360D2*
X7308470Y11560496D1*
X7409622Y11400640D2*
Y11080360D1*
X7428704Y11400640D2*
Y11080360D1*
Y11400640D2*
X7308470Y11400504D1*
X7428704Y11080360D2*
X7308470Y11080496D1*
X2412000Y6945190D2*
D14*
Y6564190D1*
X1650000D1*
Y7072190D1*
X2284975D1*
X2412000Y7707190D2*
Y7326190D1*
X1650000D1*
Y7834190D1*
X2284975D1*
X3887183Y3601263D2*
D10*
Y3766286D1*
X4227183Y3601263D2*
Y3766286D1*
D35*
X3937180Y3531274D3*
X4601633Y5554093D2*
D10*
Y5719116D1*
X4941633Y5554093D2*
Y5719116D1*
D35*
X4651630Y5484104D3*
X4681017Y7665690D2*
D10*
Y7830712D1*
X5021017Y7665690D2*
Y7830712D1*
D35*
X4731014Y7595701D3*
X5797264Y11269833D2*
D10*
X5632241D1*
X5797264Y11609833D2*
X5632241D1*
D37*
X5867253Y11319830D3*
X5204947Y3585386D2*
D10*
Y3750409D1*
X5544947Y3585386D2*
Y3750409D1*
D35*
X5254944Y3515397D3*
X7174500Y10072500D2*
D14*
X8190500D1*
Y9818500D1*
X7174500D1*
Y10072500D1*
Y9564500D2*
X8190500D1*
Y9310500D1*
X7174500D1*
Y9564500D1*
Y9056500D2*
X8190500D1*
Y8802500D1*
X7174500D1*
Y9056500D1*
X4634097Y8500902D2*
Y8596164D1*
X4697597Y8532642D1*
X4634097Y8596164D2*
X4570597Y8532642D1*
X4888097Y8596164D2*
Y8500902D1*
X4824597Y8564383D1*
X4888097Y8500902D2*
X4951597Y8564383D1*
X4253097Y8913652D2*
X5269097D1*
Y8659645D1*
X4253097D1*
Y8913652D1*
X2412000Y8469190D2*
Y8088190D1*
X1650000D1*
Y8596190D1*
X2284975D1*
X4405485Y10251972D2*
D10*
X4445521D1*
Y10211937D1*
X4405485Y9551909D2*
X4445521D1*
Y9591944D2*
Y9551909D1*
X3745199D2*
X3785234D1*
X3745199Y9591944D2*
Y9551909D1*
D40*
X3665171Y10151923D3*
X3785234Y10251972D2*
D10*
X3745199Y10211937D1*
X3464572Y14006579D2*
X2244428D1*
X3464572D2*
Y13196559D1*
X2244428Y13186500D2*
Y14006579D1*
X3464572Y12756501D2*
Y12426458D1*
X3084447D1*
X2604458D2*
X2244428D1*
Y12766561D1*
X3264482Y8338100D2*
X3874118D1*
X3264482Y8769900D2*
X3874118D1*
X3264482Y8388880D2*
X3874118D1*
Y8719120D2*
X3264482D1*
X3543890Y8630213D2*
X3594710D1*
Y8477787D1*
X3543890D1*
Y8630213D1*
X3632825D2*
Y8554000D1*
Y8477787D1*
X3505775Y8630213D2*
Y8554000D1*
Y8477787D1*
X3632825Y8554000D2*
X3696351D1*
X3505775D2*
X3442249D1*
X3264482Y8769900D2*
G03X3264482Y8338100I18J-215900D01*
G01*
X3874118D2*
G03X3874118Y8769900I-18J215900D01*
G01*
X3264482Y8719120D2*
G03X3264482Y8388880I58J-165120D01*
G01*
X3874118D2*
G03X3874118Y8719120I-58J165120D01*
G01*
X5079000Y8548500D2*
D14*
X5206000D1*
X5142500Y8612000D2*
Y8485000D1*
X4317000Y8548500D2*
X4444000D1*
X1142000Y12549000D2*
X1650000D1*
Y11025000D1*
X1142000D1*
Y12549000D1*
X2522000Y8626250D2*
G02X2522000Y8626250I31750J0D01*
G01*
Y7864250D2*
G02X2522000Y7864250I31750J0D01*
G01*
Y7102250D2*
G02X2522000Y7102250I31750J0D01*
G01*
X1076510Y6141433D2*
X1457510D1*
Y5252433D1*
X1076510D1*
Y6141433D1*
X5222750Y13825373D2*
X6953127D1*
Y12714123D1*
X5222750D1*
Y13825373D1*
D19*
X6884322Y11784887D3*
Y11356260D3*
X5280945Y11483260D3*
Y10800637D3*
X2143000Y11541000D2*
D18*
X2905000D1*
Y11287000D1*
X2143000D1*
Y11541000D1*
X2058773Y1015473D2*
D10*
Y2310873D1*
X7402940D1*
X2058773Y1015473D2*
X7402940D1*
Y2310873D1*
X2031877Y11628312D2*
D18*
G02X2031877Y11628312I39687J0D01*
G01*
X3795465Y9147914D2*
D107*
X3789429Y9159987D1*
X3777215Y9172200D1*
X3765142Y9178237D1*
X3740856D1*
X3728642Y9172200D1*
X3716569Y9159987D1*
X3710392Y9147914D1*
X3704356Y9129664D1*
Y9099200D1*
X3710392Y9081090D1*
X3716569Y9068877D1*
X3728642Y9056804D1*
X3740856Y9050627D1*
X3765142D1*
X3777215Y9056804D1*
X3789429Y9068877D1*
X3795465Y9081090D1*
X3834681Y9153810D2*
X3846894Y9159987D1*
X3865144Y9178096D1*
Y9050627D1*
X3776410Y7812664D2*
X3770374Y7824737D1*
X3758160Y7836950D1*
X3746087Y7842987D1*
X3721801D1*
X3709587Y7836950D1*
X3697514Y7824737D1*
X3691337Y7812664D1*
X3685301Y7794414D1*
Y7763950D1*
X3691337Y7745840D1*
X3697514Y7733627D1*
X3709587Y7721554D1*
X3721801Y7715377D1*
X3746087D1*
X3758160Y7721554D1*
X3770374Y7733627D1*
X3776410Y7745840D1*
X3821803Y7812523D2*
Y7818560D1*
X3827840Y7830773D1*
X3833876Y7836810D1*
X3846090Y7842846D1*
X3870376D1*
X3882449Y7836810D1*
X3888486Y7830773D1*
X3894663Y7818560D1*
Y7806487D1*
X3888486Y7794273D1*
X3876413Y7776164D1*
X3815626Y7715377D1*
X3900699D1*
X3336410Y7812664D2*
X3330374Y7824737D1*
X3318160Y7836950D1*
X3306087Y7842987D1*
X3281801D1*
X3269587Y7836950D1*
X3257514Y7824737D1*
X3251337Y7812664D1*
X3245301Y7794414D1*
Y7763950D1*
X3251337Y7745840D1*
X3257514Y7733627D1*
X3269587Y7721554D1*
X3281801Y7715377D1*
X3306087D1*
X3318160Y7721554D1*
X3330374Y7733627D1*
X3336410Y7745840D1*
X3387840Y7842846D2*
X3454522D1*
X3418163Y7794273D1*
X3436413D1*
X3448486Y7788237D1*
X3454522Y7782200D1*
X3460699Y7763950D1*
Y7751877D1*
X3454522Y7733627D1*
X3442449Y7721414D1*
X3424199Y7715377D1*
X3405949D1*
X3387840Y7721414D1*
X3381803Y7727590D1*
X3375626Y7739664D1*
X2810463Y10309266D2*
X2798390Y10303229D1*
X2786177Y10291016D1*
X2780140Y10278943D1*
Y10254656D1*
X2786177Y10242443D1*
X2798390Y10230370D1*
X2810463Y10224193D1*
X2828713Y10218156D1*
X2859177D1*
X2877286Y10224193D1*
X2889500Y10230370D1*
X2901573Y10242443D1*
X2907750Y10254656D1*
Y10278943D1*
X2901573Y10291016D1*
X2889500Y10303229D1*
X2877286Y10309266D1*
X2907750Y10409268D2*
X2780281D1*
X2865213Y10348481D1*
Y10439591D1*
X2173910Y11134664D2*
X2167874Y11146737D1*
X2155660Y11158950D1*
X2143587Y11164987D1*
X2119301D1*
X2107087Y11158950D1*
X2095014Y11146737D1*
X2088837Y11134664D1*
X2082801Y11116414D1*
Y11085950D1*
X2088837Y11067840D1*
X2095014Y11055627D1*
X2107087Y11043554D1*
X2119301Y11037377D1*
X2143587D1*
X2155660Y11043554D1*
X2167874Y11055627D1*
X2173910Y11067840D1*
X2285986Y11164846D2*
X2225340D1*
X2219303Y11110237D1*
X2225340Y11116273D1*
X2243590Y11122450D1*
X2261699D1*
X2279949Y11116273D1*
X2292163Y11104200D1*
X2298199Y11085950D1*
Y11073877D1*
X2292163Y11055627D1*
X2279949Y11043414D1*
X2261699Y11037377D1*
X2243590D1*
X2225340Y11043414D1*
X2219303Y11049590D1*
X2213126Y11061664D1*
X3918480Y10816677D2*
Y10689067D1*
X3961016D1*
X3979266Y10695244D1*
X3991480Y10707317D1*
X3997516Y10719530D1*
X4003553Y10737640D1*
Y10768104D1*
X3997516Y10786354D1*
X3991480Y10798427D1*
X3979266Y10810640D1*
X3961016Y10816677D1*
X3918480D1*
X4042768D2*
Y10689067D1*
X4085305D1*
X4103555Y10695244D1*
X4115768Y10707317D1*
X4121805Y10719530D1*
X4127841Y10737640D1*
Y10768104D1*
X4121805Y10786354D1*
X4115768Y10798427D1*
X4103555Y10810640D1*
X4085305Y10816677D1*
X4042768D1*
X4167057Y10792250D2*
X4179270Y10798427D1*
X4197520Y10816536D1*
Y10689067D1*
X2816675Y5262927D2*
Y5135317D1*
X2859211D1*
X2877461Y5141494D1*
X2889675Y5153567D1*
X2895711Y5165780D1*
X2901748Y5183890D1*
Y5214354D1*
X2895711Y5232604D1*
X2889675Y5244677D1*
X2877461Y5256890D1*
X2859211Y5262927D1*
X2816675D1*
X2940963D2*
Y5135317D1*
X2983500D1*
X3001750Y5141494D1*
X3013963Y5153567D1*
X3020000Y5165780D1*
X3026037Y5183890D1*
Y5214354D1*
X3020000Y5232604D1*
X3013963Y5244677D1*
X3001750Y5256890D1*
X2983500Y5262927D1*
X2940963D1*
X3071429Y5232463D2*
Y5238500D1*
X3077466Y5250713D1*
X3083502Y5256750D1*
X3095716Y5262786D1*
X3120002D1*
X3132075Y5256750D1*
X3138112Y5250713D1*
X3144289Y5238500D1*
Y5226427D1*
X3138112Y5214213D1*
X3126039Y5196104D1*
X3065252Y5135317D1*
X3150325D1*
X2562661Y6771350D2*
Y6643740D1*
X2605198D1*
X2623448Y6649917D1*
X2635661Y6661990D1*
X2641698Y6674204D1*
X2647734Y6692313D1*
Y6722777D1*
X2641698Y6741027D1*
X2635661Y6753100D1*
X2623448Y6765313D1*
X2605198Y6771350D1*
X2562661D1*
X2686950D2*
Y6643740D1*
X2729487D1*
X2747737Y6649917D1*
X2759950Y6661990D1*
X2765987Y6674204D1*
X2772023Y6692313D1*
Y6722777D1*
X2765987Y6741027D1*
X2759950Y6753100D1*
X2747737Y6765313D1*
X2729487Y6771350D1*
X2686950D1*
X2823452Y6771210D2*
X2890135D1*
X2853775Y6722636D1*
X2872025D1*
X2884099Y6716600D1*
X2890135Y6710563D1*
X2896312Y6692313D1*
Y6680240D1*
X2890135Y6661990D1*
X2878062Y6649777D1*
X2859812Y6643740D1*
X2841562D1*
X2823452Y6649777D1*
X2817416Y6655954D1*
X2811239Y6668027D1*
X5353656Y6707487D2*
Y6579877D1*
X5396193D1*
X5414443Y6586054D1*
X5426656Y6598127D1*
X5432693Y6610340D1*
X5438730Y6628450D1*
Y6658914D1*
X5432693Y6677164D1*
X5426656Y6689237D1*
X5414443Y6701450D1*
X5396193Y6707487D1*
X5353656D1*
X5477945D2*
Y6579877D1*
X5520482D1*
X5538732Y6586054D1*
X5550945Y6598127D1*
X5556982Y6610340D1*
X5563018Y6628450D1*
Y6658914D1*
X5556982Y6677164D1*
X5550945Y6689237D1*
X5538732Y6701450D1*
X5520482Y6707487D1*
X5477945D1*
X5663020Y6579877D2*
Y6707346D1*
X5602234Y6622414D1*
X5693344D1*
X3630985Y5448173D2*
Y5320564D1*
X3673521D1*
X3691771Y5326741D1*
X3703985Y5338814D1*
X3710021Y5351027D1*
X3716058Y5369137D1*
Y5399600D1*
X3710021Y5417850D1*
X3703985Y5429923D1*
X3691771Y5442137D1*
X3673521Y5448173D1*
X3630985D1*
X3755273D2*
Y5320564D1*
X3797810D1*
X3816060Y5326741D1*
X3828273Y5338814D1*
X3834310Y5351027D1*
X3840347Y5369137D1*
Y5399600D1*
X3834310Y5417850D1*
X3828273Y5429923D1*
X3816060Y5442137D1*
X3797810Y5448173D1*
X3755273D1*
X3952422Y5448033D2*
X3891776D1*
X3885739Y5393423D1*
X3891776Y5399460D1*
X3910026Y5405637D1*
X3928135D1*
X3946385Y5399460D1*
X3958599Y5387387D1*
X3964635Y5369137D1*
Y5357064D1*
X3958599Y5338814D1*
X3946385Y5326600D1*
X3928135Y5320564D1*
X3910026D1*
X3891776Y5326600D1*
X3885739Y5332777D1*
X3879562Y5344850D1*
X6312263Y5262927D2*
Y5135317D1*
X6354800D1*
X6373050Y5141494D1*
X6385263Y5153567D1*
X6391300Y5165780D1*
X6397336Y5183890D1*
Y5214354D1*
X6391300Y5232604D1*
X6385263Y5244677D1*
X6373050Y5256890D1*
X6354800Y5262927D1*
X6312263D1*
X6436552D2*
Y5135317D1*
X6479088D1*
X6497338Y5141494D1*
X6509552Y5153567D1*
X6515588Y5165780D1*
X6521625Y5183890D1*
Y5214354D1*
X6515588Y5232604D1*
X6509552Y5244677D1*
X6497338Y5256890D1*
X6479088Y5262927D1*
X6436552D1*
X6633700Y5244677D2*
X6627664Y5256750D1*
X6609414Y5262786D1*
X6597341D1*
X6579091Y5256750D1*
X6566877Y5238500D1*
X6560841Y5208177D1*
Y5177854D1*
X6566877Y5153567D1*
X6579091Y5141354D1*
X6597341Y5135317D1*
X6603377D1*
X6621487Y5141354D1*
X6633700Y5153567D1*
X6639737Y5171817D1*
Y5177854D1*
X6633700Y5196104D1*
X6621487Y5208177D1*
X6603377Y5214213D1*
X6597341D1*
X6579091Y5208177D1*
X6566877Y5196104D1*
X6560841Y5177854D1*
X5303128Y5430443D2*
Y5302834D1*
X5345665D1*
X5363915Y5309011D1*
X5376128Y5321084D1*
X5382165Y5333297D1*
X5388201Y5351407D1*
Y5381870D1*
X5382165Y5400120D1*
X5376128Y5412193D1*
X5363915Y5424407D1*
X5345665Y5430443D1*
X5303128D1*
X5427417D2*
Y5302834D1*
X5469953D1*
X5488203Y5309011D1*
X5500417Y5321084D1*
X5506453Y5333297D1*
X5512490Y5351407D1*
Y5381870D1*
X5506453Y5400120D1*
X5500417Y5412193D1*
X5488203Y5424407D1*
X5469953Y5430443D1*
X5427417D1*
X5575992Y5302834D2*
X5636779Y5430303D1*
X5551706D1*
X2816745Y4230987D2*
Y4103377D1*
X2859281D1*
X2877531Y4109554D1*
X2889745Y4121627D1*
X2895781Y4133840D1*
X2901818Y4151950D1*
Y4182414D1*
X2895781Y4200664D1*
X2889745Y4212737D1*
X2877531Y4224950D1*
X2859281Y4230987D1*
X2816745D1*
X2941034D2*
Y4103377D1*
X2983570D1*
X3001820Y4109554D1*
X3014034Y4121627D1*
X3020070Y4133840D1*
X3026107Y4151950D1*
Y4182414D1*
X3020070Y4200664D1*
X3014034Y4212737D1*
X3001820Y4224950D1*
X2983570Y4230987D1*
X2941034D1*
X3095645Y4230846D2*
X3077536Y4224810D1*
X3071359Y4212737D1*
Y4200523D1*
X3077536Y4188450D1*
X3089609Y4182273D1*
X3113895Y4176237D1*
X3132145Y4170200D1*
X3144219Y4157987D1*
X3150255Y4145914D1*
Y4127664D1*
X3144219Y4115590D1*
X3138182Y4109414D1*
X3119932Y4103377D1*
X3095645D1*
X3077536Y4109414D1*
X3071359Y4115590D1*
X3065322Y4127664D1*
Y4145914D1*
X3071359Y4157987D1*
X3083572Y4170200D1*
X3101682Y4176237D1*
X3125969Y4182273D1*
X3138182Y4188450D1*
X3144219Y4200523D1*
Y4212737D1*
X3138182Y4224810D1*
X3119932Y4230846D1*
X3095645D1*
X6312193Y4230737D2*
Y4103127D1*
X6354730D1*
X6372980Y4109304D1*
X6385193Y4121377D1*
X6391230Y4133590D1*
X6397266Y4151700D1*
Y4182164D1*
X6391230Y4200414D1*
X6385193Y4212487D1*
X6372980Y4224700D1*
X6354730Y4230737D1*
X6312193D1*
X6436482D2*
Y4103127D1*
X6479018D1*
X6497268Y4109304D1*
X6509482Y4121377D1*
X6515518Y4133590D1*
X6521555Y4151700D1*
Y4182164D1*
X6515518Y4200414D1*
X6509482Y4212487D1*
X6497268Y4224700D1*
X6479018Y4230737D1*
X6436482D1*
X6639807Y4188200D2*
X6633630Y4169950D1*
X6621557Y4157737D1*
X6603307Y4151700D1*
X6597270D1*
X6579020Y4157737D1*
X6566947Y4169950D1*
X6560770Y4188200D1*
Y4194237D1*
X6566947Y4212487D1*
X6579020Y4224560D1*
X6597270Y4230596D1*
X6603307D1*
X6621557Y4224560D1*
X6633630Y4212487D1*
X6639807Y4188200D1*
Y4157737D1*
X6633630Y4127414D1*
X6621557Y4109164D1*
X6603307Y4103127D1*
X6591234D1*
X6572984Y4109164D1*
X6566947Y4121377D1*
X5648335Y10481447D2*
Y10353837D1*
X5690872D1*
X5709122Y10360014D1*
X5721335Y10372087D1*
X5727372Y10384300D1*
X5733408Y10402410D1*
Y10432874D1*
X5727372Y10451124D1*
X5721335Y10463197D1*
X5709122Y10475410D1*
X5690872Y10481447D1*
X5648335D1*
X5772624D2*
Y10353837D1*
X5815160D1*
X5833410Y10360014D1*
X5845624Y10372087D1*
X5851660Y10384300D1*
X5857697Y10402410D1*
Y10432874D1*
X5851660Y10451124D1*
X5845624Y10463197D1*
X5833410Y10475410D1*
X5815160Y10481447D1*
X5772624D1*
X5896913Y10457020D2*
X5909126Y10463197D1*
X5927376Y10481306D1*
Y10353837D1*
X6003092Y10481306D2*
X5984842Y10475270D1*
X5972628Y10457020D1*
X5966592Y10426697D1*
Y10408447D1*
X5972628Y10378124D1*
X5984842Y10359874D1*
X6003092Y10353837D1*
X6015165D1*
X6033415Y10359874D1*
X6045488Y10378124D1*
X6051665Y10408447D1*
Y10426697D1*
X6045488Y10457020D1*
X6033415Y10475270D1*
X6015165Y10481306D1*
X6003092D1*
X6045488Y10457020D2*
X5972628Y10378124D1*
X7825874Y11796487D2*
X7746837D1*
Y11668877D1*
Y11735700D2*
X7795410D1*
X7871266Y11766023D2*
Y11772060D1*
X7877303Y11784273D1*
X7883340Y11790310D1*
X7895553Y11796346D1*
X7919840D1*
X7931913Y11790310D1*
X7937949Y11784273D1*
X7944126Y11772060D1*
Y11759987D1*
X7937949Y11747773D1*
X7925876Y11729664D1*
X7865090Y11668877D1*
X7950163D1*
X7825874Y11296487D2*
X7746837D1*
Y11168877D1*
Y11235700D2*
X7795410D1*
X7877303Y11296346D2*
X7943986D1*
X7907626Y11247773D1*
X7925876D1*
X7937949Y11241737D1*
X7943986Y11235700D1*
X7950163Y11217450D1*
Y11205377D1*
X7943986Y11187127D1*
X7931913Y11174914D1*
X7913663Y11168877D1*
X7895413D1*
X7877303Y11174914D1*
X7871266Y11181090D1*
X7865090Y11193164D1*
X6221210Y11753110D2*
Y11625500D1*
X6306283Y11753110D2*
Y11625500D1*
X6221210Y11692323D2*
X6306283D1*
X6345498Y11753110D2*
Y11625500D1*
X6418358D1*
X6457574Y11728683D2*
X6469787Y11734860D1*
X6488037Y11752970D1*
Y11625500D1*
X6209781Y11070487D2*
Y10942877D1*
X6294855Y11070487D2*
Y10942877D1*
X6209781Y11009700D2*
X6294855D1*
X6334070Y11070487D2*
Y10942877D1*
X6406930D1*
X6452322Y11040023D2*
Y11046060D1*
X6458359Y11058273D1*
X6464395Y11064310D1*
X6476609Y11070346D1*
X6500895D1*
X6512969Y11064310D1*
X6519005Y11058273D1*
X6525182Y11046060D1*
Y11033987D1*
X6519005Y11021773D1*
X6506932Y11003664D1*
X6446145Y10942877D1*
X6531219D1*
X4844531Y11641987D2*
Y11514377D1*
X4929605Y11641987D2*
Y11514377D1*
X4844531Y11581200D2*
X4929605D1*
X4968820Y11641987D2*
Y11514377D1*
X5041680D1*
X5093109Y11641846D2*
X5159792D1*
X5123432Y11593273D1*
X5141682D1*
X5153755Y11587237D1*
X5159792Y11581200D1*
X5165969Y11562950D1*
Y11550877D1*
X5159792Y11532627D1*
X5147719Y11520414D1*
X5129469Y11514377D1*
X5111219D1*
X5093109Y11520414D1*
X5087072Y11526590D1*
X5080895Y11538664D1*
X4841513Y10562487D2*
Y10434877D1*
X4926586Y10562487D2*
Y10434877D1*
X4841513Y10501700D2*
X4926586D1*
X4965802Y10562487D2*
Y10434877D1*
X5038662D1*
X5138664D2*
Y10562346D1*
X5077877Y10477414D1*
X5168987D1*
X2209208Y10070450D2*
Y9942840D1*
X2294281Y10070450D2*
Y9942840D1*
X2209208Y10009663D2*
X2294281D1*
X2333497Y10070450D2*
Y9942840D1*
X2406356D1*
X2518432Y10070310D2*
X2457786D1*
X2451749Y10015700D1*
X2457786Y10021736D1*
X2476036Y10027913D1*
X2494145D1*
X2512395Y10021736D1*
X2524609Y10009663D1*
X2530645Y9991413D1*
Y9979340D1*
X2524609Y9961090D1*
X2512395Y9948877D1*
X2494145Y9942840D1*
X2476036D1*
X2457786Y9948877D1*
X2451749Y9955054D1*
X2445572Y9967127D1*
X2244050Y9498890D2*
Y9371280D1*
X2329123Y9498890D2*
Y9371280D1*
X2244050Y9438103D2*
X2329123D1*
X2368339Y9498890D2*
Y9371280D1*
X2441198D1*
X2553274Y9480640D2*
X2547237Y9492713D1*
X2528987Y9498750D1*
X2516914D1*
X2498664Y9492713D1*
X2486450Y9474463D1*
X2480414Y9444140D1*
Y9413817D1*
X2486450Y9389530D1*
X2498664Y9377317D1*
X2516914Y9371280D1*
X2522950D1*
X2541060Y9377317D1*
X2553274Y9389530D1*
X2559310Y9407780D1*
Y9413817D1*
X2553274Y9432067D1*
X2541060Y9444140D1*
X2522950Y9450176D1*
X2516914D1*
X2498664Y9444140D1*
X2486450Y9432067D1*
X2480414Y9413817D1*
X1143049Y6877177D2*
Y6749567D1*
X1273374Y6846854D2*
X1267337Y6858927D1*
X1255124Y6871140D1*
X1243051Y6877177D1*
X1218764D1*
X1206551Y6871140D1*
X1194478Y6858927D1*
X1188301Y6846854D1*
X1182264Y6828604D1*
Y6798140D1*
X1188301Y6780030D1*
X1194478Y6767817D1*
X1206551Y6755744D1*
X1218764Y6749567D1*
X1243051D1*
X1255124Y6755744D1*
X1267337Y6767817D1*
X1273374Y6780030D1*
X1397663Y6858927D2*
X1385590Y6871140D1*
X1367340Y6877177D1*
X1343053D1*
X1324803Y6871140D1*
X1312590Y6858927D1*
Y6846854D1*
X1318766Y6834640D1*
X1324803Y6828604D1*
X1336876Y6822567D1*
X1373376Y6810354D1*
X1385590Y6804317D1*
X1391626Y6798140D1*
X1397663Y6786067D1*
Y6767817D1*
X1385590Y6755744D1*
X1367340Y6749567D1*
X1343053D1*
X1324803Y6755744D1*
X1312590Y6767817D1*
X1436878Y6810354D2*
X1491628D1*
X1509738Y6816390D1*
X1515915Y6822567D1*
X1521951Y6834640D1*
Y6852890D1*
X1515915Y6864963D1*
X1509738Y6871140D1*
X1491628Y6877177D1*
X1436878D1*
Y6749567D1*
X1121710Y7596640D2*
Y7511567D1*
Y7572354D2*
X1139960Y7590604D1*
X1152174Y7596640D1*
X1170283D1*
X1182497Y7590604D1*
X1188533Y7572354D1*
Y7511567D1*
Y7572354D2*
X1206783Y7590604D1*
X1218997Y7596640D1*
X1237106D1*
X1249320Y7590604D1*
X1255497Y7572354D1*
Y7511567D1*
X1379785Y7620927D2*
X1367712Y7633140D1*
X1349462Y7639177D1*
X1325176D1*
X1306926Y7633140D1*
X1294712Y7620927D1*
Y7608854D1*
X1300889Y7596640D1*
X1306926Y7590604D1*
X1318999Y7584567D1*
X1355499Y7572354D1*
X1367712Y7566317D1*
X1373749Y7560140D1*
X1379785Y7548067D1*
Y7529817D1*
X1367712Y7517744D1*
X1349462Y7511567D1*
X1325176D1*
X1306926Y7517744D1*
X1294712Y7529817D1*
X1419001Y7572354D2*
X1473751D1*
X1491861Y7578390D1*
X1498038Y7584567D1*
X1504074Y7596640D1*
Y7614890D1*
X1498038Y7626963D1*
X1491861Y7633140D1*
X1473751Y7639177D1*
X1419001D1*
Y7511567D1*
X1543290Y7639177D2*
Y7511567D1*
X3979807Y3936473D2*
X4034417D1*
X4052667Y3942650D1*
X4058844Y3948687D1*
X4064880Y3960760D1*
Y3972973D1*
X4058844Y3985046D1*
X4052667Y3991223D1*
X4034417Y3997260D1*
X3979807D1*
Y3869650D1*
X4022344Y3936473D2*
X4064880Y3869650D1*
X4104096Y3972833D2*
X4116309Y3979010D1*
X4134559Y3997120D1*
Y3869650D1*
X4666952Y5889303D2*
X4721562D1*
X4739812Y5895480D1*
X4745989Y5901517D1*
X4752025Y5913590D1*
Y5925803D1*
X4745989Y5937876D1*
X4739812Y5944053D1*
X4721562Y5950090D1*
X4666952D1*
Y5822480D1*
X4709489Y5889303D2*
X4752025Y5822480D1*
X4797418Y5919626D2*
Y5925663D1*
X4803455Y5937876D1*
X4809491Y5943913D1*
X4821705Y5949950D1*
X4845991D1*
X4858064Y5943913D1*
X4864101Y5937876D1*
X4870278Y5925663D1*
Y5913590D1*
X4864101Y5901376D1*
X4852028Y5883267D1*
X4791241Y5822480D1*
X4876314D1*
X4746336Y8000900D2*
X4800945D1*
X4819195Y8007077D1*
X4825372Y8013114D1*
X4831409Y8025187D1*
Y8037400D1*
X4825372Y8049473D1*
X4819195Y8055650D1*
X4800945Y8061687D1*
X4746336D1*
Y7934077D1*
X4788872Y8000900D2*
X4831409Y7934077D1*
X4882838Y8061546D2*
X4949521D1*
X4913161Y8012973D1*
X4931411D1*
X4943484Y8006937D1*
X4949521Y8000900D1*
X4955698Y7982650D1*
Y7970577D1*
X4949521Y7952327D1*
X4937448Y7940114D1*
X4919198Y7934077D1*
X4900948D1*
X4882838Y7940114D1*
X4876801Y7946290D1*
X4870625Y7958364D1*
X5755674Y8953950D2*
X5810284D1*
X5828534Y8960127D1*
X5834711Y8966164D1*
X5840747Y8978237D1*
Y8990450D1*
X5834711Y9002523D1*
X5828534Y9008700D1*
X5810284Y9014737D1*
X5755674D1*
Y8887127D1*
X5798211Y8953950D2*
X5840747Y8887127D1*
X5940749D2*
Y9014596D1*
X5879963Y8929664D1*
X5971073D1*
X5758692Y9144450D2*
X5813302D1*
X5831552Y9150627D1*
X5837729Y9156664D1*
X5843765Y9168737D1*
Y9180950D1*
X5837729Y9193023D1*
X5831552Y9199200D1*
X5813302Y9205237D1*
X5758692D1*
Y9077627D1*
X5801229Y9144450D2*
X5843765Y9077627D1*
X5955841Y9205096D2*
X5895195D1*
X5889158Y9150487D1*
X5895195Y9156523D1*
X5913445Y9162700D1*
X5931554D1*
X5949804Y9156523D1*
X5962018Y9144450D1*
X5968054Y9126200D1*
Y9114127D1*
X5962018Y9095877D1*
X5949804Y9083664D1*
X5931554Y9077627D1*
X5913445D1*
X5895195Y9083664D1*
X5889158Y9089840D1*
X5882981Y9101914D1*
X5633161Y11735033D2*
X5687770D1*
X5706020Y11741210D1*
X5712197Y11747247D1*
X5718234Y11759320D1*
Y11771533D1*
X5712197Y11783606D1*
X5706020Y11789783D1*
X5687770Y11795820D1*
X5633161D1*
Y11668210D1*
X5675697Y11735033D2*
X5718234Y11668210D1*
X5830309Y11777570D2*
X5824273Y11789643D1*
X5806023Y11795680D1*
X5793950D1*
X5775700Y11789643D1*
X5763486Y11771393D1*
X5757450Y11741070D1*
Y11710747D1*
X5763486Y11686460D1*
X5775700Y11674247D1*
X5793950Y11668210D1*
X5799986D1*
X5818096Y11674247D1*
X5830309Y11686460D1*
X5836346Y11704710D1*
Y11710747D1*
X5830309Y11728997D1*
X5818096Y11741070D1*
X5799986Y11747106D1*
X5793950D1*
X5775700Y11741070D1*
X5763486Y11728997D1*
X5757450Y11710747D1*
X7334220Y5139959D2*
Y5194569D1*
X7328043Y5212819D1*
X7322007Y5218996D1*
X7309934Y5225032D1*
X7297720D1*
X7285647Y5218996D1*
X7279470Y5212819D1*
X7273433Y5194569D1*
Y5139959D1*
X7401043D1*
X7334220Y5182496D2*
X7401043Y5225032D1*
Y5288534D2*
X7273574Y5349321D1*
Y5264248D1*
X7540610Y5155906D2*
Y5210516D1*
X7534433Y5228766D1*
X7528397Y5234943D1*
X7516324Y5240979D1*
X7504110D1*
X7492037Y5234943D1*
X7485860Y5228766D1*
X7479823Y5210516D1*
Y5155906D1*
X7607433D1*
X7540610Y5198443D2*
X7607433Y5240979D1*
X7479964Y5310518D2*
X7486000Y5292408D1*
X7498074Y5286231D1*
X7510287D1*
X7522360Y5292408D1*
X7528537Y5304481D1*
X7534574Y5328768D1*
X7540610Y5347018D1*
X7552824Y5359091D1*
X7564897Y5365127D1*
X7583147D1*
X7595220Y5359091D1*
X7601397Y5353054D1*
X7607433Y5334804D1*
Y5310518D1*
X7601397Y5292408D1*
X7595220Y5286231D1*
X7583147Y5280195D1*
X7564897D1*
X7552824Y5286231D1*
X7540610Y5298445D1*
X7534574Y5316554D1*
X7528537Y5340841D1*
X7522360Y5353054D1*
X7510287Y5359091D1*
X7498074D1*
X7486000Y5353054D1*
X7479964Y5334804D1*
Y5310518D1*
X5262731Y3920597D2*
X5317341D1*
X5335591Y3926774D1*
X5341768Y3932810D1*
X5347804Y3944883D1*
Y3957097D1*
X5341768Y3969170D1*
X5335591Y3975347D1*
X5317341Y3981383D1*
X5262731D1*
Y3853774D1*
X5305268Y3920597D2*
X5347804Y3853774D1*
X5387020Y3956956D2*
X5399233Y3963133D1*
X5417483Y3981243D1*
Y3853774D1*
X5456699Y3956956D2*
X5468912Y3963133D1*
X5487162Y3981243D1*
Y3853774D1*
X1721375Y10065907D2*
X1775984D1*
X1794234Y10072084D1*
X1800411Y10078120D1*
X1806448Y10090193D1*
Y10102407D1*
X1800411Y10114480D1*
X1794234Y10120657D1*
X1775984Y10126693D1*
X1721375D1*
Y9999084D1*
X1763911Y10065907D2*
X1806448Y9999084D1*
X1851840Y10096230D2*
Y10102266D1*
X1857877Y10114480D1*
X1863913Y10120516D1*
X1876127Y10126553D1*
X1900413D1*
X1912487Y10120516D1*
X1918523Y10114480D1*
X1924700Y10102266D1*
Y10090193D1*
X1918523Y10077980D1*
X1906450Y10059870D1*
X1845663Y9999084D1*
X1930737D1*
X1976129Y10096230D2*
Y10102266D1*
X1982166Y10114480D1*
X1988202Y10120516D1*
X2000416Y10126553D1*
X2024702D1*
X2036775Y10120516D1*
X2042812Y10114480D1*
X2048989Y10102266D1*
Y10090193D1*
X2042812Y10077980D1*
X2030739Y10059870D1*
X1969952Y9999084D1*
X2055025D1*
X1705498Y9383210D2*
X1760108D1*
X1778358Y9389387D1*
X1784535Y9395424D1*
X1790571Y9407497D1*
Y9419710D1*
X1784535Y9431783D1*
X1778358Y9437960D1*
X1760108Y9443997D1*
X1705498D1*
Y9316387D1*
X1748035Y9383210D2*
X1790571Y9316387D1*
X1835964Y9413533D2*
Y9419570D1*
X1842000Y9431783D1*
X1848037Y9437820D1*
X1860250Y9443856D1*
X1884537D1*
X1896610Y9437820D1*
X1902646Y9431783D1*
X1908823Y9419570D1*
Y9407497D1*
X1902646Y9395283D1*
X1890573Y9377174D1*
X1829787Y9316387D1*
X1914860D1*
X1966289Y9443856D2*
X2032972D1*
X1996612Y9395283D1*
X2014862D1*
X2026935Y9389247D1*
X2032972Y9383210D1*
X2039149Y9364960D1*
Y9352887D1*
X2032972Y9334637D1*
X2020899Y9322424D1*
X2002649Y9316387D1*
X1984399D1*
X1966289Y9322424D1*
X1960252Y9328600D1*
X1954076Y9340674D1*
X6625012Y9943700D2*
X6679622D1*
X6697872Y9949877D1*
X6704049Y9955914D1*
X6710085Y9967987D1*
Y9980200D1*
X6704049Y9992273D1*
X6697872Y9998450D1*
X6679622Y10004487D1*
X6625012D1*
Y9876877D1*
X6667549Y9943700D2*
X6710085Y9876877D1*
X6840410Y9974164D2*
X6834374Y9986237D1*
X6822160Y9998450D1*
X6810087Y10004487D1*
X6785801D1*
X6773587Y9998450D1*
X6761514Y9986237D1*
X6755337Y9974164D1*
X6749301Y9955914D1*
Y9925450D1*
X6755337Y9907340D1*
X6761514Y9895127D1*
X6773587Y9883054D1*
X6785801Y9876877D1*
X6810087D1*
X6822160Y9883054D1*
X6834374Y9895127D1*
X6840410Y9907340D1*
Y9925450D1*
X6810087D1*
X6879626Y10004487D2*
Y9876877D1*
X6934376D1*
X6952626Y9883054D1*
X6958663Y9889090D1*
X6964699Y9901164D1*
Y9919414D1*
X6958663Y9931627D1*
X6952626Y9937664D1*
X6934376Y9943700D1*
X6952626Y9949877D1*
X6958663Y9955914D1*
X6964699Y9967987D1*
Y9980200D1*
X6958663Y9992273D1*
X6952626Y9998450D1*
X6934376Y10004487D1*
X6879626D1*
Y9943700D2*
X6934376D1*
X7016128Y10004346D2*
X7082811D1*
X7046451Y9955773D1*
X7064701D1*
X7076774Y9949737D1*
X7082811Y9943700D1*
X7088988Y9925450D1*
Y9913377D1*
X7082811Y9895127D1*
X7070738Y9882914D1*
X7052488Y9876877D1*
X7034238D1*
X7016128Y9882914D1*
X7010092Y9889090D1*
X7003915Y9901164D1*
X6621994Y9435700D2*
X6676603D1*
X6694853Y9441877D1*
X6701030Y9447914D1*
X6707067Y9459987D1*
Y9472200D1*
X6701030Y9484273D1*
X6694853Y9490450D1*
X6676603Y9496487D1*
X6621994D1*
Y9368877D1*
X6664530Y9435700D2*
X6707067Y9368877D1*
X6837392Y9466164D2*
X6831356Y9478237D1*
X6819142Y9490450D1*
X6807069Y9496487D1*
X6782783D1*
X6770569Y9490450D1*
X6758496Y9478237D1*
X6752319Y9466164D1*
X6746283Y9447914D1*
Y9417450D1*
X6752319Y9399340D1*
X6758496Y9387127D1*
X6770569Y9375054D1*
X6782783Y9368877D1*
X6807069D1*
X6819142Y9375054D1*
X6831356Y9387127D1*
X6837392Y9399340D1*
Y9417450D1*
X6807069D1*
X6876608Y9496487D2*
Y9368877D1*
X6931358D1*
X6949608Y9375054D1*
X6955644Y9381090D1*
X6961681Y9393164D1*
Y9411414D1*
X6955644Y9423627D1*
X6949608Y9429664D1*
X6931358Y9435700D1*
X6949608Y9441877D1*
X6955644Y9447914D1*
X6961681Y9459987D1*
Y9472200D1*
X6955644Y9484273D1*
X6949608Y9490450D1*
X6931358Y9496487D1*
X6876608D1*
Y9435700D2*
X6931358D1*
X7061683Y9368877D2*
Y9496346D1*
X7000897Y9411414D1*
X7092006D1*
X6357847Y8927700D2*
X6412456D1*
X6430706Y8933877D1*
X6436883Y8939914D1*
X6442920Y8951987D1*
Y8964200D1*
X6436883Y8976273D1*
X6430706Y8982450D1*
X6412456Y8988487D1*
X6357847D1*
Y8860877D1*
X6400383Y8927700D2*
X6442920Y8860877D1*
X6573245Y8958164D2*
X6567208Y8970237D1*
X6554995Y8982450D1*
X6542922Y8988487D1*
X6518635D1*
X6506422Y8982450D1*
X6494349Y8970237D1*
X6488172Y8958164D1*
X6482135Y8939914D1*
Y8909450D1*
X6488172Y8891340D1*
X6494349Y8879127D1*
X6506422Y8867054D1*
X6518635Y8860877D1*
X6542922D1*
X6554995Y8867054D1*
X6567208Y8879127D1*
X6573245Y8891340D1*
Y8909450D1*
X6542922D1*
X6612461Y8988487D2*
Y8860877D1*
X6667211D1*
X6685461Y8867054D1*
X6691497Y8873090D1*
X6697534Y8885164D1*
Y8903414D1*
X6691497Y8915627D1*
X6685461Y8921664D1*
X6667211Y8927700D1*
X6685461Y8933877D1*
X6691497Y8939914D1*
X6697534Y8951987D1*
Y8964200D1*
X6691497Y8976273D1*
X6685461Y8982450D1*
X6667211Y8988487D1*
X6612461D1*
Y8927700D2*
X6667211D1*
X6742926Y8958023D2*
Y8964060D1*
X6748963Y8976273D1*
X6754999Y8982310D1*
X6767213Y8988346D1*
X6791499D1*
X6803573Y8982310D1*
X6809609Y8976273D1*
X6815786Y8964060D1*
Y8951987D1*
X6809609Y8939773D1*
X6797536Y8921664D1*
X6736749Y8860877D1*
X6821823D1*
X6861038D2*
X6946111Y8988346D1*
X7058187D2*
X6997540D1*
X6991504Y8933737D1*
X6997540Y8939773D1*
X7015790Y8945950D1*
X7033900D1*
X7052150Y8939773D1*
X7064364Y8927700D1*
X7070400Y8909450D1*
Y8897377D1*
X7064364Y8879127D1*
X7052150Y8866914D1*
X7033900Y8860877D1*
X7015790D1*
X6997540Y8866914D1*
X6991504Y8873090D1*
X6985327Y8885164D1*
X4415279Y8372102D2*
X4469888D1*
X4488138Y8378279D1*
X4494315Y8384315D1*
X4500352Y8396388D1*
Y8408602D1*
X4494315Y8420675D1*
X4488138Y8426852D1*
X4469888Y8432888D1*
X4415279D1*
Y8305279D1*
X4457815Y8372102D2*
X4500352Y8305279D1*
X4624640Y8414638D2*
X4612567Y8426852D1*
X4594317Y8432888D1*
X4570031D1*
X4551781Y8426852D1*
X4539567Y8414638D1*
Y8402565D1*
X4545744Y8390352D1*
X4551781Y8384315D1*
X4563854Y8378279D1*
X4600354Y8366065D1*
X4612567Y8360029D1*
X4618604Y8353852D1*
X4624640Y8341779D1*
Y8323529D1*
X4612567Y8311456D1*
X4594317Y8305279D1*
X4570031D1*
X4551781Y8311456D1*
X4539567Y8323529D1*
X4663856Y8369013D2*
X4734048D1*
X4779441Y8402425D2*
Y8408461D1*
X4785478Y8420675D1*
X4791514Y8426711D1*
X4803728Y8432748D1*
X4828014D1*
X4840087Y8426711D1*
X4846124Y8420675D1*
X4852301Y8408461D1*
Y8396388D1*
X4846124Y8384175D1*
X4834051Y8366065D1*
X4773264Y8305279D1*
X4858337D1*
X4909766Y8432748D2*
X4976449D1*
X4940089Y8384175D1*
X4958339D1*
X4970413Y8378138D1*
X4976449Y8372102D1*
X4982626Y8353852D1*
Y8341779D1*
X4976449Y8323529D1*
X4964376Y8311315D1*
X4946126Y8305279D1*
X4927876D1*
X4909766Y8311315D1*
X4903730Y8317492D1*
X4897553Y8329565D1*
X5028019Y8402425D2*
Y8408461D1*
X5034055Y8420675D1*
X5040092Y8426711D1*
X5052305Y8432748D1*
X5076592D1*
X5088665Y8426711D1*
X5094701Y8420675D1*
X5100878Y8408461D1*
Y8396388D1*
X5094701Y8384175D1*
X5082628Y8366065D1*
X5021842Y8305279D1*
X5106915D1*
X1222015Y8340390D2*
X1215978Y8352604D1*
X1197728Y8358640D1*
X1179478D1*
X1161228Y8352604D1*
X1155192Y8340390D1*
X1161228Y8328317D1*
X1173442Y8322140D1*
X1203765Y8316104D1*
X1215978Y8310067D1*
X1222015Y8297854D1*
Y8291817D1*
X1215978Y8279744D1*
X1197728Y8273567D1*
X1179478D1*
X1161228Y8279744D1*
X1155192Y8291817D1*
X1346304Y8382927D2*
X1334231Y8395140D1*
X1315981Y8401177D1*
X1291694D1*
X1273444Y8395140D1*
X1261231Y8382927D1*
Y8370854D1*
X1267408Y8358640D1*
X1273444Y8352604D1*
X1285517Y8346567D1*
X1322017Y8334354D1*
X1334231Y8328317D1*
X1340267Y8322140D1*
X1346304Y8310067D1*
Y8291817D1*
X1334231Y8279744D1*
X1315981Y8273567D1*
X1291694D1*
X1273444Y8279744D1*
X1261231Y8291817D1*
X1385519Y8334354D2*
X1440269D1*
X1458379Y8340390D1*
X1464556Y8346567D1*
X1470592Y8358640D1*
Y8376890D1*
X1464556Y8388963D1*
X1458379Y8395140D1*
X1440269Y8401177D1*
X1385519D1*
Y8273567D1*
X1509808Y8401177D2*
Y8273567D1*
X3989201Y10480427D2*
Y10389317D1*
X3995237Y10371067D1*
X4007451Y10358994D1*
X4025701Y10352817D1*
X4037774D1*
X4056024Y10358994D1*
X4068237Y10371067D1*
X4074274Y10389317D1*
Y10480427D1*
X4113489Y10456000D2*
X4125703Y10462177D1*
X4143953Y10480286D1*
Y10352817D1*
X3589819Y12738213D2*
X3674892Y12610604D1*
Y12738213D2*
X3589819Y12610604D1*
X3720285Y12707750D2*
Y12713786D1*
X3726321Y12726000D1*
X3732358Y12732036D1*
X3744571Y12738073D1*
X3768858D1*
X3780931Y12732036D1*
X3786967Y12726000D1*
X3793144Y12713786D1*
Y12701713D1*
X3786967Y12689500D1*
X3774894Y12671390D1*
X3714108Y12610604D1*
X3799181D1*
X2785887Y8595887D2*
X2834460Y8535100D1*
Y8468277D1*
X2883034Y8595887D2*
X2834460Y8535100D1*
X2922249Y8571460D2*
X2934463Y8577637D1*
X2952713Y8595746D1*
Y8468277D1*
X1912480Y12357586D2*
X1803120D1*
X1857730Y12412196D2*
Y12302836D1*
X1897248Y12263621D2*
X1903425Y12251407D1*
X1921534Y12233157D1*
X1794065D1*
X1891211Y12187765D2*
X1897248D1*
X1909461Y12181728D1*
X1915498Y12175692D1*
X1921534Y12163478D1*
Y12139192D1*
X1915498Y12127118D1*
X1909461Y12121082D1*
X1897248Y12114905D1*
X1885175D1*
X1872961Y12121082D1*
X1854852Y12133155D1*
X1794065Y12193942D1*
Y12108869D1*
X1912480Y11891597D2*
X1803120D1*
X1857730Y11946206D2*
Y11836847D1*
X1921534Y11724771D2*
Y11785418D1*
X1866925Y11791454D1*
X1872961Y11785418D1*
X1879138Y11767168D1*
Y11749058D1*
X1872961Y11730808D1*
X1860888Y11718595D1*
X1842638Y11712558D1*
X1830565D1*
X1812315Y11718595D1*
X1800102Y11730808D1*
X1794065Y11749058D1*
Y11767168D1*
X1800102Y11785418D1*
X1806279Y11791454D1*
X1818352Y11797631D1*
X1891352Y11458786D2*
X1903425Y11464823D1*
X1915638Y11477036D1*
X1921675Y11489109D1*
Y11513396D1*
X1915638Y11525609D1*
X1903425Y11537682D1*
X1891352Y11543859D1*
X1873102Y11549896D1*
X1842638D1*
X1824529Y11543859D1*
X1812315Y11537682D1*
X1800242Y11525609D1*
X1794065Y11513396D1*
Y11489109D1*
X1800242Y11477036D1*
X1812315Y11464823D1*
X1824529Y11458786D1*
X1842638D1*
Y11489109D1*
X1921675Y11334498D2*
X1794065D1*
X1921675Y11419571D1*
X1794065D1*
X1921675Y11295282D2*
X1794065D1*
Y11252745D1*
X1800242Y11234495D1*
X1812315Y11222282D1*
X1824529Y11216245D1*
X1842638Y11210209D1*
X1873102D1*
X1891352Y11216245D1*
X1903425Y11222282D1*
X1915638Y11234495D1*
X1921675Y11252745D1*
Y11295282D1*
X5371822Y12146178D2*
D108*
Y11993075D1*
X5295369Y12069528D2*
X5448472D1*
X5605378Y12158855D2*
X5520473D1*
X5512022Y12082402D1*
X5520473Y12090853D1*
X5546023Y12099500D1*
X5571377D1*
X5596927Y12090853D1*
X5614025Y12073950D1*
X5622477Y12048400D1*
Y12031498D1*
X5614025Y12005948D1*
X5596927Y11988849D1*
X5571377Y11980398D1*
X5546023D1*
X5520473Y11988849D1*
X5512022Y11997497D1*
X5503374Y12014399D1*
X5977757Y12116599D2*
X5969306Y12133502D1*
X5952207Y12150600D1*
X5935305Y12159052D1*
X5901304D1*
X5884205Y12150600D1*
X5867302Y12133502D1*
X5858655Y12116599D1*
X5850204Y12091049D1*
Y12048400D1*
X5858655Y12023047D1*
X5867302Y12005948D1*
X5884205Y11989046D1*
X5901304Y11980398D1*
X5935305D1*
X5952207Y11989046D1*
X5969306Y12005948D1*
X5977757Y12023047D1*
Y12048400D1*
X5935305D1*
X6151761Y12159052D2*
Y11980398D1*
X6032659Y12159052D1*
Y11980398D1*
X6206663Y12159052D2*
Y11980398D1*
X6266214D1*
X6291764Y11989046D1*
X6308863Y12005948D1*
X6317314Y12023047D1*
X6325766Y12048400D1*
Y12091049D1*
X6317314Y12116599D1*
X6308863Y12133502D1*
X6291764Y12150600D1*
X6266214Y12159052D1*
X6206663D1*
X6629946Y12146178D2*
Y11993075D1*
X6553493Y12069528D2*
X6706596D1*
X6761498Y12124854D2*
X6778597Y12133502D1*
X6804147Y12158855D1*
Y11980398D1*
X6867696Y12116403D2*
Y12124854D1*
X6876148Y12141953D1*
X6884599Y12150404D1*
X6901698Y12158855D1*
X6935699D1*
X6952601Y12150404D1*
X6961052Y12141953D1*
X6969700Y12124854D1*
Y12107952D1*
X6961052Y12090853D1*
X6944150Y12065499D1*
X6859049Y11980398D1*
X6978151D1*
X1677208Y6000896D2*
D107*
X1549599D1*
X1677208Y5915823D2*
X1549598D1*
X1616422Y6000896D2*
Y5915823D1*
Y5753161D2*
Y5698551D1*
X1622599Y5680301D1*
X1628635Y5674124D1*
X1640708Y5668088D1*
X1652922D1*
X1664995Y5674124D1*
X1671172Y5680301D1*
X1677208Y5698551D1*
Y5753161D1*
X1549599D1*
X1616422Y5710624D2*
X1549599Y5668088D1*
X1646885Y5414316D2*
X1658958Y5420353D1*
X1671172Y5432566D1*
X1677208Y5444639D1*
Y5468926D1*
X1671172Y5481139D1*
X1658958Y5493212D1*
X1646885Y5499389D1*
X1628635Y5505426D1*
X1598172D1*
X1580062Y5499389D1*
X1567849Y5493212D1*
X1555776Y5481139D1*
X1549599Y5468926D1*
Y5444639D1*
X1555776Y5432566D1*
X1567849Y5420353D1*
X1580062Y5414316D1*
X1598172D1*
Y5444639D1*
X1677208Y5290027D2*
X1549599D1*
X1677208Y5375100D1*
X1549599D1*
X1677208Y5250812D2*
X1549599D1*
Y5208275D1*
X1555776Y5190025D1*
X1567849Y5177812D1*
X1580062Y5171775D1*
X1598172Y5165738D1*
X1628635D1*
X1646885Y5171775D1*
X1658958Y5177812D1*
X1671172Y5190025D1*
X1677208Y5208275D1*
Y5250812D1*
X1870422Y6064396D2*
Y6009786D1*
X1876598Y5991536D1*
X1882635Y5985359D1*
X1894708Y5979323D1*
X1906922D1*
X1918995Y5985359D1*
X1925172Y5991536D1*
X1931208Y6009786D1*
Y6064396D1*
X1803599D1*
X1870422Y6021859D2*
X1803598Y5979323D1*
X1852172Y5940107D2*
Y5867248D1*
X1864385D1*
X1876598Y5873284D1*
X1882635Y5879321D1*
X1888672Y5891534D1*
Y5909784D1*
X1882635Y5921857D1*
X1870422Y5934071D1*
X1852172Y5940107D1*
X1840098D1*
X1821849Y5934071D1*
X1809775Y5921857D1*
X1803599Y5909784D1*
Y5891534D1*
X1809775Y5879321D1*
X1821849Y5867248D1*
X1870422Y5761209D2*
X1882635Y5767245D1*
X1888672Y5785495D1*
Y5803745D1*
X1882635Y5821995D1*
X1870422Y5828032D1*
X1858349Y5821995D1*
X1852172Y5809782D1*
X1846135Y5779459D1*
X1840099Y5767245D1*
X1827885Y5761209D1*
X1821849D1*
X1809776Y5767245D1*
X1803599Y5785495D1*
Y5803745D1*
X1809775Y5821995D1*
X1821849Y5828032D1*
X1852172Y5721993D2*
Y5649134D1*
X1864385D1*
X1876599Y5655170D1*
X1882635Y5661207D1*
X1888672Y5673420D1*
Y5691670D1*
X1882635Y5703743D1*
X1870422Y5715957D1*
X1852172Y5721993D1*
X1840099D1*
X1821849Y5715957D1*
X1809776Y5703743D1*
X1803599Y5691670D1*
Y5673420D1*
X1809776Y5661207D1*
X1821849Y5649134D1*
X1931208Y5591668D2*
X1827885D1*
X1809776Y5585631D1*
X1803599Y5573418D1*
Y5561345D1*
X1888672Y5609918D2*
Y5567381D1*
X7038571Y13309782D2*
X7123644Y13182172D1*
Y13309782D2*
X7038571Y13182172D1*
X7175073Y13309641D2*
X7241756D1*
X7205396Y13261068D1*
X7223646D1*
X7235719Y13255032D1*
X7241756Y13248995D1*
X7247932Y13230745D1*
Y13218672D1*
X7241756Y13200422D1*
X7229682Y13188209D1*
X7211432Y13182172D1*
X7193182D1*
X7175073Y13188209D1*
X7169036Y13194385D1*
X7162859Y13206459D1*
X3081557Y11439585D2*
X3075520Y11451658D1*
X3063307Y11463872D1*
X3051234Y11469908D1*
X3026947D1*
X3014734Y11463872D1*
X3002661Y11451658D1*
X2996484Y11439585D1*
X2990447Y11421335D1*
Y11390872D1*
X2996484Y11372762D1*
X3002661Y11360549D1*
X3014734Y11348476D1*
X3026947Y11342299D1*
X3051234D1*
X3063307Y11348476D1*
X3075520Y11360549D1*
X3081557Y11372762D1*
X3193632Y11451658D2*
X3187596Y11463731D1*
X3169346Y11469768D1*
X3157273D1*
X3139023Y11463731D1*
X3126809Y11445481D1*
X3120773Y11415158D1*
Y11384835D1*
X3126809Y11360549D1*
X3139023Y11348335D1*
X3157273Y11342299D1*
X3163309D1*
X3181419Y11348335D1*
X3193632Y11360549D1*
X3199669Y11378799D1*
Y11384835D1*
X3193632Y11403085D1*
X3181419Y11415158D1*
X3163309Y11421195D1*
X3157273D1*
X3139023Y11415158D1*
X3126809Y11403085D1*
X3120773Y11384835D1*
X2285874Y2649478D2*
X2370947Y2521869D1*
Y2649478D2*
X2285874Y2521869D1*
X2410163Y2625051D2*
X2422376Y2631228D1*
X2440626Y2649338D1*
Y2521869D1*
M02*
