G04 DipTrace 3.0.0.1*
G04 keyboard.TopMask.gbr*
%MOMM*%
G04 #@! TF.FileFunction,Soldermask,Top*
G04 #@! TF.Part,Single*
%ADD50C,4.0*%
%ADD51C,3.4*%
%ADD52C,2.54*%
%ADD61C,1.4192*%
%ADD63C,3.5*%
%ADD65C,1.8*%
%ADD67R,1.8X1.8*%
%ADD69R,5.7X5.7*%
%ADD71O,0.5X1.05*%
%ADD73O,1.05X0.5*%
%ADD75R,1.5X1.7*%
%ADD77R,1.15X0.75*%
%ADD79R,0.75X1.15*%
%ADD81R,1.978X1.978*%
%ADD83C,1.978*%
%ADD85C,3.2*%
%ADD87R,1.7X1.7*%
%ADD89C,1.7*%
%ADD91R,2.1X3.6*%
%ADD93R,2.2X0.8*%
%ADD95R,0.8X2.2*%
%ADD97R,0.7X2.0*%
%ADD99R,2.0X0.7*%
%ADD101R,2.9X1.6*%
%ADD103R,1.2X1.3*%
%ADD105R,1.3X1.2*%
%FSLAX35Y35*%
G04*
G71*
G90*
G75*
G01*
G04 TopMask*
%LPD*%
D105*
X3699750Y8942250D3*
X3869750D3*
X3708000Y8067000D3*
X3878000D3*
X3308000D3*
X3478000D3*
D103*
X2651000Y10413873D3*
Y10243873D3*
D101*
X2408000Y10714000D3*
X1968000D3*
D99*
X3428000Y10310690D3*
Y10230690D3*
Y10150690D3*
Y10070690D3*
Y9990690D3*
Y9910690D3*
Y9830690D3*
Y9750690D3*
Y9670690D3*
Y9590690D3*
Y9510690D3*
D97*
X3658000Y9280690D3*
X3738000D3*
X3818000D3*
X3898000D3*
X3978000D3*
X4058000D3*
X4138000D3*
X4218000D3*
X4298000D3*
X4378000D3*
X4458000D3*
D99*
X4688000Y9510690D3*
Y9590690D3*
Y9670690D3*
Y9750690D3*
Y9830690D3*
Y9910690D3*
Y9990690D3*
Y10070690D3*
Y10150690D3*
Y10230690D3*
Y10310690D3*
D97*
X4458000Y10540690D3*
X4378000D3*
X4298000D3*
X4218000D3*
X4138000D3*
X4058000D3*
X3978000D3*
X3898000D3*
X3818000D3*
X3738000D3*
X3658000D3*
D95*
X2539000Y4436940D3*
X2666000D3*
X2793000D3*
X2920000D3*
X3047000D3*
X3174000D3*
X3301000D3*
X3428000D3*
Y4976940D3*
X3301000D3*
X3174000D3*
X3047000D3*
X2920000D3*
X2793000D3*
X2666000D3*
X2539000D3*
X3046987Y6389863D3*
X3173987D3*
X3300987D3*
X3427987D3*
X3554987D3*
X3681987D3*
X3808987D3*
X3935987D3*
Y6929863D3*
X3808987D3*
X3681987D3*
X3554987D3*
X3427987D3*
X3300987D3*
X3173987D3*
X3046987D3*
X4317000Y6389500D3*
X4444000D3*
X4571000D3*
X4698000D3*
X4825000D3*
X4952000D3*
X5079000D3*
X5206000D3*
Y6929500D3*
X5079000D3*
X4952000D3*
X4825000D3*
X4698000D3*
X4571000D3*
X4444000D3*
X4317000D3*
X3681987Y4437237D3*
X3808987D3*
X3935987D3*
X4062987D3*
X4189987D3*
X4316987D3*
X4443987D3*
X4570987D3*
Y4977237D3*
X4443987D3*
X4316987D3*
X4189987D3*
X4062987D3*
X3935987D3*
X3808987D3*
X3681987D3*
X6031500Y4436940D3*
X6158500D3*
X6285500D3*
X6412500D3*
X6539500D3*
X6666500D3*
X6793500D3*
X6920500D3*
Y4976940D3*
X6793500D3*
X6666500D3*
X6539500D3*
X6412500D3*
X6285500D3*
X6158500D3*
X6031500D3*
X4825000Y4436877D3*
X4952000D3*
X5079000D3*
X5206000D3*
X5333000D3*
X5460000D3*
X5587000D3*
X5714000D3*
Y4976877D3*
X5587000D3*
X5460000D3*
X5333000D3*
X5206000D3*
X5079000D3*
X4952000D3*
X4825000D3*
X3428000Y3945000D3*
X3301000D3*
X3174000D3*
X3047000D3*
X2920000D3*
X2793000D3*
X2666000D3*
X2539000D3*
Y3405000D3*
X2666000D3*
X2793000D3*
X2920000D3*
X3047000D3*
X3174000D3*
X3301000D3*
X3428000D3*
X6920500Y3944750D3*
X6793500D3*
X6666500D3*
X6539500D3*
X6412500D3*
X6285500D3*
X6158500D3*
X6031500D3*
Y3404750D3*
X6158500D3*
X6285500D3*
X6412500D3*
X6539500D3*
X6666500D3*
X6793500D3*
X6920500D3*
D93*
X5580000Y10240000D3*
Y10113000D3*
Y9986000D3*
Y9859000D3*
Y9732000D3*
Y9605000D3*
Y9478000D3*
Y9351000D3*
X6120000D3*
Y9478000D3*
Y9605000D3*
Y9732000D3*
Y9859000D3*
Y9986000D3*
Y10113000D3*
Y10240000D3*
D91*
X7563500Y11720500D3*
X7173500D3*
X7563500Y11240500D3*
X7173500D3*
D105*
X6618873Y11691750D3*
X6788873D3*
X6618873Y10993250D3*
X6788873D3*
X5015500Y11374250D3*
X5185500D3*
X5015500Y10707500D3*
X5185500D3*
X2332523Y9866203D3*
X2502523D3*
X2332523Y9596300D3*
X2502523D3*
D50*
X8000000Y13500000D3*
D51*
X7082900Y1663200D3*
D50*
X1500000Y13500000D3*
D51*
X2378800Y1663200D3*
D50*
X8000000Y1500000D3*
X1500000D3*
X5558000Y13525873D3*
X6598000D3*
D52*
X5045000Y12745873D3*
X7115000D3*
D89*
X2285000Y6691190D3*
X2031000Y6945190D3*
X1777000D3*
D87*
X2285000D3*
D89*
X2031000Y6691190D3*
X1777000D3*
X2285000Y7453190D3*
X2031000Y7707190D3*
X1777000D3*
D87*
X2285000D3*
D89*
X2031000Y7453190D3*
X1777000D3*
D85*
X1396000Y11787000D3*
D83*
X3206857Y1520940D3*
D85*
X1396000Y11279000D3*
D83*
X3483723Y1520940D3*
D89*
X4698000Y7151500D3*
D83*
X3760590Y1520940D3*
D89*
X4698000Y7405500D3*
D83*
X4037423Y1520940D3*
D85*
X5318000Y12491873D3*
X5826000D3*
X6334000D3*
X6842000D3*
D89*
X4952000Y7151500D3*
D83*
X4314290Y1520940D3*
D89*
X4952000Y7405500D3*
D83*
X4591157Y1520940D3*
X4868023D3*
X5144890D3*
X5421723D3*
X5698590D3*
X5975457D3*
X6252323D3*
X6392023Y1805407D3*
X6115157D3*
D89*
X2778000Y11414000D3*
D83*
X5838290Y1805407D3*
D89*
X2270000Y11414000D3*
D81*
X3069690Y1805407D3*
D89*
X3667000Y11160000D3*
D83*
X3346557Y1805407D3*
X3623423D3*
X3900290D3*
X4177123D3*
D89*
X3921000Y11160000D3*
D83*
X4453990Y1805407D3*
D89*
X1269270Y5436143D3*
D83*
X4730857Y1805407D3*
D89*
X1269270Y5690143D3*
D83*
X5007723Y1805407D3*
D89*
X1269270Y5944143D3*
D83*
X5284590Y1805407D3*
D85*
X1396000Y12295000D3*
D83*
X5561423Y1805407D3*
D89*
X4175000Y11160000D3*
X4429000D3*
X4683000D3*
X3413000D3*
D79*
X3937183Y3603773D3*
X4017183D3*
X4097183D3*
X4177183D3*
Y3763773D3*
X4097183D3*
X4017183D3*
X3937183D3*
X4651633Y5556603D3*
X4731633D3*
X4811633D3*
X4891633D3*
Y5716603D3*
X4811633D3*
X4731633D3*
X4651633D3*
X4731017Y7668200D3*
X4811017D3*
X4891017D3*
X4971017D3*
Y7828200D3*
X4891017D3*
X4811017D3*
X4731017D3*
D105*
X6064123Y8921623D3*
X6234123D3*
X6064123Y9112123D3*
X6234123D3*
D77*
X5794753Y11319833D3*
Y11399833D3*
Y11479833D3*
Y11559833D3*
X5634753D3*
Y11479833D3*
Y11399833D3*
Y11319833D3*
D103*
X7366543Y4746893D3*
Y4916893D3*
X7525310Y4746893D3*
Y4916893D3*
D79*
X5254947Y3587897D3*
X5334947D3*
X5414947D3*
X5494947D3*
Y3747897D3*
X5414947D3*
X5334947D3*
X5254947D3*
D75*
X1793200Y9865707D3*
X1983200D3*
X1793200Y9595803D3*
X1983200D3*
D89*
X7301500Y9945500D3*
X7555500D3*
X7809500D3*
X8063500D3*
X7301500Y9437500D3*
X7555500D3*
X7809500D3*
X8063500D3*
X7301500Y8929500D3*
X7555500D3*
X7809500D3*
X8063500D3*
X4380097Y8786653D3*
X4634097D3*
X4888097D3*
X5142097D3*
X2285000Y8215190D3*
X2031000Y8469190D3*
X1777000D3*
D87*
X2285000D3*
D89*
X2031000Y8215190D3*
X1777000D3*
D73*
X3745500Y10151940D3*
Y10101940D3*
Y10051940D3*
Y10001940D3*
Y9951940D3*
Y9901940D3*
Y9851940D3*
Y9801940D3*
Y9751940D3*
Y9701940D3*
Y9651940D3*
D71*
X3845500Y9551940D3*
X3895500D3*
X3945500D3*
X3995500D3*
X4045500D3*
X4095500D3*
X4145500D3*
X4195500D3*
X4245500D3*
X4295500D3*
X4345500D3*
D73*
X4445500Y9651940D3*
Y9701940D3*
Y9751940D3*
Y9801940D3*
Y9851940D3*
Y9901940D3*
Y9951940D3*
Y10001940D3*
Y10051940D3*
Y10101940D3*
Y10151940D3*
D71*
X4345500Y10251940D3*
X4295500D3*
X4245500D3*
X4195500D3*
X4145500D3*
X4095500D3*
X4045500D3*
X3995500D3*
X3945500D3*
X3895500D3*
X3845500D3*
D69*
X4095500Y9901940D3*
D67*
X2729500Y12505500D3*
D65*
X2979500D3*
Y12705500D3*
X2729500D3*
D63*
X3456500Y12976500D3*
X2252500D3*
D61*
X3328000Y8554000D3*
X3810600D3*
M02*
