M48
METRIC,0000.00
T01C0.486
T02C0.813
T03C0.9
T04C0.92
T05C1.168
T06C1.5
T07C2.0
T08C2.3
T09C2.54
T10C3.4
T11C4.0
%
T01
X+004444Y+004246
X+004398Y+004064
X+004144Y+004064
X+004190Y+004246
X+003936Y+004246
X+003889Y+004071
X+003803Y+003821
X+003823Y+003387
X+003810Y+003143
X+004127Y+003143
X+004350Y+003143
X+004343Y+003387
X+004123Y+003387
X+005003Y+003387
X+004984Y+004055
X+005048Y+004254
X+005288Y+004254
X+005255Y+004080
X+005503Y+004201
X+005636Y+004096
X+006257Y+003655
X+006794Y+003651
X+007033Y+003413
X+006001Y+003175
X+006460Y+004770
X+006017Y+005239
X+005906Y+005366
X+005684Y+005157
X+005568Y+005309
X+005448Y+005154
X+005288Y+005289
X+005088Y+005154
X+004985Y+005287
X+004571Y+005135
X+004428Y+005234
X+004317Y+005135
X+004108Y+005214
X+003936Y+005135
X+003788Y+005214
X+003552Y+004750
X+003174Y+005191
X+002905Y+005334
X+002475Y+005183
X+002350Y+004636
X+001904Y+003977
X+001400Y+003974
X+001400Y+003294
X+002348Y+003341
X+001318Y+002061
X+001396Y+005056
X+001388Y+006321
X+001408Y+007154
X+001408Y+007914
X+002268Y+006277
X+002619Y+006382
X+002998Y+006563
X+003301Y+006199
X+003428Y+006199
X+003555Y+006199
X+003682Y+006199
X+004191Y+006493
X+004348Y+006114
X+004571Y+006199
X+004698Y+006199
X+004825Y+006199
X+004952Y+006199
X+005206Y+006104
X+005600Y+005520
X+006103Y+006182
X+006440Y+005951
X+007192Y+004699
X+005548Y+007934
X+005429Y+008366
X+005412Y+008960
X+004890Y+009129
X+004556Y+009358
X+004142Y+008930
X+004159Y+008453
X+004828Y+008114
X+004444Y+007152
X+004000Y+007260
X+003682Y+007152
X+003555Y+007152
X+003428Y+007152
X+003301Y+007152
X+003388Y+007874
X+003928Y+007594
X+003491Y+009097
X+003460Y+009379
X+003207Y+009176
X+003111Y+009565
X+003460Y+010438
X+003555Y+010708
X+003730Y+010708
X+003810Y+011336
X+003268Y+011320
X+002648Y+010934
X+002365Y+010199
X+002127Y+010112
X+001396Y+010009
X+001841Y+011025
X+002508Y+012260
X+003365Y+012216
X+003746Y+012422
X+004539Y+012105
X+004948Y+012426
X+005302Y+011843
X+006032Y+011255
X+006699Y+011478
X+006747Y+011287
X+006778Y+010747
X+007556Y+010954
X+007858Y+010541
X+006960Y+009299
X+005318Y+009731
X+005096Y+009891
X+005270Y+010398
X+004747Y+010447
X+004746Y+010723
X+004476Y+010739
X+006683Y+011874
X+007366Y+012412
X+008248Y+012934
X+001468Y+012774
X+003096Y+006065
X+002749Y+005854
T02
X+003328Y+008554
X+003811Y+008554
T03
X+002285Y+006691
X+002285Y+006945
X+002031Y+006945
X+001777Y+006945
X+001777Y+006691
X+002031Y+006691
X+002031Y+007453
X+002031Y+007707
X+001777Y+007707
X+001777Y+007453
X+002285Y+007453
X+002285Y+007707
X+002285Y+008215
X+002285Y+008469
X+002031Y+008469
X+001777Y+008469
X+001777Y+008215
X+002031Y+008215
X+001269Y+005944
X+001269Y+005690
X+001269Y+005436
X+004698Y+007152
X+004952Y+007152
X+004952Y+007406
X+004698Y+007406
X+004634Y+008787
X+004380Y+008787
X+004888Y+008787
X+005142Y+008787
X+007302Y+008930
X+007555Y+008930
X+007809Y+008930
X+008064Y+008930
X+008064Y+009438
X+007809Y+009438
X+007555Y+009438
X+007302Y+009438
X+007302Y+009945
X+007555Y+009945
X+007809Y+009945
X+008064Y+009945
X+004683Y+011160
X+004429Y+011160
X+004175Y+011160
X+003921Y+011160
X+003667Y+011160
X+003413Y+011160
X+002778Y+011414
X+002270Y+011414
T04
X+002729Y+012506
X+002729Y+012706
X+002979Y+012706
X+002979Y+012506
T05
X+003207Y+001521
X+003484Y+001521
X+003761Y+001521
X+004037Y+001521
X+004314Y+001521
X+004591Y+001521
X+004868Y+001521
X+005145Y+001521
X+005422Y+001521
X+005699Y+001521
X+005975Y+001521
X+006252Y+001521
X+006115Y+001805
X+006392Y+001805
X+005838Y+001805
X+005561Y+001805
X+005285Y+001805
X+005008Y+001805
X+004731Y+001805
X+004454Y+001805
X+004177Y+001805
X+003900Y+001805
X+003623Y+001805
X+003347Y+001805
X+003070Y+001805
T06
X+001396Y+011787
X+001396Y+011279
X+001396Y+012295
T07
X+005318Y+012492
X+005826Y+012492
X+006334Y+012492
X+006842Y+012492
T08
X+003456Y+012977
X+002252Y+012977
T09
X+005045Y+012746
X+007115Y+012746
T10
X+007083Y+001663
X+002379Y+001663
T11
X+008000Y+013500
X+006598Y+013526
X+005558Y+013526
X+001500Y+013500
X+001500Y+001500
X+008000Y+001500
T00
M30
